<?xml version="1.0" encoding="UTF-8" standalone="no"?>
<!DOCTYPE svg PUBLIC "-//W3C//DTD SVG 1.1//EN"
 "http://www.w3.org/Graphics/SVG/1.1/DTD/svg11.dtd">
<!-- Generated by graphviz version 2.30.1 (20130219.2202)
 -->
<!-- Title: Net.Protocols.HELD.HELD_ID.HELD_ID_Request Pages: 1 -->
<svg width="574pt" height="522pt"
 viewBox="0.00 0.00 574.00 522.00" xmlns="http://www.w3.org/2000/svg" xmlns:xlink="http://www.w3.org/1999/xlink">
<g id="graph0" class="graph" transform="scale(1 1) rotate(0) translate(4 518)">
<title>Net.Protocols.HELD.HELD_ID.HELD_ID_Request</title>
<!-- Node1 -->
<g id="node1" class="node"><title>Node1</title>
<polygon fill="#bfbfbf" stroke="black" points="219,-139 219,-207 347,-207 347,-139 219,-139"/>
<text text-anchor="start" x="227" y="-195" font-family="Helvetica,sans-Serif" font-size="10.00">Net.Protocols.HELD.HELD</text>
<text text-anchor="middle" x="283" y="-184" font-family="Helvetica,sans-Serif" font-size="10.00">_ID.HELD_ID_Request</text>
<polyline fill="none" stroke="black" points="219,-177 347,-177 "/>
<text text-anchor="middle" x="283" y="-165" font-family="Helvetica,sans-Serif" font-size="10.00"> </text>
<polyline fill="none" stroke="black" points="219,-158 347,-158 "/>
<text text-anchor="middle" x="283" y="-146" font-family="Helvetica,sans-Serif" font-size="10.00"> </text>
</g>
<!-- Node5 -->
<g id="node5" class="node"><title>Node5</title>
<g id="a_node5"><a xlink:href="class_net_1_1_protocols_1_1_h_e_l_d_1_1_h_e_l_d___i_d_1_1_h_e_l_d___i_d___device.html" target="_top" xlink:title="{Net.Protocols.HELD.HELD\l_ID.HELD_ID_Device\n|+ type\l+ value\l|+ __init__()\l}">
<polygon fill="none" stroke="black" points="0,-11.5 0,-90.5 128,-90.5 128,-11.5 0,-11.5"/>
<text text-anchor="start" x="8" y="-78.5" font-family="Helvetica,sans-Serif" font-size="10.00">Net.Protocols.HELD.HELD</text>
<text text-anchor="middle" x="64" y="-67.5" font-family="Helvetica,sans-Serif" font-size="10.00">_ID.HELD_ID_Device</text>
<polyline fill="none" stroke="black" points="0,-60.5 128,-60.5 "/>
<text text-anchor="start" x="8" y="-48.5" font-family="Helvetica,sans-Serif" font-size="10.00">+ type</text>
<text text-anchor="start" x="8" y="-37.5" font-family="Helvetica,sans-Serif" font-size="10.00">+ value</text>
<polyline fill="none" stroke="black" points="0,-30.5 128,-30.5 "/>
<text text-anchor="start" x="8" y="-18.5" font-family="Helvetica,sans-Serif" font-size="10.00">+ __init__()</text>
</a>
</g>
</g>
<!-- Node1&#45;&gt;Node5 -->
<g id="edge4" class="edge"><title>Node1&#45;&gt;Node5</title>
<path fill="none" stroke="midnightblue" d="M209.431,-139.423C185.896,-128.292 159.993,-115.281 137,-102 130.881,-98.4656 124.604,-94.587 118.424,-90.602"/>
<polygon fill="none" stroke="midnightblue" points="208.125,-142.677 218.665,-143.753 211.097,-136.339 208.125,-142.677"/>
</g>
<!-- Node6 -->
<g id="node6" class="node"><title>Node6</title>
<g id="a_node6"><a xlink:href="class_net_1_1_protocols_1_1_h_e_l_d_1_1_h_e_l_d___i_d_1_1_x_m_l___i_p.html" target="_top" xlink:title="{Net.Protocols.HELD.HELD\l_ID.XML_IP\n|+ IP\l+ version\l|+ __init__()\l}">
<polygon fill="none" stroke="black" points="146,-11.5 146,-90.5 274,-90.5 274,-11.5 146,-11.5"/>
<text text-anchor="start" x="154" y="-78.5" font-family="Helvetica,sans-Serif" font-size="10.00">Net.Protocols.HELD.HELD</text>
<text text-anchor="middle" x="210" y="-67.5" font-family="Helvetica,sans-Serif" font-size="10.00">_ID.XML_IP</text>
<polyline fill="none" stroke="black" points="146,-60.5 274,-60.5 "/>
<text text-anchor="start" x="154" y="-48.5" font-family="Helvetica,sans-Serif" font-size="10.00">+ IP</text>
<text text-anchor="start" x="154" y="-37.5" font-family="Helvetica,sans-Serif" font-size="10.00">+ version</text>
<polyline fill="none" stroke="black" points="146,-30.5 274,-30.5 "/>
<text text-anchor="start" x="154" y="-18.5" font-family="Helvetica,sans-Serif" font-size="10.00">+ __init__()</text>
</a>
</g>
</g>
<!-- Node1&#45;&gt;Node6 -->
<g id="edge5" class="edge"><title>Node1&#45;&gt;Node6</title>
<path fill="none" stroke="midnightblue" d="M257.571,-130.199C249.729,-117.308 241.134,-103.18 233.433,-90.5207"/>
<polygon fill="none" stroke="midnightblue" points="254.672,-132.167 262.859,-138.892 260.652,-128.529 254.672,-132.167"/>
</g>
<!-- Node7 -->
<g id="node7" class="node"><title>Node7</title>
<g id="a_node7"><a xlink:href="class_net_1_1_protocols_1_1_h_e_l_d_1_1_h_e_l_d___i_d_1_1_x_m_l___i_p___port.html" target="_top" xlink:title="{Net.Protocols.HELD.HELD\l_ID.XML_IP_Port\n|+ IP\l+ version\l+ port\l+ protocol\l|+ __init__()\l}">
<polygon fill="none" stroke="black" points="292,-0.5 292,-101.5 420,-101.5 420,-0.5 292,-0.5"/>
<text text-anchor="start" x="300" y="-89.5" font-family="Helvetica,sans-Serif" font-size="10.00">Net.Protocols.HELD.HELD</text>
<text text-anchor="middle" x="356" y="-78.5" font-family="Helvetica,sans-Serif" font-size="10.00">_ID.XML_IP_Port</text>
<polyline fill="none" stroke="black" points="292,-71.5 420,-71.5 "/>
<text text-anchor="start" x="300" y="-59.5" font-family="Helvetica,sans-Serif" font-size="10.00">+ IP</text>
<text text-anchor="start" x="300" y="-48.5" font-family="Helvetica,sans-Serif" font-size="10.00">+ version</text>
<text text-anchor="start" x="300" y="-37.5" font-family="Helvetica,sans-Serif" font-size="10.00">+ port</text>
<text text-anchor="start" x="300" y="-26.5" font-family="Helvetica,sans-Serif" font-size="10.00">+ protocol</text>
<polyline fill="none" stroke="black" points="292,-19.5 420,-19.5 "/>
<text text-anchor="start" x="300" y="-7.5" font-family="Helvetica,sans-Serif" font-size="10.00">+ __init__()</text>
</a>
</g>
</g>
<!-- Node1&#45;&gt;Node7 -->
<g id="edge6" class="edge"><title>Node1&#45;&gt;Node7</title>
<path fill="none" stroke="midnightblue" d="M308.389,-130.264C314.008,-121.027 320.016,-111.152 325.805,-101.636"/>
<polygon fill="none" stroke="midnightblue" points="305.348,-128.529 303.141,-138.892 311.328,-132.167 305.348,-128.529"/>
</g>
<!-- Node8 -->
<g id="node8" class="node"><title>Node8</title>
<g id="a_node8"><a xlink:href="class_net_1_1_protocols_1_1_h_e_l_d_1_1_h_e_l_d___i_d_1_1_x_m_l___m_a_c.html" target="_top" xlink:title="{Net.Protocols.HELD.HELD\l_ID.XML_MAC\n|+ MAC\l|+ __init__()\l}">
<polygon fill="none" stroke="black" points="438,-17 438,-85 566,-85 566,-17 438,-17"/>
<text text-anchor="start" x="446" y="-73" font-family="Helvetica,sans-Serif" font-size="10.00">Net.Protocols.HELD.HELD</text>
<text text-anchor="middle" x="502" y="-62" font-family="Helvetica,sans-Serif" font-size="10.00">_ID.XML_MAC</text>
<polyline fill="none" stroke="black" points="438,-55 566,-55 "/>
<text text-anchor="start" x="446" y="-43" font-family="Helvetica,sans-Serif" font-size="10.00">+ MAC</text>
<polyline fill="none" stroke="black" points="438,-36 566,-36 "/>
<text text-anchor="start" x="446" y="-24" font-family="Helvetica,sans-Serif" font-size="10.00">+ __init__()</text>
</a>
</g>
</g>
<!-- Node1&#45;&gt;Node8 -->
<g id="edge7" class="edge"><title>Node1&#45;&gt;Node8</title>
<path fill="none" stroke="midnightblue" d="M356.569,-139.423C380.104,-128.292 406.007,-115.281 429,-102 437.912,-96.8521 447.16,-90.9739 455.956,-85.1004"/>
<polygon fill="none" stroke="midnightblue" points="354.903,-136.339 347.335,-143.753 357.875,-142.677 354.903,-136.339"/>
</g>
<!-- Node2 -->
<g id="node2" class="node"><title>Node2</title>
<g id="a_node2"><a xlink:href="class_net_1_1_protocols_1_1base_1_1_cucumber_1_1_request.html" target="_top" xlink:title="A cucumber (python object) created for processing a request, typically made by a client.">
<polygon fill="none" stroke="black" points="211,-245 211,-313 355,-313 355,-245 211,-245"/>
<text text-anchor="start" x="219" y="-301" font-family="Helvetica,sans-Serif" font-size="10.00">Net.Protocols.base.Cucumber.</text>
<text text-anchor="middle" x="283" y="-290" font-family="Helvetica,sans-Serif" font-size="10.00">Request</text>
<polyline fill="none" stroke="black" points="211,-283 355,-283 "/>
<text text-anchor="middle" x="283" y="-271" font-family="Helvetica,sans-Serif" font-size="10.00"> </text>
<polyline fill="none" stroke="black" points="211,-264 355,-264 "/>
<text text-anchor="middle" x="283" y="-252" font-family="Helvetica,sans-Serif" font-size="10.00"> </text>
</a>
</g>
</g>
<!-- Node2&#45;&gt;Node1 -->
<g id="edge1" class="edge"><title>Node2&#45;&gt;Node1</title>
<path fill="none" stroke="midnightblue" d="M283,-234.674C283,-225.502 283,-215.961 283,-207.234"/>
<polygon fill="none" stroke="midnightblue" points="279.5,-234.808 283,-244.808 286.5,-234.808 279.5,-234.808"/>
</g>
<!-- Node3 -->
<g id="node3" class="node"><title>Node3</title>
<g id="a_node3"><a xlink:href="class_net_1_1_protocols_1_1base_1_1_cucumber_1_1_cucumber.html" target="_top" xlink:title="{Net.Protocols.base.Cucumber.\lCucumber\n||}">
<polygon fill="none" stroke="black" points="211,-351 211,-419 355,-419 355,-351 211,-351"/>
<text text-anchor="start" x="219" y="-407" font-family="Helvetica,sans-Serif" font-size="10.00">Net.Protocols.base.Cucumber.</text>
<text text-anchor="middle" x="283" y="-396" font-family="Helvetica,sans-Serif" font-size="10.00">Cucumber</text>
<polyline fill="none" stroke="black" points="211,-389 355,-389 "/>
<text text-anchor="middle" x="283" y="-377" font-family="Helvetica,sans-Serif" font-size="10.00"> </text>
<polyline fill="none" stroke="black" points="211,-370 355,-370 "/>
<text text-anchor="middle" x="283" y="-358" font-family="Helvetica,sans-Serif" font-size="10.00"> </text>
</a>
</g>
</g>
<!-- Node3&#45;&gt;Node2 -->
<g id="edge2" class="edge"><title>Node3&#45;&gt;Node2</title>
<path fill="none" stroke="midnightblue" d="M283,-340.674C283,-331.502 283,-321.961 283,-313.234"/>
<polygon fill="none" stroke="midnightblue" points="279.5,-340.808 283,-350.808 286.5,-340.808 279.5,-340.808"/>
</g>
<!-- Node4 -->
<g id="node4" class="node"><title>Node4</title>
<g id="a_node4"><a xlink:href="classobject.html" target="_top" xlink:title="{object\n||}">
<polygon fill="none" stroke="black" points="262,-456.5 262,-513.5 304,-513.5 304,-456.5 262,-456.5"/>
<text text-anchor="middle" x="283" y="-501.5" font-family="Helvetica,sans-Serif" font-size="10.00">object</text>
<polyline fill="none" stroke="black" points="262,-494.5 304,-494.5 "/>
<text text-anchor="middle" x="283" y="-482.5" font-family="Helvetica,sans-Serif" font-size="10.00"> </text>
<polyline fill="none" stroke="black" points="262,-475.5 304,-475.5 "/>
<text text-anchor="middle" x="283" y="-463.5" font-family="Helvetica,sans-Serif" font-size="10.00"> </text>
</a>
</g>
</g>
<!-- Node4&#45;&gt;Node3 -->
<g id="edge3" class="edge"><title>Node4&#45;&gt;Node3</title>
<path fill="none" stroke="midnightblue" d="M283,-446.302C283,-437.395 283,-427.961 283,-419.266"/>
<polygon fill="none" stroke="midnightblue" points="279.5,-446.441 283,-456.441 286.5,-446.441 279.5,-446.441"/>
</g>
</g>
</svg>
