<?xml version="1.0" encoding="UTF-8" standalone="no"?>
<!DOCTYPE svg PUBLIC "-//W3C//DTD SVG 1.1//EN"
 "http://www.w3.org/Graphics/SVG/1.1/DTD/svg11.dtd">
<!-- Generated by graphviz version 2.30.1 (20130219.2202)
 -->
<!-- Title: HTTPError Pages: 1 -->
<svg width="132pt" height="194pt"
 viewBox="0.00 0.00 132.00 194.00" xmlns="http://www.w3.org/2000/svg" xmlns:xlink="http://www.w3.org/1999/xlink">
<g id="graph0" class="graph" transform="scale(1 1) rotate(0) translate(4 190)">
<title>HTTPError</title>
<!-- Node1 -->
<g id="node1" class="node"><title>Node1</title>
<polygon fill="#bfbfbf" stroke="black" points="32.5,-128.5 32.5,-185.5 91.5,-185.5 91.5,-128.5 32.5,-128.5"/>
<text text-anchor="middle" x="62" y="-173.5" font-family="Helvetica,sans-Serif" font-size="10.00">HTTPError</text>
<polyline fill="none" stroke="black" points="32.5,-166.5 91.5,-166.5 "/>
<text text-anchor="middle" x="62" y="-154.5" font-family="Helvetica,sans-Serif" font-size="10.00"> </text>
<polyline fill="none" stroke="black" points="32.5,-147.5 91.5,-147.5 "/>
<text text-anchor="middle" x="62" y="-135.5" font-family="Helvetica,sans-Serif" font-size="10.00"> </text>
</g>
<!-- Node2 -->
<g id="node2" class="node"><title>Node2</title>
<g id="a_node2"><a xlink:href="class_net_1_1_protocols_1_1_h_t_t_p_1_1_h_t_t_p___error.html" target="_top" xlink:title="{Net.Protocols.HTTP.HTTP\l_Error\n||+ __init__()\l+ getResponseCode()\l+ getContentType()\l}">
<polygon fill="none" stroke="black" points="0,-1 0,-91 124,-91 124,-1 0,-1"/>
<text text-anchor="start" x="8" y="-79" font-family="Helvetica,sans-Serif" font-size="10.00">Net.Protocols.HTTP.HTTP</text>
<text text-anchor="middle" x="62" y="-68" font-family="Helvetica,sans-Serif" font-size="10.00">_Error</text>
<polyline fill="none" stroke="black" points="0,-61 124,-61 "/>
<text text-anchor="middle" x="62" y="-49" font-family="Helvetica,sans-Serif" font-size="10.00"> </text>
<polyline fill="none" stroke="black" points="0,-42 124,-42 "/>
<text text-anchor="start" x="8" y="-30" font-family="Helvetica,sans-Serif" font-size="10.00">+ __init__()</text>
<text text-anchor="start" x="8" y="-19" font-family="Helvetica,sans-Serif" font-size="10.00">+ getResponseCode()</text>
<text text-anchor="start" x="8" y="-8" font-family="Helvetica,sans-Serif" font-size="10.00">+ getContentType()</text>
</a>
</g>
</g>
<!-- Node1&#45;&gt;Node2 -->
<g id="edge1" class="edge"><title>Node1&#45;&gt;Node2</title>
<path fill="none" stroke="midnightblue" d="M62,-118.484C62,-109.643 62,-100.139 62,-91.0399"/>
<polygon fill="none" stroke="midnightblue" points="58.5001,-118.495 62,-128.495 65.5001,-118.495 58.5001,-118.495"/>
</g>
</g>
</svg>
