<?xml version="1.0" encoding="UTF-8" standalone="no"?>
<!DOCTYPE svg PUBLIC "-//W3C//DTD SVG 1.1//EN"
 "http://www.w3.org/Graphics/SVG/1.1/DTD/svg11.dtd">
<!-- Generated by graphviz version 2.30.1 (20130219.2202)
 -->
<!-- Title: Net.Protocols.base._Descriptor._Descriptor Pages: 1 -->
<svg width="242pt" height="310pt"
 viewBox="0.00 0.00 242.00 310.00" xmlns="http://www.w3.org/2000/svg" xmlns:xlink="http://www.w3.org/1999/xlink">
<g id="graph0" class="graph" transform="scale(1 1) rotate(0) translate(4 306)">
<title>Net.Protocols.base._Descriptor._Descriptor</title>
<!-- Node1 -->
<g id="node1" class="node"><title>Node1</title>
<polygon fill="#bfbfbf" stroke="black" points="46,-117 46,-207 188,-207 188,-117 46,-117"/>
<text text-anchor="start" x="54" y="-195" font-family="Helvetica,sans-Serif" font-size="10.00">Net.Protocols.base.</text>
<text text-anchor="middle" x="117" y="-184" font-family="Helvetica,sans-Serif" font-size="10.00">_Descriptor._Descriptor</text>
<polyline fill="none" stroke="black" points="46,-177 188,-177 "/>
<text text-anchor="middle" x="117" y="-165" font-family="Helvetica,sans-Serif" font-size="10.00"> </text>
<polyline fill="none" stroke="black" points="46,-158 188,-158 "/>
<text text-anchor="start" x="54" y="-146" font-family="Helvetica,sans-Serif" font-size="10.00">+ pickle_validateCucumbers()</text>
<text text-anchor="start" x="54" y="-135" font-family="Helvetica,sans-Serif" font-size="10.00">+ pickle()</text>
<text text-anchor="start" x="54" y="-124" font-family="Helvetica,sans-Serif" font-size="10.00">+ unpickle()</text>
</g>
<!-- Node3 -->
<g id="node3" class="node"><title>Node3</title>
<g id="a_node3"><a xlink:href="class_net_1_1_protocols_1_1base_1_1___descriptor_1_1_descriptor___client.html" target="_top" xlink:title="{Net.Protocols.base.\l_Descriptor.Descriptor\l_Client\n||}">
<polygon fill="none" stroke="black" points="0,-0.5 0,-79.5 108,-79.5 108,-0.5 0,-0.5"/>
<text text-anchor="start" x="8" y="-67.5" font-family="Helvetica,sans-Serif" font-size="10.00">Net.Protocols.base.</text>
<text text-anchor="start" x="8" y="-56.5" font-family="Helvetica,sans-Serif" font-size="10.00">_Descriptor.Descriptor</text>
<text text-anchor="middle" x="54" y="-45.5" font-family="Helvetica,sans-Serif" font-size="10.00">_Client</text>
<polyline fill="none" stroke="black" points="0,-38.5 108,-38.5 "/>
<text text-anchor="middle" x="54" y="-26.5" font-family="Helvetica,sans-Serif" font-size="10.00"> </text>
<polyline fill="none" stroke="black" points="0,-19.5 108,-19.5 "/>
<text text-anchor="middle" x="54" y="-7.5" font-family="Helvetica,sans-Serif" font-size="10.00"> </text>
</a>
</g>
</g>
<!-- Node1&#45;&gt;Node3 -->
<g id="edge2" class="edge"><title>Node1&#45;&gt;Node3</title>
<path fill="none" stroke="midnightblue" d="M89.184,-108.017C84.2095,-98.5419 79.1107,-88.83 74.3931,-79.844"/>
<polygon fill="none" stroke="midnightblue" points="86.1516,-109.771 93.8989,-116.998 92.3494,-106.517 86.1516,-109.771"/>
</g>
<!-- Node4 -->
<g id="node4" class="node"><title>Node4</title>
<g id="a_node4"><a xlink:href="class_net_1_1_protocols_1_1base_1_1___descriptor_1_1_descriptor___server.html" target="_top" xlink:title="{Net.Protocols.base.\l_Descriptor.Descriptor\l_Server\n||}">
<polygon fill="none" stroke="black" points="126,-0.5 126,-79.5 234,-79.5 234,-0.5 126,-0.5"/>
<text text-anchor="start" x="134" y="-67.5" font-family="Helvetica,sans-Serif" font-size="10.00">Net.Protocols.base.</text>
<text text-anchor="start" x="134" y="-56.5" font-family="Helvetica,sans-Serif" font-size="10.00">_Descriptor.Descriptor</text>
<text text-anchor="middle" x="180" y="-45.5" font-family="Helvetica,sans-Serif" font-size="10.00">_Server</text>
<polyline fill="none" stroke="black" points="126,-38.5 234,-38.5 "/>
<text text-anchor="middle" x="180" y="-26.5" font-family="Helvetica,sans-Serif" font-size="10.00"> </text>
<polyline fill="none" stroke="black" points="126,-19.5 234,-19.5 "/>
<text text-anchor="middle" x="180" y="-7.5" font-family="Helvetica,sans-Serif" font-size="10.00"> </text>
</a>
</g>
</g>
<!-- Node1&#45;&gt;Node4 -->
<g id="edge3" class="edge"><title>Node1&#45;&gt;Node4</title>
<path fill="none" stroke="midnightblue" d="M144.816,-108.017C149.79,-98.5419 154.889,-88.83 159.607,-79.844"/>
<polygon fill="none" stroke="midnightblue" points="141.651,-106.517 140.101,-116.998 147.848,-109.771 141.651,-106.517"/>
</g>
<!-- Node2 -->
<g id="node2" class="node"><title>Node2</title>
<g id="a_node2"><a xlink:href="classobject.html" target="_top" xlink:title="{object\n||}">
<polygon fill="none" stroke="black" points="96,-244.5 96,-301.5 138,-301.5 138,-244.5 96,-244.5"/>
<text text-anchor="middle" x="117" y="-289.5" font-family="Helvetica,sans-Serif" font-size="10.00">object</text>
<polyline fill="none" stroke="black" points="96,-282.5 138,-282.5 "/>
<text text-anchor="middle" x="117" y="-270.5" font-family="Helvetica,sans-Serif" font-size="10.00"> </text>
<polyline fill="none" stroke="black" points="96,-263.5 138,-263.5 "/>
<text text-anchor="middle" x="117" y="-251.5" font-family="Helvetica,sans-Serif" font-size="10.00"> </text>
</a>
</g>
</g>
<!-- Node2&#45;&gt;Node1 -->
<g id="edge1" class="edge"><title>Node2&#45;&gt;Node1</title>
<path fill="none" stroke="midnightblue" d="M117,-234.484C117,-225.643 117,-216.139 117,-207.04"/>
<polygon fill="none" stroke="midnightblue" points="113.5,-234.495 117,-244.495 120.5,-234.495 113.5,-234.495"/>
</g>
</g>
</svg>
