<?xml version="1.0" encoding="UTF-8" standalone="no"?>
<!DOCTYPE svg PUBLIC "-//W3C//DTD SVG 1.1//EN"
 "http://www.w3.org/Graphics/SVG/1.1/DTD/svg11.dtd">
<!-- Generated by graphviz version 2.30.1 (20130219.2202)
 -->
<!-- Title: Net.Protocols.base._Descriptor.Descriptor_Client Pages: 1 -->
<svg width="150pt" height="310pt"
 viewBox="0.00 0.00 150.00 310.00" xmlns="http://www.w3.org/2000/svg" xmlns:xlink="http://www.w3.org/1999/xlink">
<g id="graph0" class="graph" transform="scale(1 1) rotate(0) translate(4 306)">
<title>Net.Protocols.base._Descriptor.Descriptor_Client</title>
<!-- Node1 -->
<g id="node1" class="node"><title>Node1</title>
<polygon fill="#bfbfbf" stroke="black" points="17,-0.5 17,-79.5 125,-79.5 125,-0.5 17,-0.5"/>
<text text-anchor="start" x="25" y="-67.5" font-family="Helvetica,sans-Serif" font-size="10.00">Net.Protocols.base.</text>
<text text-anchor="start" x="25" y="-56.5" font-family="Helvetica,sans-Serif" font-size="10.00">_Descriptor.Descriptor</text>
<text text-anchor="middle" x="71" y="-45.5" font-family="Helvetica,sans-Serif" font-size="10.00">_Client</text>
<polyline fill="none" stroke="black" points="17,-38.5 125,-38.5 "/>
<text text-anchor="middle" x="71" y="-26.5" font-family="Helvetica,sans-Serif" font-size="10.00"> </text>
<polyline fill="none" stroke="black" points="17,-19.5 125,-19.5 "/>
<text text-anchor="middle" x="71" y="-7.5" font-family="Helvetica,sans-Serif" font-size="10.00"> </text>
</g>
<!-- Node2 -->
<g id="node2" class="node"><title>Node2</title>
<g id="a_node2"><a xlink:href="class_net_1_1_protocols_1_1base_1_1___descriptor_1_1___descriptor.html" target="_top" xlink:title="{Net.Protocols.base.\l_Descriptor._Descriptor\n||+ pickle_validateCucumbers()\l+ pickle()\l+ unpickle()\l}">
<polygon fill="none" stroke="black" points="0,-117 0,-207 142,-207 142,-117 0,-117"/>
<text text-anchor="start" x="8" y="-195" font-family="Helvetica,sans-Serif" font-size="10.00">Net.Protocols.base.</text>
<text text-anchor="middle" x="71" y="-184" font-family="Helvetica,sans-Serif" font-size="10.00">_Descriptor._Descriptor</text>
<polyline fill="none" stroke="black" points="0,-177 142,-177 "/>
<text text-anchor="middle" x="71" y="-165" font-family="Helvetica,sans-Serif" font-size="10.00"> </text>
<polyline fill="none" stroke="black" points="0,-158 142,-158 "/>
<text text-anchor="start" x="8" y="-146" font-family="Helvetica,sans-Serif" font-size="10.00">+ pickle_validateCucumbers()</text>
<text text-anchor="start" x="8" y="-135" font-family="Helvetica,sans-Serif" font-size="10.00">+ pickle()</text>
<text text-anchor="start" x="8" y="-124" font-family="Helvetica,sans-Serif" font-size="10.00">+ unpickle()</text>
</a>
</g>
</g>
<!-- Node2&#45;&gt;Node1 -->
<g id="edge1" class="edge"><title>Node2&#45;&gt;Node1</title>
<path fill="none" stroke="midnightblue" d="M71,-106.844C71,-97.7422 71,-88.4594 71,-79.844"/>
<polygon fill="none" stroke="midnightblue" points="67.5001,-106.998 71,-116.998 74.5001,-106.998 67.5001,-106.998"/>
</g>
<!-- Node3 -->
<g id="node3" class="node"><title>Node3</title>
<g id="a_node3"><a xlink:href="classobject.html" target="_top" xlink:title="{object\n||}">
<polygon fill="none" stroke="black" points="50,-244.5 50,-301.5 92,-301.5 92,-244.5 50,-244.5"/>
<text text-anchor="middle" x="71" y="-289.5" font-family="Helvetica,sans-Serif" font-size="10.00">object</text>
<polyline fill="none" stroke="black" points="50,-282.5 92,-282.5 "/>
<text text-anchor="middle" x="71" y="-270.5" font-family="Helvetica,sans-Serif" font-size="10.00"> </text>
<polyline fill="none" stroke="black" points="50,-263.5 92,-263.5 "/>
<text text-anchor="middle" x="71" y="-251.5" font-family="Helvetica,sans-Serif" font-size="10.00"> </text>
</a>
</g>
</g>
<!-- Node3&#45;&gt;Node2 -->
<g id="edge2" class="edge"><title>Node3&#45;&gt;Node2</title>
<path fill="none" stroke="midnightblue" d="M71,-234.484C71,-225.643 71,-216.139 71,-207.04"/>
<polygon fill="none" stroke="midnightblue" points="67.5001,-234.495 71,-244.495 74.5001,-234.495 67.5001,-234.495"/>
</g>
</g>
</svg>
