<?xml version="1.0" encoding="UTF-8" standalone="no"?>
<!DOCTYPE svg PUBLIC "-//W3C//DTD SVG 1.1//EN"
 "http://www.w3.org/Graphics/SVG/1.1/DTD/svg11.dtd">
<!-- Generated by graphviz version 2.30.1 (20130219.2202)
 -->
<!-- Title: Descriptor_Server Pages: 1 -->
<svg width="296pt" height="216pt"
 viewBox="0.00 0.00 296.00 216.00" xmlns="http://www.w3.org/2000/svg" xmlns:xlink="http://www.w3.org/1999/xlink">
<g id="graph0" class="graph" transform="scale(1 1) rotate(0) translate(4 212)">
<title>Descriptor_Server</title>
<!-- Node1 -->
<g id="node1" class="node"><title>Node1</title>
<polygon fill="#bfbfbf" stroke="black" points="101.5,-150.5 101.5,-207.5 192.5,-207.5 192.5,-150.5 101.5,-150.5"/>
<text text-anchor="middle" x="147" y="-195.5" font-family="Helvetica,sans-Serif" font-size="10.00">Descriptor_Server</text>
<polyline fill="none" stroke="black" points="101.5,-188.5 192.5,-188.5 "/>
<text text-anchor="middle" x="147" y="-176.5" font-family="Helvetica,sans-Serif" font-size="10.00"> </text>
<polyline fill="none" stroke="black" points="101.5,-169.5 192.5,-169.5 "/>
<text text-anchor="middle" x="147" y="-157.5" font-family="Helvetica,sans-Serif" font-size="10.00"> </text>
</g>
<!-- Node2 -->
<g id="node2" class="node"><title>Node2</title>
<g id="a_node2"><a xlink:href="class_net_1_1_protocols_1_1_h_e_l_d_1_1_h_e_l_d_1_1_h_e_l_d___descriptor___server.html" target="_top" xlink:title="Implementation of the HELD protocol in python.">
<polygon fill="none" stroke="black" points="0,-1 0,-113 142,-113 142,-1 0,-1"/>
<text text-anchor="start" x="8" y="-101" font-family="Helvetica,sans-Serif" font-size="10.00">Net.Protocols.HELD.HELD.</text>
<text text-anchor="middle" x="71" y="-90" font-family="Helvetica,sans-Serif" font-size="10.00">HELD_Descriptor_Server</text>
<polyline fill="none" stroke="black" points="0,-83 142,-83 "/>
<text text-anchor="middle" x="71" y="-71" font-family="Helvetica,sans-Serif" font-size="10.00"> </text>
<polyline fill="none" stroke="black" points="0,-64 142,-64 "/>
<text text-anchor="start" x="8" y="-52" font-family="Helvetica,sans-Serif" font-size="10.00">+ __init__()</text>
<text text-anchor="start" x="8" y="-41" font-family="Helvetica,sans-Serif" font-size="10.00">+ getMIMEtype()</text>
<text text-anchor="start" x="8" y="-30" font-family="Helvetica,sans-Serif" font-size="10.00">+ pickle_validateCucumbers()</text>
<text text-anchor="start" x="8" y="-19" font-family="Helvetica,sans-Serif" font-size="10.00">+ pickle_XML()</text>
<text text-anchor="start" x="8" y="-8" font-family="Helvetica,sans-Serif" font-size="10.00">+ unpickle_XML()</text>
</a>
</g>
</g>
<!-- Node1&#45;&gt;Node2 -->
<g id="edge1" class="edge"><title>Node1&#45;&gt;Node2</title>
<path fill="none" stroke="midnightblue" d="M124.078,-141.808C118.389,-132.825 112.162,-122.993 106.039,-113.324"/>
<polygon fill="none" stroke="midnightblue" points="121.257,-143.894 129.564,-150.47 127.17,-140.149 121.257,-143.894"/>
</g>
<!-- Node3 -->
<g id="node3" class="node"><title>Node3</title>
<g id="a_node3"><a xlink:href="class_net_1_1_protocols_1_1_h_e_l_d_1_1_h_e_l_d___i_d_1_1_h_e_l_d___i_d___descriptor___server.html" target="_top" xlink:title="responseTime attribute described in the RFC is ignored.">
<polygon fill="none" stroke="black" points="160,-6.5 160,-107.5 288,-107.5 288,-6.5 160,-6.5"/>
<text text-anchor="start" x="168" y="-95.5" font-family="Helvetica,sans-Serif" font-size="10.00">Net.Protocols.HELD.HELD</text>
<text text-anchor="start" x="168" y="-84.5" font-family="Helvetica,sans-Serif" font-size="10.00">_ID.HELD_ID_Descriptor</text>
<text text-anchor="middle" x="224" y="-73.5" font-family="Helvetica,sans-Serif" font-size="10.00">_Server</text>
<polyline fill="none" stroke="black" points="160,-66.5 288,-66.5 "/>
<text text-anchor="middle" x="224" y="-54.5" font-family="Helvetica,sans-Serif" font-size="10.00"> </text>
<polyline fill="none" stroke="black" points="160,-47.5 288,-47.5 "/>
<text text-anchor="start" x="168" y="-35.5" font-family="Helvetica,sans-Serif" font-size="10.00">+ __init__()</text>
<text text-anchor="start" x="168" y="-24.5" font-family="Helvetica,sans-Serif" font-size="10.00">+ pickle()</text>
<text text-anchor="start" x="168" y="-13.5" font-family="Helvetica,sans-Serif" font-size="10.00">+ unpickle_XML()</text>
</a>
</g>
</g>
<!-- Node1&#45;&gt;Node3 -->
<g id="edge2" class="edge"><title>Node1&#45;&gt;Node3</title>
<path fill="none" stroke="midnightblue" d="M170.259,-141.752C177.167,-130.987 184.854,-119.006 192.205,-107.55"/>
<polygon fill="none" stroke="midnightblue" points="167.12,-140.163 164.665,-150.47 173.012,-143.943 167.12,-140.163"/>
</g>
</g>
</svg>
