<?xml version="1.0" encoding="UTF-8" standalone="no"?>
<!DOCTYPE svg PUBLIC "-//W3C//DTD SVG 1.1//EN"
 "http://www.w3.org/Graphics/SVG/1.1/DTD/svg11.dtd">
<!-- Generated by graphviz version 2.30.1 (20130219.2202)
 -->
<!-- Title: Net.Protocols.HELD.Errors.HELD_Error_Request Pages: 1 -->
<svg width="450pt" height="618pt"
 viewBox="0.00 0.00 450.00 618.00" xmlns="http://www.w3.org/2000/svg" xmlns:xlink="http://www.w3.org/1999/xlink">
<g id="graph0" class="graph" transform="scale(1 1) rotate(0) translate(4 614)">
<title>Net.Protocols.HELD.Errors.HELD_Error_Request</title>
<!-- Node1 -->
<g id="node1" class="node"><title>Node1</title>
<polygon fill="#bfbfbf" stroke="black" points="156,-107 156,-175 284,-175 284,-107 156,-107"/>
<text text-anchor="start" x="164" y="-163" font-family="Helvetica,sans-Serif" font-size="10.00">Net.Protocols.HELD.Errors.</text>
<text text-anchor="middle" x="220" y="-152" font-family="Helvetica,sans-Serif" font-size="10.00">HELD_Error_Request</text>
<polyline fill="none" stroke="black" points="156,-145 284,-145 "/>
<text text-anchor="middle" x="220" y="-133" font-family="Helvetica,sans-Serif" font-size="10.00"> </text>
<polyline fill="none" stroke="black" points="156,-126 284,-126 "/>
<text text-anchor="start" x="164" y="-114" font-family="Helvetica,sans-Serif" font-size="10.00">+ __init__()</text>
</g>
<!-- Node10 -->
<g id="node10" class="node"><title>Node10</title>
<g id="a_node10"><a xlink:href="class_net_1_1_protocols_1_1_h_e_l_d_1_1_errors_1_1_request_error.html" target="_top" xlink:title="Indicates that the request was badly formed in some fashion (other than the XML content).">
<polygon fill="none" stroke="black" points="0,-1 0,-69 138,-69 138,-1 0,-1"/>
<text text-anchor="start" x="8" y="-57" font-family="Helvetica,sans-Serif" font-size="10.00">Net.Protocols.HELD.Errors.</text>
<text text-anchor="middle" x="69" y="-46" font-family="Helvetica,sans-Serif" font-size="10.00">RequestError</text>
<polyline fill="none" stroke="black" points="0,-39 138,-39 "/>
<text text-anchor="start" x="8" y="-27" font-family="Helvetica,sans-Serif" font-size="10.00">+ unrecognizedLocationType</text>
<polyline fill="none" stroke="black" points="0,-20 138,-20 "/>
<text text-anchor="start" x="8" y="-8" font-family="Helvetica,sans-Serif" font-size="10.00">+ __init__()</text>
</a>
</g>
</g>
<!-- Node1&#45;&gt;Node10 -->
<g id="edge10" class="edge"><title>Node1&#45;&gt;Node10</title>
<path fill="none" stroke="midnightblue" d="M163.446,-101.049C148.158,-90.5195 131.763,-79.2273 116.994,-69.0553"/>
<polygon fill="none" stroke="midnightblue" points="161.587,-104.018 171.807,-106.808 165.557,-98.2531 161.587,-104.018"/>
</g>
<!-- Node11 -->
<g id="node11" class="node"><title>Node11</title>
<g id="a_node11"><a xlink:href="class_net_1_1_protocols_1_1_h_e_l_d_1_1_errors_1_1_unsupported_message.html" target="_top" xlink:title="Indicates that an element in the XML document for the request was not supported or understood...">
<polygon fill="none" stroke="black" points="156,-1 156,-69 284,-69 284,-1 156,-1"/>
<text text-anchor="start" x="164" y="-57" font-family="Helvetica,sans-Serif" font-size="10.00">Net.Protocols.HELD.Errors.</text>
<text text-anchor="middle" x="220" y="-46" font-family="Helvetica,sans-Serif" font-size="10.00">UnsupportedMessage</text>
<polyline fill="none" stroke="black" points="156,-39 284,-39 "/>
<text text-anchor="middle" x="220" y="-27" font-family="Helvetica,sans-Serif" font-size="10.00"> </text>
<polyline fill="none" stroke="black" points="156,-20 284,-20 "/>
<text text-anchor="start" x="164" y="-8" font-family="Helvetica,sans-Serif" font-size="10.00">+ __init__()</text>
</a>
</g>
</g>
<!-- Node1&#45;&gt;Node11 -->
<g id="edge11" class="edge"><title>Node1&#45;&gt;Node11</title>
<path fill="none" stroke="midnightblue" d="M220,-96.6737C220,-87.5025 220,-77.9608 220,-69.2336"/>
<polygon fill="none" stroke="midnightblue" points="216.5,-96.8078 220,-106.808 223.5,-96.8078 216.5,-96.8078"/>
</g>
<!-- Node12 -->
<g id="node12" class="node"><title>Node12</title>
<g id="a_node12"><a xlink:href="class_net_1_1_protocols_1_1_h_e_l_d_1_1_errors_1_1_x_m_l___error.html" target="_top" xlink:title="Indicates that the XML content of the request was either badly formed or invalid.">
<polygon fill="none" stroke="black" points="302,-1 302,-69 430,-69 430,-1 302,-1"/>
<text text-anchor="start" x="310" y="-57" font-family="Helvetica,sans-Serif" font-size="10.00">Net.Protocols.HELD.Errors.</text>
<text text-anchor="middle" x="366" y="-46" font-family="Helvetica,sans-Serif" font-size="10.00">XML_Error</text>
<polyline fill="none" stroke="black" points="302,-39 430,-39 "/>
<text text-anchor="middle" x="366" y="-27" font-family="Helvetica,sans-Serif" font-size="10.00"> </text>
<polyline fill="none" stroke="black" points="302,-20 430,-20 "/>
<text text-anchor="start" x="310" y="-8" font-family="Helvetica,sans-Serif" font-size="10.00">+ __init__()</text>
</a>
</g>
</g>
<!-- Node1&#45;&gt;Node12 -->
<g id="edge12" class="edge"><title>Node1&#45;&gt;Node12</title>
<path fill="none" stroke="midnightblue" d="M275.092,-100.756C289.756,-90.3105 305.448,-79.1331 319.595,-69.0553"/>
<polygon fill="none" stroke="midnightblue" points="272.711,-98.1552 266.597,-106.808 276.772,-103.857 272.711,-98.1552"/>
</g>
<!-- Node2 -->
<g id="node2" class="node"><title>Node2</title>
<g id="a_node2"><a xlink:href="class_net_1_1_protocols_1_1_h_e_l_d_1_1_cucumbers_1_1_request.html" target="_top" xlink:title="{Net.Protocols.HELD.Cucumbers.\lRequest\n|+ locationTypes\l+ locationTypes_areExact\l|+ __init__()\l}">
<polygon fill="none" stroke="black" points="223.5,-218.5 223.5,-297.5 376.5,-297.5 376.5,-218.5 223.5,-218.5"/>
<text text-anchor="start" x="231.5" y="-285.5" font-family="Helvetica,sans-Serif" font-size="10.00">Net.Protocols.HELD.Cucumbers.</text>
<text text-anchor="middle" x="300" y="-274.5" font-family="Helvetica,sans-Serif" font-size="10.00">Request</text>
<polyline fill="none" stroke="black" points="223.5,-267.5 376.5,-267.5 "/>
<text text-anchor="start" x="231.5" y="-255.5" font-family="Helvetica,sans-Serif" font-size="10.00">+ locationTypes</text>
<text text-anchor="start" x="231.5" y="-244.5" font-family="Helvetica,sans-Serif" font-size="10.00">+ locationTypes_areExact</text>
<polyline fill="none" stroke="black" points="223.5,-237.5 376.5,-237.5 "/>
<text text-anchor="start" x="231.5" y="-225.5" font-family="Helvetica,sans-Serif" font-size="10.00">+ __init__()</text>
</a>
</g>
</g>
<!-- Node2&#45;&gt;Node1 -->
<g id="edge1" class="edge"><title>Node2&#45;&gt;Node1</title>
<path fill="none" stroke="midnightblue" d="M267.334,-210.042C259.233,-198.398 250.718,-186.156 243.177,-175.317"/>
<polygon fill="none" stroke="midnightblue" points="264.555,-212.176 273.139,-218.387 270.301,-208.179 264.555,-212.176"/>
</g>
<!-- Node3 -->
<g id="node3" class="node"><title>Node3</title>
<g id="a_node3"><a xlink:href="class_net_1_1_protocols_1_1_h_e_l_d_1_1_cucumbers_1_1_h_e_l_d___cucumber.html" target="_top" xlink:title="{Net.Protocols.HELD.Cucumbers.\lHELD_Cucumber\n||}">
<polygon fill="none" stroke="black" points="126.5,-341 126.5,-409 279.5,-409 279.5,-341 126.5,-341"/>
<text text-anchor="start" x="134.5" y="-397" font-family="Helvetica,sans-Serif" font-size="10.00">Net.Protocols.HELD.Cucumbers.</text>
<text text-anchor="middle" x="203" y="-386" font-family="Helvetica,sans-Serif" font-size="10.00">HELD_Cucumber</text>
<polyline fill="none" stroke="black" points="126.5,-379 279.5,-379 "/>
<text text-anchor="middle" x="203" y="-367" font-family="Helvetica,sans-Serif" font-size="10.00"> </text>
<polyline fill="none" stroke="black" points="126.5,-360 279.5,-360 "/>
<text text-anchor="middle" x="203" y="-348" font-family="Helvetica,sans-Serif" font-size="10.00"> </text>
</a>
</g>
</g>
<!-- Node3&#45;&gt;Node2 -->
<g id="edge2" class="edge"><title>Node3&#45;&gt;Node2</title>
<path fill="none" stroke="midnightblue" d="M237.584,-332.998C247.229,-321.564 257.675,-309.179 267.213,-297.871"/>
<polygon fill="none" stroke="midnightblue" points="234.829,-330.837 231.056,-340.737 240.179,-335.35 234.829,-330.837"/>
</g>
<!-- Node8 -->
<g id="node8" class="node"><title>Node8</title>
<g id="a_node8"><a xlink:href="class_net_1_1_protocols_1_1_h_e_l_d_1_1_errors_1_1_h_e_l_d___error.html" target="_top" xlink:title="Corresponds to an RFC 5985 general error when the location request cannot be fulfilled.">
<polygon fill="none" stroke="black" points="77,-213 77,-303 205,-303 205,-213 77,-213"/>
<text text-anchor="start" x="85" y="-291" font-family="Helvetica,sans-Serif" font-size="10.00">Net.Protocols.HELD.Errors.</text>
<text text-anchor="middle" x="141" y="-280" font-family="Helvetica,sans-Serif" font-size="10.00">HELD_Error</text>
<polyline fill="none" stroke="black" points="77,-273 205,-273 "/>
<text text-anchor="start" x="85" y="-261" font-family="Helvetica,sans-Serif" font-size="10.00">+ code</text>
<polyline fill="none" stroke="black" points="77,-254 205,-254 "/>
<text text-anchor="start" x="85" y="-242" font-family="Helvetica,sans-Serif" font-size="10.00">+ __init__()</text>
<text text-anchor="start" x="85" y="-231" font-family="Helvetica,sans-Serif" font-size="10.00">+ __str__()</text>
<text text-anchor="start" x="85" y="-220" font-family="Helvetica,sans-Serif" font-size="10.00">+ pickle_XML()</text>
</a>
</g>
</g>
<!-- Node3&#45;&gt;Node8 -->
<g id="edge8" class="edge"><title>Node3&#45;&gt;Node8</title>
<path fill="none" stroke="midnightblue" d="M180.202,-331.714C175.215,-322.463 169.922,-312.646 164.893,-303.318"/>
<polygon fill="none" stroke="midnightblue" points="177.241,-333.596 185.067,-340.737 183.402,-330.274 177.241,-333.596"/>
</g>
<!-- Node4 -->
<g id="node4" class="node"><title>Node4</title>
<g id="a_node4"><a xlink:href="classbase_1_1_cucumber.html" target="_top" xlink:title="{base::Cucumber\n||}">
<polygon fill="none" stroke="black" points="159.5,-452.5 159.5,-509.5 246.5,-509.5 246.5,-452.5 159.5,-452.5"/>
<text text-anchor="middle" x="203" y="-497.5" font-family="Helvetica,sans-Serif" font-size="10.00">base::Cucumber</text>
<polyline fill="none" stroke="black" points="159.5,-490.5 246.5,-490.5 "/>
<text text-anchor="middle" x="203" y="-478.5" font-family="Helvetica,sans-Serif" font-size="10.00"> </text>
<polyline fill="none" stroke="black" points="159.5,-471.5 246.5,-471.5 "/>
<text text-anchor="middle" x="203" y="-459.5" font-family="Helvetica,sans-Serif" font-size="10.00"> </text>
</a>
</g>
</g>
<!-- Node4&#45;&gt;Node3 -->
<g id="edge3" class="edge"><title>Node4&#45;&gt;Node3</title>
<path fill="none" stroke="midnightblue" d="M203,-442.372C203,-431.55 203,-419.828 203,-409.288"/>
<polygon fill="none" stroke="midnightblue" points="199.5,-442.403 203,-452.403 206.5,-442.403 199.5,-442.403"/>
</g>
<!-- Node5 -->
<g id="node5" class="node"><title>Node5</title>
<g id="a_node5"><a xlink:href="class_net_1_1_protocols_1_1base_1_1_cucumber_1_1_request.html" target="_top" xlink:title="A cucumber (python object) created for processing a request, typically made by a client.">
<polygon fill="none" stroke="black" points="298,-341 298,-409 442,-409 442,-341 298,-341"/>
<text text-anchor="start" x="306" y="-397" font-family="Helvetica,sans-Serif" font-size="10.00">Net.Protocols.base.Cucumber.</text>
<text text-anchor="middle" x="370" y="-386" font-family="Helvetica,sans-Serif" font-size="10.00">Request</text>
<polyline fill="none" stroke="black" points="298,-379 442,-379 "/>
<text text-anchor="middle" x="370" y="-367" font-family="Helvetica,sans-Serif" font-size="10.00"> </text>
<polyline fill="none" stroke="black" points="298,-360 442,-360 "/>
<text text-anchor="middle" x="370" y="-348" font-family="Helvetica,sans-Serif" font-size="10.00"> </text>
</a>
</g>
</g>
<!-- Node5&#45;&gt;Node2 -->
<g id="edge4" class="edge"><title>Node5&#45;&gt;Node2</title>
<path fill="none" stroke="midnightblue" d="M344.439,-332.006C337.648,-320.85 330.345,-308.852 323.661,-297.871"/>
<polygon fill="none" stroke="midnightblue" points="341.564,-334.015 349.753,-340.737 347.543,-330.375 341.564,-334.015"/>
</g>
<!-- Node6 -->
<g id="node6" class="node"><title>Node6</title>
<g id="a_node6"><a xlink:href="class_net_1_1_protocols_1_1base_1_1_cucumber_1_1_cucumber.html" target="_top" xlink:title="{Net.Protocols.base.Cucumber.\lCucumber\n||}">
<polygon fill="none" stroke="black" points="298,-447 298,-515 442,-515 442,-447 298,-447"/>
<text text-anchor="start" x="306" y="-503" font-family="Helvetica,sans-Serif" font-size="10.00">Net.Protocols.base.Cucumber.</text>
<text text-anchor="middle" x="370" y="-492" font-family="Helvetica,sans-Serif" font-size="10.00">Cucumber</text>
<polyline fill="none" stroke="black" points="298,-485 442,-485 "/>
<text text-anchor="middle" x="370" y="-473" font-family="Helvetica,sans-Serif" font-size="10.00"> </text>
<polyline fill="none" stroke="black" points="298,-466 442,-466 "/>
<text text-anchor="middle" x="370" y="-454" font-family="Helvetica,sans-Serif" font-size="10.00"> </text>
</a>
</g>
</g>
<!-- Node6&#45;&gt;Node5 -->
<g id="edge5" class="edge"><title>Node6&#45;&gt;Node5</title>
<path fill="none" stroke="midnightblue" d="M370,-436.674C370,-427.502 370,-417.961 370,-409.234"/>
<polygon fill="none" stroke="midnightblue" points="366.5,-436.808 370,-446.808 373.5,-436.808 366.5,-436.808"/>
</g>
<!-- Node7 -->
<g id="node7" class="node"><title>Node7</title>
<g id="a_node7"><a xlink:href="classobject.html" target="_top" xlink:title="{object\n||}">
<polygon fill="none" stroke="black" points="349,-552.5 349,-609.5 391,-609.5 391,-552.5 349,-552.5"/>
<text text-anchor="middle" x="370" y="-597.5" font-family="Helvetica,sans-Serif" font-size="10.00">object</text>
<polyline fill="none" stroke="black" points="349,-590.5 391,-590.5 "/>
<text text-anchor="middle" x="370" y="-578.5" font-family="Helvetica,sans-Serif" font-size="10.00"> </text>
<polyline fill="none" stroke="black" points="349,-571.5 391,-571.5 "/>
<text text-anchor="middle" x="370" y="-559.5" font-family="Helvetica,sans-Serif" font-size="10.00"> </text>
</a>
</g>
</g>
<!-- Node7&#45;&gt;Node6 -->
<g id="edge6" class="edge"><title>Node7&#45;&gt;Node6</title>
<path fill="none" stroke="midnightblue" d="M370,-542.302C370,-533.395 370,-523.961 370,-515.266"/>
<polygon fill="none" stroke="midnightblue" points="366.5,-542.441 370,-552.441 373.5,-542.441 366.5,-542.441"/>
</g>
<!-- Node8&#45;&gt;Node1 -->
<g id="edge7" class="edge"><title>Node8&#45;&gt;Node1</title>
<path fill="none" stroke="midnightblue" d="M177.042,-204.534C183.917,-194.526 190.934,-184.312 197.249,-175.118"/>
<polygon fill="none" stroke="midnightblue" points="174.095,-202.643 171.318,-212.867 179.865,-206.606 174.095,-202.643"/>
</g>
<!-- Node9 -->
<g id="node9" class="node"><title>Node9</title>
<g id="a_node9"><a xlink:href="class_exception.html" target="_top" xlink:title="{Exception\n||}">
<polygon fill="none" stroke="black" points="49.5,-346.5 49.5,-403.5 108.5,-403.5 108.5,-346.5 49.5,-346.5"/>
<text text-anchor="middle" x="79" y="-391.5" font-family="Helvetica,sans-Serif" font-size="10.00">Exception</text>
<polyline fill="none" stroke="black" points="49.5,-384.5 108.5,-384.5 "/>
<text text-anchor="middle" x="79" y="-372.5" font-family="Helvetica,sans-Serif" font-size="10.00"> </text>
<polyline fill="none" stroke="black" points="49.5,-365.5 108.5,-365.5 "/>
<text text-anchor="middle" x="79" y="-353.5" font-family="Helvetica,sans-Serif" font-size="10.00"> </text>
</a>
</g>
</g>
<!-- Node9&#45;&gt;Node8 -->
<g id="edge9" class="edge"><title>Node9&#45;&gt;Node8</title>
<path fill="none" stroke="midnightblue" d="M98.6048,-337.636C104.468,-326.761 110.963,-314.713 117.071,-303.384"/>
<polygon fill="none" stroke="midnightblue" points="95.5154,-335.991 93.8505,-346.455 101.677,-339.313 95.5154,-335.991"/>
</g>
</g>
</svg>
