<?xml version="1.0" encoding="UTF-8" standalone="no"?>
<!DOCTYPE svg PUBLIC "-//W3C//DTD SVG 1.1//EN"
 "http://www.w3.org/Graphics/SVG/1.1/DTD/svg11.dtd">
<!-- Generated by graphviz version 2.30.1 (20130219.2202)
 -->
<!-- Title: Net.Protocols.HELD.HELD_ID.HELD_ID_Error Pages: 1 -->
<svg width="229pt" height="512pt"
 viewBox="0.00 0.00 229.00 512.00" xmlns="http://www.w3.org/2000/svg" xmlns:xlink="http://www.w3.org/1999/xlink">
<g id="graph0" class="graph" transform="scale(1 1) rotate(0) translate(4 508)">
<title>Net.Protocols.HELD.HELD_ID.HELD_ID_Error</title>
<!-- Node1 -->
<g id="node1" class="node"><title>Node1</title>
<polygon fill="#bfbfbf" stroke="black" points="68,-107 68,-197 196,-197 196,-107 68,-107"/>
<text text-anchor="start" x="76" y="-185" font-family="Helvetica,sans-Serif" font-size="10.00">Net.Protocols.HELD.HELD</text>
<text text-anchor="middle" x="132" y="-174" font-family="Helvetica,sans-Serif" font-size="10.00">_ID.HELD_ID_Error</text>
<polyline fill="none" stroke="black" points="68,-167 196,-167 "/>
<text text-anchor="start" x="76" y="-155" font-family="Helvetica,sans-Serif" font-size="10.00">+ name</text>
<text text-anchor="start" x="76" y="-144" font-family="Helvetica,sans-Serif" font-size="10.00">+ code</text>
<polyline fill="none" stroke="black" points="68,-137 196,-137 "/>
<text text-anchor="start" x="76" y="-125" font-family="Helvetica,sans-Serif" font-size="10.00">+ __init__()</text>
<text text-anchor="start" x="76" y="-114" font-family="Helvetica,sans-Serif" font-size="10.00">+ __str__()</text>
</g>
<!-- Node6 -->
<g id="node6" class="node"><title>Node6</title>
<g id="a_node6"><a xlink:href="class_net_1_1_protocols_1_1_h_e_l_d_1_1_h_e_l_d___i_d_1_1_bad_identifier.html" target="_top" xlink:title="Indicates that a Device identifier used in the HELD request is not supported, badly formatted...">
<polygon fill="none" stroke="black" points="68,-1 68,-69 196,-69 196,-1 68,-1"/>
<text text-anchor="start" x="76" y="-57" font-family="Helvetica,sans-Serif" font-size="10.00">Net.Protocols.HELD.HELD</text>
<text text-anchor="middle" x="132" y="-46" font-family="Helvetica,sans-Serif" font-size="10.00">_ID.BadIdentifier</text>
<polyline fill="none" stroke="black" points="68,-39 196,-39 "/>
<text text-anchor="middle" x="132" y="-27" font-family="Helvetica,sans-Serif" font-size="10.00"> </text>
<polyline fill="none" stroke="black" points="68,-20 196,-20 "/>
<text text-anchor="start" x="76" y="-8" font-family="Helvetica,sans-Serif" font-size="10.00">+ __init__()</text>
</a>
</g>
</g>
<!-- Node1&#45;&gt;Node6 -->
<g id="edge5" class="edge"><title>Node1&#45;&gt;Node6</title>
<path fill="none" stroke="midnightblue" d="M132,-96.7309C132,-87.3035 132,-77.7599 132,-69.1181"/>
<polygon fill="none" stroke="midnightblue" points="128.5,-96.8669 132,-106.867 135.5,-96.8669 128.5,-96.8669"/>
</g>
<!-- Node2 -->
<g id="node2" class="node"><title>Node2</title>
<g id="a_node2"><a xlink:href="class_net_1_1_protocols_1_1base_1_1_cucumber_1_1_response.html" target="_top" xlink:title="A cucumber (python object) created for sending a response, typically made by the server.">
<polygon fill="none" stroke="black" points="0,-235 0,-303 144,-303 144,-235 0,-235"/>
<text text-anchor="start" x="8" y="-291" font-family="Helvetica,sans-Serif" font-size="10.00">Net.Protocols.base.Cucumber.</text>
<text text-anchor="middle" x="72" y="-280" font-family="Helvetica,sans-Serif" font-size="10.00">Response</text>
<polyline fill="none" stroke="black" points="0,-273 144,-273 "/>
<text text-anchor="middle" x="72" y="-261" font-family="Helvetica,sans-Serif" font-size="10.00"> </text>
<polyline fill="none" stroke="black" points="0,-254 144,-254 "/>
<text text-anchor="middle" x="72" y="-242" font-family="Helvetica,sans-Serif" font-size="10.00"> </text>
</a>
</g>
</g>
<!-- Node2&#45;&gt;Node1 -->
<g id="edge1" class="edge"><title>Node2&#45;&gt;Node1</title>
<path fill="none" stroke="midnightblue" d="M94.0622,-225.714C98.8888,-216.463 104.011,-206.646 108.878,-197.318"/>
<polygon fill="none" stroke="midnightblue" points="90.8771,-224.252 89.3545,-234.737 97.0832,-227.49 90.8771,-224.252"/>
</g>
<!-- Node3 -->
<g id="node3" class="node"><title>Node3</title>
<g id="a_node3"><a xlink:href="class_net_1_1_protocols_1_1base_1_1_cucumber_1_1_cucumber.html" target="_top" xlink:title="{Net.Protocols.base.Cucumber.\lCucumber\n||}">
<polygon fill="none" stroke="black" points="0,-341 0,-409 144,-409 144,-341 0,-341"/>
<text text-anchor="start" x="8" y="-397" font-family="Helvetica,sans-Serif" font-size="10.00">Net.Protocols.base.Cucumber.</text>
<text text-anchor="middle" x="72" y="-386" font-family="Helvetica,sans-Serif" font-size="10.00">Cucumber</text>
<polyline fill="none" stroke="black" points="0,-379 144,-379 "/>
<text text-anchor="middle" x="72" y="-367" font-family="Helvetica,sans-Serif" font-size="10.00"> </text>
<polyline fill="none" stroke="black" points="0,-360 144,-360 "/>
<text text-anchor="middle" x="72" y="-348" font-family="Helvetica,sans-Serif" font-size="10.00"> </text>
</a>
</g>
</g>
<!-- Node3&#45;&gt;Node2 -->
<g id="edge2" class="edge"><title>Node3&#45;&gt;Node2</title>
<path fill="none" stroke="midnightblue" d="M72,-330.674C72,-321.502 72,-311.961 72,-303.234"/>
<polygon fill="none" stroke="midnightblue" points="68.5001,-330.808 72,-340.808 75.5001,-330.808 68.5001,-330.808"/>
</g>
<!-- Node4 -->
<g id="node4" class="node"><title>Node4</title>
<g id="a_node4"><a xlink:href="classobject.html" target="_top" xlink:title="{object\n||}">
<polygon fill="none" stroke="black" points="51,-446.5 51,-503.5 93,-503.5 93,-446.5 51,-446.5"/>
<text text-anchor="middle" x="72" y="-491.5" font-family="Helvetica,sans-Serif" font-size="10.00">object</text>
<polyline fill="none" stroke="black" points="51,-484.5 93,-484.5 "/>
<text text-anchor="middle" x="72" y="-472.5" font-family="Helvetica,sans-Serif" font-size="10.00"> </text>
<polyline fill="none" stroke="black" points="51,-465.5 93,-465.5 "/>
<text text-anchor="middle" x="72" y="-453.5" font-family="Helvetica,sans-Serif" font-size="10.00"> </text>
</a>
</g>
</g>
<!-- Node4&#45;&gt;Node3 -->
<g id="edge3" class="edge"><title>Node4&#45;&gt;Node3</title>
<path fill="none" stroke="midnightblue" d="M72,-436.302C72,-427.395 72,-417.961 72,-409.266"/>
<polygon fill="none" stroke="midnightblue" points="68.5001,-436.441 72,-446.441 75.5001,-436.441 68.5001,-436.441"/>
</g>
<!-- Node5 -->
<g id="node5" class="node"><title>Node5</title>
<g id="a_node5"><a xlink:href="class_exception.html" target="_top" xlink:title="{Exception\n||}">
<polygon fill="none" stroke="black" points="162.5,-240.5 162.5,-297.5 221.5,-297.5 221.5,-240.5 162.5,-240.5"/>
<text text-anchor="middle" x="192" y="-285.5" font-family="Helvetica,sans-Serif" font-size="10.00">Exception</text>
<polyline fill="none" stroke="black" points="162.5,-278.5 221.5,-278.5 "/>
<text text-anchor="middle" x="192" y="-266.5" font-family="Helvetica,sans-Serif" font-size="10.00"> </text>
<polyline fill="none" stroke="black" points="162.5,-259.5 221.5,-259.5 "/>
<text text-anchor="middle" x="192" y="-247.5" font-family="Helvetica,sans-Serif" font-size="10.00"> </text>
</a>
</g>
</g>
<!-- Node5&#45;&gt;Node1 -->
<g id="edge4" class="edge"><title>Node5&#45;&gt;Node1</title>
<path fill="none" stroke="midnightblue" d="M172.857,-231.31C167.228,-220.52 161.009,-208.6 155.157,-197.384"/>
<polygon fill="none" stroke="midnightblue" points="169.9,-233.208 177.629,-240.455 176.106,-229.97 169.9,-233.208"/>
</g>
</g>
</svg>
