<?xml version="1.0" encoding="UTF-8" standalone="no"?>
<!DOCTYPE svg PUBLIC "-//W3C//DTD SVG 1.1//EN"
 "http://www.w3.org/Graphics/SVG/1.1/DTD/svg11.dtd">
<!-- Generated by graphviz version 2.30.1 (20130219.2202)
 -->
<!-- Title: Net.Protocols.HELD.Errors.HELD_Error_Response Pages: 1 -->
<!--zoomable 618 -->
<svg id="main" version="1.1" xmlns="http://www.w3.org/2000/svg" xmlns:xlink="http://www.w3.org/1999/xlink" xml:space="preserve" onload="init(evt)">
        <defs>
                <circle id="rim" cx="0" cy="0" r="7"/>
                <circle id="rim2" cx="0" cy="0" r="3.5"/>
                <g id="zoomPlus">
                        <use xlink:href="#rim" fill="#404040">
                                <set attributeName="fill" to="#808080" begin="zoomplus.mouseover" end="zoomplus.mouseout"/>
                        </use>
                        <path d="M-4,0h8M0,-4v8" fill="none" stroke="white" stroke-width="1.5" pointer-events="none"/>
                </g>
                <g id="zoomMin">
                        <use xlink:href="#rim" fill="#404040">
                                <set attributeName="fill" to="#808080" begin="zoomminus.mouseover" end="zoomminus.mouseout"/>
                        </use>
                        <path d="M-4,0h8" fill="none" stroke="white" stroke-width="1.5" pointer-events="none"/>
                </g>
                <g id="dirArrow">
                        <path fill="none" stroke="white" stroke-width="1.5" d="M0,-3.0v7 M-2.5,-0.5L0,-3.0L2.5,-0.5"/>
                </g>
               <g id="resetDef">
                       <use xlink:href="#rim2" fill="#404040">
                               <set attributeName="fill" to="#808080" begin="reset.mouseover" end="reset.mouseout"/>
                       </use>
               </g>
        </defs>

<script type="text/javascript">
var viewWidth = 720;
var viewHeight = 618;
var sectionId = 'dynsection-0';
</script>
<script xlink:href="svgpan.js"/>
<svg id="graph" class="graph">
<g id="viewport">
<title>Net.Protocols.HELD.Errors.HELD_Error_Response</title>
<!-- Node1 -->
<g id="node1" class="node"><title>Node1</title>
<polygon fill="#bfbfbf" stroke="black" points="292,-107 292,-175 420,-175 420,-107 292,-107"/>
<text text-anchor="start" x="300" y="-163" font-family="Helvetica,sans-Serif" font-size="10.00">Net.Protocols.HELD.Errors.</text>
<text text-anchor="middle" x="356" y="-152" font-family="Helvetica,sans-Serif" font-size="10.00">HELD_Error_Response</text>
<polyline fill="none" stroke="black" points="292,-145 420,-145 "/>
<text text-anchor="middle" x="356" y="-133" font-family="Helvetica,sans-Serif" font-size="10.00"> </text>
<polyline fill="none" stroke="black" points="292,-126 420,-126 "/>
<text text-anchor="start" x="300" y="-114" font-family="Helvetica,sans-Serif" font-size="10.00">+ __init__()</text>
</g>
<!-- Node10 -->
<g id="node10" class="node"><title>Node10</title>
<g id="a_node10"><a xlink:href="class_net_1_1_protocols_1_1_h_e_l_d_1_1_errors_1_1_cannot_provide_l_i_type.html" target="_top" xlink:title="Indicates that the LIS was unable to provide LI of the type or types requested.">
<polygon fill="none" stroke="black" points="0,-1 0,-69 128,-69 128,-1 0,-1"/>
<text text-anchor="start" x="8" y="-57" font-family="Helvetica,sans-Serif" font-size="10.00">Net.Protocols.HELD.Errors.</text>
<text text-anchor="middle" x="64" y="-46" font-family="Helvetica,sans-Serif" font-size="10.00">CannotProvideLIType</text>
<polyline fill="none" stroke="black" points="0,-39 128,-39 "/>
<text text-anchor="middle" x="64" y="-27" font-family="Helvetica,sans-Serif" font-size="10.00"> </text>
<polyline fill="none" stroke="black" points="0,-20 128,-20 "/>
<text text-anchor="start" x="8" y="-8" font-family="Helvetica,sans-Serif" font-size="10.00">+ __init__()</text>
</a>
</g>
</g>
<!-- Node1&#45;&gt;Node10 -->
<g id="edge10" class="edge"><title>Node1&#45;&gt;Node10</title>
<path fill="none" stroke="midnightblue" d="M281.751,-118.819C238.963,-105.981 184.424,-88.5373 137,-70 134.135,-68.8802 131.224,-67.7018 128.295,-66.4831"/>
<polygon fill="none" stroke="midnightblue" points="280.944,-122.23 291.527,-121.733 282.943,-115.522 280.944,-122.23"/>
</g>
<!-- Node11 -->
<g id="node11" class="node"><title>Node11</title>
<g id="a_node11"><a xlink:href="class_net_1_1_protocols_1_1_h_e_l_d_1_1_errors_1_1_general_l_i_s_error.html" target="_top" xlink:title="Indicates that an unspecified error occurred at the LIS.">
<polygon fill="none" stroke="black" points="146,-1 146,-69 274,-69 274,-1 146,-1"/>
<text text-anchor="start" x="154" y="-57" font-family="Helvetica,sans-Serif" font-size="10.00">Net.Protocols.HELD.Errors.</text>
<text text-anchor="middle" x="210" y="-46" font-family="Helvetica,sans-Serif" font-size="10.00">GeneralLISError</text>
<polyline fill="none" stroke="black" points="146,-39 274,-39 "/>
<text text-anchor="middle" x="210" y="-27" font-family="Helvetica,sans-Serif" font-size="10.00"> </text>
<polyline fill="none" stroke="black" points="146,-20 274,-20 "/>
<text text-anchor="start" x="154" y="-8" font-family="Helvetica,sans-Serif" font-size="10.00">+ __init__()</text>
</a>
</g>
</g>
<!-- Node1&#45;&gt;Node11 -->
<g id="edge11" class="edge"><title>Node1&#45;&gt;Node11</title>
<path fill="none" stroke="midnightblue" d="M300.908,-100.756C286.244,-90.3105 270.552,-79.1331 256.405,-69.0553"/>
<polygon fill="none" stroke="midnightblue" points="299.228,-103.857 309.403,-106.808 303.289,-98.1552 299.228,-103.857"/>
</g>
<!-- Node12 -->
<g id="node12" class="node"><title>Node12</title>
<g id="a_node12"><a xlink:href="class_net_1_1_protocols_1_1_h_e_l_d_1_1_errors_1_1_location_unknown.html" target="_top" xlink:title="Indicates that the LIS could not determine the location of the device.">
<polygon fill="none" stroke="black" points="292,-1 292,-69 420,-69 420,-1 292,-1"/>
<text text-anchor="start" x="300" y="-57" font-family="Helvetica,sans-Serif" font-size="10.00">Net.Protocols.HELD.Errors.</text>
<text text-anchor="middle" x="356" y="-46" font-family="Helvetica,sans-Serif" font-size="10.00">LocationUnknown</text>
<polyline fill="none" stroke="black" points="292,-39 420,-39 "/>
<text text-anchor="middle" x="356" y="-27" font-family="Helvetica,sans-Serif" font-size="10.00"> </text>
<polyline fill="none" stroke="black" points="292,-20 420,-20 "/>
<text text-anchor="start" x="300" y="-8" font-family="Helvetica,sans-Serif" font-size="10.00">+ __init__()</text>
</a>
</g>
</g>
<!-- Node1&#45;&gt;Node12 -->
<g id="edge12" class="edge"><title>Node1&#45;&gt;Node12</title>
<path fill="none" stroke="midnightblue" d="M356,-96.6737C356,-87.5025 356,-77.9608 356,-69.2336"/>
<polygon fill="none" stroke="midnightblue" points="352.5,-96.8078 356,-106.808 359.5,-96.8078 352.5,-96.8078"/>
</g>
<!-- Node13 -->
<g id="node13" class="node"><title>Node13</title>
<g id="a_node13"><a xlink:href="class_net_1_1_protocols_1_1_h_e_l_d_1_1_errors_1_1_not_locatable.html" target="_top" xlink:title="Indicates that the LIS is unable to locate the Device.">
<polygon fill="none" stroke="black" points="438,-1 438,-69 566,-69 566,-1 438,-1"/>
<text text-anchor="start" x="446" y="-57" font-family="Helvetica,sans-Serif" font-size="10.00">Net.Protocols.HELD.Errors.</text>
<text text-anchor="middle" x="502" y="-46" font-family="Helvetica,sans-Serif" font-size="10.00">NotLocatable</text>
<polyline fill="none" stroke="black" points="438,-39 566,-39 "/>
<text text-anchor="middle" x="502" y="-27" font-family="Helvetica,sans-Serif" font-size="10.00"> </text>
<polyline fill="none" stroke="black" points="438,-20 566,-20 "/>
<text text-anchor="start" x="446" y="-8" font-family="Helvetica,sans-Serif" font-size="10.00">+ __init__()</text>
</a>
</g>
</g>
<!-- Node1&#45;&gt;Node13 -->
<g id="edge13" class="edge"><title>Node1&#45;&gt;Node13</title>
<path fill="none" stroke="midnightblue" d="M411.092,-100.756C425.756,-90.3105 441.448,-79.1331 455.595,-69.0553"/>
<polygon fill="none" stroke="midnightblue" points="408.711,-98.1552 402.597,-106.808 412.772,-103.857 408.711,-98.1552"/>
</g>
<!-- Node14 -->
<g id="node14" class="node"><title>Node14</title>
<g id="a_node14"><a xlink:href="class_net_1_1_protocols_1_1_h_e_l_d_1_1_errors_1_1_timeout.html" target="_top" xlink:title="Indicates that the LIS could not satisfy the request within the time specified.">
<polygon fill="none" stroke="black" points="584,-1 584,-69 712,-69 712,-1 584,-1"/>
<text text-anchor="start" x="592" y="-57" font-family="Helvetica,sans-Serif" font-size="10.00">Net.Protocols.HELD.Errors.</text>
<text text-anchor="middle" x="648" y="-46" font-family="Helvetica,sans-Serif" font-size="10.00">Timeout</text>
<polyline fill="none" stroke="black" points="584,-39 712,-39 "/>
<text text-anchor="middle" x="648" y="-27" font-family="Helvetica,sans-Serif" font-size="10.00"> </text>
<polyline fill="none" stroke="black" points="584,-20 712,-20 "/>
<text text-anchor="start" x="592" y="-8" font-family="Helvetica,sans-Serif" font-size="10.00">+ __init__()</text>
</a>
</g>
</g>
<!-- Node1&#45;&gt;Node14 -->
<g id="edge14" class="edge"><title>Node1&#45;&gt;Node14</title>
<path fill="none" stroke="midnightblue" d="M430.249,-118.819C473.037,-105.981 527.576,-88.5373 575,-70 577.865,-68.8802 580.776,-67.7018 583.705,-66.4831"/>
<polygon fill="none" stroke="midnightblue" points="429.057,-115.522 420.473,-121.733 431.056,-122.23 429.057,-115.522"/>
</g>
<!-- Node2 -->
<g id="node2" class="node"><title>Node2</title>
<g id="a_node2"><a xlink:href="class_net_1_1_protocols_1_1_h_e_l_d_1_1_cucumbers_1_1_response.html" target="_top" xlink:title="{Net.Protocols.HELD.Cucumbers.\lResponse\n||+ pickle_XML()\l}">
<polygon fill="none" stroke="black" points="359.5,-224 359.5,-292 512.5,-292 512.5,-224 359.5,-224"/>
<text text-anchor="start" x="367.5" y="-280" font-family="Helvetica,sans-Serif" font-size="10.00">Net.Protocols.HELD.Cucumbers.</text>
<text text-anchor="middle" x="436" y="-269" font-family="Helvetica,sans-Serif" font-size="10.00">Response</text>
<polyline fill="none" stroke="black" points="359.5,-262 512.5,-262 "/>
<text text-anchor="middle" x="436" y="-250" font-family="Helvetica,sans-Serif" font-size="10.00"> </text>
<polyline fill="none" stroke="black" points="359.5,-243 512.5,-243 "/>
<text text-anchor="start" x="367.5" y="-231" font-family="Helvetica,sans-Serif" font-size="10.00">+ pickle_XML()</text>
</a>
</g>
</g>
<!-- Node2&#45;&gt;Node1 -->
<g id="edge1" class="edge"><title>Node2&#45;&gt;Node1</title>
<path fill="none" stroke="midnightblue" d="M406.974,-215.275C397.799,-202.086 387.789,-187.696 379.087,-175.188"/>
<polygon fill="none" stroke="midnightblue" points="404.277,-217.527 412.861,-223.737 410.023,-213.529 404.277,-217.527"/>
</g>
<!-- Node3 -->
<g id="node3" class="node"><title>Node3</title>
<g id="a_node3"><a xlink:href="class_net_1_1_protocols_1_1_h_e_l_d_1_1_cucumbers_1_1_h_e_l_d___cucumber.html" target="_top" xlink:title="{Net.Protocols.HELD.Cucumbers.\lHELD_Cucumber\n||}">
<polygon fill="none" stroke="black" points="262.5,-341 262.5,-409 415.5,-409 415.5,-341 262.5,-341"/>
<text text-anchor="start" x="270.5" y="-397" font-family="Helvetica,sans-Serif" font-size="10.00">Net.Protocols.HELD.Cucumbers.</text>
<text text-anchor="middle" x="339" y="-386" font-family="Helvetica,sans-Serif" font-size="10.00">HELD_Cucumber</text>
<polyline fill="none" stroke="black" points="262.5,-379 415.5,-379 "/>
<text text-anchor="middle" x="339" y="-367" font-family="Helvetica,sans-Serif" font-size="10.00"> </text>
<polyline fill="none" stroke="black" points="262.5,-360 415.5,-360 "/>
<text text-anchor="middle" x="339" y="-348" font-family="Helvetica,sans-Serif" font-size="10.00"> </text>
</a>
</g>
</g>
<!-- Node3&#45;&gt;Node2 -->
<g id="edge2" class="edge"><title>Node3&#45;&gt;Node2</title>
<path fill="none" stroke="midnightblue" d="M373.559,-333.027C384.856,-319.635 397.255,-304.934 408.007,-292.188"/>
<polygon fill="none" stroke="midnightblue" points="370.829,-330.837 367.056,-340.737 376.179,-335.35 370.829,-330.837"/>
</g>
<!-- Node8 -->
<g id="node8" class="node"><title>Node8</title>
<g id="a_node8"><a xlink:href="class_net_1_1_protocols_1_1_h_e_l_d_1_1_errors_1_1_h_e_l_d___error.html" target="_top" xlink:title="Corresponds to an RFC 5985 general error when the location request cannot be fulfilled.">
<polygon fill="none" stroke="black" points="213,-213 213,-303 341,-303 341,-213 213,-213"/>
<text text-anchor="start" x="221" y="-291" font-family="Helvetica,sans-Serif" font-size="10.00">Net.Protocols.HELD.Errors.</text>
<text text-anchor="middle" x="277" y="-280" font-family="Helvetica,sans-Serif" font-size="10.00">HELD_Error</text>
<polyline fill="none" stroke="black" points="213,-273 341,-273 "/>
<text text-anchor="start" x="221" y="-261" font-family="Helvetica,sans-Serif" font-size="10.00">+ code</text>
<polyline fill="none" stroke="black" points="213,-254 341,-254 "/>
<text text-anchor="start" x="221" y="-242" font-family="Helvetica,sans-Serif" font-size="10.00">+ __init__()</text>
<text text-anchor="start" x="221" y="-231" font-family="Helvetica,sans-Serif" font-size="10.00">+ __str__()</text>
<text text-anchor="start" x="221" y="-220" font-family="Helvetica,sans-Serif" font-size="10.00">+ pickle_XML()</text>
</a>
</g>
</g>
<!-- Node3&#45;&gt;Node8 -->
<g id="edge8" class="edge"><title>Node3&#45;&gt;Node8</title>
<path fill="none" stroke="midnightblue" d="M316.202,-331.714C311.215,-322.463 305.922,-312.646 300.893,-303.318"/>
<polygon fill="none" stroke="midnightblue" points="313.241,-333.596 321.067,-340.737 319.402,-330.274 313.241,-333.596"/>
</g>
<!-- Node4 -->
<g id="node4" class="node"><title>Node4</title>
<g id="a_node4"><a xlink:href="classbase_1_1_cucumber.html" target="_top" xlink:title="{base::Cucumber\n||}">
<polygon fill="none" stroke="black" points="295.5,-452.5 295.5,-509.5 382.5,-509.5 382.5,-452.5 295.5,-452.5"/>
<text text-anchor="middle" x="339" y="-497.5" font-family="Helvetica,sans-Serif" font-size="10.00">base::Cucumber</text>
<polyline fill="none" stroke="black" points="295.5,-490.5 382.5,-490.5 "/>
<text text-anchor="middle" x="339" y="-478.5" font-family="Helvetica,sans-Serif" font-size="10.00"> </text>
<polyline fill="none" stroke="black" points="295.5,-471.5 382.5,-471.5 "/>
<text text-anchor="middle" x="339" y="-459.5" font-family="Helvetica,sans-Serif" font-size="10.00"> </text>
</a>
</g>
</g>
<!-- Node4&#45;&gt;Node3 -->
<g id="edge3" class="edge"><title>Node4&#45;&gt;Node3</title>
<path fill="none" stroke="midnightblue" d="M339,-442.372C339,-431.55 339,-419.828 339,-409.288"/>
<polygon fill="none" stroke="midnightblue" points="335.5,-442.403 339,-452.403 342.5,-442.403 335.5,-442.403"/>
</g>
<!-- Node5 -->
<g id="node5" class="node"><title>Node5</title>
<g id="a_node5"><a xlink:href="class_net_1_1_protocols_1_1base_1_1_cucumber_1_1_response.html" target="_top" xlink:title="A cucumber (python object) created for sending a response, typically made by the server.">
<polygon fill="none" stroke="black" points="434,-341 434,-409 578,-409 578,-341 434,-341"/>
<text text-anchor="start" x="442" y="-397" font-family="Helvetica,sans-Serif" font-size="10.00">Net.Protocols.base.Cucumber.</text>
<text text-anchor="middle" x="506" y="-386" font-family="Helvetica,sans-Serif" font-size="10.00">Response</text>
<polyline fill="none" stroke="black" points="434,-379 578,-379 "/>
<text text-anchor="middle" x="506" y="-367" font-family="Helvetica,sans-Serif" font-size="10.00"> </text>
<polyline fill="none" stroke="black" points="434,-360 578,-360 "/>
<text text-anchor="middle" x="506" y="-348" font-family="Helvetica,sans-Serif" font-size="10.00"> </text>
</a>
</g>
</g>
<!-- Node5&#45;&gt;Node2 -->
<g id="edge4" class="edge"><title>Node5&#45;&gt;Node2</title>
<path fill="none" stroke="midnightblue" d="M480.373,-331.898C472.407,-318.812 463.743,-304.577 456.201,-292.188"/>
<polygon fill="none" stroke="midnightblue" points="477.564,-334.015 485.753,-340.737 483.543,-330.375 477.564,-334.015"/>
</g>
<!-- Node6 -->
<g id="node6" class="node"><title>Node6</title>
<g id="a_node6"><a xlink:href="class_net_1_1_protocols_1_1base_1_1_cucumber_1_1_cucumber.html" target="_top" xlink:title="{Net.Protocols.base.Cucumber.\lCucumber\n||}">
<polygon fill="none" stroke="black" points="434,-447 434,-515 578,-515 578,-447 434,-447"/>
<text text-anchor="start" x="442" y="-503" font-family="Helvetica,sans-Serif" font-size="10.00">Net.Protocols.base.Cucumber.</text>
<text text-anchor="middle" x="506" y="-492" font-family="Helvetica,sans-Serif" font-size="10.00">Cucumber</text>
<polyline fill="none" stroke="black" points="434,-485 578,-485 "/>
<text text-anchor="middle" x="506" y="-473" font-family="Helvetica,sans-Serif" font-size="10.00"> </text>
<polyline fill="none" stroke="black" points="434,-466 578,-466 "/>
<text text-anchor="middle" x="506" y="-454" font-family="Helvetica,sans-Serif" font-size="10.00"> </text>
</a>
</g>
</g>
<!-- Node6&#45;&gt;Node5 -->
<g id="edge5" class="edge"><title>Node6&#45;&gt;Node5</title>
<path fill="none" stroke="midnightblue" d="M506,-436.674C506,-427.502 506,-417.961 506,-409.234"/>
<polygon fill="none" stroke="midnightblue" points="502.5,-436.808 506,-446.808 509.5,-436.808 502.5,-436.808"/>
</g>
<!-- Node7 -->
<g id="node7" class="node"><title>Node7</title>
<g id="a_node7"><a xlink:href="classobject.html" target="_top" xlink:title="{object\n||}">
<polygon fill="none" stroke="black" points="485,-552.5 485,-609.5 527,-609.5 527,-552.5 485,-552.5"/>
<text text-anchor="middle" x="506" y="-597.5" font-family="Helvetica,sans-Serif" font-size="10.00">object</text>
<polyline fill="none" stroke="black" points="485,-590.5 527,-590.5 "/>
<text text-anchor="middle" x="506" y="-578.5" font-family="Helvetica,sans-Serif" font-size="10.00"> </text>
<polyline fill="none" stroke="black" points="485,-571.5 527,-571.5 "/>
<text text-anchor="middle" x="506" y="-559.5" font-family="Helvetica,sans-Serif" font-size="10.00"> </text>
</a>
</g>
</g>
<!-- Node7&#45;&gt;Node6 -->
<g id="edge6" class="edge"><title>Node7&#45;&gt;Node6</title>
<path fill="none" stroke="midnightblue" d="M506,-542.302C506,-533.395 506,-523.961 506,-515.266"/>
<polygon fill="none" stroke="midnightblue" points="502.5,-542.441 506,-552.441 509.5,-542.441 502.5,-542.441"/>
</g>
<!-- Node8&#45;&gt;Node1 -->
<g id="edge7" class="edge"><title>Node8&#45;&gt;Node1</title>
<path fill="none" stroke="midnightblue" d="M313.042,-204.534C319.917,-194.526 326.934,-184.312 333.249,-175.118"/>
<polygon fill="none" stroke="midnightblue" points="310.095,-202.643 307.318,-212.867 315.865,-206.606 310.095,-202.643"/>
</g>
<!-- Node9 -->
<g id="node9" class="node"><title>Node9</title>
<g id="a_node9"><a xlink:href="class_exception.html" target="_top" xlink:title="{Exception\n||}">
<polygon fill="none" stroke="black" points="185.5,-346.5 185.5,-403.5 244.5,-403.5 244.5,-346.5 185.5,-346.5"/>
<text text-anchor="middle" x="215" y="-391.5" font-family="Helvetica,sans-Serif" font-size="10.00">Exception</text>
<polyline fill="none" stroke="black" points="185.5,-384.5 244.5,-384.5 "/>
<text text-anchor="middle" x="215" y="-372.5" font-family="Helvetica,sans-Serif" font-size="10.00"> </text>
<polyline fill="none" stroke="black" points="185.5,-365.5 244.5,-365.5 "/>
<text text-anchor="middle" x="215" y="-353.5" font-family="Helvetica,sans-Serif" font-size="10.00"> </text>
</a>
</g>
</g>
<!-- Node9&#45;&gt;Node8 -->
<g id="edge9" class="edge"><title>Node9&#45;&gt;Node8</title>
<path fill="none" stroke="midnightblue" d="M234.605,-337.636C240.468,-326.761 246.963,-314.713 253.071,-303.384"/>
<polygon fill="none" stroke="midnightblue" points="231.515,-335.991 229.851,-346.455 237.677,-339.313 231.515,-335.991"/>
</g>
</g>
</svg>
        <g id="navigator" transform="translate(0 0)" fill="#404254">
                <rect fill="#f2f5e9" fill-opacity="0.5" stroke="#606060" stroke-width=".5" x="0" y="0" width="60" height="60"/>
                <use id="zoomplus" xlink:href="#zoomPlus" x="17" y="9" onmousedown="handleZoom(evt,'in')"/>
                <use id="zoomminus" xlink:href="#zoomMin" x="42" y="9" onmousedown="handleZoom(evt,'out')"/>
                <use id="reset" xlink:href="#resetDef" x="30" y="36" onmousedown="handleReset()"/>
                <g id="arrowUp" xlink:href="#dirArrow" transform="translate(30 24)" onmousedown="handlePan(0,-1)">
                  <use xlink:href="#rim" fill="#404040">
                        <set attributeName="fill" to="#808080" begin="arrowUp.mouseover" end="arrowUp.mouseout"/>
                  </use>
                  <path fill="none" stroke="white" stroke-width="1.5" d="M0,-3.0v7 M-2.5,-0.5L0,-3.0L2.5,-0.5"/>
                </g>
                <g id="arrowRight" xlink:href="#dirArrow" transform="rotate(90) translate(36 -43)" onmousedown="handlePan(1,0)">
                  <use xlink:href="#rim" fill="#404040">
                        <set attributeName="fill" to="#808080" begin="arrowRight.mouseover" end="arrowRight.mouseout"/>
                  </use>
                  <path fill="none" stroke="white" stroke-width="1.5" d="M0,-3.0v7 M-2.5,-0.5L0,-3.0L2.5,-0.5"/>
                </g>
                <g id="arrowDown" xlink:href="#dirArrow" transform="rotate(180) translate(-30 -48)" onmousedown="handlePan(0,1)">
                  <use xlink:href="#rim" fill="#404040">
                        <set attributeName="fill" to="#808080" begin="arrowDown.mouseover" end="arrowDown.mouseout"/>
                  </use>
                  <path fill="none" stroke="white" stroke-width="1.5" d="M0,-3.0v7 M-2.5,-0.5L0,-3.0L2.5,-0.5"/>
                </g>
                <g id="arrowLeft" xlink:href="#dirArrow" transform="rotate(270) translate(-36 17)" onmousedown="handlePan(-1,0)">
                  <use xlink:href="#rim" fill="#404040">
                        <set attributeName="fill" to="#808080" begin="arrowLeft.mouseover" end="arrowLeft.mouseout"/>
                  </use>
                  <path fill="none" stroke="white" stroke-width="1.5" d="M0,-3.0v7 M-2.5,-0.5L0,-3.0L2.5,-0.5"/>
                </g>
        </g>
        <svg viewBox="0 0 15 15" width="100%" height="30px" preserveAspectRatio="xMaxYMin meet">
         <g id="arrow_out" transform="scale(0.3 0.3)">
          <a xlink:href="class_net_1_1_protocols_1_1_h_e_l_d_1_1_errors_1_1_h_e_l_d___error___response__inherit__graph_org.svg" target="_base">
           <rect id="button" ry="5" rx="5" y="6" x="6" height="38" width="38"
                fill="#f2f5e9" fill-opacity="0.5" stroke="#606060" stroke-width="1.0"/>
           <path id="arrow"
             d="M 11.500037,31.436501 C 11.940474,20.09759 22.043105,11.32322 32.158766,21.979434 L 37.068811,17.246167 C 37.068811,17.246167 37.088388,32 37.088388,32 L 22.160133,31.978069 C 22.160133,31.978069 26.997745,27.140456 26.997745,27.140456 C 18.528582,18.264221 13.291696,25.230495 11.500037,31.436501 z"
             style="fill:#404040;"/>
          </a>
         </g>
        </svg>
</svg>
