<?xml version="1.0" encoding="UTF-8" standalone="no"?>
<!DOCTYPE svg PUBLIC "-//W3C//DTD SVG 1.1//EN"
 "http://www.w3.org/Graphics/SVG/1.1/DTD/svg11.dtd">
<!-- Generated by graphviz version 2.30.1 (20130219.2202)
 -->
<!-- Title: Net.Protocols.base.Cucumber.Cucumber Pages: 1 -->
<!--zoomable 650 -->
<svg id="main" version="1.1" xmlns="http://www.w3.org/2000/svg" xmlns:xlink="http://www.w3.org/1999/xlink" xml:space="preserve" onload="init(evt)">
        <defs>
                <circle id="rim" cx="0" cy="0" r="7"/>
                <circle id="rim2" cx="0" cy="0" r="3.5"/>
                <g id="zoomPlus">
                        <use xlink:href="#rim" fill="#404040">
                                <set attributeName="fill" to="#808080" begin="zoomplus.mouseover" end="zoomplus.mouseout"/>
                        </use>
                        <path d="M-4,0h8M0,-4v8" fill="none" stroke="white" stroke-width="1.5" pointer-events="none"/>
                </g>
                <g id="zoomMin">
                        <use xlink:href="#rim" fill="#404040">
                                <set attributeName="fill" to="#808080" begin="zoomminus.mouseover" end="zoomminus.mouseout"/>
                        </use>
                        <path d="M-4,0h8" fill="none" stroke="white" stroke-width="1.5" pointer-events="none"/>
                </g>
                <g id="dirArrow">
                        <path fill="none" stroke="white" stroke-width="1.5" d="M0,-3.0v7 M-2.5,-0.5L0,-3.0L2.5,-0.5"/>
                </g>
               <g id="resetDef">
                       <use xlink:href="#rim2" fill="#404040">
                               <set attributeName="fill" to="#808080" begin="reset.mouseover" end="reset.mouseout"/>
                       </use>
               </g>
        </defs>

<script type="text/javascript">
var viewWidth = 1486;
var viewHeight = 650;
var sectionId = 'dynsection-0';
</script>
<script xlink:href="svgpan.js"/>
<svg id="graph" class="graph">
<g id="viewport">
<title>Net.Protocols.base.Cucumber.Cucumber</title>
<!-- Node1 -->
<g id="node1" class="node"><title>Node1</title>
<polygon fill="#bfbfbf" stroke="black" points="738,-479 738,-547 882,-547 882,-479 738,-479"/>
<text text-anchor="start" x="746" y="-535" font-family="Helvetica,sans-Serif" font-size="10.00">Net.Protocols.base.Cucumber.</text>
<text text-anchor="middle" x="810" y="-524" font-family="Helvetica,sans-Serif" font-size="10.00">Cucumber</text>
<polyline fill="none" stroke="black" points="738,-517 882,-517 "/>
<text text-anchor="middle" x="810" y="-505" font-family="Helvetica,sans-Serif" font-size="10.00"> </text>
<polyline fill="none" stroke="black" points="738,-498 882,-498 "/>
<text text-anchor="middle" x="810" y="-486" font-family="Helvetica,sans-Serif" font-size="10.00"> </text>
</g>
<!-- Node3 -->
<g id="node3" class="node"><title>Node3</title>
<g id="a_node3"><a xlink:href="class_net_1_1_protocols_1_1base_1_1_cucumber_1_1_request.html" target="_top" xlink:title="A cucumber (python object) created for processing a request, typically made by a client.">
<polygon fill="none" stroke="black" points="513,-373 513,-441 657,-441 657,-373 513,-373"/>
<text text-anchor="start" x="521" y="-429" font-family="Helvetica,sans-Serif" font-size="10.00">Net.Protocols.base.Cucumber.</text>
<text text-anchor="middle" x="585" y="-418" font-family="Helvetica,sans-Serif" font-size="10.00">Request</text>
<polyline fill="none" stroke="black" points="513,-411 657,-411 "/>
<text text-anchor="middle" x="585" y="-399" font-family="Helvetica,sans-Serif" font-size="10.00"> </text>
<polyline fill="none" stroke="black" points="513,-392 657,-392 "/>
<text text-anchor="middle" x="585" y="-380" font-family="Helvetica,sans-Serif" font-size="10.00"> </text>
</a>
</g>
</g>
<!-- Node1&#45;&gt;Node3 -->
<g id="edge2" class="edge"><title>Node1&#45;&gt;Node3</title>
<path fill="none" stroke="midnightblue" d="M729.186,-474.646C705.501,-463.698 679.776,-451.808 656.701,-441.142"/>
<polygon fill="none" stroke="midnightblue" points="727.954,-477.932 738.499,-478.951 730.891,-471.578 727.954,-477.932"/>
</g>
<!-- Node14 -->
<g id="node14" class="node"><title>Node14</title>
<g id="a_node14"><a xlink:href="class_net_1_1_protocols_1_1base_1_1_cucumber_1_1_response.html" target="_top" xlink:title="A cucumber (python object) created for sending a response, typically made by the server.">
<polygon fill="none" stroke="black" points="927,-373 927,-441 1071,-441 1071,-373 927,-373"/>
<text text-anchor="start" x="935" y="-429" font-family="Helvetica,sans-Serif" font-size="10.00">Net.Protocols.base.Cucumber.</text>
<text text-anchor="middle" x="999" y="-418" font-family="Helvetica,sans-Serif" font-size="10.00">Response</text>
<polyline fill="none" stroke="black" points="927,-411 1071,-411 "/>
<text text-anchor="middle" x="999" y="-399" font-family="Helvetica,sans-Serif" font-size="10.00"> </text>
<polyline fill="none" stroke="black" points="927,-392 1071,-392 "/>
<text text-anchor="middle" x="999" y="-380" font-family="Helvetica,sans-Serif" font-size="10.00"> </text>
</a>
</g>
</g>
<!-- Node1&#45;&gt;Node14 -->
<g id="edge13" class="edge"><title>Node1&#45;&gt;Node14</title>
<path fill="none" stroke="midnightblue" d="M878.942,-474.064C898.543,-463.278 919.731,-451.619 938.772,-441.142"/>
<polygon fill="none" stroke="midnightblue" points="877.134,-471.063 870.06,-478.951 880.509,-477.196 877.134,-471.063"/>
</g>
<!-- Node2 -->
<g id="node2" class="node"><title>Node2</title>
<g id="a_node2"><a xlink:href="classobject.html" target="_top" xlink:title="{object\n||}">
<polygon fill="none" stroke="black" points="789,-584.5 789,-641.5 831,-641.5 831,-584.5 789,-584.5"/>
<text text-anchor="middle" x="810" y="-629.5" font-family="Helvetica,sans-Serif" font-size="10.00">object</text>
<polyline fill="none" stroke="black" points="789,-622.5 831,-622.5 "/>
<text text-anchor="middle" x="810" y="-610.5" font-family="Helvetica,sans-Serif" font-size="10.00"> </text>
<polyline fill="none" stroke="black" points="789,-603.5 831,-603.5 "/>
<text text-anchor="middle" x="810" y="-591.5" font-family="Helvetica,sans-Serif" font-size="10.00"> </text>
</a>
</g>
</g>
<!-- Node2&#45;&gt;Node1 -->
<g id="edge1" class="edge"><title>Node2&#45;&gt;Node1</title>
<path fill="none" stroke="midnightblue" d="M810,-574.302C810,-565.395 810,-555.961 810,-547.266"/>
<polygon fill="none" stroke="midnightblue" points="806.5,-574.441 810,-584.441 813.5,-574.441 806.5,-574.441"/>
</g>
<!-- Node4 -->
<g id="node4" class="node"><title>Node4</title>
<g id="a_node4"><a xlink:href="class_net_1_1_protocols_1_1_h_e_l_d_1_1_cucumbers_1_1_request.html" target="_top" xlink:title="{Net.Protocols.HELD.Cucumbers.\lRequest\n|+ locationTypes\l+ locationTypes_areExact\l|+ __init__()\l}">
<polygon fill="none" stroke="black" points="283.5,-250.5 283.5,-329.5 436.5,-329.5 436.5,-250.5 283.5,-250.5"/>
<text text-anchor="start" x="291.5" y="-317.5" font-family="Helvetica,sans-Serif" font-size="10.00">Net.Protocols.HELD.Cucumbers.</text>
<text text-anchor="middle" x="360" y="-306.5" font-family="Helvetica,sans-Serif" font-size="10.00">Request</text>
<polyline fill="none" stroke="black" points="283.5,-299.5 436.5,-299.5 "/>
<text text-anchor="start" x="291.5" y="-287.5" font-family="Helvetica,sans-Serif" font-size="10.00">+ locationTypes</text>
<text text-anchor="start" x="291.5" y="-276.5" font-family="Helvetica,sans-Serif" font-size="10.00">+ locationTypes_areExact</text>
<polyline fill="none" stroke="black" points="283.5,-269.5 436.5,-269.5 "/>
<text text-anchor="start" x="291.5" y="-257.5" font-family="Helvetica,sans-Serif" font-size="10.00">+ __init__()</text>
</a>
</g>
</g>
<!-- Node3&#45;&gt;Node4 -->
<g id="edge3" class="edge"><title>Node3&#45;&gt;Node4</title>
<path fill="none" stroke="midnightblue" d="M511.067,-368.212C486.8,-355.809 459.809,-342.014 435.433,-329.554"/>
<polygon fill="none" stroke="midnightblue" points="509.725,-371.457 520.223,-372.892 512.911,-365.224 509.725,-371.457"/>
</g>
<!-- Node9 -->
<g id="node9" class="node"><title>Node9</title>
<g id="a_node9"><a xlink:href="class_net_1_1_protocols_1_1_h_e_l_d_1_1_h_e_l_d___i_d_1_1_h_e_l_d___i_d___request.html" target="_top" xlink:title="{Net.Protocols.HELD.HELD\l_ID.HELD_ID_Request\n||}">
<polygon fill="none" stroke="black" points="521,-256 521,-324 649,-324 649,-256 521,-256"/>
<text text-anchor="start" x="529" y="-312" font-family="Helvetica,sans-Serif" font-size="10.00">Net.Protocols.HELD.HELD</text>
<text text-anchor="middle" x="585" y="-301" font-family="Helvetica,sans-Serif" font-size="10.00">_ID.HELD_ID_Request</text>
<polyline fill="none" stroke="black" points="521,-294 649,-294 "/>
<text text-anchor="middle" x="585" y="-282" font-family="Helvetica,sans-Serif" font-size="10.00"> </text>
<polyline fill="none" stroke="black" points="521,-275 649,-275 "/>
<text text-anchor="middle" x="585" y="-263" font-family="Helvetica,sans-Serif" font-size="10.00"> </text>
</a>
</g>
</g>
<!-- Node3&#45;&gt;Node9 -->
<g id="edge8" class="edge"><title>Node3&#45;&gt;Node9</title>
<path fill="none" stroke="midnightblue" d="M585,-362.383C585,-349.72 585,-336.101 585,-324.188"/>
<polygon fill="none" stroke="midnightblue" points="581.5,-362.737 585,-372.737 588.5,-362.737 581.5,-362.737"/>
</g>
<!-- Node5 -->
<g id="node5" class="node"><title>Node5</title>
<g id="a_node5"><a xlink:href="class_net_1_1_protocols_1_1_h_e_l_d_1_1_errors_1_1_h_e_l_d___error___request.html" target="_top" xlink:title="{Net.Protocols.HELD.Errors.\lHELD_Error_Request\n||+ __init__()\l}">
<polygon fill="none" stroke="black" points="156,-123 156,-191 284,-191 284,-123 156,-123"/>
<text text-anchor="start" x="164" y="-179" font-family="Helvetica,sans-Serif" font-size="10.00">Net.Protocols.HELD.Errors.</text>
<text text-anchor="middle" x="220" y="-168" font-family="Helvetica,sans-Serif" font-size="10.00">HELD_Error_Request</text>
<polyline fill="none" stroke="black" points="156,-161 284,-161 "/>
<text text-anchor="middle" x="220" y="-149" font-family="Helvetica,sans-Serif" font-size="10.00"> </text>
<polyline fill="none" stroke="black" points="156,-142 284,-142 "/>
<text text-anchor="start" x="164" y="-130" font-family="Helvetica,sans-Serif" font-size="10.00">+ __init__()</text>
</a>
</g>
</g>
<!-- Node4&#45;&gt;Node5 -->
<g id="edge4" class="edge"><title>Node4&#45;&gt;Node5</title>
<path fill="none" stroke="midnightblue" d="M311.027,-243.175C292.658,-225.987 272.159,-206.806 255.271,-191.004"/>
<polygon fill="none" stroke="midnightblue" points="309.059,-246.127 318.753,-250.404 313.842,-241.016 309.059,-246.127"/>
</g>
<!-- Node6 -->
<g id="node6" class="node"><title>Node6</title>
<g id="a_node6"><a xlink:href="class_net_1_1_protocols_1_1_h_e_l_d_1_1_errors_1_1_request_error.html" target="_top" xlink:title="Indicates that the request was badly formed in some fashion (other than the XML content).">
<polygon fill="none" stroke="black" points="0,-1 0,-69 138,-69 138,-1 0,-1"/>
<text text-anchor="start" x="8" y="-57" font-family="Helvetica,sans-Serif" font-size="10.00">Net.Protocols.HELD.Errors.</text>
<text text-anchor="middle" x="69" y="-46" font-family="Helvetica,sans-Serif" font-size="10.00">RequestError</text>
<polyline fill="none" stroke="black" points="0,-39 138,-39 "/>
<text text-anchor="start" x="8" y="-27" font-family="Helvetica,sans-Serif" font-size="10.00">+ unrecognizedLocationType</text>
<polyline fill="none" stroke="black" points="0,-20 138,-20 "/>
<text text-anchor="start" x="8" y="-8" font-family="Helvetica,sans-Serif" font-size="10.00">+ __init__()</text>
</a>
</g>
</g>
<!-- Node5&#45;&gt;Node6 -->
<g id="edge5" class="edge"><title>Node5&#45;&gt;Node6</title>
<path fill="none" stroke="midnightblue" d="M170.484,-116.65C151.083,-101.232 129.076,-83.7422 110.525,-69.0001"/>
<polygon fill="none" stroke="midnightblue" points="168.332,-119.41 178.339,-122.892 172.688,-113.93 168.332,-119.41"/>
</g>
<!-- Node7 -->
<g id="node7" class="node"><title>Node7</title>
<g id="a_node7"><a xlink:href="class_net_1_1_protocols_1_1_h_e_l_d_1_1_errors_1_1_unsupported_message.html" target="_top" xlink:title="Indicates that an element in the XML document for the request was not supported or understood...">
<polygon fill="none" stroke="black" points="156,-1 156,-69 284,-69 284,-1 156,-1"/>
<text text-anchor="start" x="164" y="-57" font-family="Helvetica,sans-Serif" font-size="10.00">Net.Protocols.HELD.Errors.</text>
<text text-anchor="middle" x="220" y="-46" font-family="Helvetica,sans-Serif" font-size="10.00">UnsupportedMessage</text>
<polyline fill="none" stroke="black" points="156,-39 284,-39 "/>
<text text-anchor="middle" x="220" y="-27" font-family="Helvetica,sans-Serif" font-size="10.00"> </text>
<polyline fill="none" stroke="black" points="156,-20 284,-20 "/>
<text text-anchor="start" x="164" y="-8" font-family="Helvetica,sans-Serif" font-size="10.00">+ __init__()</text>
</a>
</g>
</g>
<!-- Node5&#45;&gt;Node7 -->
<g id="edge6" class="edge"><title>Node5&#45;&gt;Node7</title>
<path fill="none" stroke="midnightblue" d="M220,-112.702C220,-98.2976 220,-82.4973 220,-69.0001"/>
<polygon fill="none" stroke="midnightblue" points="216.5,-112.892 220,-122.892 223.5,-112.892 216.5,-112.892"/>
</g>
<!-- Node8 -->
<g id="node8" class="node"><title>Node8</title>
<g id="a_node8"><a xlink:href="class_net_1_1_protocols_1_1_h_e_l_d_1_1_errors_1_1_x_m_l___error.html" target="_top" xlink:title="Indicates that the XML content of the request was either badly formed or invalid.">
<polygon fill="none" stroke="black" points="302,-1 302,-69 430,-69 430,-1 302,-1"/>
<text text-anchor="start" x="310" y="-57" font-family="Helvetica,sans-Serif" font-size="10.00">Net.Protocols.HELD.Errors.</text>
<text text-anchor="middle" x="366" y="-46" font-family="Helvetica,sans-Serif" font-size="10.00">XML_Error</text>
<polyline fill="none" stroke="black" points="302,-39 430,-39 "/>
<text text-anchor="middle" x="366" y="-27" font-family="Helvetica,sans-Serif" font-size="10.00"> </text>
<polyline fill="none" stroke="black" points="302,-20 430,-20 "/>
<text text-anchor="start" x="310" y="-8" font-family="Helvetica,sans-Serif" font-size="10.00">+ __init__()</text>
</a>
</g>
</g>
<!-- Node5&#45;&gt;Node8 -->
<g id="edge7" class="edge"><title>Node5&#45;&gt;Node8</title>
<path fill="none" stroke="midnightblue" d="M268.126,-116.444C286.824,-101.076 307.993,-83.6767 325.85,-69.0001"/>
<polygon fill="none" stroke="midnightblue" points="265.785,-113.838 260.282,-122.892 270.229,-119.246 265.785,-113.838"/>
</g>
<!-- Node10 -->
<g id="node10" class="node"><title>Node10</title>
<g id="a_node10"><a xlink:href="class_net_1_1_protocols_1_1_h_e_l_d_1_1_h_e_l_d___i_d_1_1_h_e_l_d___i_d___device.html" target="_top" xlink:title="{Net.Protocols.HELD.HELD\l_ID.HELD_ID_Device\n|+ type\l+ value\l|+ __init__()\l}">
<polygon fill="none" stroke="black" points="302,-117.5 302,-196.5 430,-196.5 430,-117.5 302,-117.5"/>
<text text-anchor="start" x="310" y="-184.5" font-family="Helvetica,sans-Serif" font-size="10.00">Net.Protocols.HELD.HELD</text>
<text text-anchor="middle" x="366" y="-173.5" font-family="Helvetica,sans-Serif" font-size="10.00">_ID.HELD_ID_Device</text>
<polyline fill="none" stroke="black" points="302,-166.5 430,-166.5 "/>
<text text-anchor="start" x="310" y="-154.5" font-family="Helvetica,sans-Serif" font-size="10.00">+ type</text>
<text text-anchor="start" x="310" y="-143.5" font-family="Helvetica,sans-Serif" font-size="10.00">+ value</text>
<polyline fill="none" stroke="black" points="302,-136.5 430,-136.5 "/>
<text text-anchor="start" x="310" y="-124.5" font-family="Helvetica,sans-Serif" font-size="10.00">+ __init__()</text>
</a>
</g>
</g>
<!-- Node9&#45;&gt;Node10 -->
<g id="edge9" class="edge"><title>Node9&#45;&gt;Node10</title>
<path fill="none" stroke="midnightblue" d="M513.421,-251.039C489.481,-237.881 462.833,-222.728 439,-208 433.12,-204.366 427.051,-200.465 421.042,-196.502"/>
<polygon fill="none" stroke="midnightblue" points="511.999,-254.25 522.452,-255.979 515.359,-248.109 511.999,-254.25"/>
</g>
<!-- Node11 -->
<g id="node11" class="node"><title>Node11</title>
<g id="a_node11"><a xlink:href="class_net_1_1_protocols_1_1_h_e_l_d_1_1_h_e_l_d___i_d_1_1_x_m_l___i_p.html" target="_top" xlink:title="{Net.Protocols.HELD.HELD\l_ID.XML_IP\n|+ IP\l+ version\l|+ __init__()\l}">
<polygon fill="none" stroke="black" points="448,-117.5 448,-196.5 576,-196.5 576,-117.5 448,-117.5"/>
<text text-anchor="start" x="456" y="-184.5" font-family="Helvetica,sans-Serif" font-size="10.00">Net.Protocols.HELD.HELD</text>
<text text-anchor="middle" x="512" y="-173.5" font-family="Helvetica,sans-Serif" font-size="10.00">_ID.XML_IP</text>
<polyline fill="none" stroke="black" points="448,-166.5 576,-166.5 "/>
<text text-anchor="start" x="456" y="-154.5" font-family="Helvetica,sans-Serif" font-size="10.00">+ IP</text>
<text text-anchor="start" x="456" y="-143.5" font-family="Helvetica,sans-Serif" font-size="10.00">+ version</text>
<polyline fill="none" stroke="black" points="448,-136.5 576,-136.5 "/>
<text text-anchor="start" x="456" y="-124.5" font-family="Helvetica,sans-Serif" font-size="10.00">+ __init__()</text>
</a>
</g>
</g>
<!-- Node9&#45;&gt;Node11 -->
<g id="edge10" class="edge"><title>Node9&#45;&gt;Node11</title>
<path fill="none" stroke="midnightblue" d="M561.705,-247.196C552.669,-230.981 542.386,-212.528 533.526,-196.629"/>
<polygon fill="none" stroke="midnightblue" points="558.654,-248.912 566.579,-255.943 564.769,-245.504 558.654,-248.912"/>
</g>
<!-- Node12 -->
<g id="node12" class="node"><title>Node12</title>
<g id="a_node12"><a xlink:href="class_net_1_1_protocols_1_1_h_e_l_d_1_1_h_e_l_d___i_d_1_1_x_m_l___i_p___port.html" target="_top" xlink:title="{Net.Protocols.HELD.HELD\l_ID.XML_IP_Port\n|+ IP\l+ version\l+ port\l+ protocol\l|+ __init__()\l}">
<polygon fill="none" stroke="black" points="594,-106.5 594,-207.5 722,-207.5 722,-106.5 594,-106.5"/>
<text text-anchor="start" x="602" y="-195.5" font-family="Helvetica,sans-Serif" font-size="10.00">Net.Protocols.HELD.HELD</text>
<text text-anchor="middle" x="658" y="-184.5" font-family="Helvetica,sans-Serif" font-size="10.00">_ID.XML_IP_Port</text>
<polyline fill="none" stroke="black" points="594,-177.5 722,-177.5 "/>
<text text-anchor="start" x="602" y="-165.5" font-family="Helvetica,sans-Serif" font-size="10.00">+ IP</text>
<text text-anchor="start" x="602" y="-154.5" font-family="Helvetica,sans-Serif" font-size="10.00">+ version</text>
<text text-anchor="start" x="602" y="-143.5" font-family="Helvetica,sans-Serif" font-size="10.00">+ port</text>
<text text-anchor="start" x="602" y="-132.5" font-family="Helvetica,sans-Serif" font-size="10.00">+ protocol</text>
<polyline fill="none" stroke="black" points="594,-125.5 722,-125.5 "/>
<text text-anchor="start" x="602" y="-113.5" font-family="Helvetica,sans-Serif" font-size="10.00">+ __init__()</text>
</a>
</g>
</g>
<!-- Node9&#45;&gt;Node12 -->
<g id="edge11" class="edge"><title>Node9&#45;&gt;Node12</title>
<path fill="none" stroke="midnightblue" d="M608.364,-247.073C615.357,-234.524 623.092,-220.643 630.334,-207.648"/>
<polygon fill="none" stroke="midnightblue" points="605.231,-245.504 603.421,-255.943 611.346,-248.912 605.231,-245.504"/>
</g>
<!-- Node13 -->
<g id="node13" class="node"><title>Node13</title>
<g id="a_node13"><a xlink:href="class_net_1_1_protocols_1_1_h_e_l_d_1_1_h_e_l_d___i_d_1_1_x_m_l___m_a_c.html" target="_top" xlink:title="{Net.Protocols.HELD.HELD\l_ID.XML_MAC\n|+ MAC\l|+ __init__()\l}">
<polygon fill="none" stroke="black" points="740,-123 740,-191 868,-191 868,-123 740,-123"/>
<text text-anchor="start" x="748" y="-179" font-family="Helvetica,sans-Serif" font-size="10.00">Net.Protocols.HELD.HELD</text>
<text text-anchor="middle" x="804" y="-168" font-family="Helvetica,sans-Serif" font-size="10.00">_ID.XML_MAC</text>
<polyline fill="none" stroke="black" points="740,-161 868,-161 "/>
<text text-anchor="start" x="748" y="-149" font-family="Helvetica,sans-Serif" font-size="10.00">+ MAC</text>
<polyline fill="none" stroke="black" points="740,-142 868,-142 "/>
<text text-anchor="start" x="748" y="-130" font-family="Helvetica,sans-Serif" font-size="10.00">+ __init__()</text>
</a>
</g>
</g>
<!-- Node9&#45;&gt;Node13 -->
<g id="edge12" class="edge"><title>Node9&#45;&gt;Node13</title>
<path fill="none" stroke="midnightblue" d="M656.579,-251.039C680.519,-237.881 707.167,-222.728 731,-208 739.494,-202.751 748.381,-196.944 756.913,-191.201"/>
<polygon fill="none" stroke="midnightblue" points="654.641,-248.109 647.548,-255.979 658.001,-254.25 654.641,-248.109"/>
</g>
<!-- Node15 -->
<g id="node15" class="node"><title>Node15</title>
<g id="a_node15"><a xlink:href="class_net_1_1_protocols_1_1_h_e_l_d_1_1_cucumbers_1_1_response.html" target="_top" xlink:title="{Net.Protocols.HELD.Cucumbers.\lResponse\n||+ pickle_XML()\l}">
<polygon fill="none" stroke="black" points="922.5,-256 922.5,-324 1075.5,-324 1075.5,-256 922.5,-256"/>
<text text-anchor="start" x="930.5" y="-312" font-family="Helvetica,sans-Serif" font-size="10.00">Net.Protocols.HELD.Cucumbers.</text>
<text text-anchor="middle" x="999" y="-301" font-family="Helvetica,sans-Serif" font-size="10.00">Response</text>
<polyline fill="none" stroke="black" points="922.5,-294 1075.5,-294 "/>
<text text-anchor="middle" x="999" y="-282" font-family="Helvetica,sans-Serif" font-size="10.00"> </text>
<polyline fill="none" stroke="black" points="922.5,-275 1075.5,-275 "/>
<text text-anchor="start" x="930.5" y="-263" font-family="Helvetica,sans-Serif" font-size="10.00">+ pickle_XML()</text>
</a>
</g>
</g>
<!-- Node14&#45;&gt;Node15 -->
<g id="edge14" class="edge"><title>Node14&#45;&gt;Node15</title>
<path fill="none" stroke="midnightblue" d="M999,-362.383C999,-349.72 999,-336.101 999,-324.188"/>
<polygon fill="none" stroke="midnightblue" points="995.5,-362.737 999,-372.737 1002.5,-362.737 995.5,-362.737"/>
</g>
<!-- Node23 -->
<g id="node23" class="node"><title>Node23</title>
<g id="a_node23"><a xlink:href="class_net_1_1_protocols_1_1_h_e_l_d_1_1_h_e_l_d___i_d_1_1_h_e_l_d___i_d___error.html" target="_top" xlink:title="Corresponds to RFC 5985 error response when the location request cannot be fulfilled.">
<polygon fill="none" stroke="black" points="1167,-245 1167,-335 1295,-335 1295,-245 1167,-245"/>
<text text-anchor="start" x="1175" y="-323" font-family="Helvetica,sans-Serif" font-size="10.00">Net.Protocols.HELD.HELD</text>
<text text-anchor="middle" x="1231" y="-312" font-family="Helvetica,sans-Serif" font-size="10.00">_ID.HELD_ID_Error</text>
<polyline fill="none" stroke="black" points="1167,-305 1295,-305 "/>
<text text-anchor="start" x="1175" y="-293" font-family="Helvetica,sans-Serif" font-size="10.00">+ name</text>
<text text-anchor="start" x="1175" y="-282" font-family="Helvetica,sans-Serif" font-size="10.00">+ code</text>
<polyline fill="none" stroke="black" points="1167,-275 1295,-275 "/>
<text text-anchor="start" x="1175" y="-263" font-family="Helvetica,sans-Serif" font-size="10.00">+ __init__()</text>
<text text-anchor="start" x="1175" y="-252" font-family="Helvetica,sans-Serif" font-size="10.00">+ __str__()</text>
</a>
</g>
</g>
<!-- Node14&#45;&gt;Node23 -->
<g id="edge22" class="edge"><title>Node14&#45;&gt;Node23</title>
<path fill="none" stroke="midnightblue" d="M1074.86,-368.395C1104.54,-353.684 1138.22,-336.992 1166.67,-322.886"/>
<polygon fill="none" stroke="midnightblue" points="1073.2,-365.314 1065.79,-372.892 1076.31,-371.586 1073.2,-365.314"/>
</g>
<!-- Node16 -->
<g id="node16" class="node"><title>Node16</title>
<g id="a_node16"><a xlink:href="class_net_1_1_protocols_1_1_h_e_l_d_1_1_cucumbers_1_1_location_u_r_i__set.html" target="_top" xlink:title="{Net.Protocols.HELD.Cucumbers.\lLocationURI_set\n|+ expires\l|+ __init__()\l+ pickle_XML()\l}">
<polygon fill="none" stroke="black" points="886.5,-117.5 886.5,-196.5 1039.5,-196.5 1039.5,-117.5 886.5,-117.5"/>
<text text-anchor="start" x="894.5" y="-184.5" font-family="Helvetica,sans-Serif" font-size="10.00">Net.Protocols.HELD.Cucumbers.</text>
<text text-anchor="middle" x="963" y="-173.5" font-family="Helvetica,sans-Serif" font-size="10.00">LocationURI_set</text>
<polyline fill="none" stroke="black" points="886.5,-166.5 1039.5,-166.5 "/>
<text text-anchor="start" x="894.5" y="-154.5" font-family="Helvetica,sans-Serif" font-size="10.00">+ expires</text>
<polyline fill="none" stroke="black" points="886.5,-147.5 1039.5,-147.5 "/>
<text text-anchor="start" x="894.5" y="-135.5" font-family="Helvetica,sans-Serif" font-size="10.00">+ __init__()</text>
<text text-anchor="start" x="894.5" y="-124.5" font-family="Helvetica,sans-Serif" font-size="10.00">+ pickle_XML()</text>
</a>
</g>
</g>
<!-- Node15&#45;&gt;Node16 -->
<g id="edge15" class="edge"><title>Node15&#45;&gt;Node16</title>
<path fill="none" stroke="midnightblue" d="M987.264,-246.293C982.868,-230.299 977.904,-212.233 973.616,-196.629"/>
<polygon fill="none" stroke="midnightblue" points="983.891,-247.228 989.916,-255.943 990.641,-245.373 983.891,-247.228"/>
</g>
<!-- Node17 -->
<g id="node17" class="node"><title>Node17</title>
<g id="a_node17"><a xlink:href="class_net_1_1_protocols_1_1_h_e_l_d_1_1_errors_1_1_h_e_l_d___error___response.html" target="_top" xlink:title="{Net.Protocols.HELD.Errors.\lHELD_Error_Response\n||+ __init__()\l}">
<polygon fill="none" stroke="black" points="1058,-123 1058,-191 1186,-191 1186,-123 1058,-123"/>
<text text-anchor="start" x="1066" y="-179" font-family="Helvetica,sans-Serif" font-size="10.00">Net.Protocols.HELD.Errors.</text>
<text text-anchor="middle" x="1122" y="-168" font-family="Helvetica,sans-Serif" font-size="10.00">HELD_Error_Response</text>
<polyline fill="none" stroke="black" points="1058,-161 1186,-161 "/>
<text text-anchor="middle" x="1122" y="-149" font-family="Helvetica,sans-Serif" font-size="10.00"> </text>
<polyline fill="none" stroke="black" points="1058,-142 1186,-142 "/>
<text text-anchor="start" x="1066" y="-130" font-family="Helvetica,sans-Serif" font-size="10.00">+ __init__()</text>
</a>
</g>
</g>
<!-- Node15&#45;&gt;Node17 -->
<g id="edge16" class="edge"><title>Node15&#45;&gt;Node17</title>
<path fill="none" stroke="midnightblue" d="M1037.25,-248.267C1054.52,-229.872 1074.66,-208.421 1090.97,-191.046"/>
<polygon fill="none" stroke="midnightblue" points="1034.33,-246.257 1030.04,-255.943 1039.43,-251.049 1034.33,-246.257"/>
</g>
<!-- Node18 -->
<g id="node18" class="node"><title>Node18</title>
<g id="a_node18"><a xlink:href="class_net_1_1_protocols_1_1_h_e_l_d_1_1_errors_1_1_cannot_provide_l_i_type.html" target="_top" xlink:title="Indicates that the LIS was unable to provide LI of the type or types requested.">
<polygon fill="none" stroke="black" points="766,-1 766,-69 894,-69 894,-1 766,-1"/>
<text text-anchor="start" x="774" y="-57" font-family="Helvetica,sans-Serif" font-size="10.00">Net.Protocols.HELD.Errors.</text>
<text text-anchor="middle" x="830" y="-46" font-family="Helvetica,sans-Serif" font-size="10.00">CannotProvideLIType</text>
<polyline fill="none" stroke="black" points="766,-39 894,-39 "/>
<text text-anchor="middle" x="830" y="-27" font-family="Helvetica,sans-Serif" font-size="10.00"> </text>
<polyline fill="none" stroke="black" points="766,-20 894,-20 "/>
<text text-anchor="start" x="774" y="-8" font-family="Helvetica,sans-Serif" font-size="10.00">+ __init__()</text>
</a>
</g>
</g>
<!-- Node17&#45;&gt;Node18 -->
<g id="edge17" class="edge"><title>Node17&#45;&gt;Node18</title>
<path fill="none" stroke="midnightblue" d="M1069.67,-117.43C1062.6,-113.185 1055.27,-109.236 1048,-106 987.337,-78.998 965.608,-92.1198 903,-70 900.1,-68.9754 897.159,-67.8758 894.206,-66.7216"/>
<polygon fill="none" stroke="midnightblue" points="1068.14,-120.598 1078.47,-122.934 1071.85,-114.663 1068.14,-120.598"/>
</g>
<!-- Node19 -->
<g id="node19" class="node"><title>Node19</title>
<g id="a_node19"><a xlink:href="class_net_1_1_protocols_1_1_h_e_l_d_1_1_errors_1_1_general_l_i_s_error.html" target="_top" xlink:title="Indicates that an unspecified error occurred at the LIS.">
<polygon fill="none" stroke="black" points="912,-1 912,-69 1040,-69 1040,-1 912,-1"/>
<text text-anchor="start" x="920" y="-57" font-family="Helvetica,sans-Serif" font-size="10.00">Net.Protocols.HELD.Errors.</text>
<text text-anchor="middle" x="976" y="-46" font-family="Helvetica,sans-Serif" font-size="10.00">GeneralLISError</text>
<polyline fill="none" stroke="black" points="912,-39 1040,-39 "/>
<text text-anchor="middle" x="976" y="-27" font-family="Helvetica,sans-Serif" font-size="10.00"> </text>
<polyline fill="none" stroke="black" points="912,-20 1040,-20 "/>
<text text-anchor="start" x="920" y="-8" font-family="Helvetica,sans-Serif" font-size="10.00">+ __init__()</text>
</a>
</g>
</g>
<!-- Node17&#45;&gt;Node19 -->
<g id="edge18" class="edge"><title>Node17&#45;&gt;Node19</title>
<path fill="none" stroke="midnightblue" d="M1073.87,-116.444C1055.18,-101.076 1034.01,-83.6767 1016.15,-69.0001"/>
<polygon fill="none" stroke="midnightblue" points="1071.77,-119.246 1081.72,-122.892 1076.22,-113.838 1071.77,-119.246"/>
</g>
<!-- Node20 -->
<g id="node20" class="node"><title>Node20</title>
<g id="a_node20"><a xlink:href="class_net_1_1_protocols_1_1_h_e_l_d_1_1_errors_1_1_location_unknown.html" target="_top" xlink:title="Indicates that the LIS could not determine the location of the device.">
<polygon fill="none" stroke="black" points="1058,-1 1058,-69 1186,-69 1186,-1 1058,-1"/>
<text text-anchor="start" x="1066" y="-57" font-family="Helvetica,sans-Serif" font-size="10.00">Net.Protocols.HELD.Errors.</text>
<text text-anchor="middle" x="1122" y="-46" font-family="Helvetica,sans-Serif" font-size="10.00">LocationUnknown</text>
<polyline fill="none" stroke="black" points="1058,-39 1186,-39 "/>
<text text-anchor="middle" x="1122" y="-27" font-family="Helvetica,sans-Serif" font-size="10.00"> </text>
<polyline fill="none" stroke="black" points="1058,-20 1186,-20 "/>
<text text-anchor="start" x="1066" y="-8" font-family="Helvetica,sans-Serif" font-size="10.00">+ __init__()</text>
</a>
</g>
</g>
<!-- Node17&#45;&gt;Node20 -->
<g id="edge19" class="edge"><title>Node17&#45;&gt;Node20</title>
<path fill="none" stroke="midnightblue" d="M1122,-112.702C1122,-98.2976 1122,-82.4973 1122,-69.0001"/>
<polygon fill="none" stroke="midnightblue" points="1118.5,-112.892 1122,-122.892 1125.5,-112.892 1118.5,-112.892"/>
</g>
<!-- Node21 -->
<g id="node21" class="node"><title>Node21</title>
<g id="a_node21"><a xlink:href="class_net_1_1_protocols_1_1_h_e_l_d_1_1_errors_1_1_not_locatable.html" target="_top" xlink:title="Indicates that the LIS is unable to locate the Device.">
<polygon fill="none" stroke="black" points="1204,-1 1204,-69 1332,-69 1332,-1 1204,-1"/>
<text text-anchor="start" x="1212" y="-57" font-family="Helvetica,sans-Serif" font-size="10.00">Net.Protocols.HELD.Errors.</text>
<text text-anchor="middle" x="1268" y="-46" font-family="Helvetica,sans-Serif" font-size="10.00">NotLocatable</text>
<polyline fill="none" stroke="black" points="1204,-39 1332,-39 "/>
<text text-anchor="middle" x="1268" y="-27" font-family="Helvetica,sans-Serif" font-size="10.00"> </text>
<polyline fill="none" stroke="black" points="1204,-20 1332,-20 "/>
<text text-anchor="start" x="1212" y="-8" font-family="Helvetica,sans-Serif" font-size="10.00">+ __init__()</text>
</a>
</g>
</g>
<!-- Node17&#45;&gt;Node21 -->
<g id="edge20" class="edge"><title>Node17&#45;&gt;Node21</title>
<path fill="none" stroke="midnightblue" d="M1170.13,-116.444C1188.82,-101.076 1209.99,-83.6767 1227.85,-69.0001"/>
<polygon fill="none" stroke="midnightblue" points="1167.78,-113.838 1162.28,-122.892 1172.23,-119.246 1167.78,-113.838"/>
</g>
<!-- Node22 -->
<g id="node22" class="node"><title>Node22</title>
<g id="a_node22"><a xlink:href="class_net_1_1_protocols_1_1_h_e_l_d_1_1_errors_1_1_timeout.html" target="_top" xlink:title="Indicates that the LIS could not satisfy the request within the time specified.">
<polygon fill="none" stroke="black" points="1350,-1 1350,-69 1478,-69 1478,-1 1350,-1"/>
<text text-anchor="start" x="1358" y="-57" font-family="Helvetica,sans-Serif" font-size="10.00">Net.Protocols.HELD.Errors.</text>
<text text-anchor="middle" x="1414" y="-46" font-family="Helvetica,sans-Serif" font-size="10.00">Timeout</text>
<polyline fill="none" stroke="black" points="1350,-39 1478,-39 "/>
<text text-anchor="middle" x="1414" y="-27" font-family="Helvetica,sans-Serif" font-size="10.00"> </text>
<polyline fill="none" stroke="black" points="1350,-20 1478,-20 "/>
<text text-anchor="start" x="1358" y="-8" font-family="Helvetica,sans-Serif" font-size="10.00">+ __init__()</text>
</a>
</g>
</g>
<!-- Node17&#45;&gt;Node22 -->
<g id="edge21" class="edge"><title>Node17&#45;&gt;Node22</title>
<path fill="none" stroke="midnightblue" d="M1173.57,-117.405C1180.56,-113.164 1187.8,-109.223 1195,-106 1255.99,-78.6784 1277.97,-92.2131 1341,-70 1343.9,-68.9777 1346.84,-67.88 1349.8,-66.7274"/>
<polygon fill="none" stroke="midnightblue" points="1171.46,-114.599 1164.89,-122.906 1175.21,-120.512 1171.46,-114.599"/>
</g>
<!-- Node24 -->
<g id="node24" class="node"><title>Node24</title>
<g id="a_node24"><a xlink:href="class_net_1_1_protocols_1_1_h_e_l_d_1_1_h_e_l_d___i_d_1_1_bad_identifier.html" target="_top" xlink:title="Indicates that a Device identifier used in the HELD request is not supported, badly formatted...">
<polygon fill="none" stroke="black" points="1204,-123 1204,-191 1332,-191 1332,-123 1204,-123"/>
<text text-anchor="start" x="1212" y="-179" font-family="Helvetica,sans-Serif" font-size="10.00">Net.Protocols.HELD.HELD</text>
<text text-anchor="middle" x="1268" y="-168" font-family="Helvetica,sans-Serif" font-size="10.00">_ID.BadIdentifier</text>
<polyline fill="none" stroke="black" points="1204,-161 1332,-161 "/>
<text text-anchor="middle" x="1268" y="-149" font-family="Helvetica,sans-Serif" font-size="10.00"> </text>
<polyline fill="none" stroke="black" points="1204,-142 1332,-142 "/>
<text text-anchor="start" x="1212" y="-130" font-family="Helvetica,sans-Serif" font-size="10.00">+ __init__()</text>
</a>
</g>
</g>
<!-- Node23&#45;&gt;Node24 -->
<g id="edge23" class="edge"><title>Node23&#45;&gt;Node24</title>
<path fill="none" stroke="midnightblue" d="M1246.25,-235.021C1250.45,-220.138 1254.88,-204.437 1258.65,-191.12"/>
<polygon fill="none" stroke="midnightblue" points="1242.88,-234.075 1243.53,-244.649 1249.61,-235.977 1242.88,-234.075"/>
</g>
</g>
</svg>
        <g id="navigator" transform="translate(0 0)" fill="#404254">
                <rect fill="#f2f5e9" fill-opacity="0.5" stroke="#606060" stroke-width=".5" x="0" y="0" width="60" height="60"/>
                <use id="zoomplus" xlink:href="#zoomPlus" x="17" y="9" onmousedown="handleZoom(evt,'in')"/>
                <use id="zoomminus" xlink:href="#zoomMin" x="42" y="9" onmousedown="handleZoom(evt,'out')"/>
                <use id="reset" xlink:href="#resetDef" x="30" y="36" onmousedown="handleReset()"/>
                <g id="arrowUp" xlink:href="#dirArrow" transform="translate(30 24)" onmousedown="handlePan(0,-1)">
                  <use xlink:href="#rim" fill="#404040">
                        <set attributeName="fill" to="#808080" begin="arrowUp.mouseover" end="arrowUp.mouseout"/>
                  </use>
                  <path fill="none" stroke="white" stroke-width="1.5" d="M0,-3.0v7 M-2.5,-0.5L0,-3.0L2.5,-0.5"/>
                </g>
                <g id="arrowRight" xlink:href="#dirArrow" transform="rotate(90) translate(36 -43)" onmousedown="handlePan(1,0)">
                  <use xlink:href="#rim" fill="#404040">
                        <set attributeName="fill" to="#808080" begin="arrowRight.mouseover" end="arrowRight.mouseout"/>
                  </use>
                  <path fill="none" stroke="white" stroke-width="1.5" d="M0,-3.0v7 M-2.5,-0.5L0,-3.0L2.5,-0.5"/>
                </g>
                <g id="arrowDown" xlink:href="#dirArrow" transform="rotate(180) translate(-30 -48)" onmousedown="handlePan(0,1)">
                  <use xlink:href="#rim" fill="#404040">
                        <set attributeName="fill" to="#808080" begin="arrowDown.mouseover" end="arrowDown.mouseout"/>
                  </use>
                  <path fill="none" stroke="white" stroke-width="1.5" d="M0,-3.0v7 M-2.5,-0.5L0,-3.0L2.5,-0.5"/>
                </g>
                <g id="arrowLeft" xlink:href="#dirArrow" transform="rotate(270) translate(-36 17)" onmousedown="handlePan(-1,0)">
                  <use xlink:href="#rim" fill="#404040">
                        <set attributeName="fill" to="#808080" begin="arrowLeft.mouseover" end="arrowLeft.mouseout"/>
                  </use>
                  <path fill="none" stroke="white" stroke-width="1.5" d="M0,-3.0v7 M-2.5,-0.5L0,-3.0L2.5,-0.5"/>
                </g>
        </g>
        <svg viewBox="0 0 15 15" width="100%" height="30px" preserveAspectRatio="xMaxYMin meet">
         <g id="arrow_out" transform="scale(0.3 0.3)">
          <a xlink:href="class_net_1_1_protocols_1_1base_1_1_cucumber_1_1_cucumber__inherit__graph_org.svg" target="_base">
           <rect id="button" ry="5" rx="5" y="6" x="6" height="38" width="38"
                fill="#f2f5e9" fill-opacity="0.5" stroke="#606060" stroke-width="1.0"/>
           <path id="arrow"
             d="M 11.500037,31.436501 C 11.940474,20.09759 22.043105,11.32322 32.158766,21.979434 L 37.068811,17.246167 C 37.068811,17.246167 37.088388,32 37.088388,32 L 22.160133,31.978069 C 22.160133,31.978069 26.997745,27.140456 26.997745,27.140456 C 18.528582,18.264221 13.291696,25.230495 11.500037,31.436501 z"
             style="fill:#404040;"/>
          </a>
         </g>
        </svg>
</svg>
