<?xml version="1.0" encoding="UTF-8" standalone="no"?>
<!DOCTYPE svg PUBLIC "-//W3C//DTD SVG 1.1//EN"
 "http://www.w3.org/Graphics/SVG/1.1/DTD/svg11.dtd">
<!-- Generated by graphviz version 2.30.1 (20130219.2202)
 -->
<!-- Title: object Pages: 1 -->
<svg width="1486pt" height="770pt"
 viewBox="0.00 0.00 1486.00 770.00" xmlns="http://www.w3.org/2000/svg" xmlns:xlink="http://www.w3.org/1999/xlink">
<g id="graph0" class="graph" transform="scale(1 1) rotate(0) translate(4 766)">
<title>object</title>
<!-- Node1 -->
<g id="node1" class="node"><title>Node1</title>
<polygon fill="#bfbfbf" stroke="black" points="776,-704.5 776,-761.5 818,-761.5 818,-704.5 776,-704.5"/>
<text text-anchor="middle" x="797" y="-749.5" font-family="Helvetica,sans-Serif" font-size="10.00">object</text>
<polyline fill="none" stroke="black" points="776,-742.5 818,-742.5 "/>
<text text-anchor="middle" x="797" y="-730.5" font-family="Helvetica,sans-Serif" font-size="10.00"> </text>
<polyline fill="none" stroke="black" points="776,-723.5 818,-723.5 "/>
<text text-anchor="middle" x="797" y="-711.5" font-family="Helvetica,sans-Serif" font-size="10.00"> </text>
</g>
<!-- Node2 -->
<g id="node2" class="node"><title>Node2</title>
<g id="a_node2"><a xlink:href="class_net_1_1_protocols_1_1base_1_1___descriptor_1_1___descriptor.html" target="_top" xlink:title="{Net.Protocols.base.\l_Descriptor._Descriptor\n||+ pickle_validateCucumbers()\l+ pickle()\l+ unpickle()\l}">
<polygon fill="none" stroke="black" points="260,-533 260,-623 402,-623 402,-533 260,-533"/>
<text text-anchor="start" x="268" y="-611" font-family="Helvetica,sans-Serif" font-size="10.00">Net.Protocols.base.</text>
<text text-anchor="middle" x="331" y="-600" font-family="Helvetica,sans-Serif" font-size="10.00">_Descriptor._Descriptor</text>
<polyline fill="none" stroke="black" points="260,-593 402,-593 "/>
<text text-anchor="middle" x="331" y="-581" font-family="Helvetica,sans-Serif" font-size="10.00"> </text>
<polyline fill="none" stroke="black" points="260,-574 402,-574 "/>
<text text-anchor="start" x="268" y="-562" font-family="Helvetica,sans-Serif" font-size="10.00">+ pickle_validateCucumbers()</text>
<text text-anchor="start" x="268" y="-551" font-family="Helvetica,sans-Serif" font-size="10.00">+ pickle()</text>
<text text-anchor="start" x="268" y="-540" font-family="Helvetica,sans-Serif" font-size="10.00">+ unpickle()</text>
</a>
</g>
</g>
<!-- Node1&#45;&gt;Node2 -->
<g id="edge1" class="edge"><title>Node1&#45;&gt;Node2</title>
<path fill="none" stroke="midnightblue" d="M765.881,-729.503C685.405,-722.628 472.424,-701.672 411,-668 391.324,-657.214 374.012,-639.688 360.57,-623.03"/>
<polygon fill="none" stroke="midnightblue" points="765.635,-732.994 775.893,-730.343 766.221,-726.019 765.635,-732.994"/>
</g>
<!-- Node5 -->
<g id="node5" class="node"><title>Node5</title>
<g id="a_node5"><a xlink:href="class_net_1_1_protocols_1_1base_1_1___location_u_r_i_1_1_location_u_r_i.html" target="_top" xlink:title="Stores a location URI.">
<polygon fill="none" stroke="black" points="420,-494.5 420,-661.5 548,-661.5 548,-494.5 420,-494.5"/>
<text text-anchor="start" x="428" y="-649.5" font-family="Helvetica,sans-Serif" font-size="10.00">Net.Protocols.base.</text>
<text text-anchor="middle" x="484" y="-638.5" font-family="Helvetica,sans-Serif" font-size="10.00">_LocationURI.LocationURI</text>
<polyline fill="none" stroke="black" points="420,-631.5 548,-631.5 "/>
<text text-anchor="start" x="428" y="-619.5" font-family="Helvetica,sans-Serif" font-size="10.00">+ scheme</text>
<text text-anchor="start" x="428" y="-608.5" font-family="Helvetica,sans-Serif" font-size="10.00">+ hostname</text>
<text text-anchor="start" x="428" y="-597.5" font-family="Helvetica,sans-Serif" font-size="10.00">+ username</text>
<text text-anchor="start" x="428" y="-586.5" font-family="Helvetica,sans-Serif" font-size="10.00">+ password</text>
<text text-anchor="start" x="428" y="-575.5" font-family="Helvetica,sans-Serif" font-size="10.00">+ port</text>
<text text-anchor="start" x="428" y="-564.5" font-family="Helvetica,sans-Serif" font-size="10.00">+ path</text>
<text text-anchor="start" x="428" y="-553.5" font-family="Helvetica,sans-Serif" font-size="10.00">+ query</text>
<text text-anchor="start" x="428" y="-542.5" font-family="Helvetica,sans-Serif" font-size="10.00">+ fragment</text>
<polyline fill="none" stroke="black" points="420,-535.5 548,-535.5 "/>
<text text-anchor="start" x="428" y="-523.5" font-family="Helvetica,sans-Serif" font-size="10.00">+ __init__()</text>
<text text-anchor="start" x="428" y="-512.5" font-family="Helvetica,sans-Serif" font-size="10.00">+ __str__()</text>
<text text-anchor="start" x="428" y="-501.5" font-family="Helvetica,sans-Serif" font-size="10.00">+ parseStr()</text>
</a>
</g>
</g>
<!-- Node1&#45;&gt;Node5 -->
<g id="edge4" class="edge"><title>Node1&#45;&gt;Node5</title>
<path fill="none" stroke="midnightblue" d="M765.517,-729.755C717.151,-725.025 623.229,-710.659 557,-668 553.976,-666.052 551.016,-663.938 548.127,-661.691"/>
<polygon fill="none" stroke="midnightblue" points="765.403,-733.259 775.677,-730.671 766.032,-726.288 765.403,-733.259"/>
</g>
<!-- Node6 -->
<g id="node6" class="node"><title>Node6</title>
<g id="a_node6"><a xlink:href="class_net_1_1_protocols_1_1base_1_1___meta_descriptor_1_1_meta_descriptor.html" target="_top" xlink:title="{Net.Protocols.base.\l_MetaDescriptor.MetaDescriptor\n||+ register()\l+ find()\l+ getName()\l+ getClass_Descriptor\l_Client()\l+ getClass_Descriptor\l_Server()\l+ getClass_Interface\l_Client()\l+ getClass_Interface\l_Server()\l}">
<polygon fill="none" stroke="black" points="566,-489 566,-667 718,-667 718,-489 566,-489"/>
<text text-anchor="start" x="574" y="-655" font-family="Helvetica,sans-Serif" font-size="10.00">Net.Protocols.base.</text>
<text text-anchor="middle" x="642" y="-644" font-family="Helvetica,sans-Serif" font-size="10.00">_MetaDescriptor.MetaDescriptor</text>
<polyline fill="none" stroke="black" points="566,-637 718,-637 "/>
<text text-anchor="middle" x="642" y="-625" font-family="Helvetica,sans-Serif" font-size="10.00"> </text>
<polyline fill="none" stroke="black" points="566,-618 718,-618 "/>
<text text-anchor="start" x="574" y="-606" font-family="Helvetica,sans-Serif" font-size="10.00">+ register()</text>
<text text-anchor="start" x="574" y="-595" font-family="Helvetica,sans-Serif" font-size="10.00">+ find()</text>
<text text-anchor="start" x="574" y="-584" font-family="Helvetica,sans-Serif" font-size="10.00">+ getName()</text>
<text text-anchor="start" x="574" y="-573" font-family="Helvetica,sans-Serif" font-size="10.00">+ getClass_Descriptor</text>
<text text-anchor="start" x="574" y="-562" font-family="Helvetica,sans-Serif" font-size="10.00">_Client()</text>
<text text-anchor="start" x="574" y="-551" font-family="Helvetica,sans-Serif" font-size="10.00">+ getClass_Descriptor</text>
<text text-anchor="start" x="574" y="-540" font-family="Helvetica,sans-Serif" font-size="10.00">_Server()</text>
<text text-anchor="start" x="574" y="-529" font-family="Helvetica,sans-Serif" font-size="10.00">+ getClass_Interface</text>
<text text-anchor="start" x="574" y="-518" font-family="Helvetica,sans-Serif" font-size="10.00">_Client()</text>
<text text-anchor="start" x="574" y="-507" font-family="Helvetica,sans-Serif" font-size="10.00">+ getClass_Interface</text>
<text text-anchor="start" x="574" y="-496" font-family="Helvetica,sans-Serif" font-size="10.00">_Server()</text>
</a>
</g>
</g>
<!-- Node1&#45;&gt;Node6 -->
<g id="edge5" class="edge"><title>Node1&#45;&gt;Node6</title>
<path fill="none" stroke="midnightblue" d="M768.198,-706.467C755.396,-694.915 740.256,-680.97 727,-668 724.098,-665.161 721.159,-662.253 718.204,-659.302"/>
<polygon fill="none" stroke="midnightblue" points="766.05,-709.242 775.828,-713.32 770.727,-704.034 766.05,-709.242"/>
</g>
<!-- Node7 -->
<g id="node7" class="node"><title>Node7</title>
<g id="a_node7"><a xlink:href="class_net_1_1_protocols_1_1base_1_1_client_server_info_1_1_client_info.html" target="_top" xlink:title="{Net.Protocols.base.Client\lServerInfo.ClientInfo\n|+ IP\l|+ __init__()\l}">
<polygon fill="none" stroke="black" points="736,-544 736,-612 858,-612 858,-544 736,-544"/>
<text text-anchor="start" x="744" y="-600" font-family="Helvetica,sans-Serif" font-size="10.00">Net.Protocols.base.Client</text>
<text text-anchor="middle" x="797" y="-589" font-family="Helvetica,sans-Serif" font-size="10.00">ServerInfo.ClientInfo</text>
<polyline fill="none" stroke="black" points="736,-582 858,-582 "/>
<text text-anchor="start" x="744" y="-570" font-family="Helvetica,sans-Serif" font-size="10.00">+ IP</text>
<polyline fill="none" stroke="black" points="736,-563 858,-563 "/>
<text text-anchor="start" x="744" y="-551" font-family="Helvetica,sans-Serif" font-size="10.00">+ __init__()</text>
</a>
</g>
</g>
<!-- Node1&#45;&gt;Node7 -->
<g id="edge6" class="edge"><title>Node1&#45;&gt;Node7</title>
<path fill="none" stroke="midnightblue" d="M797,-694.018C797,-668.861 797,-636.184 797,-612.092"/>
<polygon fill="none" stroke="midnightblue" points="793.5,-694.293 797,-704.293 800.5,-694.293 793.5,-694.293"/>
</g>
<!-- Node8 -->
<g id="node8" class="node"><title>Node8</title>
<g id="a_node8"><a xlink:href="class_net_1_1_protocols_1_1base_1_1_cucumber_1_1_cucumber.html" target="_top" xlink:title="{Net.Protocols.base.Cucumber.\lCucumber\n||}">
<polygon fill="none" stroke="black" points="876,-544 876,-612 1020,-612 1020,-544 876,-544"/>
<text text-anchor="start" x="884" y="-600" font-family="Helvetica,sans-Serif" font-size="10.00">Net.Protocols.base.Cucumber.</text>
<text text-anchor="middle" x="948" y="-589" font-family="Helvetica,sans-Serif" font-size="10.00">Cucumber</text>
<polyline fill="none" stroke="black" points="876,-582 1020,-582 "/>
<text text-anchor="middle" x="948" y="-570" font-family="Helvetica,sans-Serif" font-size="10.00"> </text>
<polyline fill="none" stroke="black" points="876,-563 1020,-563 "/>
<text text-anchor="middle" x="948" y="-551" font-family="Helvetica,sans-Serif" font-size="10.00"> </text>
</a>
</g>
</g>
<!-- Node1&#45;&gt;Node8 -->
<g id="edge7" class="edge"><title>Node1&#45;&gt;Node8</title>
<path fill="none" stroke="midnightblue" d="M825.95,-706.616C838.78,-695.093 853.901,-681.129 867,-668 884.855,-650.104 903.927,-629.242 919.077,-612.217"/>
<polygon fill="none" stroke="midnightblue" points="823.427,-704.176 818.297,-713.446 828.088,-709.399 823.427,-704.176"/>
</g>
<!-- Node31 -->
<g id="node31" class="node"><title>Node31</title>
<g id="a_node31"><a xlink:href="class_net_1_1_protocols_1_1base_1_1_cucumber_1_1_interface___client.html" target="_top" xlink:title="{Net.Protocols.base.Cucumber.\lInterface_Client\n||}">
<polygon fill="none" stroke="black" points="1038,-544 1038,-612 1182,-612 1182,-544 1038,-544"/>
<text text-anchor="start" x="1046" y="-600" font-family="Helvetica,sans-Serif" font-size="10.00">Net.Protocols.base.Cucumber.</text>
<text text-anchor="middle" x="1110" y="-589" font-family="Helvetica,sans-Serif" font-size="10.00">Interface_Client</text>
<polyline fill="none" stroke="black" points="1038,-582 1182,-582 "/>
<text text-anchor="middle" x="1110" y="-570" font-family="Helvetica,sans-Serif" font-size="10.00"> </text>
<polyline fill="none" stroke="black" points="1038,-563 1182,-563 "/>
<text text-anchor="middle" x="1110" y="-551" font-family="Helvetica,sans-Serif" font-size="10.00"> </text>
</a>
</g>
</g>
<!-- Node1&#45;&gt;Node31 -->
<g id="edge30" class="edge"><title>Node1&#45;&gt;Node31</title>
<path fill="none" stroke="midnightblue" d="M828.189,-728.966C874.899,-723.249 964.426,-707.661 1029,-668 1052.14,-653.785 1072.67,-631.057 1087.27,-612.127"/>
<polygon fill="none" stroke="midnightblue" points="827.62,-725.508 818.086,-730.129 828.42,-732.462 827.62,-725.508"/>
</g>
<!-- Node32 -->
<g id="node32" class="node"><title>Node32</title>
<g id="a_node32"><a xlink:href="class_net_1_1_protocols_1_1base_1_1_cucumber_1_1_interface___server.html" target="_top" xlink:title="{Net.Protocols.base.Cucumber.\lInterface_Server\n||}">
<polygon fill="none" stroke="black" points="1200,-544 1200,-612 1344,-612 1344,-544 1200,-544"/>
<text text-anchor="start" x="1208" y="-600" font-family="Helvetica,sans-Serif" font-size="10.00">Net.Protocols.base.Cucumber.</text>
<text text-anchor="middle" x="1272" y="-589" font-family="Helvetica,sans-Serif" font-size="10.00">Interface_Server</text>
<polyline fill="none" stroke="black" points="1200,-582 1344,-582 "/>
<text text-anchor="middle" x="1272" y="-570" font-family="Helvetica,sans-Serif" font-size="10.00"> </text>
<polyline fill="none" stroke="black" points="1200,-563 1344,-563 "/>
<text text-anchor="middle" x="1272" y="-551" font-family="Helvetica,sans-Serif" font-size="10.00"> </text>
</a>
</g>
</g>
<!-- Node1&#45;&gt;Node32 -->
<g id="edge31" class="edge"><title>Node1&#45;&gt;Node32</title>
<path fill="none" stroke="midnightblue" d="M828.18,-729.593C909.848,-722.873 1128.03,-702.134 1191,-668 1215.25,-654.858 1236.02,-631.606 1250.46,-612.164"/>
<polygon fill="none" stroke="midnightblue" points="827.718,-726.119 818.032,-730.413 828.282,-733.096 827.718,-726.119"/>
</g>
<!-- Node3 -->
<g id="node3" class="node"><title>Node3</title>
<g id="a_node3"><a xlink:href="class_net_1_1_protocols_1_1base_1_1___descriptor_1_1_descriptor___client.html" target="_top" xlink:title="{Net.Protocols.base.\l_Descriptor.Descriptor\l_Client\n||}">
<polygon fill="none" stroke="black" points="214,-372.5 214,-451.5 322,-451.5 322,-372.5 214,-372.5"/>
<text text-anchor="start" x="222" y="-439.5" font-family="Helvetica,sans-Serif" font-size="10.00">Net.Protocols.base.</text>
<text text-anchor="start" x="222" y="-428.5" font-family="Helvetica,sans-Serif" font-size="10.00">_Descriptor.Descriptor</text>
<text text-anchor="middle" x="268" y="-417.5" font-family="Helvetica,sans-Serif" font-size="10.00">_Client</text>
<polyline fill="none" stroke="black" points="214,-410.5 322,-410.5 "/>
<text text-anchor="middle" x="268" y="-398.5" font-family="Helvetica,sans-Serif" font-size="10.00"> </text>
<polyline fill="none" stroke="black" points="214,-391.5 322,-391.5 "/>
<text text-anchor="middle" x="268" y="-379.5" font-family="Helvetica,sans-Serif" font-size="10.00"> </text>
</a>
</g>
</g>
<!-- Node2&#45;&gt;Node3 -->
<g id="edge2" class="edge"><title>Node2&#45;&gt;Node3</title>
<path fill="none" stroke="midnightblue" d="M310.322,-523.173C301.337,-499.781 291.013,-472.908 282.812,-451.558"/>
<polygon fill="none" stroke="midnightblue" points="307.098,-524.539 313.951,-532.619 313.632,-522.029 307.098,-524.539"/>
</g>
<!-- Node4 -->
<g id="node4" class="node"><title>Node4</title>
<g id="a_node4"><a xlink:href="class_net_1_1_protocols_1_1base_1_1___descriptor_1_1_descriptor___server.html" target="_top" xlink:title="{Net.Protocols.base.\l_Descriptor.Descriptor\l_Server\n||}">
<polygon fill="none" stroke="black" points="340,-372.5 340,-451.5 448,-451.5 448,-372.5 340,-372.5"/>
<text text-anchor="start" x="348" y="-439.5" font-family="Helvetica,sans-Serif" font-size="10.00">Net.Protocols.base.</text>
<text text-anchor="start" x="348" y="-428.5" font-family="Helvetica,sans-Serif" font-size="10.00">_Descriptor.Descriptor</text>
<text text-anchor="middle" x="394" y="-417.5" font-family="Helvetica,sans-Serif" font-size="10.00">_Server</text>
<polyline fill="none" stroke="black" points="340,-410.5 448,-410.5 "/>
<text text-anchor="middle" x="394" y="-398.5" font-family="Helvetica,sans-Serif" font-size="10.00"> </text>
<polyline fill="none" stroke="black" points="340,-391.5 448,-391.5 "/>
<text text-anchor="middle" x="394" y="-379.5" font-family="Helvetica,sans-Serif" font-size="10.00"> </text>
</a>
</g>
</g>
<!-- Node2&#45;&gt;Node4 -->
<g id="edge3" class="edge"><title>Node2&#45;&gt;Node4</title>
<path fill="none" stroke="midnightblue" d="M351.678,-523.173C360.663,-499.781 370.987,-472.908 379.188,-451.558"/>
<polygon fill="none" stroke="midnightblue" points="348.368,-522.029 348.049,-532.619 354.902,-524.539 348.368,-522.029"/>
</g>
<!-- Node9 -->
<g id="node9" class="node"><title>Node9</title>
<g id="a_node9"><a xlink:href="class_net_1_1_protocols_1_1base_1_1_cucumber_1_1_request.html" target="_top" xlink:title="A cucumber (python object) created for processing a request, typically made by a client.">
<polygon fill="none" stroke="black" points="476,-378 476,-446 620,-446 620,-378 476,-378"/>
<text text-anchor="start" x="484" y="-434" font-family="Helvetica,sans-Serif" font-size="10.00">Net.Protocols.base.Cucumber.</text>
<text text-anchor="middle" x="548" y="-423" font-family="Helvetica,sans-Serif" font-size="10.00">Request</text>
<polyline fill="none" stroke="black" points="476,-416 620,-416 "/>
<text text-anchor="middle" x="548" y="-404" font-family="Helvetica,sans-Serif" font-size="10.00"> </text>
<polyline fill="none" stroke="black" points="476,-397 620,-397 "/>
<text text-anchor="middle" x="548" y="-385" font-family="Helvetica,sans-Serif" font-size="10.00"> </text>
</a>
</g>
</g>
<!-- Node8&#45;&gt;Node9 -->
<g id="edge8" class="edge"><title>Node8&#45;&gt;Node9</title>
<path fill="none" stroke="midnightblue" d="M919.306,-535.725C905.381,-518.572 887.274,-499.924 867,-488 790.132,-442.789 687.799,-424.825 620.004,-417.692"/>
<polygon fill="none" stroke="midnightblue" points="916.868,-538.287 925.797,-543.989 922.373,-533.963 916.868,-538.287"/>
</g>
<!-- Node20 -->
<g id="node20" class="node"><title>Node20</title>
<g id="a_node20"><a xlink:href="class_net_1_1_protocols_1_1base_1_1_cucumber_1_1_response.html" target="_top" xlink:title="A cucumber (python object) created for sending a response, typically made by the server.">
<polygon fill="none" stroke="black" points="912,-378 912,-446 1056,-446 1056,-378 912,-378"/>
<text text-anchor="start" x="920" y="-434" font-family="Helvetica,sans-Serif" font-size="10.00">Net.Protocols.base.Cucumber.</text>
<text text-anchor="middle" x="984" y="-423" font-family="Helvetica,sans-Serif" font-size="10.00">Response</text>
<polyline fill="none" stroke="black" points="912,-416 1056,-416 "/>
<text text-anchor="middle" x="984" y="-404" font-family="Helvetica,sans-Serif" font-size="10.00"> </text>
<polyline fill="none" stroke="black" points="912,-397 1056,-397 "/>
<text text-anchor="middle" x="984" y="-385" font-family="Helvetica,sans-Serif" font-size="10.00"> </text>
</a>
</g>
</g>
<!-- Node8&#45;&gt;Node20 -->
<g id="edge19" class="edge"><title>Node8&#45;&gt;Node20</title>
<path fill="none" stroke="midnightblue" d="M957.504,-533.704C963.524,-506.278 971.19,-471.356 976.726,-446.138"/>
<polygon fill="none" stroke="midnightblue" points="954.011,-533.294 955.285,-543.812 960.848,-534.795 954.011,-533.294"/>
</g>
<!-- Node10 -->
<g id="node10" class="node"><title>Node10</title>
<g id="a_node10"><a xlink:href="class_net_1_1_protocols_1_1_h_e_l_d_1_1_cucumbers_1_1_request.html" target="_top" xlink:title="{Net.Protocols.HELD.Cucumbers.\lRequest\n|+ locationTypes\l+ locationTypes_areExact\l|+ __init__()\l}">
<polygon fill="none" stroke="black" points="261.5,-250.5 261.5,-329.5 414.5,-329.5 414.5,-250.5 261.5,-250.5"/>
<text text-anchor="start" x="269.5" y="-317.5" font-family="Helvetica,sans-Serif" font-size="10.00">Net.Protocols.HELD.Cucumbers.</text>
<text text-anchor="middle" x="338" y="-306.5" font-family="Helvetica,sans-Serif" font-size="10.00">Request</text>
<polyline fill="none" stroke="black" points="261.5,-299.5 414.5,-299.5 "/>
<text text-anchor="start" x="269.5" y="-287.5" font-family="Helvetica,sans-Serif" font-size="10.00">+ locationTypes</text>
<text text-anchor="start" x="269.5" y="-276.5" font-family="Helvetica,sans-Serif" font-size="10.00">+ locationTypes_areExact</text>
<polyline fill="none" stroke="black" points="261.5,-269.5 414.5,-269.5 "/>
<text text-anchor="start" x="269.5" y="-257.5" font-family="Helvetica,sans-Serif" font-size="10.00">+ __init__()</text>
</a>
</g>
</g>
<!-- Node9&#45;&gt;Node10 -->
<g id="edge9" class="edge"><title>Node9&#45;&gt;Node10</title>
<path fill="none" stroke="midnightblue" d="M481.291,-372.88C457.068,-359.039 429.694,-343.397 405.411,-329.521"/>
<polygon fill="none" stroke="midnightblue" points="479.642,-375.969 490.061,-377.892 483.115,-369.892 479.642,-375.969"/>
</g>
<!-- Node15 -->
<g id="node15" class="node"><title>Node15</title>
<g id="a_node15"><a xlink:href="class_net_1_1_protocols_1_1_h_e_l_d_1_1_h_e_l_d___i_d_1_1_h_e_l_d___i_d___request.html" target="_top" xlink:title="{Net.Protocols.HELD.HELD\l_ID.HELD_ID_Request\n||}">
<polygon fill="none" stroke="black" points="484,-256 484,-324 612,-324 612,-256 484,-256"/>
<text text-anchor="start" x="492" y="-312" font-family="Helvetica,sans-Serif" font-size="10.00">Net.Protocols.HELD.HELD</text>
<text text-anchor="middle" x="548" y="-301" font-family="Helvetica,sans-Serif" font-size="10.00">_ID.HELD_ID_Request</text>
<polyline fill="none" stroke="black" points="484,-294 612,-294 "/>
<text text-anchor="middle" x="548" y="-282" font-family="Helvetica,sans-Serif" font-size="10.00"> </text>
<polyline fill="none" stroke="black" points="484,-275 612,-275 "/>
<text text-anchor="middle" x="548" y="-263" font-family="Helvetica,sans-Serif" font-size="10.00"> </text>
</a>
</g>
</g>
<!-- Node9&#45;&gt;Node15 -->
<g id="edge14" class="edge"><title>Node9&#45;&gt;Node15</title>
<path fill="none" stroke="midnightblue" d="M548,-367.702C548,-353.298 548,-337.497 548,-324"/>
<polygon fill="none" stroke="midnightblue" points="544.5,-367.892 548,-377.892 551.5,-367.892 544.5,-367.892"/>
</g>
<!-- Node11 -->
<g id="node11" class="node"><title>Node11</title>
<g id="a_node11"><a xlink:href="class_net_1_1_protocols_1_1_h_e_l_d_1_1_errors_1_1_h_e_l_d___error___request.html" target="_top" xlink:title="{Net.Protocols.HELD.Errors.\lHELD_Error_Request\n||+ __init__()\l}">
<polygon fill="none" stroke="black" points="156,-123 156,-191 284,-191 284,-123 156,-123"/>
<text text-anchor="start" x="164" y="-179" font-family="Helvetica,sans-Serif" font-size="10.00">Net.Protocols.HELD.Errors.</text>
<text text-anchor="middle" x="220" y="-168" font-family="Helvetica,sans-Serif" font-size="10.00">HELD_Error_Request</text>
<polyline fill="none" stroke="black" points="156,-161 284,-161 "/>
<text text-anchor="middle" x="220" y="-149" font-family="Helvetica,sans-Serif" font-size="10.00"> </text>
<polyline fill="none" stroke="black" points="156,-142 284,-142 "/>
<text text-anchor="start" x="164" y="-130" font-family="Helvetica,sans-Serif" font-size="10.00">+ __init__()</text>
</a>
</g>
</g>
<!-- Node10&#45;&gt;Node11 -->
<g id="edge10" class="edge"><title>Node10&#45;&gt;Node11</title>
<path fill="none" stroke="midnightblue" d="M296.308,-242.714C280.932,-225.645 263.835,-206.665 249.729,-191.004"/>
<polygon fill="none" stroke="midnightblue" points="293.941,-245.317 303.234,-250.404 299.142,-240.632 293.941,-245.317"/>
</g>
<!-- Node12 -->
<g id="node12" class="node"><title>Node12</title>
<g id="a_node12"><a xlink:href="class_net_1_1_protocols_1_1_h_e_l_d_1_1_errors_1_1_request_error.html" target="_top" xlink:title="Indicates that the request was badly formed in some fashion (other than the XML content).">
<polygon fill="none" stroke="black" points="0,-1 0,-69 138,-69 138,-1 0,-1"/>
<text text-anchor="start" x="8" y="-57" font-family="Helvetica,sans-Serif" font-size="10.00">Net.Protocols.HELD.Errors.</text>
<text text-anchor="middle" x="69" y="-46" font-family="Helvetica,sans-Serif" font-size="10.00">RequestError</text>
<polyline fill="none" stroke="black" points="0,-39 138,-39 "/>
<text text-anchor="start" x="8" y="-27" font-family="Helvetica,sans-Serif" font-size="10.00">+ unrecognizedLocationType</text>
<polyline fill="none" stroke="black" points="0,-20 138,-20 "/>
<text text-anchor="start" x="8" y="-8" font-family="Helvetica,sans-Serif" font-size="10.00">+ __init__()</text>
</a>
</g>
</g>
<!-- Node11&#45;&gt;Node12 -->
<g id="edge11" class="edge"><title>Node11&#45;&gt;Node12</title>
<path fill="none" stroke="midnightblue" d="M170.484,-116.65C151.083,-101.232 129.076,-83.7422 110.525,-69.0001"/>
<polygon fill="none" stroke="midnightblue" points="168.332,-119.41 178.339,-122.892 172.688,-113.93 168.332,-119.41"/>
</g>
<!-- Node13 -->
<g id="node13" class="node"><title>Node13</title>
<g id="a_node13"><a xlink:href="class_net_1_1_protocols_1_1_h_e_l_d_1_1_errors_1_1_unsupported_message.html" target="_top" xlink:title="Indicates that an element in the XML document for the request was not supported or understood...">
<polygon fill="none" stroke="black" points="156,-1 156,-69 284,-69 284,-1 156,-1"/>
<text text-anchor="start" x="164" y="-57" font-family="Helvetica,sans-Serif" font-size="10.00">Net.Protocols.HELD.Errors.</text>
<text text-anchor="middle" x="220" y="-46" font-family="Helvetica,sans-Serif" font-size="10.00">UnsupportedMessage</text>
<polyline fill="none" stroke="black" points="156,-39 284,-39 "/>
<text text-anchor="middle" x="220" y="-27" font-family="Helvetica,sans-Serif" font-size="10.00"> </text>
<polyline fill="none" stroke="black" points="156,-20 284,-20 "/>
<text text-anchor="start" x="164" y="-8" font-family="Helvetica,sans-Serif" font-size="10.00">+ __init__()</text>
</a>
</g>
</g>
<!-- Node11&#45;&gt;Node13 -->
<g id="edge12" class="edge"><title>Node11&#45;&gt;Node13</title>
<path fill="none" stroke="midnightblue" d="M220,-112.702C220,-98.2976 220,-82.4973 220,-69.0001"/>
<polygon fill="none" stroke="midnightblue" points="216.5,-112.892 220,-122.892 223.5,-112.892 216.5,-112.892"/>
</g>
<!-- Node14 -->
<g id="node14" class="node"><title>Node14</title>
<g id="a_node14"><a xlink:href="class_net_1_1_protocols_1_1_h_e_l_d_1_1_errors_1_1_x_m_l___error.html" target="_top" xlink:title="Indicates that the XML content of the request was either badly formed or invalid.">
<polygon fill="none" stroke="black" points="302,-1 302,-69 430,-69 430,-1 302,-1"/>
<text text-anchor="start" x="310" y="-57" font-family="Helvetica,sans-Serif" font-size="10.00">Net.Protocols.HELD.Errors.</text>
<text text-anchor="middle" x="366" y="-46" font-family="Helvetica,sans-Serif" font-size="10.00">XML_Error</text>
<polyline fill="none" stroke="black" points="302,-39 430,-39 "/>
<text text-anchor="middle" x="366" y="-27" font-family="Helvetica,sans-Serif" font-size="10.00"> </text>
<polyline fill="none" stroke="black" points="302,-20 430,-20 "/>
<text text-anchor="start" x="310" y="-8" font-family="Helvetica,sans-Serif" font-size="10.00">+ __init__()</text>
</a>
</g>
</g>
<!-- Node11&#45;&gt;Node14 -->
<g id="edge13" class="edge"><title>Node11&#45;&gt;Node14</title>
<path fill="none" stroke="midnightblue" d="M268.126,-116.444C286.824,-101.076 307.993,-83.6767 325.85,-69.0001"/>
<polygon fill="none" stroke="midnightblue" points="265.785,-113.838 260.282,-122.892 270.229,-119.246 265.785,-113.838"/>
</g>
<!-- Node16 -->
<g id="node16" class="node"><title>Node16</title>
<g id="a_node16"><a xlink:href="class_net_1_1_protocols_1_1_h_e_l_d_1_1_h_e_l_d___i_d_1_1_h_e_l_d___i_d___device.html" target="_top" xlink:title="{Net.Protocols.HELD.HELD\l_ID.HELD_ID_Device\n|+ type\l+ value\l|+ __init__()\l}">
<polygon fill="none" stroke="black" points="302,-117.5 302,-196.5 430,-196.5 430,-117.5 302,-117.5"/>
<text text-anchor="start" x="310" y="-184.5" font-family="Helvetica,sans-Serif" font-size="10.00">Net.Protocols.HELD.HELD</text>
<text text-anchor="middle" x="366" y="-173.5" font-family="Helvetica,sans-Serif" font-size="10.00">_ID.HELD_ID_Device</text>
<polyline fill="none" stroke="black" points="302,-166.5 430,-166.5 "/>
<text text-anchor="start" x="310" y="-154.5" font-family="Helvetica,sans-Serif" font-size="10.00">+ type</text>
<text text-anchor="start" x="310" y="-143.5" font-family="Helvetica,sans-Serif" font-size="10.00">+ value</text>
<polyline fill="none" stroke="black" points="302,-136.5 430,-136.5 "/>
<text text-anchor="start" x="310" y="-124.5" font-family="Helvetica,sans-Serif" font-size="10.00">+ __init__()</text>
</a>
</g>
</g>
<!-- Node15&#45;&gt;Node16 -->
<g id="edge15" class="edge"><title>Node15&#45;&gt;Node16</title>
<path fill="none" stroke="midnightblue" d="M493.953,-250.098C470.493,-233.212 443.085,-213.484 419.668,-196.629"/>
<polygon fill="none" stroke="midnightblue" points="491.913,-252.942 502.074,-255.943 496.002,-247.261 491.913,-252.942"/>
</g>
<!-- Node17 -->
<g id="node17" class="node"><title>Node17</title>
<g id="a_node17"><a xlink:href="class_net_1_1_protocols_1_1_h_e_l_d_1_1_h_e_l_d___i_d_1_1_x_m_l___i_p.html" target="_top" xlink:title="{Net.Protocols.HELD.HELD\l_ID.XML_IP\n|+ IP\l+ version\l|+ __init__()\l}">
<polygon fill="none" stroke="black" points="448,-117.5 448,-196.5 576,-196.5 576,-117.5 448,-117.5"/>
<text text-anchor="start" x="456" y="-184.5" font-family="Helvetica,sans-Serif" font-size="10.00">Net.Protocols.HELD.HELD</text>
<text text-anchor="middle" x="512" y="-173.5" font-family="Helvetica,sans-Serif" font-size="10.00">_ID.XML_IP</text>
<polyline fill="none" stroke="black" points="448,-166.5 576,-166.5 "/>
<text text-anchor="start" x="456" y="-154.5" font-family="Helvetica,sans-Serif" font-size="10.00">+ IP</text>
<text text-anchor="start" x="456" y="-143.5" font-family="Helvetica,sans-Serif" font-size="10.00">+ version</text>
<polyline fill="none" stroke="black" points="448,-136.5 576,-136.5 "/>
<text text-anchor="start" x="456" y="-124.5" font-family="Helvetica,sans-Serif" font-size="10.00">+ __init__()</text>
</a>
</g>
</g>
<!-- Node15&#45;&gt;Node17 -->
<g id="edge16" class="edge"><title>Node15&#45;&gt;Node17</title>
<path fill="none" stroke="midnightblue" d="M536.264,-246.293C531.868,-230.299 526.904,-212.233 522.616,-196.629"/>
<polygon fill="none" stroke="midnightblue" points="532.891,-247.228 538.916,-255.943 539.641,-245.373 532.891,-247.228"/>
</g>
<!-- Node18 -->
<g id="node18" class="node"><title>Node18</title>
<g id="a_node18"><a xlink:href="class_net_1_1_protocols_1_1_h_e_l_d_1_1_h_e_l_d___i_d_1_1_x_m_l___i_p___port.html" target="_top" xlink:title="{Net.Protocols.HELD.HELD\l_ID.XML_IP_Port\n|+ IP\l+ version\l+ port\l+ protocol\l|+ __init__()\l}">
<polygon fill="none" stroke="black" points="594,-106.5 594,-207.5 722,-207.5 722,-106.5 594,-106.5"/>
<text text-anchor="start" x="602" y="-195.5" font-family="Helvetica,sans-Serif" font-size="10.00">Net.Protocols.HELD.HELD</text>
<text text-anchor="middle" x="658" y="-184.5" font-family="Helvetica,sans-Serif" font-size="10.00">_ID.XML_IP_Port</text>
<polyline fill="none" stroke="black" points="594,-177.5 722,-177.5 "/>
<text text-anchor="start" x="602" y="-165.5" font-family="Helvetica,sans-Serif" font-size="10.00">+ IP</text>
<text text-anchor="start" x="602" y="-154.5" font-family="Helvetica,sans-Serif" font-size="10.00">+ version</text>
<text text-anchor="start" x="602" y="-143.5" font-family="Helvetica,sans-Serif" font-size="10.00">+ port</text>
<text text-anchor="start" x="602" y="-132.5" font-family="Helvetica,sans-Serif" font-size="10.00">+ protocol</text>
<polyline fill="none" stroke="black" points="594,-125.5 722,-125.5 "/>
<text text-anchor="start" x="602" y="-113.5" font-family="Helvetica,sans-Serif" font-size="10.00">+ __init__()</text>
</a>
</g>
</g>
<!-- Node15&#45;&gt;Node18 -->
<g id="edge17" class="edge"><title>Node15&#45;&gt;Node18</title>
<path fill="none" stroke="midnightblue" d="M582.288,-248.166C593.064,-235.333 605.081,-221.022 616.311,-207.648"/>
<polygon fill="none" stroke="midnightblue" points="579.508,-246.034 575.758,-255.943 584.869,-250.536 579.508,-246.034"/>
</g>
<!-- Node19 -->
<g id="node19" class="node"><title>Node19</title>
<g id="a_node19"><a xlink:href="class_net_1_1_protocols_1_1_h_e_l_d_1_1_h_e_l_d___i_d_1_1_x_m_l___m_a_c.html" target="_top" xlink:title="{Net.Protocols.HELD.HELD\l_ID.XML_MAC\n|+ MAC\l|+ __init__()\l}">
<polygon fill="none" stroke="black" points="740,-123 740,-191 868,-191 868,-123 740,-123"/>
<text text-anchor="start" x="748" y="-179" font-family="Helvetica,sans-Serif" font-size="10.00">Net.Protocols.HELD.HELD</text>
<text text-anchor="middle" x="804" y="-168" font-family="Helvetica,sans-Serif" font-size="10.00">_ID.XML_MAC</text>
<polyline fill="none" stroke="black" points="740,-161 868,-161 "/>
<text text-anchor="start" x="748" y="-149" font-family="Helvetica,sans-Serif" font-size="10.00">+ MAC</text>
<polyline fill="none" stroke="black" points="740,-142 868,-142 "/>
<text text-anchor="start" x="748" y="-130" font-family="Helvetica,sans-Serif" font-size="10.00">+ __init__()</text>
</a>
</g>
</g>
<!-- Node15&#45;&gt;Node19 -->
<g id="edge18" class="edge"><title>Node15&#45;&gt;Node19</title>
<path fill="none" stroke="midnightblue" d="M621.479,-260.123C655.508,-245.834 696.05,-227.486 731,-208 740.123,-202.913 749.551,-197.001 758.477,-191.061"/>
<polygon fill="none" stroke="midnightblue" points="619.951,-256.968 612.064,-264.043 622.641,-263.43 619.951,-256.968"/>
</g>
<!-- Node21 -->
<g id="node21" class="node"><title>Node21</title>
<g id="a_node21"><a xlink:href="class_net_1_1_protocols_1_1_h_e_l_d_1_1_cucumbers_1_1_response.html" target="_top" xlink:title="{Net.Protocols.HELD.Cucumbers.\lResponse\n||+ pickle_XML()\l}">
<polygon fill="none" stroke="black" points="907.5,-256 907.5,-324 1060.5,-324 1060.5,-256 907.5,-256"/>
<text text-anchor="start" x="915.5" y="-312" font-family="Helvetica,sans-Serif" font-size="10.00">Net.Protocols.HELD.Cucumbers.</text>
<text text-anchor="middle" x="984" y="-301" font-family="Helvetica,sans-Serif" font-size="10.00">Response</text>
<polyline fill="none" stroke="black" points="907.5,-294 1060.5,-294 "/>
<text text-anchor="middle" x="984" y="-282" font-family="Helvetica,sans-Serif" font-size="10.00"> </text>
<polyline fill="none" stroke="black" points="907.5,-275 1060.5,-275 "/>
<text text-anchor="start" x="915.5" y="-263" font-family="Helvetica,sans-Serif" font-size="10.00">+ pickle_XML()</text>
</a>
</g>
</g>
<!-- Node20&#45;&gt;Node21 -->
<g id="edge20" class="edge"><title>Node20&#45;&gt;Node21</title>
<path fill="none" stroke="midnightblue" d="M984,-367.702C984,-353.298 984,-337.497 984,-324"/>
<polygon fill="none" stroke="midnightblue" points="980.5,-367.892 984,-377.892 987.5,-367.892 980.5,-367.892"/>
</g>
<!-- Node29 -->
<g id="node29" class="node"><title>Node29</title>
<g id="a_node29"><a xlink:href="class_net_1_1_protocols_1_1_h_e_l_d_1_1_h_e_l_d___i_d_1_1_h_e_l_d___i_d___error.html" target="_top" xlink:title="Corresponds to RFC 5985 error response when the location request cannot be fulfilled.">
<polygon fill="none" stroke="black" points="1152,-245 1152,-335 1280,-335 1280,-245 1152,-245"/>
<text text-anchor="start" x="1160" y="-323" font-family="Helvetica,sans-Serif" font-size="10.00">Net.Protocols.HELD.HELD</text>
<text text-anchor="middle" x="1216" y="-312" font-family="Helvetica,sans-Serif" font-size="10.00">_ID.HELD_ID_Error</text>
<polyline fill="none" stroke="black" points="1152,-305 1280,-305 "/>
<text text-anchor="start" x="1160" y="-293" font-family="Helvetica,sans-Serif" font-size="10.00">+ name</text>
<text text-anchor="start" x="1160" y="-282" font-family="Helvetica,sans-Serif" font-size="10.00">+ code</text>
<polyline fill="none" stroke="black" points="1152,-275 1280,-275 "/>
<text text-anchor="start" x="1160" y="-263" font-family="Helvetica,sans-Serif" font-size="10.00">+ __init__()</text>
<text text-anchor="start" x="1160" y="-252" font-family="Helvetica,sans-Serif" font-size="10.00">+ __str__()</text>
</a>
</g>
</g>
<!-- Node20&#45;&gt;Node29 -->
<g id="edge28" class="edge"><title>Node20&#45;&gt;Node29</title>
<path fill="none" stroke="midnightblue" d="M1057.27,-373.103C1087.61,-357.41 1122.48,-339.373 1151.8,-324.208"/>
<polygon fill="none" stroke="midnightblue" points="1055.28,-370.189 1048.01,-377.892 1058.5,-376.406 1055.28,-370.189"/>
</g>
<!-- Node22 -->
<g id="node22" class="node"><title>Node22</title>
<g id="a_node22"><a xlink:href="class_net_1_1_protocols_1_1_h_e_l_d_1_1_cucumbers_1_1_location_u_r_i__set.html" target="_top" xlink:title="{Net.Protocols.HELD.Cucumbers.\lLocationURI_set\n|+ expires\l|+ __init__()\l+ pickle_XML()\l}">
<polygon fill="none" stroke="black" points="886.5,-117.5 886.5,-196.5 1039.5,-196.5 1039.5,-117.5 886.5,-117.5"/>
<text text-anchor="start" x="894.5" y="-184.5" font-family="Helvetica,sans-Serif" font-size="10.00">Net.Protocols.HELD.Cucumbers.</text>
<text text-anchor="middle" x="963" y="-173.5" font-family="Helvetica,sans-Serif" font-size="10.00">LocationURI_set</text>
<polyline fill="none" stroke="black" points="886.5,-166.5 1039.5,-166.5 "/>
<text text-anchor="start" x="894.5" y="-154.5" font-family="Helvetica,sans-Serif" font-size="10.00">+ expires</text>
<polyline fill="none" stroke="black" points="886.5,-147.5 1039.5,-147.5 "/>
<text text-anchor="start" x="894.5" y="-135.5" font-family="Helvetica,sans-Serif" font-size="10.00">+ __init__()</text>
<text text-anchor="start" x="894.5" y="-124.5" font-family="Helvetica,sans-Serif" font-size="10.00">+ pickle_XML()</text>
</a>
</g>
</g>
<!-- Node21&#45;&gt;Node22 -->
<g id="edge21" class="edge"><title>Node21&#45;&gt;Node22</title>
<path fill="none" stroke="midnightblue" d="M977.081,-245.84C974.535,-229.958 971.67,-212.086 969.192,-196.629"/>
<polygon fill="none" stroke="midnightblue" points="973.662,-246.623 978.701,-255.943 980.574,-245.515 973.662,-246.623"/>
</g>
<!-- Node23 -->
<g id="node23" class="node"><title>Node23</title>
<g id="a_node23"><a xlink:href="class_net_1_1_protocols_1_1_h_e_l_d_1_1_errors_1_1_h_e_l_d___error___response.html" target="_top" xlink:title="{Net.Protocols.HELD.Errors.\lHELD_Error_Response\n||+ __init__()\l}">
<polygon fill="none" stroke="black" points="1058,-123 1058,-191 1186,-191 1186,-123 1058,-123"/>
<text text-anchor="start" x="1066" y="-179" font-family="Helvetica,sans-Serif" font-size="10.00">Net.Protocols.HELD.Errors.</text>
<text text-anchor="middle" x="1122" y="-168" font-family="Helvetica,sans-Serif" font-size="10.00">HELD_Error_Response</text>
<polyline fill="none" stroke="black" points="1058,-161 1186,-161 "/>
<text text-anchor="middle" x="1122" y="-149" font-family="Helvetica,sans-Serif" font-size="10.00"> </text>
<polyline fill="none" stroke="black" points="1058,-142 1186,-142 "/>
<text text-anchor="start" x="1066" y="-130" font-family="Helvetica,sans-Serif" font-size="10.00">+ __init__()</text>
</a>
</g>
</g>
<!-- Node21&#45;&gt;Node23 -->
<g id="edge22" class="edge"><title>Node21&#45;&gt;Node23</title>
<path fill="none" stroke="midnightblue" d="M1026.13,-249.005C1045.68,-230.448 1068.64,-208.654 1087.19,-191.046"/>
<polygon fill="none" stroke="midnightblue" points="1023.67,-246.52 1018.82,-255.943 1028.49,-251.597 1023.67,-246.52"/>
</g>
<!-- Node24 -->
<g id="node24" class="node"><title>Node24</title>
<g id="a_node24"><a xlink:href="class_net_1_1_protocols_1_1_h_e_l_d_1_1_errors_1_1_cannot_provide_l_i_type.html" target="_top" xlink:title="Indicates that the LIS was unable to provide LI of the type or types requested.">
<polygon fill="none" stroke="black" points="766,-1 766,-69 894,-69 894,-1 766,-1"/>
<text text-anchor="start" x="774" y="-57" font-family="Helvetica,sans-Serif" font-size="10.00">Net.Protocols.HELD.Errors.</text>
<text text-anchor="middle" x="830" y="-46" font-family="Helvetica,sans-Serif" font-size="10.00">CannotProvideLIType</text>
<polyline fill="none" stroke="black" points="766,-39 894,-39 "/>
<text text-anchor="middle" x="830" y="-27" font-family="Helvetica,sans-Serif" font-size="10.00"> </text>
<polyline fill="none" stroke="black" points="766,-20 894,-20 "/>
<text text-anchor="start" x="774" y="-8" font-family="Helvetica,sans-Serif" font-size="10.00">+ __init__()</text>
</a>
</g>
</g>
<!-- Node23&#45;&gt;Node24 -->
<g id="edge23" class="edge"><title>Node23&#45;&gt;Node24</title>
<path fill="none" stroke="midnightblue" d="M1069.67,-117.43C1062.6,-113.185 1055.27,-109.236 1048,-106 987.337,-78.998 965.608,-92.1198 903,-70 900.1,-68.9754 897.159,-67.8758 894.206,-66.7216"/>
<polygon fill="none" stroke="midnightblue" points="1068.14,-120.598 1078.47,-122.934 1071.85,-114.663 1068.14,-120.598"/>
</g>
<!-- Node25 -->
<g id="node25" class="node"><title>Node25</title>
<g id="a_node25"><a xlink:href="class_net_1_1_protocols_1_1_h_e_l_d_1_1_errors_1_1_general_l_i_s_error.html" target="_top" xlink:title="Indicates that an unspecified error occurred at the LIS.">
<polygon fill="none" stroke="black" points="912,-1 912,-69 1040,-69 1040,-1 912,-1"/>
<text text-anchor="start" x="920" y="-57" font-family="Helvetica,sans-Serif" font-size="10.00">Net.Protocols.HELD.Errors.</text>
<text text-anchor="middle" x="976" y="-46" font-family="Helvetica,sans-Serif" font-size="10.00">GeneralLISError</text>
<polyline fill="none" stroke="black" points="912,-39 1040,-39 "/>
<text text-anchor="middle" x="976" y="-27" font-family="Helvetica,sans-Serif" font-size="10.00"> </text>
<polyline fill="none" stroke="black" points="912,-20 1040,-20 "/>
<text text-anchor="start" x="920" y="-8" font-family="Helvetica,sans-Serif" font-size="10.00">+ __init__()</text>
</a>
</g>
</g>
<!-- Node23&#45;&gt;Node25 -->
<g id="edge24" class="edge"><title>Node23&#45;&gt;Node25</title>
<path fill="none" stroke="midnightblue" d="M1073.87,-116.444C1055.18,-101.076 1034.01,-83.6767 1016.15,-69.0001"/>
<polygon fill="none" stroke="midnightblue" points="1071.77,-119.246 1081.72,-122.892 1076.22,-113.838 1071.77,-119.246"/>
</g>
<!-- Node26 -->
<g id="node26" class="node"><title>Node26</title>
<g id="a_node26"><a xlink:href="class_net_1_1_protocols_1_1_h_e_l_d_1_1_errors_1_1_location_unknown.html" target="_top" xlink:title="Indicates that the LIS could not determine the location of the device.">
<polygon fill="none" stroke="black" points="1058,-1 1058,-69 1186,-69 1186,-1 1058,-1"/>
<text text-anchor="start" x="1066" y="-57" font-family="Helvetica,sans-Serif" font-size="10.00">Net.Protocols.HELD.Errors.</text>
<text text-anchor="middle" x="1122" y="-46" font-family="Helvetica,sans-Serif" font-size="10.00">LocationUnknown</text>
<polyline fill="none" stroke="black" points="1058,-39 1186,-39 "/>
<text text-anchor="middle" x="1122" y="-27" font-family="Helvetica,sans-Serif" font-size="10.00"> </text>
<polyline fill="none" stroke="black" points="1058,-20 1186,-20 "/>
<text text-anchor="start" x="1066" y="-8" font-family="Helvetica,sans-Serif" font-size="10.00">+ __init__()</text>
</a>
</g>
</g>
<!-- Node23&#45;&gt;Node26 -->
<g id="edge25" class="edge"><title>Node23&#45;&gt;Node26</title>
<path fill="none" stroke="midnightblue" d="M1122,-112.702C1122,-98.2976 1122,-82.4973 1122,-69.0001"/>
<polygon fill="none" stroke="midnightblue" points="1118.5,-112.892 1122,-122.892 1125.5,-112.892 1118.5,-112.892"/>
</g>
<!-- Node27 -->
<g id="node27" class="node"><title>Node27</title>
<g id="a_node27"><a xlink:href="class_net_1_1_protocols_1_1_h_e_l_d_1_1_errors_1_1_not_locatable.html" target="_top" xlink:title="Indicates that the LIS is unable to locate the Device.">
<polygon fill="none" stroke="black" points="1204,-1 1204,-69 1332,-69 1332,-1 1204,-1"/>
<text text-anchor="start" x="1212" y="-57" font-family="Helvetica,sans-Serif" font-size="10.00">Net.Protocols.HELD.Errors.</text>
<text text-anchor="middle" x="1268" y="-46" font-family="Helvetica,sans-Serif" font-size="10.00">NotLocatable</text>
<polyline fill="none" stroke="black" points="1204,-39 1332,-39 "/>
<text text-anchor="middle" x="1268" y="-27" font-family="Helvetica,sans-Serif" font-size="10.00"> </text>
<polyline fill="none" stroke="black" points="1204,-20 1332,-20 "/>
<text text-anchor="start" x="1212" y="-8" font-family="Helvetica,sans-Serif" font-size="10.00">+ __init__()</text>
</a>
</g>
</g>
<!-- Node23&#45;&gt;Node27 -->
<g id="edge26" class="edge"><title>Node23&#45;&gt;Node27</title>
<path fill="none" stroke="midnightblue" d="M1170.13,-116.444C1188.82,-101.076 1209.99,-83.6767 1227.85,-69.0001"/>
<polygon fill="none" stroke="midnightblue" points="1167.78,-113.838 1162.28,-122.892 1172.23,-119.246 1167.78,-113.838"/>
</g>
<!-- Node28 -->
<g id="node28" class="node"><title>Node28</title>
<g id="a_node28"><a xlink:href="class_net_1_1_protocols_1_1_h_e_l_d_1_1_errors_1_1_timeout.html" target="_top" xlink:title="Indicates that the LIS could not satisfy the request within the time specified.">
<polygon fill="none" stroke="black" points="1350,-1 1350,-69 1478,-69 1478,-1 1350,-1"/>
<text text-anchor="start" x="1358" y="-57" font-family="Helvetica,sans-Serif" font-size="10.00">Net.Protocols.HELD.Errors.</text>
<text text-anchor="middle" x="1414" y="-46" font-family="Helvetica,sans-Serif" font-size="10.00">Timeout</text>
<polyline fill="none" stroke="black" points="1350,-39 1478,-39 "/>
<text text-anchor="middle" x="1414" y="-27" font-family="Helvetica,sans-Serif" font-size="10.00"> </text>
<polyline fill="none" stroke="black" points="1350,-20 1478,-20 "/>
<text text-anchor="start" x="1358" y="-8" font-family="Helvetica,sans-Serif" font-size="10.00">+ __init__()</text>
</a>
</g>
</g>
<!-- Node23&#45;&gt;Node28 -->
<g id="edge27" class="edge"><title>Node23&#45;&gt;Node28</title>
<path fill="none" stroke="midnightblue" d="M1173.57,-117.405C1180.56,-113.164 1187.8,-109.223 1195,-106 1255.99,-78.6784 1277.97,-92.2131 1341,-70 1343.9,-68.9777 1346.84,-67.88 1349.8,-66.7274"/>
<polygon fill="none" stroke="midnightblue" points="1171.46,-114.599 1164.89,-122.906 1175.21,-120.512 1171.46,-114.599"/>
</g>
<!-- Node30 -->
<g id="node30" class="node"><title>Node30</title>
<g id="a_node30"><a xlink:href="class_net_1_1_protocols_1_1_h_e_l_d_1_1_h_e_l_d___i_d_1_1_bad_identifier.html" target="_top" xlink:title="Indicates that a Device identifier used in the HELD request is not supported, badly formatted...">
<polygon fill="none" stroke="black" points="1204,-123 1204,-191 1332,-191 1332,-123 1204,-123"/>
<text text-anchor="start" x="1212" y="-179" font-family="Helvetica,sans-Serif" font-size="10.00">Net.Protocols.HELD.HELD</text>
<text text-anchor="middle" x="1268" y="-168" font-family="Helvetica,sans-Serif" font-size="10.00">_ID.BadIdentifier</text>
<polyline fill="none" stroke="black" points="1204,-161 1332,-161 "/>
<text text-anchor="middle" x="1268" y="-149" font-family="Helvetica,sans-Serif" font-size="10.00"> </text>
<polyline fill="none" stroke="black" points="1204,-142 1332,-142 "/>
<text text-anchor="start" x="1212" y="-130" font-family="Helvetica,sans-Serif" font-size="10.00">+ __init__()</text>
</a>
</g>
</g>
<!-- Node29&#45;&gt;Node30 -->
<g id="edge29" class="edge"><title>Node29&#45;&gt;Node30</title>
<path fill="none" stroke="midnightblue" d="M1237.43,-235.021C1243.33,-220.138 1249.57,-204.437 1254.85,-191.12"/>
<polygon fill="none" stroke="midnightblue" points="1234.04,-234.064 1233.6,-244.649 1240.55,-236.646 1234.04,-234.064"/>
</g>
</g>
</svg>
