<?xml version="1.0" encoding="UTF-8" standalone="no"?>
<!DOCTYPE svg PUBLIC "-//W3C//DTD SVG 1.1//EN"
 "http://www.w3.org/Graphics/SVG/1.1/DTD/svg11.dtd">
<!-- Generated by graphviz version 2.30.1 (20130219.2202)
 -->
<!-- Title: Net.Protocols.HTTP.HTTP_Descriptor_Response Pages: 1 -->
<svg width="263pt" height="376pt"
 viewBox="0.00 0.00 263.00 376.00" xmlns="http://www.w3.org/2000/svg" xmlns:xlink="http://www.w3.org/1999/xlink">
<g id="graph0" class="graph" transform="scale(1 1) rotate(0) translate(4 372)">
<title>Net.Protocols.HTTP.HTTP_Descriptor_Response</title>
<!-- Node1 -->
<g id="node1" class="node"><title>Node1</title>
<polygon fill="#bfbfbf" stroke="black" points="44,-1 44,-91 186,-91 186,-1 44,-1"/>
<text text-anchor="start" x="52" y="-79" font-family="Helvetica,sans-Serif" font-size="10.00">Net.Protocols.HTTP.HTTP</text>
<text text-anchor="middle" x="115" y="-68" font-family="Helvetica,sans-Serif" font-size="10.00">_Descriptor_Response</text>
<polyline fill="none" stroke="black" points="44,-61 186,-61 "/>
<text text-anchor="middle" x="115" y="-49" font-family="Helvetica,sans-Serif" font-size="10.00"> </text>
<polyline fill="none" stroke="black" points="44,-42 186,-42 "/>
<text text-anchor="start" x="52" y="-30" font-family="Helvetica,sans-Serif" font-size="10.00">+ pickle_validateCucumbers()</text>
<text text-anchor="start" x="52" y="-19" font-family="Helvetica,sans-Serif" font-size="10.00">+ pickle()</text>
<text text-anchor="start" x="52" y="-8" font-family="Helvetica,sans-Serif" font-size="10.00">+ unpickle()</text>
</g>
<!-- Node2 -->
<g id="node2" class="node"><title>Node2</title>
<g id="a_node2"><a xlink:href="classprotocol_1_1_descriptor___server.html" target="_top" xlink:title="{protocol::Descriptor\l_Server\n||}">
<polygon fill="none" stroke="black" points="-0.5,-167 -0.5,-235 94.5,-235 94.5,-167 -0.5,-167"/>
<text text-anchor="start" x="7.5" y="-223" font-family="Helvetica,sans-Serif" font-size="10.00">protocol::Descriptor</text>
<text text-anchor="middle" x="47" y="-212" font-family="Helvetica,sans-Serif" font-size="10.00">_Server</text>
<polyline fill="none" stroke="black" points="-0.5,-205 94.5,-205 "/>
<text text-anchor="middle" x="47" y="-193" font-family="Helvetica,sans-Serif" font-size="10.00"> </text>
<polyline fill="none" stroke="black" points="-0.5,-186 94.5,-186 "/>
<text text-anchor="middle" x="47" y="-174" font-family="Helvetica,sans-Serif" font-size="10.00"> </text>
</a>
</g>
</g>
<!-- Node2&#45;&gt;Node1 -->
<g id="edge1" class="edge"><title>Node2&#45;&gt;Node1</title>
<path fill="none" stroke="midnightblue" d="M65.8338,-157.624C75.0243,-136.945 86.0742,-112.083 95.3687,-91.1705"/>
<polygon fill="none" stroke="midnightblue" points="62.6181,-156.242 61.755,-166.801 69.0148,-159.085 62.6181,-156.242"/>
</g>
<!-- Node3 -->
<g id="node3" class="node"><title>Node3</title>
<g id="a_node3"><a xlink:href="class_net_1_1_protocols_1_1_h_t_t_p_1_1_h_t_t_p.html" target="_top" xlink:title="Follows HTTP 1.1 specification (RFC 2616).">
<polygon fill="none" stroke="black" points="113,-128.5 113,-273.5 255,-273.5 255,-128.5 113,-128.5"/>
<text text-anchor="middle" x="184" y="-261.5" font-family="Helvetica,sans-Serif" font-size="10.00">Net.Protocols.HTTP.HTTP</text>
<polyline fill="none" stroke="black" points="113,-254.5 255,-254.5 "/>
<text text-anchor="middle" x="184" y="-242.5" font-family="Helvetica,sans-Serif" font-size="10.00"> </text>
<polyline fill="none" stroke="black" points="113,-235.5 255,-235.5 "/>
<text text-anchor="start" x="121" y="-223.5" font-family="Helvetica,sans-Serif" font-size="10.00">+ getClass_Descriptor</text>
<text text-anchor="start" x="121" y="-212.5" font-family="Helvetica,sans-Serif" font-size="10.00">_Client()</text>
<text text-anchor="start" x="121" y="-201.5" font-family="Helvetica,sans-Serif" font-size="10.00">+ getClass_Descriptor</text>
<text text-anchor="start" x="121" y="-190.5" font-family="Helvetica,sans-Serif" font-size="10.00">_Server()</text>
<text text-anchor="start" x="121" y="-179.5" font-family="Helvetica,sans-Serif" font-size="10.00">+ getClass_Interface</text>
<text text-anchor="start" x="121" y="-168.5" font-family="Helvetica,sans-Serif" font-size="10.00">_Client()</text>
<text text-anchor="start" x="121" y="-157.5" font-family="Helvetica,sans-Serif" font-size="10.00">+ getClass_Interface</text>
<text text-anchor="start" x="121" y="-146.5" font-family="Helvetica,sans-Serif" font-size="10.00">_Server()</text>
<text text-anchor="start" x="121" y="-135.5" font-family="Helvetica,sans-Serif" font-size="10.00">+ pickle_validateCucumbers()</text>
</a>
</g>
</g>
<!-- Node3&#45;&gt;Node1 -->
<g id="edge2" class="edge"><title>Node3&#45;&gt;Node1</title>
<path fill="none" stroke="midnightblue" d="M147.538,-119.148C143.177,-109.479 138.858,-99.9021 134.861,-91.0391"/>
<polygon fill="none" stroke="midnightblue" points="144.421,-120.751 151.722,-128.428 150.802,-117.873 144.421,-120.751"/>
</g>
<!-- Node4 -->
<g id="node4" class="node"><title>Node4</title>
<g id="a_node4"><a xlink:href="classprotocol_1_1_descriptor.html" target="_top" xlink:title="{protocol::Descriptor\n||}">
<polygon fill="none" stroke="black" points="136.5,-310.5 136.5,-367.5 231.5,-367.5 231.5,-310.5 136.5,-310.5"/>
<text text-anchor="middle" x="184" y="-355.5" font-family="Helvetica,sans-Serif" font-size="10.00">protocol::Descriptor</text>
<polyline fill="none" stroke="black" points="136.5,-348.5 231.5,-348.5 "/>
<text text-anchor="middle" x="184" y="-336.5" font-family="Helvetica,sans-Serif" font-size="10.00"> </text>
<polyline fill="none" stroke="black" points="136.5,-329.5 231.5,-329.5 "/>
<text text-anchor="middle" x="184" y="-317.5" font-family="Helvetica,sans-Serif" font-size="10.00"> </text>
</a>
</g>
</g>
<!-- Node4&#45;&gt;Node3 -->
<g id="edge3" class="edge"><title>Node4&#45;&gt;Node3</title>
<path fill="none" stroke="midnightblue" d="M184,-300.356C184,-291.999 184,-282.872 184,-273.656"/>
<polygon fill="none" stroke="midnightblue" points="180.5,-300.478 184,-310.478 187.5,-300.478 180.5,-300.478"/>
</g>
</g>
</svg>
