<?xml version="1.0" encoding="UTF-8" standalone="no"?>
<!DOCTYPE svg PUBLIC "-//W3C//DTD SVG 1.1//EN"
 "http://www.w3.org/Graphics/SVG/1.1/DTD/svg11.dtd">
<!-- Generated by graphviz version 2.30.1 (20130219.2202)
 -->
<!-- Title: Exception Pages: 1 -->
<svg width="1168pt" height="406pt"
 viewBox="0.00 0.00 1168.00 406.00" xmlns="http://www.w3.org/2000/svg" xmlns:xlink="http://www.w3.org/1999/xlink">
<g id="graph0" class="graph" transform="scale(1 1) rotate(0) translate(4 402)">
<title>Exception</title>
<!-- Node1 -->
<g id="node1" class="node"><title>Node1</title>
<polygon fill="#bfbfbf" stroke="black" points="471.5,-340.5 471.5,-397.5 530.5,-397.5 530.5,-340.5 471.5,-340.5"/>
<text text-anchor="middle" x="501" y="-385.5" font-family="Helvetica,sans-Serif" font-size="10.00">Exception</text>
<polyline fill="none" stroke="black" points="471.5,-378.5 530.5,-378.5 "/>
<text text-anchor="middle" x="501" y="-366.5" font-family="Helvetica,sans-Serif" font-size="10.00"> </text>
<polyline fill="none" stroke="black" points="471.5,-359.5 530.5,-359.5 "/>
<text text-anchor="middle" x="501" y="-347.5" font-family="Helvetica,sans-Serif" font-size="10.00"> </text>
</g>
<!-- Node2 -->
<g id="node2" class="node"><title>Node2</title>
<g id="a_node2"><a xlink:href="class_net_1_1_protocols_1_1_h_e_l_d_1_1_errors_1_1_h_e_l_d___error.html" target="_top" xlink:title="Corresponds to an RFC 5985 general error when the location request cannot be fulfilled.">
<polygon fill="none" stroke="black" points="278,-213 278,-303 406,-303 406,-213 278,-213"/>
<text text-anchor="start" x="286" y="-291" font-family="Helvetica,sans-Serif" font-size="10.00">Net.Protocols.HELD.Errors.</text>
<text text-anchor="middle" x="342" y="-280" font-family="Helvetica,sans-Serif" font-size="10.00">HELD_Error</text>
<polyline fill="none" stroke="black" points="278,-273 406,-273 "/>
<text text-anchor="start" x="286" y="-261" font-family="Helvetica,sans-Serif" font-size="10.00">+ code</text>
<polyline fill="none" stroke="black" points="278,-254 406,-254 "/>
<text text-anchor="start" x="286" y="-242" font-family="Helvetica,sans-Serif" font-size="10.00">+ __init__()</text>
<text text-anchor="start" x="286" y="-231" font-family="Helvetica,sans-Serif" font-size="10.00">+ __str__()</text>
<text text-anchor="start" x="286" y="-220" font-family="Helvetica,sans-Serif" font-size="10.00">+ pickle_XML()</text>
</a>
</g>
</g>
<!-- Node1&#45;&gt;Node2 -->
<g id="edge1" class="edge"><title>Node1&#45;&gt;Node2</title>
<path fill="none" stroke="midnightblue" d="M462.939,-341.908C445.976,-330.279 425.52,-316.256 406.295,-303.077"/>
<polygon fill="none" stroke="midnightblue" points="461.239,-344.986 471.466,-347.753 465.197,-339.212 461.239,-344.986"/>
</g>
<!-- Node13 -->
<g id="node13" class="node"><title>Node13</title>
<g id="a_node13"><a xlink:href="class_net_1_1_protocols_1_1_h_e_l_d_1_1_h_e_l_d___i_d_1_1_h_e_l_d___i_d___error.html" target="_top" xlink:title="Corresponds to RFC 5985 error response when the location request cannot be fulfilled.">
<polygon fill="none" stroke="black" points="597,-213 597,-303 725,-303 725,-213 597,-213"/>
<text text-anchor="start" x="605" y="-291" font-family="Helvetica,sans-Serif" font-size="10.00">Net.Protocols.HELD.HELD</text>
<text text-anchor="middle" x="661" y="-280" font-family="Helvetica,sans-Serif" font-size="10.00">_ID.HELD_ID_Error</text>
<polyline fill="none" stroke="black" points="597,-273 725,-273 "/>
<text text-anchor="start" x="605" y="-261" font-family="Helvetica,sans-Serif" font-size="10.00">+ name</text>
<text text-anchor="start" x="605" y="-250" font-family="Helvetica,sans-Serif" font-size="10.00">+ code</text>
<polyline fill="none" stroke="black" points="597,-243 725,-243 "/>
<text text-anchor="start" x="605" y="-231" font-family="Helvetica,sans-Serif" font-size="10.00">+ __init__()</text>
<text text-anchor="start" x="605" y="-220" font-family="Helvetica,sans-Serif" font-size="10.00">+ __str__()</text>
</a>
</g>
</g>
<!-- Node1&#45;&gt;Node13 -->
<g id="edge15" class="edge"><title>Node1&#45;&gt;Node13</title>
<path fill="none" stroke="midnightblue" d="M539.388,-341.848C556.637,-330.097 577.462,-315.91 596.968,-302.622"/>
<polygon fill="none" stroke="midnightblue" points="537.014,-339.231 530.72,-347.753 540.955,-345.016 537.014,-339.231"/>
</g>
<!-- Node3 -->
<g id="node3" class="node"><title>Node3</title>
<g id="a_node3"><a xlink:href="class_net_1_1_protocols_1_1_h_e_l_d_1_1_errors_1_1_h_e_l_d___error___request.html" target="_top" xlink:title="{Net.Protocols.HELD.Errors.\lHELD_Error_Request\n||+ __init__()\l}">
<polygon fill="none" stroke="black" points="158,-107 158,-175 286,-175 286,-107 158,-107"/>
<text text-anchor="start" x="166" y="-163" font-family="Helvetica,sans-Serif" font-size="10.00">Net.Protocols.HELD.Errors.</text>
<text text-anchor="middle" x="222" y="-152" font-family="Helvetica,sans-Serif" font-size="10.00">HELD_Error_Request</text>
<polyline fill="none" stroke="black" points="158,-145 286,-145 "/>
<text text-anchor="middle" x="222" y="-133" font-family="Helvetica,sans-Serif" font-size="10.00"> </text>
<polyline fill="none" stroke="black" points="158,-126 286,-126 "/>
<text text-anchor="start" x="166" y="-114" font-family="Helvetica,sans-Serif" font-size="10.00">+ __init__()</text>
</a>
</g>
</g>
<!-- Node2&#45;&gt;Node3 -->
<g id="edge2" class="edge"><title>Node2&#45;&gt;Node3</title>
<path fill="none" stroke="midnightblue" d="M288.506,-205.734C277.664,-195.344 266.535,-184.679 256.558,-175.118"/>
<polygon fill="none" stroke="midnightblue" points="286.306,-208.475 295.948,-212.867 291.15,-203.421 286.306,-208.475"/>
</g>
<!-- Node7 -->
<g id="node7" class="node"><title>Node7</title>
<g id="a_node7"><a xlink:href="class_net_1_1_protocols_1_1_h_e_l_d_1_1_errors_1_1_h_e_l_d___error___response.html" target="_top" xlink:title="{Net.Protocols.HELD.Errors.\lHELD_Error_Response\n||+ __init__()\l}">
<polygon fill="none" stroke="black" points="594,-107 594,-175 722,-175 722,-107 594,-107"/>
<text text-anchor="start" x="602" y="-163" font-family="Helvetica,sans-Serif" font-size="10.00">Net.Protocols.HELD.Errors.</text>
<text text-anchor="middle" x="658" y="-152" font-family="Helvetica,sans-Serif" font-size="10.00">HELD_Error_Response</text>
<polyline fill="none" stroke="black" points="594,-145 722,-145 "/>
<text text-anchor="middle" x="658" y="-133" font-family="Helvetica,sans-Serif" font-size="10.00"> </text>
<polyline fill="none" stroke="black" points="594,-126 722,-126 "/>
<text text-anchor="start" x="602" y="-114" font-family="Helvetica,sans-Serif" font-size="10.00">+ __init__()</text>
</a>
</g>
</g>
<!-- Node2&#45;&gt;Node7 -->
<g id="edge6" class="edge"><title>Node2&#45;&gt;Node7</title>
<path fill="none" stroke="midnightblue" d="M415.836,-230.129C469.779,-210.498 542.205,-184.141 593.762,-165.378"/>
<polygon fill="none" stroke="midnightblue" points="414.528,-226.881 406.328,-233.589 416.922,-233.459 414.528,-226.881"/>
</g>
<!-- Node4 -->
<g id="node4" class="node"><title>Node4</title>
<g id="a_node4"><a xlink:href="class_net_1_1_protocols_1_1_h_e_l_d_1_1_errors_1_1_request_error.html" target="_top" xlink:title="Indicates that the request was badly formed in some fashion (other than the XML content).">
<polygon fill="none" stroke="black" points="0,-1 0,-69 138,-69 138,-1 0,-1"/>
<text text-anchor="start" x="8" y="-57" font-family="Helvetica,sans-Serif" font-size="10.00">Net.Protocols.HELD.Errors.</text>
<text text-anchor="middle" x="69" y="-46" font-family="Helvetica,sans-Serif" font-size="10.00">RequestError</text>
<polyline fill="none" stroke="black" points="0,-39 138,-39 "/>
<text text-anchor="start" x="8" y="-27" font-family="Helvetica,sans-Serif" font-size="10.00">+ unrecognizedLocationType</text>
<polyline fill="none" stroke="black" points="0,-20 138,-20 "/>
<text text-anchor="start" x="8" y="-8" font-family="Helvetica,sans-Serif" font-size="10.00">+ __init__()</text>
</a>
</g>
</g>
<!-- Node2&#45;&gt;Node4 -->
<g id="edge12" class="edge"><title>Node2&#45;&gt;Node4</title>
<path fill="none" stroke="midnightblue" d="M267.883,-238.419C229.072,-225.799 182.74,-205.862 149,-176 115.984,-146.778 93.312,-100.521 80.7531,-69.2509"/>
<polygon fill="none" stroke="midnightblue" points="266.987,-241.807 277.576,-241.472 269.09,-235.13 266.987,-241.807"/>
</g>
<!-- Node5 -->
<g id="node5" class="node"><title>Node5</title>
<g id="a_node5"><a xlink:href="class_net_1_1_protocols_1_1_h_e_l_d_1_1_errors_1_1_unsupported_message.html" target="_top" xlink:title="Indicates that an element in the XML document for the request was not supported or understood...">
<polygon fill="none" stroke="black" points="156,-1 156,-69 284,-69 284,-1 156,-1"/>
<text text-anchor="start" x="164" y="-57" font-family="Helvetica,sans-Serif" font-size="10.00">Net.Protocols.HELD.Errors.</text>
<text text-anchor="middle" x="220" y="-46" font-family="Helvetica,sans-Serif" font-size="10.00">UnsupportedMessage</text>
<polyline fill="none" stroke="black" points="156,-39 284,-39 "/>
<text text-anchor="middle" x="220" y="-27" font-family="Helvetica,sans-Serif" font-size="10.00"> </text>
<polyline fill="none" stroke="black" points="156,-20 284,-20 "/>
<text text-anchor="start" x="164" y="-8" font-family="Helvetica,sans-Serif" font-size="10.00">+ __init__()</text>
</a>
</g>
</g>
<!-- Node2&#45;&gt;Node5 -->
<g id="edge13" class="edge"><title>Node2&#45;&gt;Node5</title>
<path fill="none" stroke="midnightblue" d="M332.298,-202.88C325.199,-172.732 313.499,-135.453 295,-106 286.474,-92.4255 274.673,-79.7438 262.954,-69.005"/>
<polygon fill="none" stroke="midnightblue" points="328.923,-203.821 334.533,-212.809 335.752,-202.284 328.923,-203.821"/>
</g>
<!-- Node6 -->
<g id="node6" class="node"><title>Node6</title>
<g id="a_node6"><a xlink:href="class_net_1_1_protocols_1_1_h_e_l_d_1_1_errors_1_1_x_m_l___error.html" target="_top" xlink:title="Indicates that the XML content of the request was either badly formed or invalid.">
<polygon fill="none" stroke="black" points="302,-1 302,-69 430,-69 430,-1 302,-1"/>
<text text-anchor="start" x="310" y="-57" font-family="Helvetica,sans-Serif" font-size="10.00">Net.Protocols.HELD.Errors.</text>
<text text-anchor="middle" x="366" y="-46" font-family="Helvetica,sans-Serif" font-size="10.00">XML_Error</text>
<polyline fill="none" stroke="black" points="302,-39 430,-39 "/>
<text text-anchor="middle" x="366" y="-27" font-family="Helvetica,sans-Serif" font-size="10.00"> </text>
<polyline fill="none" stroke="black" points="302,-20 430,-20 "/>
<text text-anchor="start" x="310" y="-8" font-family="Helvetica,sans-Serif" font-size="10.00">+ __init__()</text>
</a>
</g>
</g>
<!-- Node2&#45;&gt;Node6 -->
<g id="edge14" class="edge"><title>Node2&#45;&gt;Node6</title>
<path fill="none" stroke="midnightblue" d="M347.886,-202.798C352.421,-161.043 358.545,-104.652 362.383,-69.3102"/>
<polygon fill="none" stroke="midnightblue" points="344.399,-202.489 346.799,-212.809 351.358,-203.245 344.399,-202.489"/>
</g>
<!-- Node3&#45;&gt;Node4 -->
<g id="edge3" class="edge"><title>Node3&#45;&gt;Node4</title>
<path fill="none" stroke="midnightblue" d="M164.697,-101.049C149.207,-90.5195 132.594,-79.2273 117.629,-69.0553"/>
<polygon fill="none" stroke="midnightblue" points="162.931,-104.081 173.169,-106.808 166.866,-98.2915 162.931,-104.081"/>
</g>
<!-- Node3&#45;&gt;Node5 -->
<g id="edge4" class="edge"><title>Node3&#45;&gt;Node5</title>
<path fill="none" stroke="midnightblue" d="M221.167,-96.6737C220.99,-87.5025 220.807,-77.9608 220.639,-69.2336"/>
<polygon fill="none" stroke="midnightblue" points="217.67,-96.877 221.362,-106.808 224.669,-96.7423 217.67,-96.877"/>
</g>
<!-- Node3&#45;&gt;Node6 -->
<g id="edge5" class="edge"><title>Node3&#45;&gt;Node6</title>
<path fill="none" stroke="midnightblue" d="M276.296,-100.786C290.686,-90.3937 306.081,-79.2745 319.984,-69.2336"/>
<polygon fill="none" stroke="midnightblue" points="274.016,-98.1155 267.958,-106.808 278.114,-103.79 274.016,-98.1155"/>
</g>
<!-- Node8 -->
<g id="node8" class="node"><title>Node8</title>
<g id="a_node8"><a xlink:href="class_net_1_1_protocols_1_1_h_e_l_d_1_1_errors_1_1_cannot_provide_l_i_type.html" target="_top" xlink:title="Indicates that the LIS was unable to provide LI of the type or types requested.">
<polygon fill="none" stroke="black" points="594,-1 594,-69 722,-69 722,-1 594,-1"/>
<text text-anchor="start" x="602" y="-57" font-family="Helvetica,sans-Serif" font-size="10.00">Net.Protocols.HELD.Errors.</text>
<text text-anchor="middle" x="658" y="-46" font-family="Helvetica,sans-Serif" font-size="10.00">CannotProvideLIType</text>
<polyline fill="none" stroke="black" points="594,-39 722,-39 "/>
<text text-anchor="middle" x="658" y="-27" font-family="Helvetica,sans-Serif" font-size="10.00"> </text>
<polyline fill="none" stroke="black" points="594,-20 722,-20 "/>
<text text-anchor="start" x="602" y="-8" font-family="Helvetica,sans-Serif" font-size="10.00">+ __init__()</text>
</a>
</g>
</g>
<!-- Node7&#45;&gt;Node8 -->
<g id="edge7" class="edge"><title>Node7&#45;&gt;Node8</title>
<path fill="none" stroke="midnightblue" d="M658,-96.6737C658,-87.5025 658,-77.9608 658,-69.2336"/>
<polygon fill="none" stroke="midnightblue" points="654.5,-96.8078 658,-106.808 661.5,-96.8078 654.5,-96.8078"/>
</g>
<!-- Node9 -->
<g id="node9" class="node"><title>Node9</title>
<g id="a_node9"><a xlink:href="class_net_1_1_protocols_1_1_h_e_l_d_1_1_errors_1_1_general_l_i_s_error.html" target="_top" xlink:title="Indicates that an unspecified error occurred at the LIS.">
<polygon fill="none" stroke="black" points="740,-1 740,-69 868,-69 868,-1 740,-1"/>
<text text-anchor="start" x="748" y="-57" font-family="Helvetica,sans-Serif" font-size="10.00">Net.Protocols.HELD.Errors.</text>
<text text-anchor="middle" x="804" y="-46" font-family="Helvetica,sans-Serif" font-size="10.00">GeneralLISError</text>
<polyline fill="none" stroke="black" points="740,-39 868,-39 "/>
<text text-anchor="middle" x="804" y="-27" font-family="Helvetica,sans-Serif" font-size="10.00"> </text>
<polyline fill="none" stroke="black" points="740,-20 868,-20 "/>
<text text-anchor="start" x="748" y="-8" font-family="Helvetica,sans-Serif" font-size="10.00">+ __init__()</text>
</a>
</g>
</g>
<!-- Node7&#45;&gt;Node9 -->
<g id="edge8" class="edge"><title>Node7&#45;&gt;Node9</title>
<path fill="none" stroke="midnightblue" d="M713.092,-100.756C727.756,-90.3105 743.448,-79.1331 757.595,-69.0553"/>
<polygon fill="none" stroke="midnightblue" points="710.711,-98.1552 704.597,-106.808 714.772,-103.857 710.711,-98.1552"/>
</g>
<!-- Node10 -->
<g id="node10" class="node"><title>Node10</title>
<g id="a_node10"><a xlink:href="class_net_1_1_protocols_1_1_h_e_l_d_1_1_errors_1_1_location_unknown.html" target="_top" xlink:title="Indicates that the LIS could not determine the location of the device.">
<polygon fill="none" stroke="black" points="886,-1 886,-69 1014,-69 1014,-1 886,-1"/>
<text text-anchor="start" x="894" y="-57" font-family="Helvetica,sans-Serif" font-size="10.00">Net.Protocols.HELD.Errors.</text>
<text text-anchor="middle" x="950" y="-46" font-family="Helvetica,sans-Serif" font-size="10.00">LocationUnknown</text>
<polyline fill="none" stroke="black" points="886,-39 1014,-39 "/>
<text text-anchor="middle" x="950" y="-27" font-family="Helvetica,sans-Serif" font-size="10.00"> </text>
<polyline fill="none" stroke="black" points="886,-20 1014,-20 "/>
<text text-anchor="start" x="894" y="-8" font-family="Helvetica,sans-Serif" font-size="10.00">+ __init__()</text>
</a>
</g>
</g>
<!-- Node7&#45;&gt;Node10 -->
<g id="edge9" class="edge"><title>Node7&#45;&gt;Node10</title>
<path fill="none" stroke="midnightblue" d="M731.973,-105.906C795.996,-84.5096 816.922,-91.1718 877,-70 879.901,-68.9777 882.842,-67.88 885.796,-66.7274"/>
<polygon fill="none" stroke="midnightblue" points="730.518,-102.705 722.204,-109.273 732.799,-109.323 730.518,-102.705"/>
</g>
<!-- Node11 -->
<g id="node11" class="node"><title>Node11</title>
<g id="a_node11"><a xlink:href="class_net_1_1_protocols_1_1_h_e_l_d_1_1_errors_1_1_not_locatable.html" target="_top" xlink:title="Indicates that the LIS is unable to locate the Device.">
<polygon fill="none" stroke="black" points="1032,-1 1032,-69 1160,-69 1160,-1 1032,-1"/>
<text text-anchor="start" x="1040" y="-57" font-family="Helvetica,sans-Serif" font-size="10.00">Net.Protocols.HELD.Errors.</text>
<text text-anchor="middle" x="1096" y="-46" font-family="Helvetica,sans-Serif" font-size="10.00">NotLocatable</text>
<polyline fill="none" stroke="black" points="1032,-39 1160,-39 "/>
<text text-anchor="middle" x="1096" y="-27" font-family="Helvetica,sans-Serif" font-size="10.00"> </text>
<polyline fill="none" stroke="black" points="1032,-20 1160,-20 "/>
<text text-anchor="start" x="1040" y="-8" font-family="Helvetica,sans-Serif" font-size="10.00">+ __init__()</text>
</a>
</g>
</g>
<!-- Node7&#45;&gt;Node11 -->
<g id="edge10" class="edge"><title>Node7&#45;&gt;Node11</title>
<path fill="none" stroke="midnightblue" d="M731.76,-106.12C858.728,-71.6742 900.375,-105.165 1023,-70 1025.96,-69.1521 1028.94,-68.1989 1031.94,-67.1647"/>
<polygon fill="none" stroke="midnightblue" points="730.75,-102.768 722.064,-108.835 732.638,-109.508 730.75,-102.768"/>
</g>
<!-- Node12 -->
<g id="node12" class="node"><title>Node12</title>
<g id="a_node12"><a xlink:href="class_net_1_1_protocols_1_1_h_e_l_d_1_1_errors_1_1_timeout.html" target="_top" xlink:title="Indicates that the LIS could not satisfy the request within the time specified.">
<polygon fill="none" stroke="black" points="448,-1 448,-69 576,-69 576,-1 448,-1"/>
<text text-anchor="start" x="456" y="-57" font-family="Helvetica,sans-Serif" font-size="10.00">Net.Protocols.HELD.Errors.</text>
<text text-anchor="middle" x="512" y="-46" font-family="Helvetica,sans-Serif" font-size="10.00">Timeout</text>
<polyline fill="none" stroke="black" points="448,-39 576,-39 "/>
<text text-anchor="middle" x="512" y="-27" font-family="Helvetica,sans-Serif" font-size="10.00"> </text>
<polyline fill="none" stroke="black" points="448,-20 576,-20 "/>
<text text-anchor="start" x="456" y="-8" font-family="Helvetica,sans-Serif" font-size="10.00">+ __init__()</text>
</a>
</g>
</g>
<!-- Node7&#45;&gt;Node12 -->
<g id="edge11" class="edge"><title>Node7&#45;&gt;Node12</title>
<path fill="none" stroke="midnightblue" d="M602.908,-100.756C588.244,-90.3105 572.552,-79.1331 558.405,-69.0553"/>
<polygon fill="none" stroke="midnightblue" points="601.228,-103.857 611.403,-106.808 605.289,-98.1552 601.228,-103.857"/>
</g>
<!-- Node14 -->
<g id="node14" class="node"><title>Node14</title>
<g id="a_node14"><a xlink:href="class_net_1_1_protocols_1_1_h_e_l_d_1_1_h_e_l_d___i_d_1_1_bad_identifier.html" target="_top" xlink:title="Indicates that a Device identifier used in the HELD request is not supported, badly formatted...">
<polygon fill="none" stroke="black" points="740,-107 740,-175 868,-175 868,-107 740,-107"/>
<text text-anchor="start" x="748" y="-163" font-family="Helvetica,sans-Serif" font-size="10.00">Net.Protocols.HELD.HELD</text>
<text text-anchor="middle" x="804" y="-152" font-family="Helvetica,sans-Serif" font-size="10.00">_ID.BadIdentifier</text>
<polyline fill="none" stroke="black" points="740,-145 868,-145 "/>
<text text-anchor="middle" x="804" y="-133" font-family="Helvetica,sans-Serif" font-size="10.00"> </text>
<polyline fill="none" stroke="black" points="740,-126 868,-126 "/>
<text text-anchor="start" x="748" y="-114" font-family="Helvetica,sans-Serif" font-size="10.00">+ __init__()</text>
</a>
</g>
</g>
<!-- Node13&#45;&gt;Node14 -->
<g id="edge16" class="edge"><title>Node13&#45;&gt;Node14</title>
<path fill="none" stroke="midnightblue" d="M724.003,-206.334C737.157,-195.755 750.701,-184.863 762.818,-175.118"/>
<polygon fill="none" stroke="midnightblue" points="721.478,-203.873 715.879,-212.867 725.865,-209.327 721.478,-203.873"/>
</g>
</g>
</svg>
