<?xml version="1.0" encoding="UTF-8" standalone="no"?>
<!DOCTYPE svg PUBLIC "-//W3C//DTD SVG 1.1//EN"
 "http://www.w3.org/Graphics/SVG/1.1/DTD/svg11.dtd">
<!-- Generated by graphviz version 2.30.1 (20130219.2202)
 -->
<!-- Title: Net.Protocols.PIDF_LO.Civic Pages: 1 -->
<svg width="102pt" height="278pt"
 viewBox="0.00 0.00 102.00 278.00" xmlns="http://www.w3.org/2000/svg" xmlns:xlink="http://www.w3.org/1999/xlink">
<g id="graph0" class="graph" transform="scale(1 1) rotate(0) translate(4 274)">
<title>Net.Protocols.PIDF_LO.Civic</title>
<!-- Node1 -->
<g id="node1" class="node"><title>Node1</title>
<polygon fill="#bfbfbf" stroke="black" points="-0.5,-1 -0.5,-69 94.5,-69 94.5,-1 -0.5,-1"/>
<text text-anchor="start" x="7.5" y="-57" font-family="Helvetica,sans-Serif" font-size="10.00">Net.Protocols.PIDF</text>
<text text-anchor="middle" x="47" y="-46" font-family="Helvetica,sans-Serif" font-size="10.00">_LO.Civic</text>
<polyline fill="none" stroke="black" points="-0.5,-39 94.5,-39 "/>
<text text-anchor="middle" x="47" y="-27" font-family="Helvetica,sans-Serif" font-size="10.00"> </text>
<polyline fill="none" stroke="black" points="-0.5,-20 94.5,-20 "/>
<text text-anchor="start" x="7.5" y="-8" font-family="Helvetica,sans-Serif" font-size="10.00">+ __init__()</text>
</g>
<!-- Node2 -->
<g id="node2" class="node"><title>Node2</title>
<g id="a_node2"><a xlink:href="class_net_1_1_protocols_1_1_p_i_d_f___l_o_1_1_p_i_d_f___l_o.html" target="_top" xlink:title="{Net.Protocols.PIDF\l_LO.PIDF_LO\n||+ __init__()\l}">
<polygon fill="none" stroke="black" points="-0.5,-107 -0.5,-175 94.5,-175 94.5,-107 -0.5,-107"/>
<text text-anchor="start" x="7.5" y="-163" font-family="Helvetica,sans-Serif" font-size="10.00">Net.Protocols.PIDF</text>
<text text-anchor="middle" x="47" y="-152" font-family="Helvetica,sans-Serif" font-size="10.00">_LO.PIDF_LO</text>
<polyline fill="none" stroke="black" points="-0.5,-145 94.5,-145 "/>
<text text-anchor="middle" x="47" y="-133" font-family="Helvetica,sans-Serif" font-size="10.00"> </text>
<polyline fill="none" stroke="black" points="-0.5,-126 94.5,-126 "/>
<text text-anchor="start" x="7.5" y="-114" font-family="Helvetica,sans-Serif" font-size="10.00">+ __init__()</text>
</a>
</g>
</g>
<!-- Node2&#45;&gt;Node1 -->
<g id="edge1" class="edge"><title>Node2&#45;&gt;Node1</title>
<path fill="none" stroke="midnightblue" d="M47,-96.6737C47,-87.5025 47,-77.9608 47,-69.2336"/>
<polygon fill="none" stroke="midnightblue" points="43.5001,-96.8078 47,-106.808 50.5001,-96.8078 43.5001,-96.8078"/>
</g>
<!-- Node3 -->
<g id="node3" class="node"><title>Node3</title>
<polygon fill="none" stroke="#bfbfbf" points="17.5,-212.5 17.5,-269.5 76.5,-269.5 76.5,-212.5 17.5,-212.5"/>
<text text-anchor="middle" x="47" y="-257.5" font-family="Helvetica,sans-Serif" font-size="10.00">Descriptor</text>
<polyline fill="none" stroke="#bfbfbf" points="17.5,-250.5 76.5,-250.5 "/>
<text text-anchor="middle" x="47" y="-238.5" font-family="Helvetica,sans-Serif" font-size="10.00"> </text>
<polyline fill="none" stroke="#bfbfbf" points="17.5,-231.5 76.5,-231.5 "/>
<text text-anchor="middle" x="47" y="-219.5" font-family="Helvetica,sans-Serif" font-size="10.00"> </text>
</g>
<!-- Node3&#45;&gt;Node2 -->
<g id="edge2" class="edge"><title>Node3&#45;&gt;Node2</title>
<path fill="none" stroke="midnightblue" d="M47,-202.302C47,-193.395 47,-183.961 47,-175.266"/>
<polygon fill="none" stroke="midnightblue" points="43.5001,-202.441 47,-212.441 50.5001,-202.441 43.5001,-202.441"/>
</g>
</g>
</svg>
