<?xml version="1.0" encoding="UTF-8" standalone="no"?>
<!DOCTYPE svg PUBLIC "-//W3C//DTD SVG 1.1//EN"
 "http://www.w3.org/Graphics/SVG/1.1/DTD/svg11.dtd">
<!-- Generated by graphviz version 2.30.1 (20130219.2202)
 -->
<!-- Title: Net.Protocols.base._DescriptorXML.DescriptorXML.unpickle Pages: 1 -->
<svg width="436pt" height="99pt"
 viewBox="0.00 0.00 436.00 99.00" xmlns="http://www.w3.org/2000/svg" xmlns:xlink="http://www.w3.org/1999/xlink">
<g id="graph0" class="graph" transform="scale(1 1) rotate(0) translate(4 95)">
<title>Net.Protocols.base._DescriptorXML.DescriptorXML.unpickle</title>
<!-- Node1 -->
<g id="node1" class="node"><title>Node1</title>
<polygon fill="#bfbfbf" stroke="black" points="0.5,-27 0.5,-57 183.5,-57 183.5,-27 0.5,-27"/>
<text text-anchor="start" x="8.5" y="-45" font-family="Helvetica,sans-Serif" font-size="10.00">Net.Protocols.base.</text>
<text text-anchor="middle" x="92" y="-34" font-family="Helvetica,sans-Serif" font-size="10.00">_DescriptorXML.DescriptorXML.unpickle</text>
</g>
<!-- Node2 -->
<g id="node2" class="node"><title>Node2</title>
<g id="a_node2"><a xlink:href="class_net_1_1_protocols_1_1base_1_1___descriptor_x_m_l_1_1_descriptor_x_m_l.html#a464a32967fbafdea8a8cc5c4a84a30c8" target="_top" xlink:title="These options get passed to lxml.etree.parse.">
<polygon fill="none" stroke="black" points="249.5,-49.5 249.5,-90.5 398.5,-90.5 398.5,-49.5 249.5,-49.5"/>
<text text-anchor="start" x="257.5" y="-78.5" font-family="Helvetica,sans-Serif" font-size="10.00">Net.Protocols.base.</text>
<text text-anchor="start" x="257.5" y="-67.5" font-family="Helvetica,sans-Serif" font-size="10.00">_DescriptorXML.DescriptorXML.</text>
<text text-anchor="middle" x="324" y="-56.5" font-family="Helvetica,sans-Serif" font-size="10.00">_unpickle_XML_getOptions</text>
</a>
</g>
</g>
<!-- Node1&#45;&gt;Node2 -->
<g id="edge1" class="edge"><title>Node1&#45;&gt;Node2</title>
<path fill="none" stroke="midnightblue" d="M183.572,-53.0261C201.921,-55.26 221.141,-57.5998 239.243,-59.8035"/>
<polygon fill="midnightblue" stroke="midnightblue" points="238.822,-63.278 249.172,-61.0122 239.668,-56.3293 238.822,-63.278"/>
</g>
<!-- Node3 -->
<g id="node3" class="node"><title>Node3</title>
<g id="a_node3"><a xlink:href="class_net_1_1_protocols_1_1base_1_1___descriptor_x_m_l_1_1_descriptor_x_m_l.html#a91ff780db3cdcdffb54bdfaea93c1084" target="_top" xlink:title="See super unpickle.">
<polygon fill="none" stroke="black" points="220,-0 220,-30 428,-30 428,-0 220,-0"/>
<text text-anchor="start" x="228" y="-18" font-family="Helvetica,sans-Serif" font-size="10.00">Net.Protocols.base.</text>
<text text-anchor="middle" x="324" y="-7" font-family="Helvetica,sans-Serif" font-size="10.00">_DescriptorXML.DescriptorXML.unpickle_XML</text>
</a>
</g>
</g>
<!-- Node1&#45;&gt;Node3 -->
<g id="edge2" class="edge"><title>Node1&#45;&gt;Node3</title>
<path fill="none" stroke="midnightblue" d="M183.572,-31.3676C192.249,-30.3491 201.12,-29.3076 209.976,-28.2681"/>
<polygon fill="midnightblue" stroke="midnightblue" points="210.433,-31.7386 219.956,-27.0964 209.616,-24.7863 210.433,-31.7386"/>
</g>
</g>
</svg>
