<?xml version="1.0" encoding="UTF-8" standalone="no"?>
<!DOCTYPE svg PUBLIC "-//W3C//DTD SVG 1.1//EN"
 "http://www.w3.org/Graphics/SVG/1.1/DTD/svg11.dtd">
<!-- Generated by graphviz version 2.30.1 (20130219.2202)
 -->
<!-- Title: Net.Protocols.HTTP.HTTP_Interface_Server Pages: 1 -->
<!--zoomable 526 -->
<svg id="main" version="1.1" xmlns="http://www.w3.org/2000/svg" xmlns:xlink="http://www.w3.org/1999/xlink" xml:space="preserve" onload="init(evt)">
        <defs>
                <circle id="rim" cx="0" cy="0" r="7"/>
                <circle id="rim2" cx="0" cy="0" r="3.5"/>
                <g id="zoomPlus">
                        <use xlink:href="#rim" fill="#404040">
                                <set attributeName="fill" to="#808080" begin="zoomplus.mouseover" end="zoomplus.mouseout"/>
                        </use>
                        <path d="M-4,0h8M0,-4v8" fill="none" stroke="white" stroke-width="1.5" pointer-events="none"/>
                </g>
                <g id="zoomMin">
                        <use xlink:href="#rim" fill="#404040">
                                <set attributeName="fill" to="#808080" begin="zoomminus.mouseover" end="zoomminus.mouseout"/>
                        </use>
                        <path d="M-4,0h8" fill="none" stroke="white" stroke-width="1.5" pointer-events="none"/>
                </g>
                <g id="dirArrow">
                        <path fill="none" stroke="white" stroke-width="1.5" d="M0,-3.0v7 M-2.5,-0.5L0,-3.0L2.5,-0.5"/>
                </g>
               <g id="resetDef">
                       <use xlink:href="#rim2" fill="#404040">
                               <set attributeName="fill" to="#808080" begin="reset.mouseover" end="reset.mouseout"/>
                       </use>
               </g>
        </defs>

<script type="text/javascript">
var viewWidth = 294;
var viewHeight = 526;
var sectionId = 'dynsection-0';
</script>
<script xlink:href="svgpan.js"/>
<svg id="graph" class="graph">
<g id="viewport">
<title>Net.Protocols.HTTP.HTTP_Interface_Server</title>
<!-- Node1 -->
<g id="node1" class="node"><title>Node1</title>
<polygon fill="#bfbfbf" stroke="black" points="80,-151 80,-241 212,-241 212,-151 80,-151"/>
<text text-anchor="start" x="88" y="-229" font-family="Helvetica,sans-Serif" font-size="10.00">Net.Protocols.HTTP.HTTP</text>
<text text-anchor="middle" x="146" y="-218" font-family="Helvetica,sans-Serif" font-size="10.00">_Interface_Server</text>
<polyline fill="none" stroke="black" points="80,-211 212,-211 "/>
<text text-anchor="middle" x="146" y="-199" font-family="Helvetica,sans-Serif" font-size="10.00"> </text>
<polyline fill="none" stroke="black" points="80,-192 212,-192 "/>
<text text-anchor="start" x="88" y="-180" font-family="Helvetica,sans-Serif" font-size="10.00">+ getHTTPprotocolVersion()</text>
<text text-anchor="start" x="88" y="-169" font-family="Helvetica,sans-Serif" font-size="10.00">+ getContentType()</text>
<text text-anchor="start" x="88" y="-158" font-family="Helvetica,sans-Serif" font-size="10.00">+ getResponseCode()</text>
</g>
<!-- Node5 -->
<g id="node5" class="node"><title>Node5</title>
<g id="a_node5"><a xlink:href="class_net_1_1_protocols_1_1_h_e_l_d_1_1_h_e_l_d_1_1_h_e_l_d___descriptor___server.html" target="_top" xlink:title="Implementation of the HELD protocol in python.">
<polygon fill="none" stroke="black" points="0,-1 0,-113 142,-113 142,-1 0,-1"/>
<text text-anchor="start" x="8" y="-101" font-family="Helvetica,sans-Serif" font-size="10.00">Net.Protocols.HELD.HELD.</text>
<text text-anchor="middle" x="71" y="-90" font-family="Helvetica,sans-Serif" font-size="10.00">HELD_Descriptor_Server</text>
<polyline fill="none" stroke="black" points="0,-83 142,-83 "/>
<text text-anchor="middle" x="71" y="-71" font-family="Helvetica,sans-Serif" font-size="10.00"> </text>
<polyline fill="none" stroke="black" points="0,-64 142,-64 "/>
<text text-anchor="start" x="8" y="-52" font-family="Helvetica,sans-Serif" font-size="10.00">+ __init__()</text>
<text text-anchor="start" x="8" y="-41" font-family="Helvetica,sans-Serif" font-size="10.00">+ getMIMEtype()</text>
<text text-anchor="start" x="8" y="-30" font-family="Helvetica,sans-Serif" font-size="10.00">+ pickle_validateCucumbers()</text>
<text text-anchor="start" x="8" y="-19" font-family="Helvetica,sans-Serif" font-size="10.00">+ pickle_XML()</text>
<text text-anchor="start" x="8" y="-8" font-family="Helvetica,sans-Serif" font-size="10.00">+ unpickle_XML()</text>
</a>
</g>
</g>
<!-- Node1&#45;&gt;Node5 -->
<g id="edge4" class="edge"><title>Node1&#45;&gt;Node5</title>
<path fill="none" stroke="midnightblue" d="M116.968,-141.968C111.781,-132.493 106.366,-122.602 101.149,-113.072"/>
<polygon fill="none" stroke="midnightblue" points="113.985,-143.807 121.857,-150.898 120.125,-140.446 113.985,-143.807"/>
</g>
<!-- Node6 -->
<g id="node6" class="node"><title>Node6</title>
<g id="a_node6"><a xlink:href="class_net_1_1_protocols_1_1_h_t_t_p_1_1_h_t_t_p___error.html" target="_top" xlink:title="{Net.Protocols.HTTP.HTTP\l_Error\n||+ __init__()\l+ getResponseCode()\l+ getContentType()\l}">
<polygon fill="none" stroke="black" points="160,-12 160,-102 284,-102 284,-12 160,-12"/>
<text text-anchor="start" x="168" y="-90" font-family="Helvetica,sans-Serif" font-size="10.00">Net.Protocols.HTTP.HTTP</text>
<text text-anchor="middle" x="222" y="-79" font-family="Helvetica,sans-Serif" font-size="10.00">_Error</text>
<polyline fill="none" stroke="black" points="160,-72 284,-72 "/>
<text text-anchor="middle" x="222" y="-60" font-family="Helvetica,sans-Serif" font-size="10.00"> </text>
<polyline fill="none" stroke="black" points="160,-53 284,-53 "/>
<text text-anchor="start" x="168" y="-41" font-family="Helvetica,sans-Serif" font-size="10.00">+ __init__()</text>
<text text-anchor="start" x="168" y="-30" font-family="Helvetica,sans-Serif" font-size="10.00">+ getResponseCode()</text>
<text text-anchor="start" x="168" y="-19" font-family="Helvetica,sans-Serif" font-size="10.00">+ getContentType()</text>
</a>
</g>
</g>
<!-- Node1&#45;&gt;Node6 -->
<g id="edge5" class="edge"><title>Node1&#45;&gt;Node6</title>
<path fill="none" stroke="midnightblue" d="M175.447,-141.918C182.766,-128.724 190.532,-114.725 197.581,-102.019"/>
<polygon fill="none" stroke="midnightblue" points="172.256,-140.456 170.465,-150.898 178.377,-143.852 172.256,-140.456"/>
</g>
<!-- Node2 -->
<g id="node2" class="node"><title>Node2</title>
<g id="a_node2"><a xlink:href="classprotocol_1_1_cucumber___interface___server.html" target="_top" xlink:title="{protocol::Cucumber\l_Interface_Server\n||}">
<polygon fill="none" stroke="black" points="28.5,-317 28.5,-385 125.5,-385 125.5,-317 28.5,-317"/>
<text text-anchor="start" x="36.5" y="-373" font-family="Helvetica,sans-Serif" font-size="10.00">protocol::Cucumber</text>
<text text-anchor="middle" x="77" y="-362" font-family="Helvetica,sans-Serif" font-size="10.00">_Interface_Server</text>
<polyline fill="none" stroke="black" points="28.5,-355 125.5,-355 "/>
<text text-anchor="middle" x="77" y="-343" font-family="Helvetica,sans-Serif" font-size="10.00"> </text>
<polyline fill="none" stroke="black" points="28.5,-336 125.5,-336 "/>
<text text-anchor="middle" x="77" y="-324" font-family="Helvetica,sans-Serif" font-size="10.00"> </text>
</a>
</g>
</g>
<!-- Node2&#45;&gt;Node1 -->
<g id="edge1" class="edge"><title>Node2&#45;&gt;Node1</title>
<path fill="none" stroke="midnightblue" d="M96.1108,-307.624C105.436,-286.945 116.649,-262.083 126.08,-241.171"/>
<polygon fill="none" stroke="midnightblue" points="92.8926,-306.247 91.972,-316.801 99.2737,-309.124 92.8926,-306.247"/>
</g>
<!-- Node3 -->
<g id="node3" class="node"><title>Node3</title>
<g id="a_node3"><a xlink:href="class_net_1_1_protocols_1_1_h_t_t_p_1_1_h_t_t_p.html" target="_top" xlink:title="Follows HTTP 1.1 specification (RFC 2616).">
<polygon fill="none" stroke="black" points="144,-278.5 144,-423.5 286,-423.5 286,-278.5 144,-278.5"/>
<text text-anchor="middle" x="215" y="-411.5" font-family="Helvetica,sans-Serif" font-size="10.00">Net.Protocols.HTTP.HTTP</text>
<polyline fill="none" stroke="black" points="144,-404.5 286,-404.5 "/>
<text text-anchor="middle" x="215" y="-392.5" font-family="Helvetica,sans-Serif" font-size="10.00"> </text>
<polyline fill="none" stroke="black" points="144,-385.5 286,-385.5 "/>
<text text-anchor="start" x="152" y="-373.5" font-family="Helvetica,sans-Serif" font-size="10.00">+ getClass_Descriptor</text>
<text text-anchor="start" x="152" y="-362.5" font-family="Helvetica,sans-Serif" font-size="10.00">_Client()</text>
<text text-anchor="start" x="152" y="-351.5" font-family="Helvetica,sans-Serif" font-size="10.00">+ getClass_Descriptor</text>
<text text-anchor="start" x="152" y="-340.5" font-family="Helvetica,sans-Serif" font-size="10.00">_Server()</text>
<text text-anchor="start" x="152" y="-329.5" font-family="Helvetica,sans-Serif" font-size="10.00">+ getClass_Interface</text>
<text text-anchor="start" x="152" y="-318.5" font-family="Helvetica,sans-Serif" font-size="10.00">_Client()</text>
<text text-anchor="start" x="152" y="-307.5" font-family="Helvetica,sans-Serif" font-size="10.00">+ getClass_Interface</text>
<text text-anchor="start" x="152" y="-296.5" font-family="Helvetica,sans-Serif" font-size="10.00">_Server()</text>
<text text-anchor="start" x="152" y="-285.5" font-family="Helvetica,sans-Serif" font-size="10.00">+ pickle_validateCucumbers()</text>
</a>
</g>
</g>
<!-- Node3&#45;&gt;Node1 -->
<g id="edge2" class="edge"><title>Node3&#45;&gt;Node1</title>
<path fill="none" stroke="midnightblue" d="M178.538,-269.148C174.177,-259.479 169.858,-249.902 165.861,-241.039"/>
<polygon fill="none" stroke="midnightblue" points="175.421,-270.751 182.722,-278.428 181.802,-267.873 175.421,-270.751"/>
</g>
<!-- Node4 -->
<g id="node4" class="node"><title>Node4</title>
<g id="a_node4"><a xlink:href="classprotocol_1_1_descriptor.html" target="_top" xlink:title="{protocol::Descriptor\n||}">
<polygon fill="none" stroke="black" points="167.5,-460.5 167.5,-517.5 262.5,-517.5 262.5,-460.5 167.5,-460.5"/>
<text text-anchor="middle" x="215" y="-505.5" font-family="Helvetica,sans-Serif" font-size="10.00">protocol::Descriptor</text>
<polyline fill="none" stroke="black" points="167.5,-498.5 262.5,-498.5 "/>
<text text-anchor="middle" x="215" y="-486.5" font-family="Helvetica,sans-Serif" font-size="10.00"> </text>
<polyline fill="none" stroke="black" points="167.5,-479.5 262.5,-479.5 "/>
<text text-anchor="middle" x="215" y="-467.5" font-family="Helvetica,sans-Serif" font-size="10.00"> </text>
</a>
</g>
</g>
<!-- Node4&#45;&gt;Node3 -->
<g id="edge3" class="edge"><title>Node4&#45;&gt;Node3</title>
<path fill="none" stroke="midnightblue" d="M215,-450.356C215,-441.999 215,-432.872 215,-423.656"/>
<polygon fill="none" stroke="midnightblue" points="211.5,-450.478 215,-460.478 218.5,-450.478 211.5,-450.478"/>
</g>
</g>
</svg>
        <g id="navigator" transform="translate(0 0)" fill="#404254">
                <rect fill="#f2f5e9" fill-opacity="0.5" stroke="#606060" stroke-width=".5" x="0" y="0" width="60" height="60"/>
                <use id="zoomplus" xlink:href="#zoomPlus" x="17" y="9" onmousedown="handleZoom(evt,'in')"/>
                <use id="zoomminus" xlink:href="#zoomMin" x="42" y="9" onmousedown="handleZoom(evt,'out')"/>
                <use id="reset" xlink:href="#resetDef" x="30" y="36" onmousedown="handleReset()"/>
                <g id="arrowUp" xlink:href="#dirArrow" transform="translate(30 24)" onmousedown="handlePan(0,-1)">
                  <use xlink:href="#rim" fill="#404040">
                        <set attributeName="fill" to="#808080" begin="arrowUp.mouseover" end="arrowUp.mouseout"/>
                  </use>
                  <path fill="none" stroke="white" stroke-width="1.5" d="M0,-3.0v7 M-2.5,-0.5L0,-3.0L2.5,-0.5"/>
                </g>
                <g id="arrowRight" xlink:href="#dirArrow" transform="rotate(90) translate(36 -43)" onmousedown="handlePan(1,0)">
                  <use xlink:href="#rim" fill="#404040">
                        <set attributeName="fill" to="#808080" begin="arrowRight.mouseover" end="arrowRight.mouseout"/>
                  </use>
                  <path fill="none" stroke="white" stroke-width="1.5" d="M0,-3.0v7 M-2.5,-0.5L0,-3.0L2.5,-0.5"/>
                </g>
                <g id="arrowDown" xlink:href="#dirArrow" transform="rotate(180) translate(-30 -48)" onmousedown="handlePan(0,1)">
                  <use xlink:href="#rim" fill="#404040">
                        <set attributeName="fill" to="#808080" begin="arrowDown.mouseover" end="arrowDown.mouseout"/>
                  </use>
                  <path fill="none" stroke="white" stroke-width="1.5" d="M0,-3.0v7 M-2.5,-0.5L0,-3.0L2.5,-0.5"/>
                </g>
                <g id="arrowLeft" xlink:href="#dirArrow" transform="rotate(270) translate(-36 17)" onmousedown="handlePan(-1,0)">
                  <use xlink:href="#rim" fill="#404040">
                        <set attributeName="fill" to="#808080" begin="arrowLeft.mouseover" end="arrowLeft.mouseout"/>
                  </use>
                  <path fill="none" stroke="white" stroke-width="1.5" d="M0,-3.0v7 M-2.5,-0.5L0,-3.0L2.5,-0.5"/>
                </g>
        </g>
        <svg viewBox="0 0 15 15" width="100%" height="30px" preserveAspectRatio="xMaxYMin meet">
         <g id="arrow_out" transform="scale(0.3 0.3)">
          <a xlink:href="class_net_1_1_protocols_1_1_h_t_t_p_1_1_h_t_t_p___interface___server__inherit__graph_org.svg" target="_base">
           <rect id="button" ry="5" rx="5" y="6" x="6" height="38" width="38"
                fill="#f2f5e9" fill-opacity="0.5" stroke="#606060" stroke-width="1.0"/>
           <path id="arrow"
             d="M 11.500037,31.436501 C 11.940474,20.09759 22.043105,11.32322 32.158766,21.979434 L 37.068811,17.246167 C 37.068811,17.246167 37.088388,32 37.088388,32 L 22.160133,31.978069 C 22.160133,31.978069 26.997745,27.140456 26.997745,27.140456 C 18.528582,18.264221 13.291696,25.230495 11.500037,31.436501 z"
             style="fill:#404040;"/>
          </a>
         </g>
        </svg>
</svg>
