<?xml version="1.0" encoding="UTF-8" standalone="no"?>
<!DOCTYPE svg PUBLIC "-//W3C//DTD SVG 1.1//EN"
 "http://www.w3.org/Graphics/SVG/1.1/DTD/svg11.dtd">
<!-- Generated by graphviz version 2.30.1 (20130219.2202)
 -->
<!-- Title: Net.Protocols.HELD.Errors.RequestError Pages: 1 -->
<!--zoomable 618 -->
<svg id="main" version="1.1" xmlns="http://www.w3.org/2000/svg" xmlns:xlink="http://www.w3.org/1999/xlink" xml:space="preserve" onload="init(evt)">
        <defs>
                <circle id="rim" cx="0" cy="0" r="7"/>
                <circle id="rim2" cx="0" cy="0" r="3.5"/>
                <g id="zoomPlus">
                        <use xlink:href="#rim" fill="#404040">
                                <set attributeName="fill" to="#808080" begin="zoomplus.mouseover" end="zoomplus.mouseout"/>
                        </use>
                        <path d="M-4,0h8M0,-4v8" fill="none" stroke="white" stroke-width="1.5" pointer-events="none"/>
                </g>
                <g id="zoomMin">
                        <use xlink:href="#rim" fill="#404040">
                                <set attributeName="fill" to="#808080" begin="zoomminus.mouseover" end="zoomminus.mouseout"/>
                        </use>
                        <path d="M-4,0h8" fill="none" stroke="white" stroke-width="1.5" pointer-events="none"/>
                </g>
                <g id="dirArrow">
                        <path fill="none" stroke="white" stroke-width="1.5" d="M0,-3.0v7 M-2.5,-0.5L0,-3.0L2.5,-0.5"/>
                </g>
               <g id="resetDef">
                       <use xlink:href="#rim2" fill="#404040">
                               <set attributeName="fill" to="#808080" begin="reset.mouseover" end="reset.mouseout"/>
                       </use>
               </g>
        </defs>

<script type="text/javascript">
var viewWidth = 400;
var viewHeight = 618;
var sectionId = 'dynsection-0';
</script>
<script xlink:href="svgpan.js"/>
<svg id="graph" class="graph">
<g id="viewport">
<title>Net.Protocols.HELD.Errors.RequestError</title>
<!-- Node1 -->
<g id="node1" class="node"><title>Node1</title>
<polygon fill="#bfbfbf" stroke="black" points="68,-1 68,-69 206,-69 206,-1 68,-1"/>
<text text-anchor="start" x="76" y="-57" font-family="Helvetica,sans-Serif" font-size="10.00">Net.Protocols.HELD.Errors.</text>
<text text-anchor="middle" x="137" y="-46" font-family="Helvetica,sans-Serif" font-size="10.00">RequestError</text>
<polyline fill="none" stroke="black" points="68,-39 206,-39 "/>
<text text-anchor="start" x="76" y="-27" font-family="Helvetica,sans-Serif" font-size="10.00">+ unrecognizedLocationType</text>
<polyline fill="none" stroke="black" points="68,-20 206,-20 "/>
<text text-anchor="start" x="76" y="-8" font-family="Helvetica,sans-Serif" font-size="10.00">+ __init__()</text>
</g>
<!-- Node2 -->
<g id="node2" class="node"><title>Node2</title>
<g id="a_node2"><a xlink:href="class_net_1_1_protocols_1_1_h_e_l_d_1_1_errors_1_1_h_e_l_d___error___request.html" target="_top" xlink:title="{Net.Protocols.HELD.Errors.\lHELD_Error_Request\n||+ __init__()\l}">
<polygon fill="none" stroke="black" points="119,-107 119,-175 247,-175 247,-107 119,-107"/>
<text text-anchor="start" x="127" y="-163" font-family="Helvetica,sans-Serif" font-size="10.00">Net.Protocols.HELD.Errors.</text>
<text text-anchor="middle" x="183" y="-152" font-family="Helvetica,sans-Serif" font-size="10.00">HELD_Error_Request</text>
<polyline fill="none" stroke="black" points="119,-145 247,-145 "/>
<text text-anchor="middle" x="183" y="-133" font-family="Helvetica,sans-Serif" font-size="10.00"> </text>
<polyline fill="none" stroke="black" points="119,-126 247,-126 "/>
<text text-anchor="start" x="127" y="-114" font-family="Helvetica,sans-Serif" font-size="10.00">+ __init__()</text>
</a>
</g>
</g>
<!-- Node2&#45;&gt;Node1 -->
<g id="edge1" class="edge"><title>Node2&#45;&gt;Node1</title>
<path fill="none" stroke="midnightblue" d="M164.228,-97.5601C160.053,-88.1189 155.684,-78.2423 151.699,-69.2336"/>
<polygon fill="none" stroke="midnightblue" points="161.073,-99.0782 168.319,-106.808 167.475,-96.2467 161.073,-99.0782"/>
</g>
<!-- Node3 -->
<g id="node3" class="node"><title>Node3</title>
<g id="a_node3"><a xlink:href="class_net_1_1_protocols_1_1_h_e_l_d_1_1_cucumbers_1_1_request.html" target="_top" xlink:title="{Net.Protocols.HELD.Cucumbers.\lRequest\n|+ locationTypes\l+ locationTypes_areExact\l|+ __init__()\l}">
<polygon fill="none" stroke="black" points="173.5,-218.5 173.5,-297.5 326.5,-297.5 326.5,-218.5 173.5,-218.5"/>
<text text-anchor="start" x="181.5" y="-285.5" font-family="Helvetica,sans-Serif" font-size="10.00">Net.Protocols.HELD.Cucumbers.</text>
<text text-anchor="middle" x="250" y="-274.5" font-family="Helvetica,sans-Serif" font-size="10.00">Request</text>
<polyline fill="none" stroke="black" points="173.5,-267.5 326.5,-267.5 "/>
<text text-anchor="start" x="181.5" y="-255.5" font-family="Helvetica,sans-Serif" font-size="10.00">+ locationTypes</text>
<text text-anchor="start" x="181.5" y="-244.5" font-family="Helvetica,sans-Serif" font-size="10.00">+ locationTypes_areExact</text>
<polyline fill="none" stroke="black" points="173.5,-237.5 326.5,-237.5 "/>
<text text-anchor="start" x="181.5" y="-225.5" font-family="Helvetica,sans-Serif" font-size="10.00">+ __init__()</text>
</a>
</g>
</g>
<!-- Node3&#45;&gt;Node2 -->
<g id="edge2" class="edge"><title>Node3&#45;&gt;Node2</title>
<path fill="none" stroke="midnightblue" d="M222.444,-209.703C215.72,-198.16 208.665,-186.051 202.411,-175.317"/>
<polygon fill="none" stroke="midnightblue" points="219.445,-211.508 227.504,-218.387 225.494,-207.984 219.445,-211.508"/>
</g>
<!-- Node4 -->
<g id="node4" class="node"><title>Node4</title>
<g id="a_node4"><a xlink:href="class_net_1_1_protocols_1_1_h_e_l_d_1_1_cucumbers_1_1_h_e_l_d___cucumber.html" target="_top" xlink:title="{Net.Protocols.HELD.Cucumbers.\lHELD_Cucumber\n||}">
<polygon fill="none" stroke="black" points="76.5,-341 76.5,-409 229.5,-409 229.5,-341 76.5,-341"/>
<text text-anchor="start" x="84.5" y="-397" font-family="Helvetica,sans-Serif" font-size="10.00">Net.Protocols.HELD.Cucumbers.</text>
<text text-anchor="middle" x="153" y="-386" font-family="Helvetica,sans-Serif" font-size="10.00">HELD_Cucumber</text>
<polyline fill="none" stroke="black" points="76.5,-379 229.5,-379 "/>
<text text-anchor="middle" x="153" y="-367" font-family="Helvetica,sans-Serif" font-size="10.00"> </text>
<polyline fill="none" stroke="black" points="76.5,-360 229.5,-360 "/>
<text text-anchor="middle" x="153" y="-348" font-family="Helvetica,sans-Serif" font-size="10.00"> </text>
</a>
</g>
</g>
<!-- Node4&#45;&gt;Node3 -->
<g id="edge3" class="edge"><title>Node4&#45;&gt;Node3</title>
<path fill="none" stroke="midnightblue" d="M187.584,-332.998C197.229,-321.564 207.675,-309.179 217.213,-297.871"/>
<polygon fill="none" stroke="midnightblue" points="184.829,-330.837 181.056,-340.737 190.179,-335.35 184.829,-330.837"/>
</g>
<!-- Node9 -->
<g id="node9" class="node"><title>Node9</title>
<g id="a_node9"><a xlink:href="class_net_1_1_protocols_1_1_h_e_l_d_1_1_errors_1_1_h_e_l_d___error.html" target="_top" xlink:title="Corresponds to an RFC 5985 general error when the location request cannot be fulfilled.">
<polygon fill="none" stroke="black" points="27,-213 27,-303 155,-303 155,-213 27,-213"/>
<text text-anchor="start" x="35" y="-291" font-family="Helvetica,sans-Serif" font-size="10.00">Net.Protocols.HELD.Errors.</text>
<text text-anchor="middle" x="91" y="-280" font-family="Helvetica,sans-Serif" font-size="10.00">HELD_Error</text>
<polyline fill="none" stroke="black" points="27,-273 155,-273 "/>
<text text-anchor="start" x="35" y="-261" font-family="Helvetica,sans-Serif" font-size="10.00">+ code</text>
<polyline fill="none" stroke="black" points="27,-254 155,-254 "/>
<text text-anchor="start" x="35" y="-242" font-family="Helvetica,sans-Serif" font-size="10.00">+ __init__()</text>
<text text-anchor="start" x="35" y="-231" font-family="Helvetica,sans-Serif" font-size="10.00">+ __str__()</text>
<text text-anchor="start" x="35" y="-220" font-family="Helvetica,sans-Serif" font-size="10.00">+ pickle_XML()</text>
</a>
</g>
</g>
<!-- Node4&#45;&gt;Node9 -->
<g id="edge9" class="edge"><title>Node4&#45;&gt;Node9</title>
<path fill="none" stroke="midnightblue" d="M130.202,-331.714C125.215,-322.463 119.922,-312.646 114.893,-303.318"/>
<polygon fill="none" stroke="midnightblue" points="127.241,-333.596 135.067,-340.737 133.402,-330.274 127.241,-333.596"/>
</g>
<!-- Node5 -->
<g id="node5" class="node"><title>Node5</title>
<g id="a_node5"><a xlink:href="classbase_1_1_cucumber.html" target="_top" xlink:title="{base::Cucumber\n||}">
<polygon fill="none" stroke="black" points="109.5,-452.5 109.5,-509.5 196.5,-509.5 196.5,-452.5 109.5,-452.5"/>
<text text-anchor="middle" x="153" y="-497.5" font-family="Helvetica,sans-Serif" font-size="10.00">base::Cucumber</text>
<polyline fill="none" stroke="black" points="109.5,-490.5 196.5,-490.5 "/>
<text text-anchor="middle" x="153" y="-478.5" font-family="Helvetica,sans-Serif" font-size="10.00"> </text>
<polyline fill="none" stroke="black" points="109.5,-471.5 196.5,-471.5 "/>
<text text-anchor="middle" x="153" y="-459.5" font-family="Helvetica,sans-Serif" font-size="10.00"> </text>
</a>
</g>
</g>
<!-- Node5&#45;&gt;Node4 -->
<g id="edge4" class="edge"><title>Node5&#45;&gt;Node4</title>
<path fill="none" stroke="midnightblue" d="M153,-442.372C153,-431.55 153,-419.828 153,-409.288"/>
<polygon fill="none" stroke="midnightblue" points="149.5,-442.403 153,-452.403 156.5,-442.403 149.5,-442.403"/>
</g>
<!-- Node6 -->
<g id="node6" class="node"><title>Node6</title>
<g id="a_node6"><a xlink:href="class_net_1_1_protocols_1_1base_1_1_cucumber_1_1_request.html" target="_top" xlink:title="A cucumber (python object) created for processing a request, typically made by a client.">
<polygon fill="none" stroke="black" points="248,-341 248,-409 392,-409 392,-341 248,-341"/>
<text text-anchor="start" x="256" y="-397" font-family="Helvetica,sans-Serif" font-size="10.00">Net.Protocols.base.Cucumber.</text>
<text text-anchor="middle" x="320" y="-386" font-family="Helvetica,sans-Serif" font-size="10.00">Request</text>
<polyline fill="none" stroke="black" points="248,-379 392,-379 "/>
<text text-anchor="middle" x="320" y="-367" font-family="Helvetica,sans-Serif" font-size="10.00"> </text>
<polyline fill="none" stroke="black" points="248,-360 392,-360 "/>
<text text-anchor="middle" x="320" y="-348" font-family="Helvetica,sans-Serif" font-size="10.00"> </text>
</a>
</g>
</g>
<!-- Node6&#45;&gt;Node3 -->
<g id="edge5" class="edge"><title>Node6&#45;&gt;Node3</title>
<path fill="none" stroke="midnightblue" d="M294.439,-332.006C287.648,-320.85 280.345,-308.852 273.661,-297.871"/>
<polygon fill="none" stroke="midnightblue" points="291.564,-334.015 299.753,-340.737 297.543,-330.375 291.564,-334.015"/>
</g>
<!-- Node7 -->
<g id="node7" class="node"><title>Node7</title>
<g id="a_node7"><a xlink:href="class_net_1_1_protocols_1_1base_1_1_cucumber_1_1_cucumber.html" target="_top" xlink:title="{Net.Protocols.base.Cucumber.\lCucumber\n||}">
<polygon fill="none" stroke="black" points="248,-447 248,-515 392,-515 392,-447 248,-447"/>
<text text-anchor="start" x="256" y="-503" font-family="Helvetica,sans-Serif" font-size="10.00">Net.Protocols.base.Cucumber.</text>
<text text-anchor="middle" x="320" y="-492" font-family="Helvetica,sans-Serif" font-size="10.00">Cucumber</text>
<polyline fill="none" stroke="black" points="248,-485 392,-485 "/>
<text text-anchor="middle" x="320" y="-473" font-family="Helvetica,sans-Serif" font-size="10.00"> </text>
<polyline fill="none" stroke="black" points="248,-466 392,-466 "/>
<text text-anchor="middle" x="320" y="-454" font-family="Helvetica,sans-Serif" font-size="10.00"> </text>
</a>
</g>
</g>
<!-- Node7&#45;&gt;Node6 -->
<g id="edge6" class="edge"><title>Node7&#45;&gt;Node6</title>
<path fill="none" stroke="midnightblue" d="M320,-436.674C320,-427.502 320,-417.961 320,-409.234"/>
<polygon fill="none" stroke="midnightblue" points="316.5,-436.808 320,-446.808 323.5,-436.808 316.5,-436.808"/>
</g>
<!-- Node8 -->
<g id="node8" class="node"><title>Node8</title>
<g id="a_node8"><a xlink:href="classobject.html" target="_top" xlink:title="{object\n||}">
<polygon fill="none" stroke="black" points="299,-552.5 299,-609.5 341,-609.5 341,-552.5 299,-552.5"/>
<text text-anchor="middle" x="320" y="-597.5" font-family="Helvetica,sans-Serif" font-size="10.00">object</text>
<polyline fill="none" stroke="black" points="299,-590.5 341,-590.5 "/>
<text text-anchor="middle" x="320" y="-578.5" font-family="Helvetica,sans-Serif" font-size="10.00"> </text>
<polyline fill="none" stroke="black" points="299,-571.5 341,-571.5 "/>
<text text-anchor="middle" x="320" y="-559.5" font-family="Helvetica,sans-Serif" font-size="10.00"> </text>
</a>
</g>
</g>
<!-- Node8&#45;&gt;Node7 -->
<g id="edge7" class="edge"><title>Node8&#45;&gt;Node7</title>
<path fill="none" stroke="midnightblue" d="M320,-542.302C320,-533.395 320,-523.961 320,-515.266"/>
<polygon fill="none" stroke="midnightblue" points="316.5,-542.441 320,-552.441 323.5,-542.441 316.5,-542.441"/>
</g>
<!-- Node9&#45;&gt;Node2 -->
<g id="edge8" class="edge"><title>Node9&#45;&gt;Node2</title>
<path fill="none" stroke="midnightblue" d="M132.732,-204.835C140.816,-194.73 149.077,-184.403 156.506,-175.118"/>
<polygon fill="none" stroke="midnightblue" points="129.82,-202.872 126.306,-212.867 135.287,-207.245 129.82,-202.872"/>
</g>
<!-- Node9&#45;&gt;Node1 -->
<g id="edge11" class="edge"><title>Node9&#45;&gt;Node1</title>
<path fill="none" stroke="midnightblue" d="M94.6375,-202.531C97.3762,-173.55 102.071,-137.491 110,-106 113.085,-93.7477 117.708,-80.7304 122.262,-69.287"/>
<polygon fill="none" stroke="midnightblue" points="91.1179,-202.595 93.7146,-212.867 98.0902,-203.218 91.1179,-202.595"/>
</g>
<!-- Node10 -->
<g id="node10" class="node"><title>Node10</title>
<g id="a_node10"><a xlink:href="class_exception.html" target="_top" xlink:title="{Exception\n||}">
<polygon fill="none" stroke="black" points="-0.5,-346.5 -0.5,-403.5 58.5,-403.5 58.5,-346.5 -0.5,-346.5"/>
<text text-anchor="middle" x="29" y="-391.5" font-family="Helvetica,sans-Serif" font-size="10.00">Exception</text>
<polyline fill="none" stroke="black" points="-0.5,-384.5 58.5,-384.5 "/>
<text text-anchor="middle" x="29" y="-372.5" font-family="Helvetica,sans-Serif" font-size="10.00"> </text>
<polyline fill="none" stroke="black" points="-0.5,-365.5 58.5,-365.5 "/>
<text text-anchor="middle" x="29" y="-353.5" font-family="Helvetica,sans-Serif" font-size="10.00"> </text>
</a>
</g>
</g>
<!-- Node10&#45;&gt;Node9 -->
<g id="edge10" class="edge"><title>Node10&#45;&gt;Node9</title>
<path fill="none" stroke="midnightblue" d="M48.6048,-337.636C54.4681,-326.761 60.9632,-314.713 67.0715,-303.384"/>
<polygon fill="none" stroke="midnightblue" points="45.5154,-335.991 43.8505,-346.455 51.677,-339.313 45.5154,-335.991"/>
</g>
</g>
</svg>
        <g id="navigator" transform="translate(0 0)" fill="#404254">
                <rect fill="#f2f5e9" fill-opacity="0.5" stroke="#606060" stroke-width=".5" x="0" y="0" width="60" height="60"/>
                <use id="zoomplus" xlink:href="#zoomPlus" x="17" y="9" onmousedown="handleZoom(evt,'in')"/>
                <use id="zoomminus" xlink:href="#zoomMin" x="42" y="9" onmousedown="handleZoom(evt,'out')"/>
                <use id="reset" xlink:href="#resetDef" x="30" y="36" onmousedown="handleReset()"/>
                <g id="arrowUp" xlink:href="#dirArrow" transform="translate(30 24)" onmousedown="handlePan(0,-1)">
                  <use xlink:href="#rim" fill="#404040">
                        <set attributeName="fill" to="#808080" begin="arrowUp.mouseover" end="arrowUp.mouseout"/>
                  </use>
                  <path fill="none" stroke="white" stroke-width="1.5" d="M0,-3.0v7 M-2.5,-0.5L0,-3.0L2.5,-0.5"/>
                </g>
                <g id="arrowRight" xlink:href="#dirArrow" transform="rotate(90) translate(36 -43)" onmousedown="handlePan(1,0)">
                  <use xlink:href="#rim" fill="#404040">
                        <set attributeName="fill" to="#808080" begin="arrowRight.mouseover" end="arrowRight.mouseout"/>
                  </use>
                  <path fill="none" stroke="white" stroke-width="1.5" d="M0,-3.0v7 M-2.5,-0.5L0,-3.0L2.5,-0.5"/>
                </g>
                <g id="arrowDown" xlink:href="#dirArrow" transform="rotate(180) translate(-30 -48)" onmousedown="handlePan(0,1)">
                  <use xlink:href="#rim" fill="#404040">
                        <set attributeName="fill" to="#808080" begin="arrowDown.mouseover" end="arrowDown.mouseout"/>
                  </use>
                  <path fill="none" stroke="white" stroke-width="1.5" d="M0,-3.0v7 M-2.5,-0.5L0,-3.0L2.5,-0.5"/>
                </g>
                <g id="arrowLeft" xlink:href="#dirArrow" transform="rotate(270) translate(-36 17)" onmousedown="handlePan(-1,0)">
                  <use xlink:href="#rim" fill="#404040">
                        <set attributeName="fill" to="#808080" begin="arrowLeft.mouseover" end="arrowLeft.mouseout"/>
                  </use>
                  <path fill="none" stroke="white" stroke-width="1.5" d="M0,-3.0v7 M-2.5,-0.5L0,-3.0L2.5,-0.5"/>
                </g>
        </g>
        <svg viewBox="0 0 15 15" width="100%" height="30px" preserveAspectRatio="xMaxYMin meet">
         <g id="arrow_out" transform="scale(0.3 0.3)">
          <a xlink:href="class_net_1_1_protocols_1_1_h_e_l_d_1_1_errors_1_1_request_error__inherit__graph_org.svg" target="_base">
           <rect id="button" ry="5" rx="5" y="6" x="6" height="38" width="38"
                fill="#f2f5e9" fill-opacity="0.5" stroke="#606060" stroke-width="1.0"/>
           <path id="arrow"
             d="M 11.500037,31.436501 C 11.940474,20.09759 22.043105,11.32322 32.158766,21.979434 L 37.068811,17.246167 C 37.068811,17.246167 37.088388,32 37.088388,32 L 22.160133,31.978069 C 22.160133,31.978069 26.997745,27.140456 26.997745,27.140456 C 18.528582,18.264221 13.291696,25.230495 11.500037,31.436501 z"
             style="fill:#404040;"/>
          </a>
         </g>
        </svg>
</svg>
