<?xml version="1.0" encoding="UTF-8" standalone="no"?>
<!DOCTYPE svg PUBLIC "-//W3C//DTD SVG 1.1//EN"
 "http://www.w3.org/Graphics/SVG/1.1/DTD/svg11.dtd">
<!-- Generated by graphviz version 2.30.1 (20130219.2202)
 -->
<!-- Title: Net.Protocols.HELD.HELD_ID.HELD_ID_Descriptor_Server Pages: 1 -->
<svg width="272pt" height="354pt"
 viewBox="0.00 0.00 272.00 354.00" xmlns="http://www.w3.org/2000/svg" xmlns:xlink="http://www.w3.org/1999/xlink">
<g id="graph0" class="graph" transform="scale(1 1) rotate(0) translate(4 350)">
<title>Net.Protocols.HELD.HELD_ID.HELD_ID_Descriptor_Server</title>
<!-- Node1 -->
<g id="node1" class="node"><title>Node1</title>
<polygon fill="#bfbfbf" stroke="black" points="70,-0.5 70,-101.5 198,-101.5 198,-0.5 70,-0.5"/>
<text text-anchor="start" x="78" y="-89.5" font-family="Helvetica,sans-Serif" font-size="10.00">Net.Protocols.HELD.HELD</text>
<text text-anchor="start" x="78" y="-78.5" font-family="Helvetica,sans-Serif" font-size="10.00">_ID.HELD_ID_Descriptor</text>
<text text-anchor="middle" x="134" y="-67.5" font-family="Helvetica,sans-Serif" font-size="10.00">_Server</text>
<polyline fill="none" stroke="black" points="70,-60.5 198,-60.5 "/>
<text text-anchor="middle" x="134" y="-48.5" font-family="Helvetica,sans-Serif" font-size="10.00"> </text>
<polyline fill="none" stroke="black" points="70,-41.5 198,-41.5 "/>
<text text-anchor="start" x="78" y="-29.5" font-family="Helvetica,sans-Serif" font-size="10.00">+ __init__()</text>
<text text-anchor="start" x="78" y="-18.5" font-family="Helvetica,sans-Serif" font-size="10.00">+ pickle()</text>
<text text-anchor="start" x="78" y="-7.5" font-family="Helvetica,sans-Serif" font-size="10.00">+ unpickle_XML()</text>
</g>
<!-- Node2 -->
<g id="node2" class="node"><title>Node2</title>
<g id="a_node2"><a xlink:href="class_net_1_1_protocols_1_1_h_e_l_d_1_1_h_e_l_d___i_d_1_1_h_e_l_d___i_d.html" target="_top" xlink:title="Implementation of the HELD ID protocol in python.">
<polygon fill="none" stroke="black" points="0,-139 0,-251 128,-251 128,-139 0,-139"/>
<text text-anchor="start" x="8" y="-239" font-family="Helvetica,sans-Serif" font-size="10.00">Net.Protocols.HELD.HELD</text>
<text text-anchor="middle" x="64" y="-228" font-family="Helvetica,sans-Serif" font-size="10.00">_ID.HELD_ID</text>
<polyline fill="none" stroke="black" points="0,-221 128,-221 "/>
<text text-anchor="middle" x="64" y="-209" font-family="Helvetica,sans-Serif" font-size="10.00"> </text>
<polyline fill="none" stroke="black" points="0,-202 128,-202 "/>
<text text-anchor="start" x="8" y="-190" font-family="Helvetica,sans-Serif" font-size="10.00">+ __init__()</text>
<text text-anchor="start" x="8" y="-179" font-family="Helvetica,sans-Serif" font-size="10.00">+ getClass_Descriptor</text>
<text text-anchor="start" x="8" y="-168" font-family="Helvetica,sans-Serif" font-size="10.00">_Server()</text>
<text text-anchor="start" x="8" y="-157" font-family="Helvetica,sans-Serif" font-size="10.00">+ getClass_Descriptor</text>
<text text-anchor="start" x="8" y="-146" font-family="Helvetica,sans-Serif" font-size="10.00">_Client()</text>
</a>
</g>
</g>
<!-- Node2&#45;&gt;Node1 -->
<g id="edge1" class="edge"><title>Node2&#45;&gt;Node1</title>
<path fill="none" stroke="midnightblue" d="M95.8036,-129.484C100.379,-120.202 105.028,-110.771 109.434,-101.833"/>
<polygon fill="none" stroke="midnightblue" points="92.5466,-128.176 91.2643,-138.692 98.8251,-131.271 92.5466,-128.176"/>
</g>
<!-- Node3 -->
<g id="node3" class="node"><title>Node3</title>
<polygon fill="none" stroke="#bfbfbf" points="25,-288.5 25,-345.5 103,-345.5 103,-288.5 25,-288.5"/>
<text text-anchor="middle" x="64" y="-333.5" font-family="Helvetica,sans-Serif" font-size="10.00">DescriptorXML</text>
<polyline fill="none" stroke="#bfbfbf" points="25,-326.5 103,-326.5 "/>
<text text-anchor="middle" x="64" y="-314.5" font-family="Helvetica,sans-Serif" font-size="10.00"> </text>
<polyline fill="none" stroke="#bfbfbf" points="25,-307.5 103,-307.5 "/>
<text text-anchor="middle" x="64" y="-295.5" font-family="Helvetica,sans-Serif" font-size="10.00"> </text>
</g>
<!-- Node3&#45;&gt;Node2 -->
<g id="edge2" class="edge"><title>Node3&#45;&gt;Node2</title>
<path fill="none" stroke="midnightblue" d="M64,-278.398C64,-269.802 64,-260.49 64,-251.324"/>
<polygon fill="none" stroke="midnightblue" points="60.5001,-278.47 64,-288.47 67.5001,-278.47 60.5001,-278.47"/>
</g>
<!-- Node4 -->
<g id="node4" class="node"><title>Node4</title>
<g id="a_node4"><a xlink:href="classbase_1_1_descriptor___server.html" target="_top" xlink:title="{base::Descriptor_Server\n||}">
<polygon fill="none" stroke="black" points="146,-166.5 146,-223.5 264,-223.5 264,-166.5 146,-166.5"/>
<text text-anchor="middle" x="205" y="-211.5" font-family="Helvetica,sans-Serif" font-size="10.00">base::Descriptor_Server</text>
<polyline fill="none" stroke="black" points="146,-204.5 264,-204.5 "/>
<text text-anchor="middle" x="205" y="-192.5" font-family="Helvetica,sans-Serif" font-size="10.00"> </text>
<polyline fill="none" stroke="black" points="146,-185.5 264,-185.5 "/>
<text text-anchor="middle" x="205" y="-173.5" font-family="Helvetica,sans-Serif" font-size="10.00"> </text>
</a>
</g>
</g>
<!-- Node4&#45;&gt;Node1 -->
<g id="edge3" class="edge"><title>Node4&#45;&gt;Node1</title>
<path fill="none" stroke="midnightblue" d="M186.637,-157.275C178.182,-140.364 168.02,-120.041 158.89,-101.779"/>
<polygon fill="none" stroke="midnightblue" points="183.539,-158.905 191.142,-166.284 189.8,-155.774 183.539,-158.905"/>
</g>
</g>
</svg>
