<?xml version="1.0" encoding="UTF-8" standalone="no"?>
<!DOCTYPE svg PUBLIC "-//W3C//DTD SVG 1.1//EN"
 "http://www.w3.org/Graphics/SVG/1.1/DTD/svg11.dtd">
<!-- Generated by graphviz version 2.30.1 (20130219.2202)
 -->
<!-- Title: Net.Protocols.HTTP.HTTP_Error Pages: 1 -->
<!--zoomable 504 -->
<svg id="main" version="1.1" xmlns="http://www.w3.org/2000/svg" xmlns:xlink="http://www.w3.org/1999/xlink" xml:space="preserve" onload="init(evt)">
        <defs>
                <circle id="rim" cx="0" cy="0" r="7"/>
                <circle id="rim2" cx="0" cy="0" r="3.5"/>
                <g id="zoomPlus">
                        <use xlink:href="#rim" fill="#404040">
                                <set attributeName="fill" to="#808080" begin="zoomplus.mouseover" end="zoomplus.mouseout"/>
                        </use>
                        <path d="M-4,0h8M0,-4v8" fill="none" stroke="white" stroke-width="1.5" pointer-events="none"/>
                </g>
                <g id="zoomMin">
                        <use xlink:href="#rim" fill="#404040">
                                <set attributeName="fill" to="#808080" begin="zoomminus.mouseover" end="zoomminus.mouseout"/>
                        </use>
                        <path d="M-4,0h8" fill="none" stroke="white" stroke-width="1.5" pointer-events="none"/>
                </g>
                <g id="dirArrow">
                        <path fill="none" stroke="white" stroke-width="1.5" d="M0,-3.0v7 M-2.5,-0.5L0,-3.0L2.5,-0.5"/>
                </g>
               <g id="resetDef">
                       <use xlink:href="#rim2" fill="#404040">
                               <set attributeName="fill" to="#808080" begin="reset.mouseover" end="reset.mouseout"/>
                       </use>
               </g>
        </defs>

<script type="text/javascript">
var viewWidth = 361;
var viewHeight = 504;
var sectionId = 'dynsection-0';
</script>
<script xlink:href="svgpan.js"/>
<svg id="graph" class="graph">
<g id="viewport">
<title>Net.Protocols.HTTP.HTTP_Error</title>
<!-- Node1 -->
<g id="node1" class="node"><title>Node1</title>
<polygon fill="#bfbfbf" stroke="black" points="119,-1 119,-91 243,-91 243,-1 119,-1"/>
<text text-anchor="start" x="127" y="-79" font-family="Helvetica,sans-Serif" font-size="10.00">Net.Protocols.HTTP.HTTP</text>
<text text-anchor="middle" x="181" y="-68" font-family="Helvetica,sans-Serif" font-size="10.00">_Error</text>
<polyline fill="none" stroke="black" points="119,-61 243,-61 "/>
<text text-anchor="middle" x="181" y="-49" font-family="Helvetica,sans-Serif" font-size="10.00"> </text>
<polyline fill="none" stroke="black" points="119,-42 243,-42 "/>
<text text-anchor="start" x="127" y="-30" font-family="Helvetica,sans-Serif" font-size="10.00">+ __init__()</text>
<text text-anchor="start" x="127" y="-19" font-family="Helvetica,sans-Serif" font-size="10.00">+ getResponseCode()</text>
<text text-anchor="start" x="127" y="-8" font-family="Helvetica,sans-Serif" font-size="10.00">+ getContentType()</text>
</g>
<!-- Node2 -->
<g id="node2" class="node"><title>Node2</title>
<g id="a_node2"><a xlink:href="classprotocol_1_1_cucumber___response.html" target="_top" xlink:title="{protocol::Cucumber\l_Response\n||}">
<polygon fill="none" stroke="black" points="-0.5,-140 -0.5,-208 96.5,-208 96.5,-140 -0.5,-140"/>
<text text-anchor="start" x="7.5" y="-196" font-family="Helvetica,sans-Serif" font-size="10.00">protocol::Cucumber</text>
<text text-anchor="middle" x="48" y="-185" font-family="Helvetica,sans-Serif" font-size="10.00">_Response</text>
<polyline fill="none" stroke="black" points="-0.5,-178 96.5,-178 "/>
<text text-anchor="middle" x="48" y="-166" font-family="Helvetica,sans-Serif" font-size="10.00"> </text>
<polyline fill="none" stroke="black" points="-0.5,-159 96.5,-159 "/>
<text text-anchor="middle" x="48" y="-147" font-family="Helvetica,sans-Serif" font-size="10.00"> </text>
</a>
</g>
</g>
<!-- Node2&#45;&gt;Node1 -->
<g id="edge1" class="edge"><title>Node2&#45;&gt;Node1</title>
<path fill="none" stroke="midnightblue" d="M90.5088,-132.728C104.46,-119.511 120.039,-104.753 134.285,-91.2568"/>
<polygon fill="none" stroke="midnightblue" points="87.7966,-130.477 82.9442,-139.895 92.6109,-135.558 87.7966,-130.477"/>
</g>
<!-- Node3 -->
<g id="node3" class="node"><title>Node3</title>
<g id="a_node3"><a xlink:href="class_net_1_1_protocols_1_1_h_t_t_p_1_1_h_t_t_p___interface___server.html" target="_top" xlink:title="{Net.Protocols.HTTP.HTTP\l_Interface_Server\n||+ getHTTPprotocolVersion()\l+ getContentType()\l+ getResponseCode()\l}">
<polygon fill="none" stroke="black" points="115,-129 115,-219 247,-219 247,-129 115,-129"/>
<text text-anchor="start" x="123" y="-207" font-family="Helvetica,sans-Serif" font-size="10.00">Net.Protocols.HTTP.HTTP</text>
<text text-anchor="middle" x="181" y="-196" font-family="Helvetica,sans-Serif" font-size="10.00">_Interface_Server</text>
<polyline fill="none" stroke="black" points="115,-189 247,-189 "/>
<text text-anchor="middle" x="181" y="-177" font-family="Helvetica,sans-Serif" font-size="10.00"> </text>
<polyline fill="none" stroke="black" points="115,-170 247,-170 "/>
<text text-anchor="start" x="123" y="-158" font-family="Helvetica,sans-Serif" font-size="10.00">+ getHTTPprotocolVersion()</text>
<text text-anchor="start" x="123" y="-147" font-family="Helvetica,sans-Serif" font-size="10.00">+ getContentType()</text>
<text text-anchor="start" x="123" y="-136" font-family="Helvetica,sans-Serif" font-size="10.00">+ getResponseCode()</text>
</a>
</g>
</g>
<!-- Node3&#45;&gt;Node1 -->
<g id="edge2" class="edge"><title>Node3&#45;&gt;Node1</title>
<path fill="none" stroke="midnightblue" d="M181,-118.726C181,-109.556 181,-100.133 181,-91.2568"/>
<polygon fill="none" stroke="midnightblue" points="177.5,-118.931 181,-128.931 184.5,-118.931 177.5,-118.931"/>
</g>
<!-- Node4 -->
<g id="node4" class="node"><title>Node4</title>
<g id="a_node4"><a xlink:href="classprotocol_1_1_cucumber___interface___server.html" target="_top" xlink:title="{protocol::Cucumber\l_Interface_Server\n||}">
<polygon fill="none" stroke="black" points="63.5,-295 63.5,-363 160.5,-363 160.5,-295 63.5,-295"/>
<text text-anchor="start" x="71.5" y="-351" font-family="Helvetica,sans-Serif" font-size="10.00">protocol::Cucumber</text>
<text text-anchor="middle" x="112" y="-340" font-family="Helvetica,sans-Serif" font-size="10.00">_Interface_Server</text>
<polyline fill="none" stroke="black" points="63.5,-333 160.5,-333 "/>
<text text-anchor="middle" x="112" y="-321" font-family="Helvetica,sans-Serif" font-size="10.00"> </text>
<polyline fill="none" stroke="black" points="63.5,-314 160.5,-314 "/>
<text text-anchor="middle" x="112" y="-302" font-family="Helvetica,sans-Serif" font-size="10.00"> </text>
</a>
</g>
</g>
<!-- Node4&#45;&gt;Node3 -->
<g id="edge3" class="edge"><title>Node4&#45;&gt;Node3</title>
<path fill="none" stroke="midnightblue" d="M131.111,-285.624C140.436,-264.945 151.649,-240.083 161.08,-219.171"/>
<polygon fill="none" stroke="midnightblue" points="127.893,-284.247 126.972,-294.801 134.274,-287.124 127.893,-284.247"/>
</g>
<!-- Node5 -->
<g id="node5" class="node"><title>Node5</title>
<g id="a_node5"><a xlink:href="class_net_1_1_protocols_1_1_h_t_t_p_1_1_h_t_t_p.html" target="_top" xlink:title="Follows HTTP 1.1 specification (RFC 2616).">
<polygon fill="none" stroke="black" points="179,-256.5 179,-401.5 321,-401.5 321,-256.5 179,-256.5"/>
<text text-anchor="middle" x="250" y="-389.5" font-family="Helvetica,sans-Serif" font-size="10.00">Net.Protocols.HTTP.HTTP</text>
<polyline fill="none" stroke="black" points="179,-382.5 321,-382.5 "/>
<text text-anchor="middle" x="250" y="-370.5" font-family="Helvetica,sans-Serif" font-size="10.00"> </text>
<polyline fill="none" stroke="black" points="179,-363.5 321,-363.5 "/>
<text text-anchor="start" x="187" y="-351.5" font-family="Helvetica,sans-Serif" font-size="10.00">+ getClass_Descriptor</text>
<text text-anchor="start" x="187" y="-340.5" font-family="Helvetica,sans-Serif" font-size="10.00">_Client()</text>
<text text-anchor="start" x="187" y="-329.5" font-family="Helvetica,sans-Serif" font-size="10.00">+ getClass_Descriptor</text>
<text text-anchor="start" x="187" y="-318.5" font-family="Helvetica,sans-Serif" font-size="10.00">_Server()</text>
<text text-anchor="start" x="187" y="-307.5" font-family="Helvetica,sans-Serif" font-size="10.00">+ getClass_Interface</text>
<text text-anchor="start" x="187" y="-296.5" font-family="Helvetica,sans-Serif" font-size="10.00">_Client()</text>
<text text-anchor="start" x="187" y="-285.5" font-family="Helvetica,sans-Serif" font-size="10.00">+ getClass_Interface</text>
<text text-anchor="start" x="187" y="-274.5" font-family="Helvetica,sans-Serif" font-size="10.00">_Server()</text>
<text text-anchor="start" x="187" y="-263.5" font-family="Helvetica,sans-Serif" font-size="10.00">+ pickle_validateCucumbers()</text>
</a>
</g>
</g>
<!-- Node5&#45;&gt;Node3 -->
<g id="edge4" class="edge"><title>Node5&#45;&gt;Node3</title>
<path fill="none" stroke="midnightblue" d="M213.538,-247.148C209.177,-237.479 204.858,-227.902 200.861,-219.039"/>
<polygon fill="none" stroke="midnightblue" points="210.421,-248.751 217.722,-256.428 216.802,-245.873 210.421,-248.751"/>
</g>
<!-- Node6 -->
<g id="node6" class="node"><title>Node6</title>
<g id="a_node6"><a xlink:href="classprotocol_1_1_descriptor.html" target="_top" xlink:title="{protocol::Descriptor\n||}">
<polygon fill="none" stroke="black" points="202.5,-438.5 202.5,-495.5 297.5,-495.5 297.5,-438.5 202.5,-438.5"/>
<text text-anchor="middle" x="250" y="-483.5" font-family="Helvetica,sans-Serif" font-size="10.00">protocol::Descriptor</text>
<polyline fill="none" stroke="black" points="202.5,-476.5 297.5,-476.5 "/>
<text text-anchor="middle" x="250" y="-464.5" font-family="Helvetica,sans-Serif" font-size="10.00"> </text>
<polyline fill="none" stroke="black" points="202.5,-457.5 297.5,-457.5 "/>
<text text-anchor="middle" x="250" y="-445.5" font-family="Helvetica,sans-Serif" font-size="10.00"> </text>
</a>
</g>
</g>
<!-- Node6&#45;&gt;Node5 -->
<g id="edge5" class="edge"><title>Node6&#45;&gt;Node5</title>
<path fill="none" stroke="midnightblue" d="M250,-428.356C250,-419.999 250,-410.872 250,-401.656"/>
<polygon fill="none" stroke="midnightblue" points="246.5,-428.478 250,-438.478 253.5,-428.478 246.5,-428.478"/>
</g>
<!-- Node7 -->
<g id="node7" class="node"><title>Node7</title>
<g id="a_node7"><a xlink:href="classurllib2_1_1_h_t_t_p_error.html" target="_top" xlink:title="{urllib2::HTTPError\n||}">
<polygon fill="none" stroke="black" points="265.5,-145.5 265.5,-202.5 352.5,-202.5 352.5,-145.5 265.5,-145.5"/>
<text text-anchor="middle" x="309" y="-190.5" font-family="Helvetica,sans-Serif" font-size="10.00">urllib2::HTTPError</text>
<polyline fill="none" stroke="black" points="265.5,-183.5 352.5,-183.5 "/>
<text text-anchor="middle" x="309" y="-171.5" font-family="Helvetica,sans-Serif" font-size="10.00"> </text>
<polyline fill="none" stroke="black" points="265.5,-164.5 352.5,-164.5 "/>
<text text-anchor="middle" x="309" y="-152.5" font-family="Helvetica,sans-Serif" font-size="10.00"> </text>
</a>
</g>
</g>
<!-- Node7&#45;&gt;Node1 -->
<g id="edge6" class="edge"><title>Node7&#45;&gt;Node1</title>
<path fill="none" stroke="midnightblue" d="M273.458,-138.014C258.726,-123.511 241.467,-106.522 225.876,-91.1745"/>
<polygon fill="none" stroke="midnightblue" points="271.328,-140.828 280.91,-145.349 276.239,-135.839 271.328,-140.828"/>
</g>
</g>
</svg>
        <g id="navigator" transform="translate(0 0)" fill="#404254">
                <rect fill="#f2f5e9" fill-opacity="0.5" stroke="#606060" stroke-width=".5" x="0" y="0" width="60" height="60"/>
                <use id="zoomplus" xlink:href="#zoomPlus" x="17" y="9" onmousedown="handleZoom(evt,'in')"/>
                <use id="zoomminus" xlink:href="#zoomMin" x="42" y="9" onmousedown="handleZoom(evt,'out')"/>
                <use id="reset" xlink:href="#resetDef" x="30" y="36" onmousedown="handleReset()"/>
                <g id="arrowUp" xlink:href="#dirArrow" transform="translate(30 24)" onmousedown="handlePan(0,-1)">
                  <use xlink:href="#rim" fill="#404040">
                        <set attributeName="fill" to="#808080" begin="arrowUp.mouseover" end="arrowUp.mouseout"/>
                  </use>
                  <path fill="none" stroke="white" stroke-width="1.5" d="M0,-3.0v7 M-2.5,-0.5L0,-3.0L2.5,-0.5"/>
                </g>
                <g id="arrowRight" xlink:href="#dirArrow" transform="rotate(90) translate(36 -43)" onmousedown="handlePan(1,0)">
                  <use xlink:href="#rim" fill="#404040">
                        <set attributeName="fill" to="#808080" begin="arrowRight.mouseover" end="arrowRight.mouseout"/>
                  </use>
                  <path fill="none" stroke="white" stroke-width="1.5" d="M0,-3.0v7 M-2.5,-0.5L0,-3.0L2.5,-0.5"/>
                </g>
                <g id="arrowDown" xlink:href="#dirArrow" transform="rotate(180) translate(-30 -48)" onmousedown="handlePan(0,1)">
                  <use xlink:href="#rim" fill="#404040">
                        <set attributeName="fill" to="#808080" begin="arrowDown.mouseover" end="arrowDown.mouseout"/>
                  </use>
                  <path fill="none" stroke="white" stroke-width="1.5" d="M0,-3.0v7 M-2.5,-0.5L0,-3.0L2.5,-0.5"/>
                </g>
                <g id="arrowLeft" xlink:href="#dirArrow" transform="rotate(270) translate(-36 17)" onmousedown="handlePan(-1,0)">
                  <use xlink:href="#rim" fill="#404040">
                        <set attributeName="fill" to="#808080" begin="arrowLeft.mouseover" end="arrowLeft.mouseout"/>
                  </use>
                  <path fill="none" stroke="white" stroke-width="1.5" d="M0,-3.0v7 M-2.5,-0.5L0,-3.0L2.5,-0.5"/>
                </g>
        </g>
        <svg viewBox="0 0 15 15" width="100%" height="30px" preserveAspectRatio="xMaxYMin meet">
         <g id="arrow_out" transform="scale(0.3 0.3)">
          <a xlink:href="class_net_1_1_protocols_1_1_h_t_t_p_1_1_h_t_t_p___error__inherit__graph_org.svg" target="_base">
           <rect id="button" ry="5" rx="5" y="6" x="6" height="38" width="38"
                fill="#f2f5e9" fill-opacity="0.5" stroke="#606060" stroke-width="1.0"/>
           <path id="arrow"
             d="M 11.500037,31.436501 C 11.940474,20.09759 22.043105,11.32322 32.158766,21.979434 L 37.068811,17.246167 C 37.068811,17.246167 37.088388,32 37.088388,32 L 22.160133,31.978069 C 22.160133,31.978069 26.997745,27.140456 26.997745,27.140456 C 18.528582,18.264221 13.291696,25.230495 11.500037,31.436501 z"
             style="fill:#404040;"/>
          </a>
         </g>
        </svg>
</svg>
