<?xml version="1.0" encoding="UTF-8" standalone="no"?>
<!DOCTYPE svg PUBLIC "-//W3C//DTD SVG 1.1//EN"
 "http://www.w3.org/Graphics/SVG/1.1/DTD/svg11.dtd">
<!-- Generated by graphviz version 2.30.1 (20130219.2202)
 -->
<!-- Title: Net.Protocols.HELD.HELD.HELD_Descriptor_Server Pages: 1 -->
<svg width="301pt" height="526pt"
 viewBox="0.00 0.00 301.00 526.00" xmlns="http://www.w3.org/2000/svg" xmlns:xlink="http://www.w3.org/1999/xlink">
<g id="graph0" class="graph" transform="scale(1 1) rotate(0) translate(4 522)">
<title>Net.Protocols.HELD.HELD.HELD_Descriptor_Server</title>
<!-- Node1 -->
<g id="node1" class="node"><title>Node1</title>
<polygon fill="#bfbfbf" stroke="black" points="111,-1 111,-113 253,-113 253,-1 111,-1"/>
<text text-anchor="start" x="119" y="-101" font-family="Helvetica,sans-Serif" font-size="10.00">Net.Protocols.HELD.HELD.</text>
<text text-anchor="middle" x="182" y="-90" font-family="Helvetica,sans-Serif" font-size="10.00">HELD_Descriptor_Server</text>
<polyline fill="none" stroke="black" points="111,-83 253,-83 "/>
<text text-anchor="middle" x="182" y="-71" font-family="Helvetica,sans-Serif" font-size="10.00"> </text>
<polyline fill="none" stroke="black" points="111,-64 253,-64 "/>
<text text-anchor="start" x="119" y="-52" font-family="Helvetica,sans-Serif" font-size="10.00">+ __init__()</text>
<text text-anchor="start" x="119" y="-41" font-family="Helvetica,sans-Serif" font-size="10.00">+ getMIMEtype()</text>
<text text-anchor="start" x="119" y="-30" font-family="Helvetica,sans-Serif" font-size="10.00">+ pickle_validateCucumbers()</text>
<text text-anchor="start" x="119" y="-19" font-family="Helvetica,sans-Serif" font-size="10.00">+ pickle_XML()</text>
<text text-anchor="start" x="119" y="-8" font-family="Helvetica,sans-Serif" font-size="10.00">+ unpickle_XML()</text>
</g>
<!-- Node2 -->
<g id="node2" class="node"><title>Node2</title>
<g id="a_node2"><a xlink:href="class_net_1_1_protocols_1_1_h_t_t_p_1_1_h_t_t_p___interface___server.html" target="_top" xlink:title="{Net.Protocols.HTTP.HTTP\l_Interface_Server\n||+ getHTTPprotocolVersion()\l+ getContentType()\l+ getResponseCode()\l}">
<polygon fill="none" stroke="black" points="51,-151 51,-241 183,-241 183,-151 51,-151"/>
<text text-anchor="start" x="59" y="-229" font-family="Helvetica,sans-Serif" font-size="10.00">Net.Protocols.HTTP.HTTP</text>
<text text-anchor="middle" x="117" y="-218" font-family="Helvetica,sans-Serif" font-size="10.00">_Interface_Server</text>
<polyline fill="none" stroke="black" points="51,-211 183,-211 "/>
<text text-anchor="middle" x="117" y="-199" font-family="Helvetica,sans-Serif" font-size="10.00"> </text>
<polyline fill="none" stroke="black" points="51,-192 183,-192 "/>
<text text-anchor="start" x="59" y="-180" font-family="Helvetica,sans-Serif" font-size="10.00">+ getHTTPprotocolVersion()</text>
<text text-anchor="start" x="59" y="-169" font-family="Helvetica,sans-Serif" font-size="10.00">+ getContentType()</text>
<text text-anchor="start" x="59" y="-158" font-family="Helvetica,sans-Serif" font-size="10.00">+ getResponseCode()</text>
</a>
</g>
</g>
<!-- Node2&#45;&gt;Node1 -->
<g id="edge1" class="edge"><title>Node2&#45;&gt;Node1</title>
<path fill="none" stroke="midnightblue" d="M142.3,-141.674C146.753,-132.289 151.396,-122.504 155.871,-113.072"/>
<polygon fill="none" stroke="midnightblue" points="139.049,-140.363 137.924,-150.898 145.373,-143.364 139.049,-140.363"/>
</g>
<!-- Node3 -->
<g id="node3" class="node"><title>Node3</title>
<g id="a_node3"><a xlink:href="classprotocol_1_1_cucumber___interface___server.html" target="_top" xlink:title="{protocol::Cucumber\l_Interface_Server\n||}">
<polygon fill="none" stroke="black" points="-0.5,-317 -0.5,-385 96.5,-385 96.5,-317 -0.5,-317"/>
<text text-anchor="start" x="7.5" y="-373" font-family="Helvetica,sans-Serif" font-size="10.00">protocol::Cucumber</text>
<text text-anchor="middle" x="48" y="-362" font-family="Helvetica,sans-Serif" font-size="10.00">_Interface_Server</text>
<polyline fill="none" stroke="black" points="-0.5,-355 96.5,-355 "/>
<text text-anchor="middle" x="48" y="-343" font-family="Helvetica,sans-Serif" font-size="10.00"> </text>
<polyline fill="none" stroke="black" points="-0.5,-336 96.5,-336 "/>
<text text-anchor="middle" x="48" y="-324" font-family="Helvetica,sans-Serif" font-size="10.00"> </text>
</a>
</g>
</g>
<!-- Node3&#45;&gt;Node2 -->
<g id="edge2" class="edge"><title>Node3&#45;&gt;Node2</title>
<path fill="none" stroke="midnightblue" d="M67.1108,-307.624C76.4364,-286.945 87.6488,-262.083 97.08,-241.171"/>
<polygon fill="none" stroke="midnightblue" points="63.8926,-306.247 62.972,-316.801 70.2737,-309.124 63.8926,-306.247"/>
</g>
<!-- Node4 -->
<g id="node4" class="node"><title>Node4</title>
<g id="a_node4"><a xlink:href="class_net_1_1_protocols_1_1_h_t_t_p_1_1_h_t_t_p.html" target="_top" xlink:title="Follows HTTP 1.1 specification (RFC 2616).">
<polygon fill="none" stroke="black" points="115,-278.5 115,-423.5 257,-423.5 257,-278.5 115,-278.5"/>
<text text-anchor="middle" x="186" y="-411.5" font-family="Helvetica,sans-Serif" font-size="10.00">Net.Protocols.HTTP.HTTP</text>
<polyline fill="none" stroke="black" points="115,-404.5 257,-404.5 "/>
<text text-anchor="middle" x="186" y="-392.5" font-family="Helvetica,sans-Serif" font-size="10.00"> </text>
<polyline fill="none" stroke="black" points="115,-385.5 257,-385.5 "/>
<text text-anchor="start" x="123" y="-373.5" font-family="Helvetica,sans-Serif" font-size="10.00">+ getClass_Descriptor</text>
<text text-anchor="start" x="123" y="-362.5" font-family="Helvetica,sans-Serif" font-size="10.00">_Client()</text>
<text text-anchor="start" x="123" y="-351.5" font-family="Helvetica,sans-Serif" font-size="10.00">+ getClass_Descriptor</text>
<text text-anchor="start" x="123" y="-340.5" font-family="Helvetica,sans-Serif" font-size="10.00">_Server()</text>
<text text-anchor="start" x="123" y="-329.5" font-family="Helvetica,sans-Serif" font-size="10.00">+ getClass_Interface</text>
<text text-anchor="start" x="123" y="-318.5" font-family="Helvetica,sans-Serif" font-size="10.00">_Client()</text>
<text text-anchor="start" x="123" y="-307.5" font-family="Helvetica,sans-Serif" font-size="10.00">+ getClass_Interface</text>
<text text-anchor="start" x="123" y="-296.5" font-family="Helvetica,sans-Serif" font-size="10.00">_Server()</text>
<text text-anchor="start" x="123" y="-285.5" font-family="Helvetica,sans-Serif" font-size="10.00">+ pickle_validateCucumbers()</text>
</a>
</g>
</g>
<!-- Node4&#45;&gt;Node2 -->
<g id="edge3" class="edge"><title>Node4&#45;&gt;Node2</title>
<path fill="none" stroke="midnightblue" d="M149.538,-269.148C145.177,-259.479 140.858,-249.902 136.861,-241.039"/>
<polygon fill="none" stroke="midnightblue" points="146.421,-270.751 153.722,-278.428 152.802,-267.873 146.421,-270.751"/>
</g>
<!-- Node5 -->
<g id="node5" class="node"><title>Node5</title>
<g id="a_node5"><a xlink:href="classprotocol_1_1_descriptor.html" target="_top" xlink:title="{protocol::Descriptor\n||}">
<polygon fill="none" stroke="black" points="138.5,-460.5 138.5,-517.5 233.5,-517.5 233.5,-460.5 138.5,-460.5"/>
<text text-anchor="middle" x="186" y="-505.5" font-family="Helvetica,sans-Serif" font-size="10.00">protocol::Descriptor</text>
<polyline fill="none" stroke="black" points="138.5,-498.5 233.5,-498.5 "/>
<text text-anchor="middle" x="186" y="-486.5" font-family="Helvetica,sans-Serif" font-size="10.00"> </text>
<polyline fill="none" stroke="black" points="138.5,-479.5 233.5,-479.5 "/>
<text text-anchor="middle" x="186" y="-467.5" font-family="Helvetica,sans-Serif" font-size="10.00"> </text>
</a>
</g>
</g>
<!-- Node5&#45;&gt;Node4 -->
<g id="edge4" class="edge"><title>Node5&#45;&gt;Node4</title>
<path fill="none" stroke="midnightblue" d="M186,-450.356C186,-441.999 186,-432.872 186,-423.656"/>
<polygon fill="none" stroke="midnightblue" points="182.5,-450.478 186,-460.478 189.5,-450.478 182.5,-450.478"/>
</g>
<!-- Node6 -->
<g id="node6" class="node"><title>Node6</title>
<g id="a_node6"><a xlink:href="classbase_1_1_descriptor___server.html" target="_top" xlink:title="{Descriptor_Server\n||}">
<polygon fill="none" stroke="black" points="201.5,-167.5 201.5,-224.5 292.5,-224.5 292.5,-167.5 201.5,-167.5"/>
<text text-anchor="middle" x="247" y="-212.5" font-family="Helvetica,sans-Serif" font-size="10.00">Descriptor_Server</text>
<polyline fill="none" stroke="black" points="201.5,-205.5 292.5,-205.5 "/>
<text text-anchor="middle" x="247" y="-193.5" font-family="Helvetica,sans-Serif" font-size="10.00"> </text>
<polyline fill="none" stroke="black" points="201.5,-186.5 292.5,-186.5 "/>
<text text-anchor="middle" x="247" y="-174.5" font-family="Helvetica,sans-Serif" font-size="10.00"> </text>
</a>
</g>
</g>
<!-- Node6&#45;&gt;Node1 -->
<g id="edge5" class="edge"><title>Node6&#45;&gt;Node1</title>
<path fill="none" stroke="midnightblue" d="M229.491,-158.097C222.934,-144.275 215.333,-128.256 208.161,-113.14"/>
<polygon fill="none" stroke="midnightblue" points="226.398,-159.742 233.846,-167.276 232.722,-156.741 226.398,-159.742"/>
</g>
</g>
</svg>
