<?xml version="1.0" encoding="UTF-8" standalone="no"?>
<!DOCTYPE svg PUBLIC "-//W3C//DTD SVG 1.1//EN"
 "http://www.w3.org/Graphics/SVG/1.1/DTD/svg11.dtd">
<!-- Generated by graphviz version 2.30.1 (20130219.2202)
 -->
<!-- Title: Net.Protocols.base._DescriptorXML.DescriptorXML.pickle Pages: 1 -->
<svg width="416pt" height="159pt"
 viewBox="0.00 0.00 416.00 159.00" xmlns="http://www.w3.org/2000/svg" xmlns:xlink="http://www.w3.org/1999/xlink">
<g id="graph0" class="graph" transform="scale(1 1) rotate(0) translate(4 155)">
<title>Net.Protocols.base._DescriptorXML.DescriptorXML.pickle</title>
<!-- Node1 -->
<g id="node1" class="node"><title>Node1</title>
<polygon fill="#bfbfbf" stroke="black" points="0.5,-55 0.5,-85 173.5,-85 173.5,-55 0.5,-55"/>
<text text-anchor="start" x="8.5" y="-73" font-family="Helvetica,sans-Serif" font-size="10.00">Net.Protocols.base.</text>
<text text-anchor="middle" x="87" y="-62" font-family="Helvetica,sans-Serif" font-size="10.00">_DescriptorXML.DescriptorXML.pickle</text>
</g>
<!-- Node2 -->
<g id="node2" class="node"><title>Node2</title>
<g id="a_node2"><a xlink:href="class_net_1_1_protocols_1_1base_1_1___descriptor_1_1___descriptor.html#a2bca5a468da345b0a16bc299c743ae46" target="_top" xlink:title="Net.Protocols.base.\l_Descriptor._Descriptor.\l_makeContentObj">
<polygon fill="none" stroke="black" points="251,-109.5 251,-150.5 367,-150.5 367,-109.5 251,-109.5"/>
<text text-anchor="start" x="259" y="-138.5" font-family="Helvetica,sans-Serif" font-size="10.00">Net.Protocols.base.</text>
<text text-anchor="start" x="259" y="-127.5" font-family="Helvetica,sans-Serif" font-size="10.00">_Descriptor._Descriptor.</text>
<text text-anchor="middle" x="309" y="-116.5" font-family="Helvetica,sans-Serif" font-size="10.00">_makeContentObj</text>
</a>
</g>
</g>
<!-- Node1&#45;&gt;Node2 -->
<g id="edge1" class="edge"><title>Node1&#45;&gt;Node2</title>
<path fill="none" stroke="midnightblue" d="M143.231,-85.0631C172.863,-93.1445 209.614,-103.167 240.883,-111.695"/>
<polygon fill="midnightblue" stroke="midnightblue" points="240.258,-115.153 250.827,-114.407 242.1,-108.399 240.258,-115.153"/>
</g>
<!-- Node3 -->
<g id="node3" class="node"><title>Node3</title>
<g id="a_node3"><a xlink:href="class_net_1_1_protocols_1_1base_1_1___descriptor_x_m_l_1_1_descriptor_x_m_l.html#aa75ee2e3efd25225aec0352e1c0ec982" target="_top" xlink:title="These options get passed to lxml.etree.tostring.">
<polygon fill="none" stroke="black" points="234.5,-49.5 234.5,-90.5 383.5,-90.5 383.5,-49.5 234.5,-49.5"/>
<text text-anchor="start" x="242.5" y="-78.5" font-family="Helvetica,sans-Serif" font-size="10.00">Net.Protocols.base.</text>
<text text-anchor="start" x="242.5" y="-67.5" font-family="Helvetica,sans-Serif" font-size="10.00">_DescriptorXML.DescriptorXML.</text>
<text text-anchor="middle" x="309" y="-56.5" font-family="Helvetica,sans-Serif" font-size="10.00">_pickle_XML_getOptions</text>
</a>
</g>
</g>
<!-- Node1&#45;&gt;Node3 -->
<g id="edge2" class="edge"><title>Node1&#45;&gt;Node3</title>
<path fill="none" stroke="midnightblue" d="M173.688,-70C190.273,-70 207.635,-70 224.16,-70"/>
<polygon fill="midnightblue" stroke="midnightblue" points="224.327,-73.5001 234.327,-70 224.327,-66.5001 224.327,-73.5001"/>
</g>
<!-- Node4 -->
<g id="node4" class="node"><title>Node4</title>
<g id="a_node4"><a xlink:href="class_net_1_1_protocols_1_1base_1_1___descriptor_x_m_l_1_1_descriptor_x_m_l.html#a91a1a209970bea078641bd34cd255cfc" target="_top" xlink:title="Net.Protocols.base.\l_DescriptorXML.DescriptorXML.pickle_XML">
<polygon fill="none" stroke="black" points="210.5,-0 210.5,-30 407.5,-30 407.5,-0 210.5,-0"/>
<text text-anchor="start" x="218.5" y="-18" font-family="Helvetica,sans-Serif" font-size="10.00">Net.Protocols.base.</text>
<text text-anchor="middle" x="309" y="-7" font-family="Helvetica,sans-Serif" font-size="10.00">_DescriptorXML.DescriptorXML.pickle_XML</text>
</a>
</g>
</g>
<!-- Node1&#45;&gt;Node4 -->
<g id="edge3" class="edge"><title>Node1&#45;&gt;Node4</title>
<path fill="none" stroke="midnightblue" d="M148.116,-54.971C175.884,-48.0289 209.033,-39.7417 237.929,-32.5177"/>
<polygon fill="midnightblue" stroke="midnightblue" points="239.104,-35.8317 247.957,-30.0108 237.406,-29.0407 239.104,-35.8317"/>
</g>
</g>
</svg>
