<?xml version="1.0" encoding="UTF-8" standalone="no"?>
<!DOCTYPE svg PUBLIC "-//W3C//DTD SVG 1.1//EN"
 "http://www.w3.org/Graphics/SVG/1.1/DTD/svg11.dtd">
<!-- Generated by graphviz version 2.30.1 (20130219.2202)
 -->
<!-- Title: Net.Protocols.HELD.Cucumbers.LocationURI_set Pages: 1 -->
<svg width="327pt" height="500pt"
 viewBox="0.00 0.00 327.00 500.00" xmlns="http://www.w3.org/2000/svg" xmlns:xlink="http://www.w3.org/1999/xlink">
<g id="graph0" class="graph" transform="scale(1 1) rotate(0) translate(4 496)">
<title>Net.Protocols.HELD.Cucumbers.LocationURI_set</title>
<!-- Node1 -->
<g id="node1" class="node"><title>Node1</title>
<polygon fill="#bfbfbf" stroke="black" points="145.5,-0.5 145.5,-79.5 298.5,-79.5 298.5,-0.5 145.5,-0.5"/>
<text text-anchor="start" x="153.5" y="-67.5" font-family="Helvetica,sans-Serif" font-size="10.00">Net.Protocols.HELD.Cucumbers.</text>
<text text-anchor="middle" x="222" y="-56.5" font-family="Helvetica,sans-Serif" font-size="10.00">LocationURI_set</text>
<polyline fill="none" stroke="black" points="145.5,-49.5 298.5,-49.5 "/>
<text text-anchor="start" x="153.5" y="-37.5" font-family="Helvetica,sans-Serif" font-size="10.00">+ expires</text>
<polyline fill="none" stroke="black" points="145.5,-30.5 298.5,-30.5 "/>
<text text-anchor="start" x="153.5" y="-18.5" font-family="Helvetica,sans-Serif" font-size="10.00">+ __init__()</text>
<text text-anchor="start" x="153.5" y="-7.5" font-family="Helvetica,sans-Serif" font-size="10.00">+ pickle_XML()</text>
</g>
<!-- Node2 -->
<g id="node2" class="node"><title>Node2</title>
<g id="a_node2"><a xlink:href="class_net_1_1_protocols_1_1_h_e_l_d_1_1_cucumbers_1_1_response.html" target="_top" xlink:title="{Net.Protocols.HELD.Cucumbers.\lResponse\n||+ pickle_XML()\l}">
<polygon fill="none" stroke="black" points="82.5,-117 82.5,-185 235.5,-185 235.5,-117 82.5,-117"/>
<text text-anchor="start" x="90.5" y="-173" font-family="Helvetica,sans-Serif" font-size="10.00">Net.Protocols.HELD.Cucumbers.</text>
<text text-anchor="middle" x="159" y="-162" font-family="Helvetica,sans-Serif" font-size="10.00">Response</text>
<polyline fill="none" stroke="black" points="82.5,-155 235.5,-155 "/>
<text text-anchor="middle" x="159" y="-143" font-family="Helvetica,sans-Serif" font-size="10.00"> </text>
<polyline fill="none" stroke="black" points="82.5,-136 235.5,-136 "/>
<text text-anchor="start" x="90.5" y="-124" font-family="Helvetica,sans-Serif" font-size="10.00">+ pickle_XML()</text>
</a>
</g>
</g>
<!-- Node2&#45;&gt;Node1 -->
<g id="edge1" class="edge"><title>Node2&#45;&gt;Node1</title>
<path fill="none" stroke="midnightblue" d="M183.268,-108.012C188.626,-98.7431 194.278,-88.9641 199.558,-79.8274"/>
<polygon fill="none" stroke="midnightblue" points="180.218,-106.295 178.244,-116.704 186.279,-109.798 180.218,-106.295"/>
</g>
<!-- Node3 -->
<g id="node3" class="node"><title>Node3</title>
<g id="a_node3"><a xlink:href="class_net_1_1_protocols_1_1_h_e_l_d_1_1_cucumbers_1_1_h_e_l_d___cucumber.html" target="_top" xlink:title="{Net.Protocols.HELD.Cucumbers.\lHELD_Cucumber\n||}">
<polygon fill="none" stroke="black" points="-0.5,-223 -0.5,-291 152.5,-291 152.5,-223 -0.5,-223"/>
<text text-anchor="start" x="7.5" y="-279" font-family="Helvetica,sans-Serif" font-size="10.00">Net.Protocols.HELD.Cucumbers.</text>
<text text-anchor="middle" x="76" y="-268" font-family="Helvetica,sans-Serif" font-size="10.00">HELD_Cucumber</text>
<polyline fill="none" stroke="black" points="-0.5,-261 152.5,-261 "/>
<text text-anchor="middle" x="76" y="-249" font-family="Helvetica,sans-Serif" font-size="10.00"> </text>
<polyline fill="none" stroke="black" points="-0.5,-242 152.5,-242 "/>
<text text-anchor="middle" x="76" y="-230" font-family="Helvetica,sans-Serif" font-size="10.00"> </text>
</a>
</g>
</g>
<!-- Node3&#45;&gt;Node2 -->
<g id="edge2" class="edge"><title>Node3&#45;&gt;Node2</title>
<path fill="none" stroke="midnightblue" d="M108.93,-214.738C116.747,-204.943 124.988,-194.618 132.477,-185.234"/>
<polygon fill="none" stroke="midnightblue" points="105.992,-212.809 102.49,-222.808 111.463,-217.175 105.992,-212.809"/>
</g>
<!-- Node4 -->
<g id="node4" class="node"><title>Node4</title>
<g id="a_node4"><a xlink:href="classbase_1_1_cucumber.html" target="_top" xlink:title="{base::Cucumber\n||}">
<polygon fill="none" stroke="black" points="32.5,-334.5 32.5,-391.5 119.5,-391.5 119.5,-334.5 32.5,-334.5"/>
<text text-anchor="middle" x="76" y="-379.5" font-family="Helvetica,sans-Serif" font-size="10.00">base::Cucumber</text>
<polyline fill="none" stroke="black" points="32.5,-372.5 119.5,-372.5 "/>
<text text-anchor="middle" x="76" y="-360.5" font-family="Helvetica,sans-Serif" font-size="10.00"> </text>
<polyline fill="none" stroke="black" points="32.5,-353.5 119.5,-353.5 "/>
<text text-anchor="middle" x="76" y="-341.5" font-family="Helvetica,sans-Serif" font-size="10.00"> </text>
</a>
</g>
</g>
<!-- Node4&#45;&gt;Node3 -->
<g id="edge3" class="edge"><title>Node4&#45;&gt;Node3</title>
<path fill="none" stroke="midnightblue" d="M76,-324.372C76,-313.55 76,-301.828 76,-291.288"/>
<polygon fill="none" stroke="midnightblue" points="72.5001,-324.403 76,-334.403 79.5001,-324.403 72.5001,-324.403"/>
</g>
<!-- Node5 -->
<g id="node5" class="node"><title>Node5</title>
<g id="a_node5"><a xlink:href="class_net_1_1_protocols_1_1base_1_1_cucumber_1_1_response.html" target="_top" xlink:title="A cucumber (python object) created for sending a response, typically made by the server.">
<polygon fill="none" stroke="black" points="171,-223 171,-291 315,-291 315,-223 171,-223"/>
<text text-anchor="start" x="179" y="-279" font-family="Helvetica,sans-Serif" font-size="10.00">Net.Protocols.base.Cucumber.</text>
<text text-anchor="middle" x="243" y="-268" font-family="Helvetica,sans-Serif" font-size="10.00">Response</text>
<polyline fill="none" stroke="black" points="171,-261 315,-261 "/>
<text text-anchor="middle" x="243" y="-249" font-family="Helvetica,sans-Serif" font-size="10.00"> </text>
<polyline fill="none" stroke="black" points="171,-242 315,-242 "/>
<text text-anchor="middle" x="243" y="-230" font-family="Helvetica,sans-Serif" font-size="10.00"> </text>
</a>
</g>
</g>
<!-- Node5&#45;&gt;Node2 -->
<g id="edge4" class="edge"><title>Node5&#45;&gt;Node2</title>
<path fill="none" stroke="midnightblue" d="M209.673,-214.738C201.762,-204.943 193.422,-194.618 185.842,-185.234"/>
<polygon fill="none" stroke="midnightblue" points="207.185,-217.228 216.191,-222.808 212.63,-212.829 207.185,-217.228"/>
</g>
<!-- Node6 -->
<g id="node6" class="node"><title>Node6</title>
<g id="a_node6"><a xlink:href="class_net_1_1_protocols_1_1base_1_1_cucumber_1_1_cucumber.html" target="_top" xlink:title="{Net.Protocols.base.Cucumber.\lCucumber\n||}">
<polygon fill="none" stroke="black" points="171,-329 171,-397 315,-397 315,-329 171,-329"/>
<text text-anchor="start" x="179" y="-385" font-family="Helvetica,sans-Serif" font-size="10.00">Net.Protocols.base.Cucumber.</text>
<text text-anchor="middle" x="243" y="-374" font-family="Helvetica,sans-Serif" font-size="10.00">Cucumber</text>
<polyline fill="none" stroke="black" points="171,-367 315,-367 "/>
<text text-anchor="middle" x="243" y="-355" font-family="Helvetica,sans-Serif" font-size="10.00"> </text>
<polyline fill="none" stroke="black" points="171,-348 315,-348 "/>
<text text-anchor="middle" x="243" y="-336" font-family="Helvetica,sans-Serif" font-size="10.00"> </text>
</a>
</g>
</g>
<!-- Node6&#45;&gt;Node5 -->
<g id="edge5" class="edge"><title>Node6&#45;&gt;Node5</title>
<path fill="none" stroke="midnightblue" d="M243,-318.674C243,-309.502 243,-299.961 243,-291.234"/>
<polygon fill="none" stroke="midnightblue" points="239.5,-318.808 243,-328.808 246.5,-318.808 239.5,-318.808"/>
</g>
<!-- Node7 -->
<g id="node7" class="node"><title>Node7</title>
<g id="a_node7"><a xlink:href="classobject.html" target="_top" xlink:title="{object\n||}">
<polygon fill="none" stroke="black" points="222,-434.5 222,-491.5 264,-491.5 264,-434.5 222,-434.5"/>
<text text-anchor="middle" x="243" y="-479.5" font-family="Helvetica,sans-Serif" font-size="10.00">object</text>
<polyline fill="none" stroke="black" points="222,-472.5 264,-472.5 "/>
<text text-anchor="middle" x="243" y="-460.5" font-family="Helvetica,sans-Serif" font-size="10.00"> </text>
<polyline fill="none" stroke="black" points="222,-453.5 264,-453.5 "/>
<text text-anchor="middle" x="243" y="-441.5" font-family="Helvetica,sans-Serif" font-size="10.00"> </text>
</a>
</g>
</g>
<!-- Node7&#45;&gt;Node6 -->
<g id="edge6" class="edge"><title>Node7&#45;&gt;Node6</title>
<path fill="none" stroke="midnightblue" d="M243,-424.302C243,-415.395 243,-405.961 243,-397.266"/>
<polygon fill="none" stroke="midnightblue" points="239.5,-424.441 243,-434.441 246.5,-424.441 239.5,-424.441"/>
</g>
<!-- Node8 -->
<g id="node8" class="node"><title>Node8</title>
<polygon fill="none" stroke="#bfbfbf" points="253.5,-122.5 253.5,-179.5 318.5,-179.5 318.5,-122.5 253.5,-122.5"/>
<text text-anchor="middle" x="286" y="-167.5" font-family="Helvetica,sans-Serif" font-size="10.00">OrderedSet</text>
<polyline fill="none" stroke="#bfbfbf" points="253.5,-160.5 318.5,-160.5 "/>
<text text-anchor="middle" x="286" y="-148.5" font-family="Helvetica,sans-Serif" font-size="10.00"> </text>
<polyline fill="none" stroke="#bfbfbf" points="253.5,-141.5 318.5,-141.5 "/>
<text text-anchor="middle" x="286" y="-129.5" font-family="Helvetica,sans-Serif" font-size="10.00"> </text>
</g>
<!-- Node8&#45;&gt;Node1 -->
<g id="edge7" class="edge"><title>Node8&#45;&gt;Node1</title>
<path fill="none" stroke="midnightblue" d="M264.64,-113.621C258.225,-102.696 251.167,-90.6752 244.671,-79.6115"/>
<polygon fill="none" stroke="midnightblue" points="261.769,-115.643 269.85,-122.495 267.805,-112.099 261.769,-115.643"/>
</g>
</g>
</svg>
