<?xml version="1.0" encoding="UTF-8" standalone="no"?>
<!DOCTYPE svg PUBLIC "-//W3C//DTD SVG 1.1//EN"
 "http://www.w3.org/Graphics/SVG/1.1/DTD/svg11.dtd">
<!-- Generated by graphviz version 2.30.1 (20130219.2202)
 -->
<!-- Title: Net.Protocols.base.Cucumber.Response Pages: 1 -->
<svg width="720pt" height="628pt"
 viewBox="0.00 0.00 720.00 628.00" xmlns="http://www.w3.org/2000/svg" xmlns:xlink="http://www.w3.org/1999/xlink">
<g id="graph0" class="graph" transform="scale(1 1) rotate(0) translate(4 624)">
<title>Net.Protocols.base.Cucumber.Response</title>
<!-- Node1 -->
<g id="node1" class="node"><title>Node1</title>
<polygon fill="#bfbfbf" stroke="black" points="356,-351 356,-419 500,-419 500,-351 356,-351"/>
<text text-anchor="start" x="364" y="-407" font-family="Helvetica,sans-Serif" font-size="10.00">Net.Protocols.base.Cucumber.</text>
<text text-anchor="middle" x="428" y="-396" font-family="Helvetica,sans-Serif" font-size="10.00">Response</text>
<polyline fill="none" stroke="black" points="356,-389 500,-389 "/>
<text text-anchor="middle" x="428" y="-377" font-family="Helvetica,sans-Serif" font-size="10.00"> </text>
<polyline fill="none" stroke="black" points="356,-370 500,-370 "/>
<text text-anchor="middle" x="428" y="-358" font-family="Helvetica,sans-Serif" font-size="10.00"> </text>
</g>
<!-- Node4 -->
<g id="node4" class="node"><title>Node4</title>
<g id="a_node4"><a xlink:href="class_net_1_1_protocols_1_1_h_e_l_d_1_1_cucumbers_1_1_response.html" target="_top" xlink:title="{Net.Protocols.HELD.Cucumbers.\lResponse\n||+ pickle_XML()\l}">
<polygon fill="none" stroke="black" points="272.5,-234 272.5,-302 425.5,-302 425.5,-234 272.5,-234"/>
<text text-anchor="start" x="280.5" y="-290" font-family="Helvetica,sans-Serif" font-size="10.00">Net.Protocols.HELD.Cucumbers.</text>
<text text-anchor="middle" x="349" y="-279" font-family="Helvetica,sans-Serif" font-size="10.00">Response</text>
<polyline fill="none" stroke="black" points="272.5,-272 425.5,-272 "/>
<text text-anchor="middle" x="349" y="-260" font-family="Helvetica,sans-Serif" font-size="10.00"> </text>
<polyline fill="none" stroke="black" points="272.5,-253 425.5,-253 "/>
<text text-anchor="start" x="280.5" y="-241" font-family="Helvetica,sans-Serif" font-size="10.00">+ pickle_XML()</text>
</a>
</g>
</g>
<!-- Node1&#45;&gt;Node4 -->
<g id="edge3" class="edge"><title>Node1&#45;&gt;Node4</title>
<path fill="none" stroke="midnightblue" d="M399.337,-342.275C390.276,-329.086 380.391,-314.696 371.799,-302.188"/>
<polygon fill="none" stroke="midnightblue" points="396.603,-344.477 405.15,-350.737 402.373,-340.513 396.603,-344.477"/>
</g>
<!-- Node12 -->
<g id="node12" class="node"><title>Node12</title>
<g id="a_node12"><a xlink:href="class_net_1_1_protocols_1_1_h_e_l_d_1_1_h_e_l_d___i_d_1_1_h_e_l_d___i_d___error.html" target="_top" xlink:title="Corresponds to RFC 5985 error response when the location request cannot be fulfilled.">
<polygon fill="none" stroke="black" points="444,-223 444,-313 572,-313 572,-223 444,-223"/>
<text text-anchor="start" x="452" y="-301" font-family="Helvetica,sans-Serif" font-size="10.00">Net.Protocols.HELD.HELD</text>
<text text-anchor="middle" x="508" y="-290" font-family="Helvetica,sans-Serif" font-size="10.00">_ID.HELD_ID_Error</text>
<polyline fill="none" stroke="black" points="444,-283 572,-283 "/>
<text text-anchor="start" x="452" y="-271" font-family="Helvetica,sans-Serif" font-size="10.00">+ name</text>
<text text-anchor="start" x="452" y="-260" font-family="Helvetica,sans-Serif" font-size="10.00">+ code</text>
<polyline fill="none" stroke="black" points="444,-253 572,-253 "/>
<text text-anchor="start" x="452" y="-241" font-family="Helvetica,sans-Serif" font-size="10.00">+ __init__()</text>
<text text-anchor="start" x="452" y="-230" font-family="Helvetica,sans-Serif" font-size="10.00">+ __str__()</text>
</a>
</g>
</g>
<!-- Node1&#45;&gt;Node12 -->
<g id="edge11" class="edge"><title>Node1&#45;&gt;Node12</title>
<path fill="none" stroke="midnightblue" d="M457.015,-342.291C463.567,-332.872 470.546,-322.84 477.17,-313.318"/>
<polygon fill="none" stroke="midnightblue" points="453.977,-340.529 451.139,-350.737 459.723,-344.527 453.977,-340.529"/>
</g>
<!-- Node2 -->
<g id="node2" class="node"><title>Node2</title>
<g id="a_node2"><a xlink:href="class_net_1_1_protocols_1_1base_1_1_cucumber_1_1_cucumber.html" target="_top" xlink:title="{Net.Protocols.base.Cucumber.\lCucumber\n||}">
<polygon fill="none" stroke="black" points="356,-457 356,-525 500,-525 500,-457 356,-457"/>
<text text-anchor="start" x="364" y="-513" font-family="Helvetica,sans-Serif" font-size="10.00">Net.Protocols.base.Cucumber.</text>
<text text-anchor="middle" x="428" y="-502" font-family="Helvetica,sans-Serif" font-size="10.00">Cucumber</text>
<polyline fill="none" stroke="black" points="356,-495 500,-495 "/>
<text text-anchor="middle" x="428" y="-483" font-family="Helvetica,sans-Serif" font-size="10.00"> </text>
<polyline fill="none" stroke="black" points="356,-476 500,-476 "/>
<text text-anchor="middle" x="428" y="-464" font-family="Helvetica,sans-Serif" font-size="10.00"> </text>
</a>
</g>
</g>
<!-- Node2&#45;&gt;Node1 -->
<g id="edge1" class="edge"><title>Node2&#45;&gt;Node1</title>
<path fill="none" stroke="midnightblue" d="M428,-446.674C428,-437.502 428,-427.961 428,-419.234"/>
<polygon fill="none" stroke="midnightblue" points="424.5,-446.808 428,-456.808 431.5,-446.808 424.5,-446.808"/>
</g>
<!-- Node3 -->
<g id="node3" class="node"><title>Node3</title>
<g id="a_node3"><a xlink:href="classobject.html" target="_top" xlink:title="{object\n||}">
<polygon fill="none" stroke="black" points="407,-562.5 407,-619.5 449,-619.5 449,-562.5 407,-562.5"/>
<text text-anchor="middle" x="428" y="-607.5" font-family="Helvetica,sans-Serif" font-size="10.00">object</text>
<polyline fill="none" stroke="black" points="407,-600.5 449,-600.5 "/>
<text text-anchor="middle" x="428" y="-588.5" font-family="Helvetica,sans-Serif" font-size="10.00"> </text>
<polyline fill="none" stroke="black" points="407,-581.5 449,-581.5 "/>
<text text-anchor="middle" x="428" y="-569.5" font-family="Helvetica,sans-Serif" font-size="10.00"> </text>
</a>
</g>
</g>
<!-- Node3&#45;&gt;Node2 -->
<g id="edge2" class="edge"><title>Node3&#45;&gt;Node2</title>
<path fill="none" stroke="midnightblue" d="M428,-552.302C428,-543.395 428,-533.961 428,-525.266"/>
<polygon fill="none" stroke="midnightblue" points="424.5,-552.441 428,-562.441 431.5,-552.441 424.5,-552.441"/>
</g>
<!-- Node5 -->
<g id="node5" class="node"><title>Node5</title>
<g id="a_node5"><a xlink:href="class_net_1_1_protocols_1_1_h_e_l_d_1_1_cucumbers_1_1_location_u_r_i__set.html" target="_top" xlink:title="{Net.Protocols.HELD.Cucumbers.\lLocationURI_set\n|+ expires\l|+ __init__()\l+ pickle_XML()\l}">
<polygon fill="none" stroke="black" points="120.5,-106.5 120.5,-185.5 273.5,-185.5 273.5,-106.5 120.5,-106.5"/>
<text text-anchor="start" x="128.5" y="-173.5" font-family="Helvetica,sans-Serif" font-size="10.00">Net.Protocols.HELD.Cucumbers.</text>
<text text-anchor="middle" x="197" y="-162.5" font-family="Helvetica,sans-Serif" font-size="10.00">LocationURI_set</text>
<polyline fill="none" stroke="black" points="120.5,-155.5 273.5,-155.5 "/>
<text text-anchor="start" x="128.5" y="-143.5" font-family="Helvetica,sans-Serif" font-size="10.00">+ expires</text>
<polyline fill="none" stroke="black" points="120.5,-136.5 273.5,-136.5 "/>
<text text-anchor="start" x="128.5" y="-124.5" font-family="Helvetica,sans-Serif" font-size="10.00">+ __init__()</text>
<text text-anchor="start" x="128.5" y="-113.5" font-family="Helvetica,sans-Serif" font-size="10.00">+ pickle_XML()</text>
</a>
</g>
</g>
<!-- Node4&#45;&gt;Node5 -->
<g id="edge4" class="edge"><title>Node4&#45;&gt;Node5</title>
<path fill="none" stroke="midnightblue" d="M298.861,-227.417C281.795,-213.943 262.753,-198.91 245.793,-185.521"/>
<polygon fill="none" stroke="midnightblue" points="297.045,-230.442 307.063,-233.892 301.383,-224.948 297.045,-230.442"/>
</g>
<!-- Node6 -->
<g id="node6" class="node"><title>Node6</title>
<g id="a_node6"><a xlink:href="class_net_1_1_protocols_1_1_h_e_l_d_1_1_errors_1_1_h_e_l_d___error___response.html" target="_top" xlink:title="{Net.Protocols.HELD.Errors.\lHELD_Error_Response\n||+ __init__()\l}">
<polygon fill="none" stroke="black" points="292,-112 292,-180 420,-180 420,-112 292,-112"/>
<text text-anchor="start" x="300" y="-168" font-family="Helvetica,sans-Serif" font-size="10.00">Net.Protocols.HELD.Errors.</text>
<text text-anchor="middle" x="356" y="-157" font-family="Helvetica,sans-Serif" font-size="10.00">HELD_Error_Response</text>
<polyline fill="none" stroke="black" points="292,-150 420,-150 "/>
<text text-anchor="middle" x="356" y="-138" font-family="Helvetica,sans-Serif" font-size="10.00"> </text>
<polyline fill="none" stroke="black" points="292,-131 420,-131 "/>
<text text-anchor="start" x="300" y="-119" font-family="Helvetica,sans-Serif" font-size="10.00">+ __init__()</text>
</a>
</g>
</g>
<!-- Node4&#45;&gt;Node6 -->
<g id="edge5" class="edge"><title>Node4&#45;&gt;Node6</title>
<path fill="none" stroke="midnightblue" d="M351.526,-223.702C352.366,-209.298 353.288,-193.497 354.075,-180"/>
<polygon fill="none" stroke="midnightblue" points="348.02,-223.705 350.931,-233.892 355.008,-224.113 348.02,-223.705"/>
</g>
<!-- Node7 -->
<g id="node7" class="node"><title>Node7</title>
<g id="a_node7"><a xlink:href="class_net_1_1_protocols_1_1_h_e_l_d_1_1_errors_1_1_cannot_provide_l_i_type.html" target="_top" xlink:title="Indicates that the LIS was unable to provide LI of the type or types requested.">
<polygon fill="none" stroke="black" points="0,-1 0,-69 128,-69 128,-1 0,-1"/>
<text text-anchor="start" x="8" y="-57" font-family="Helvetica,sans-Serif" font-size="10.00">Net.Protocols.HELD.Errors.</text>
<text text-anchor="middle" x="64" y="-46" font-family="Helvetica,sans-Serif" font-size="10.00">CannotProvideLIType</text>
<polyline fill="none" stroke="black" points="0,-39 128,-39 "/>
<text text-anchor="middle" x="64" y="-27" font-family="Helvetica,sans-Serif" font-size="10.00"> </text>
<polyline fill="none" stroke="black" points="0,-20 128,-20 "/>
<text text-anchor="start" x="8" y="-8" font-family="Helvetica,sans-Serif" font-size="10.00">+ __init__()</text>
</a>
</g>
</g>
<!-- Node6&#45;&gt;Node7 -->
<g id="edge6" class="edge"><title>Node6&#45;&gt;Node7</title>
<path fill="none" stroke="midnightblue" d="M286.782,-107.888C285.181,-107.235 283.586,-106.605 282,-106 219.954,-82.3482 199.608,-92.1198 137,-70 134.1,-68.9754 131.159,-67.8758 128.206,-66.7216"/>
<polygon fill="none" stroke="midnightblue" points="285.409,-111.108 295.978,-111.849 288.178,-104.679 285.409,-111.108"/>
</g>
<!-- Node8 -->
<g id="node8" class="node"><title>Node8</title>
<g id="a_node8"><a xlink:href="class_net_1_1_protocols_1_1_h_e_l_d_1_1_errors_1_1_general_l_i_s_error.html" target="_top" xlink:title="Indicates that an unspecified error occurred at the LIS.">
<polygon fill="none" stroke="black" points="146,-1 146,-69 274,-69 274,-1 146,-1"/>
<text text-anchor="start" x="154" y="-57" font-family="Helvetica,sans-Serif" font-size="10.00">Net.Protocols.HELD.Errors.</text>
<text text-anchor="middle" x="210" y="-46" font-family="Helvetica,sans-Serif" font-size="10.00">GeneralLISError</text>
<polyline fill="none" stroke="black" points="146,-39 274,-39 "/>
<text text-anchor="middle" x="210" y="-27" font-family="Helvetica,sans-Serif" font-size="10.00"> </text>
<polyline fill="none" stroke="black" points="146,-20 274,-20 "/>
<text text-anchor="start" x="154" y="-8" font-family="Helvetica,sans-Serif" font-size="10.00">+ __init__()</text>
</a>
</g>
</g>
<!-- Node6&#45;&gt;Node8 -->
<g id="edge7" class="edge"><title>Node6&#45;&gt;Node8</title>
<path fill="none" stroke="midnightblue" d="M303.171,-105.559C287.152,-93.5996 269.726,-80.59 254.325,-69.092"/>
<polygon fill="none" stroke="midnightblue" points="301.295,-108.526 311.402,-111.704 305.483,-102.917 301.295,-108.526"/>
</g>
<!-- Node9 -->
<g id="node9" class="node"><title>Node9</title>
<g id="a_node9"><a xlink:href="class_net_1_1_protocols_1_1_h_e_l_d_1_1_errors_1_1_location_unknown.html" target="_top" xlink:title="Indicates that the LIS could not determine the location of the device.">
<polygon fill="none" stroke="black" points="292,-1 292,-69 420,-69 420,-1 292,-1"/>
<text text-anchor="start" x="300" y="-57" font-family="Helvetica,sans-Serif" font-size="10.00">Net.Protocols.HELD.Errors.</text>
<text text-anchor="middle" x="356" y="-46" font-family="Helvetica,sans-Serif" font-size="10.00">LocationUnknown</text>
<polyline fill="none" stroke="black" points="292,-39 420,-39 "/>
<text text-anchor="middle" x="356" y="-27" font-family="Helvetica,sans-Serif" font-size="10.00"> </text>
<polyline fill="none" stroke="black" points="292,-20 420,-20 "/>
<text text-anchor="start" x="300" y="-8" font-family="Helvetica,sans-Serif" font-size="10.00">+ __init__()</text>
</a>
</g>
</g>
<!-- Node6&#45;&gt;Node9 -->
<g id="edge8" class="edge"><title>Node6&#45;&gt;Node9</title>
<path fill="none" stroke="midnightblue" d="M356,-101.575C356,-90.7534 356,-79.3242 356,-69.092"/>
<polygon fill="none" stroke="midnightblue" points="352.5,-101.704 356,-111.704 359.5,-101.704 352.5,-101.704"/>
</g>
<!-- Node10 -->
<g id="node10" class="node"><title>Node10</title>
<g id="a_node10"><a xlink:href="class_net_1_1_protocols_1_1_h_e_l_d_1_1_errors_1_1_not_locatable.html" target="_top" xlink:title="Indicates that the LIS is unable to locate the Device.">
<polygon fill="none" stroke="black" points="438,-1 438,-69 566,-69 566,-1 438,-1"/>
<text text-anchor="start" x="446" y="-57" font-family="Helvetica,sans-Serif" font-size="10.00">Net.Protocols.HELD.Errors.</text>
<text text-anchor="middle" x="502" y="-46" font-family="Helvetica,sans-Serif" font-size="10.00">NotLocatable</text>
<polyline fill="none" stroke="black" points="438,-39 566,-39 "/>
<text text-anchor="middle" x="502" y="-27" font-family="Helvetica,sans-Serif" font-size="10.00"> </text>
<polyline fill="none" stroke="black" points="438,-20 566,-20 "/>
<text text-anchor="start" x="446" y="-8" font-family="Helvetica,sans-Serif" font-size="10.00">+ __init__()</text>
</a>
</g>
</g>
<!-- Node6&#45;&gt;Node10 -->
<g id="edge9" class="edge"><title>Node6&#45;&gt;Node10</title>
<path fill="none" stroke="midnightblue" d="M408.829,-105.559C424.848,-93.5996 442.274,-80.59 457.675,-69.092"/>
<polygon fill="none" stroke="midnightblue" points="406.517,-102.917 400.598,-111.704 410.705,-108.526 406.517,-102.917"/>
</g>
<!-- Node11 -->
<g id="node11" class="node"><title>Node11</title>
<g id="a_node11"><a xlink:href="class_net_1_1_protocols_1_1_h_e_l_d_1_1_errors_1_1_timeout.html" target="_top" xlink:title="Indicates that the LIS could not satisfy the request within the time specified.">
<polygon fill="none" stroke="black" points="584,-1 584,-69 712,-69 712,-1 584,-1"/>
<text text-anchor="start" x="592" y="-57" font-family="Helvetica,sans-Serif" font-size="10.00">Net.Protocols.HELD.Errors.</text>
<text text-anchor="middle" x="648" y="-46" font-family="Helvetica,sans-Serif" font-size="10.00">Timeout</text>
<polyline fill="none" stroke="black" points="584,-39 712,-39 "/>
<text text-anchor="middle" x="648" y="-27" font-family="Helvetica,sans-Serif" font-size="10.00"> </text>
<polyline fill="none" stroke="black" points="584,-20 712,-20 "/>
<text text-anchor="start" x="592" y="-8" font-family="Helvetica,sans-Serif" font-size="10.00">+ __init__()</text>
</a>
</g>
</g>
<!-- Node6&#45;&gt;Node11 -->
<g id="edge10" class="edge"><title>Node6&#45;&gt;Node11</title>
<path fill="none" stroke="midnightblue" d="M429.479,-108.117C431.329,-107.385 433.172,-106.678 435,-106 495.238,-83.6607 514.513,-91.6544 575,-70 577.896,-68.9633 580.833,-67.8537 583.783,-66.6914"/>
<polygon fill="none" stroke="midnightblue" points="428.092,-104.903 420.189,-111.961 430.768,-111.372 428.092,-104.903"/>
</g>
<!-- Node13 -->
<g id="node13" class="node"><title>Node13</title>
<g id="a_node13"><a xlink:href="class_net_1_1_protocols_1_1_h_e_l_d_1_1_h_e_l_d___i_d_1_1_bad_identifier.html" target="_top" xlink:title="Indicates that a Device identifier used in the HELD request is not supported, badly formatted...">
<polygon fill="none" stroke="black" points="444,-112 444,-180 572,-180 572,-112 444,-112"/>
<text text-anchor="start" x="452" y="-168" font-family="Helvetica,sans-Serif" font-size="10.00">Net.Protocols.HELD.HELD</text>
<text text-anchor="middle" x="508" y="-157" font-family="Helvetica,sans-Serif" font-size="10.00">_ID.BadIdentifier</text>
<polyline fill="none" stroke="black" points="444,-150 572,-150 "/>
<text text-anchor="middle" x="508" y="-138" font-family="Helvetica,sans-Serif" font-size="10.00"> </text>
<polyline fill="none" stroke="black" points="444,-131 572,-131 "/>
<text text-anchor="start" x="452" y="-119" font-family="Helvetica,sans-Serif" font-size="10.00">+ __init__()</text>
</a>
</g>
</g>
<!-- Node12&#45;&gt;Node13 -->
<g id="edge12" class="edge"><title>Node12&#45;&gt;Node13</title>
<path fill="none" stroke="midnightblue" d="M508,-212.86C508,-201.688 508,-190.243 508,-180.093"/>
<polygon fill="none" stroke="midnightblue" points="504.5,-212.998 508,-222.998 511.5,-212.998 504.5,-212.998"/>
</g>
</g>
</svg>
