<?xml version="1.0" encoding="UTF-8" standalone="no"?>
<!DOCTYPE svg PUBLIC "-//W3C//DTD SVG 1.1//EN"
 "http://www.w3.org/Graphics/SVG/1.1/DTD/svg11.dtd">
<!-- Generated by graphviz version 2.30.1 (20130219.2202)
 -->
<!-- Title: Cucumber Pages: 1 -->
<!--zoomable 522 -->
<svg id="main" version="1.1" xmlns="http://www.w3.org/2000/svg" xmlns:xlink="http://www.w3.org/1999/xlink" xml:space="preserve" onload="init(evt)">
        <defs>
                <circle id="rim" cx="0" cy="0" r="7"/>
                <circle id="rim2" cx="0" cy="0" r="3.5"/>
                <g id="zoomPlus">
                        <use xlink:href="#rim" fill="#404040">
                                <set attributeName="fill" to="#808080" begin="zoomplus.mouseover" end="zoomplus.mouseout"/>
                        </use>
                        <path d="M-4,0h8M0,-4v8" fill="none" stroke="white" stroke-width="1.5" pointer-events="none"/>
                </g>
                <g id="zoomMin">
                        <use xlink:href="#rim" fill="#404040">
                                <set attributeName="fill" to="#808080" begin="zoomminus.mouseover" end="zoomminus.mouseout"/>
                        </use>
                        <path d="M-4,0h8" fill="none" stroke="white" stroke-width="1.5" pointer-events="none"/>
                </g>
                <g id="dirArrow">
                        <path fill="none" stroke="white" stroke-width="1.5" d="M0,-3.0v7 M-2.5,-0.5L0,-3.0L2.5,-0.5"/>
                </g>
               <g id="resetDef">
                       <use xlink:href="#rim2" fill="#404040">
                               <set attributeName="fill" to="#808080" begin="reset.mouseover" end="reset.mouseout"/>
                       </use>
               </g>
        </defs>

<script type="text/javascript">
var viewWidth = 1168;
var viewHeight = 522;
var sectionId = 'dynsection-0';
</script>
<script xlink:href="svgpan.js"/>
<svg id="graph" class="graph">
<g id="viewport">
<title>Cucumber</title>
<!-- Node1 -->
<g id="node1" class="node"><title>Node1</title>
<polygon fill="#bfbfbf" stroke="black" points="336,-456.5 336,-513.5 396,-513.5 396,-456.5 336,-456.5"/>
<text text-anchor="middle" x="366" y="-501.5" font-family="Helvetica,sans-Serif" font-size="10.00">Cucumber</text>
<polyline fill="none" stroke="black" points="336,-494.5 396,-494.5 "/>
<text text-anchor="middle" x="366" y="-482.5" font-family="Helvetica,sans-Serif" font-size="10.00"> </text>
<polyline fill="none" stroke="black" points="336,-475.5 396,-475.5 "/>
<text text-anchor="middle" x="366" y="-463.5" font-family="Helvetica,sans-Serif" font-size="10.00"> </text>
</g>
<!-- Node2 -->
<g id="node2" class="node"><title>Node2</title>
<g id="a_node2"><a xlink:href="class_net_1_1_protocols_1_1_h_e_l_d_1_1_cucumbers_1_1_h_e_l_d___cucumber.html" target="_top" xlink:title="{Net.Protocols.HELD.Cucumbers.\lHELD_Cucumber\n||}">
<polygon fill="none" stroke="black" points="289.5,-351 289.5,-419 442.5,-419 442.5,-351 289.5,-351"/>
<text text-anchor="start" x="297.5" y="-407" font-family="Helvetica,sans-Serif" font-size="10.00">Net.Protocols.HELD.Cucumbers.</text>
<text text-anchor="middle" x="366" y="-396" font-family="Helvetica,sans-Serif" font-size="10.00">HELD_Cucumber</text>
<polyline fill="none" stroke="black" points="289.5,-389 442.5,-389 "/>
<text text-anchor="middle" x="366" y="-377" font-family="Helvetica,sans-Serif" font-size="10.00"> </text>
<polyline fill="none" stroke="black" points="289.5,-370 442.5,-370 "/>
<text text-anchor="middle" x="366" y="-358" font-family="Helvetica,sans-Serif" font-size="10.00"> </text>
</a>
</g>
</g>
<!-- Node1&#45;&gt;Node2 -->
<g id="edge1" class="edge"><title>Node1&#45;&gt;Node2</title>
<path fill="none" stroke="midnightblue" d="M366,-446.302C366,-437.395 366,-427.961 366,-419.266"/>
<polygon fill="none" stroke="midnightblue" points="362.5,-446.441 366,-456.441 369.5,-446.441 362.5,-446.441"/>
</g>
<!-- Node3 -->
<g id="node3" class="node"><title>Node3</title>
<g id="a_node3"><a xlink:href="class_net_1_1_protocols_1_1_h_e_l_d_1_1_cucumbers_1_1_request.html" target="_top" xlink:title="{Net.Protocols.HELD.Cucumbers.\lRequest\n|+ locationTypes\l+ locationTypes_areExact\l|+ __init__()\l}">
<polygon fill="none" stroke="black" points="130.5,-228.5 130.5,-307.5 283.5,-307.5 283.5,-228.5 130.5,-228.5"/>
<text text-anchor="start" x="138.5" y="-295.5" font-family="Helvetica,sans-Serif" font-size="10.00">Net.Protocols.HELD.Cucumbers.</text>
<text text-anchor="middle" x="207" y="-284.5" font-family="Helvetica,sans-Serif" font-size="10.00">Request</text>
<polyline fill="none" stroke="black" points="130.5,-277.5 283.5,-277.5 "/>
<text text-anchor="start" x="138.5" y="-265.5" font-family="Helvetica,sans-Serif" font-size="10.00">+ locationTypes</text>
<text text-anchor="start" x="138.5" y="-254.5" font-family="Helvetica,sans-Serif" font-size="10.00">+ locationTypes_areExact</text>
<polyline fill="none" stroke="black" points="130.5,-247.5 283.5,-247.5 "/>
<text text-anchor="start" x="138.5" y="-235.5" font-family="Helvetica,sans-Serif" font-size="10.00">+ __init__()</text>
</a>
</g>
</g>
<!-- Node2&#45;&gt;Node3 -->
<g id="edge2" class="edge"><title>Node2&#45;&gt;Node3</title>
<path fill="none" stroke="midnightblue" d="M311.539,-344.61C295.025,-332.666 276.905,-319.56 260.458,-307.665"/>
<polygon fill="none" stroke="midnightblue" points="309.857,-347.713 320.011,-350.737 313.959,-342.041 309.857,-347.713"/>
</g>
<!-- Node8 -->
<g id="node8" class="node"><title>Node8</title>
<g id="a_node8"><a xlink:href="class_net_1_1_protocols_1_1_h_e_l_d_1_1_cucumbers_1_1_response.html" target="_top" xlink:title="{Net.Protocols.HELD.Cucumbers.\lResponse\n||+ pickle_XML()\l}">
<polygon fill="none" stroke="black" points="581.5,-234 581.5,-302 734.5,-302 734.5,-234 581.5,-234"/>
<text text-anchor="start" x="589.5" y="-290" font-family="Helvetica,sans-Serif" font-size="10.00">Net.Protocols.HELD.Cucumbers.</text>
<text text-anchor="middle" x="658" y="-279" font-family="Helvetica,sans-Serif" font-size="10.00">Response</text>
<polyline fill="none" stroke="black" points="581.5,-272 734.5,-272 "/>
<text text-anchor="middle" x="658" y="-260" font-family="Helvetica,sans-Serif" font-size="10.00"> </text>
<polyline fill="none" stroke="black" points="581.5,-253 734.5,-253 "/>
<text text-anchor="start" x="589.5" y="-241" font-family="Helvetica,sans-Serif" font-size="10.00">+ pickle_XML()</text>
</a>
</g>
</g>
<!-- Node2&#45;&gt;Node8 -->
<g id="edge7" class="edge"><title>Node2&#45;&gt;Node8</title>
<path fill="none" stroke="midnightblue" d="M452.142,-350.074C493.086,-333.949 541.626,-314.832 581.286,-299.213"/>
<polygon fill="none" stroke="midnightblue" points="450.741,-346.864 442.72,-353.785 453.307,-353.377 450.741,-346.864"/>
</g>
<!-- Node16 -->
<g id="node16" class="node"><title>Node16</title>
<g id="a_node16"><a xlink:href="class_net_1_1_protocols_1_1_h_e_l_d_1_1_errors_1_1_h_e_l_d___error.html" target="_top" xlink:title="Corresponds to an RFC 5985 general error when the location request cannot be fulfilled.">
<polygon fill="none" stroke="black" points="302,-223 302,-313 430,-313 430,-223 302,-223"/>
<text text-anchor="start" x="310" y="-301" font-family="Helvetica,sans-Serif" font-size="10.00">Net.Protocols.HELD.Errors.</text>
<text text-anchor="middle" x="366" y="-290" font-family="Helvetica,sans-Serif" font-size="10.00">HELD_Error</text>
<polyline fill="none" stroke="black" points="302,-283 430,-283 "/>
<text text-anchor="start" x="310" y="-271" font-family="Helvetica,sans-Serif" font-size="10.00">+ code</text>
<polyline fill="none" stroke="black" points="302,-264 430,-264 "/>
<text text-anchor="start" x="310" y="-252" font-family="Helvetica,sans-Serif" font-size="10.00">+ __init__()</text>
<text text-anchor="start" x="310" y="-241" font-family="Helvetica,sans-Serif" font-size="10.00">+ __str__()</text>
<text text-anchor="start" x="310" y="-230" font-family="Helvetica,sans-Serif" font-size="10.00">+ pickle_XML()</text>
</a>
</g>
</g>
<!-- Node2&#45;&gt;Node16 -->
<g id="edge15" class="edge"><title>Node2&#45;&gt;Node16</title>
<path fill="none" stroke="midnightblue" d="M366,-340.555C366,-331.646 366,-322.257 366,-313.318"/>
<polygon fill="none" stroke="midnightblue" points="362.5,-340.737 366,-350.737 369.5,-340.737 362.5,-340.737"/>
</g>
<!-- Node4 -->
<g id="node4" class="node"><title>Node4</title>
<g id="a_node4"><a xlink:href="class_net_1_1_protocols_1_1_h_e_l_d_1_1_errors_1_1_h_e_l_d___error___request.html" target="_top" xlink:title="{Net.Protocols.HELD.Errors.\lHELD_Error_Request\n||+ __init__()\l}">
<polygon fill="none" stroke="black" points="151,-112 151,-180 279,-180 279,-112 151,-112"/>
<text text-anchor="start" x="159" y="-168" font-family="Helvetica,sans-Serif" font-size="10.00">Net.Protocols.HELD.Errors.</text>
<text text-anchor="middle" x="215" y="-157" font-family="Helvetica,sans-Serif" font-size="10.00">HELD_Error_Request</text>
<polyline fill="none" stroke="black" points="151,-150 279,-150 "/>
<text text-anchor="middle" x="215" y="-138" font-family="Helvetica,sans-Serif" font-size="10.00"> </text>
<polyline fill="none" stroke="black" points="151,-131 279,-131 "/>
<text text-anchor="start" x="159" y="-119" font-family="Helvetica,sans-Serif" font-size="10.00">+ __init__()</text>
</a>
</g>
</g>
<!-- Node3&#45;&gt;Node4 -->
<g id="edge3" class="edge"><title>Node3&#45;&gt;Node4</title>
<path fill="none" stroke="midnightblue" d="M210.245,-218.327C211.096,-205.555 211.995,-192.073 212.779,-180.31"/>
<polygon fill="none" stroke="midnightblue" points="206.748,-218.16 209.575,-228.371 213.733,-218.626 206.748,-218.16"/>
</g>
<!-- Node5 -->
<g id="node5" class="node"><title>Node5</title>
<g id="a_node5"><a xlink:href="class_net_1_1_protocols_1_1_h_e_l_d_1_1_errors_1_1_request_error.html" target="_top" xlink:title="Indicates that the request was badly formed in some fashion (other than the XML content).">
<polygon fill="none" stroke="black" points="146,-1 146,-69 284,-69 284,-1 146,-1"/>
<text text-anchor="start" x="154" y="-57" font-family="Helvetica,sans-Serif" font-size="10.00">Net.Protocols.HELD.Errors.</text>
<text text-anchor="middle" x="215" y="-46" font-family="Helvetica,sans-Serif" font-size="10.00">RequestError</text>
<polyline fill="none" stroke="black" points="146,-39 284,-39 "/>
<text text-anchor="start" x="154" y="-27" font-family="Helvetica,sans-Serif" font-size="10.00">+ unrecognizedLocationType</text>
<polyline fill="none" stroke="black" points="146,-20 284,-20 "/>
<text text-anchor="start" x="154" y="-8" font-family="Helvetica,sans-Serif" font-size="10.00">+ __init__()</text>
</a>
</g>
</g>
<!-- Node4&#45;&gt;Node5 -->
<g id="edge4" class="edge"><title>Node4&#45;&gt;Node5</title>
<path fill="none" stroke="midnightblue" d="M215,-101.575C215,-90.7534 215,-79.3242 215,-69.092"/>
<polygon fill="none" stroke="midnightblue" points="211.5,-101.704 215,-111.704 218.5,-101.704 211.5,-101.704"/>
</g>
<!-- Node6 -->
<g id="node6" class="node"><title>Node6</title>
<g id="a_node6"><a xlink:href="class_net_1_1_protocols_1_1_h_e_l_d_1_1_errors_1_1_unsupported_message.html" target="_top" xlink:title="Indicates that an element in the XML document for the request was not supported or understood...">
<polygon fill="none" stroke="black" points="302,-1 302,-69 430,-69 430,-1 302,-1"/>
<text text-anchor="start" x="310" y="-57" font-family="Helvetica,sans-Serif" font-size="10.00">Net.Protocols.HELD.Errors.</text>
<text text-anchor="middle" x="366" y="-46" font-family="Helvetica,sans-Serif" font-size="10.00">UnsupportedMessage</text>
<polyline fill="none" stroke="black" points="302,-39 430,-39 "/>
<text text-anchor="middle" x="366" y="-27" font-family="Helvetica,sans-Serif" font-size="10.00"> </text>
<polyline fill="none" stroke="black" points="302,-20 430,-20 "/>
<text text-anchor="start" x="310" y="-8" font-family="Helvetica,sans-Serif" font-size="10.00">+ __init__()</text>
</a>
</g>
</g>
<!-- Node4&#45;&gt;Node6 -->
<g id="edge5" class="edge"><title>Node4&#45;&gt;Node6</title>
<path fill="none" stroke="midnightblue" d="M269.638,-105.559C286.206,-93.5996 304.229,-80.59 320.157,-69.092"/>
<polygon fill="none" stroke="midnightblue" points="267.185,-103.013 261.125,-111.704 271.282,-108.689 267.185,-103.013"/>
</g>
<!-- Node7 -->
<g id="node7" class="node"><title>Node7</title>
<g id="a_node7"><a xlink:href="class_net_1_1_protocols_1_1_h_e_l_d_1_1_errors_1_1_x_m_l___error.html" target="_top" xlink:title="Indicates that the XML content of the request was either badly formed or invalid.">
<polygon fill="none" stroke="black" points="0,-1 0,-69 128,-69 128,-1 0,-1"/>
<text text-anchor="start" x="8" y="-57" font-family="Helvetica,sans-Serif" font-size="10.00">Net.Protocols.HELD.Errors.</text>
<text text-anchor="middle" x="64" y="-46" font-family="Helvetica,sans-Serif" font-size="10.00">XML_Error</text>
<polyline fill="none" stroke="black" points="0,-39 128,-39 "/>
<text text-anchor="middle" x="64" y="-27" font-family="Helvetica,sans-Serif" font-size="10.00"> </text>
<polyline fill="none" stroke="black" points="0,-20 128,-20 "/>
<text text-anchor="start" x="8" y="-8" font-family="Helvetica,sans-Serif" font-size="10.00">+ __init__()</text>
</a>
</g>
</g>
<!-- Node4&#45;&gt;Node7 -->
<g id="edge6" class="edge"><title>Node4&#45;&gt;Node7</title>
<path fill="none" stroke="midnightblue" d="M160.362,-105.559C143.794,-93.5996 125.771,-80.59 109.843,-69.092"/>
<polygon fill="none" stroke="midnightblue" points="158.718,-108.689 168.875,-111.704 162.815,-103.013 158.718,-108.689"/>
</g>
<!-- Node9 -->
<g id="node9" class="node"><title>Node9</title>
<g id="a_node9"><a xlink:href="class_net_1_1_protocols_1_1_h_e_l_d_1_1_cucumbers_1_1_location_u_r_i__set.html" target="_top" xlink:title="{Net.Protocols.HELD.Cucumbers.\lLocationURI_set\n|+ expires\l|+ __init__()\l+ pickle_XML()\l}">
<polygon fill="none" stroke="black" points="740.5,-106.5 740.5,-185.5 893.5,-185.5 893.5,-106.5 740.5,-106.5"/>
<text text-anchor="start" x="748.5" y="-173.5" font-family="Helvetica,sans-Serif" font-size="10.00">Net.Protocols.HELD.Cucumbers.</text>
<text text-anchor="middle" x="817" y="-162.5" font-family="Helvetica,sans-Serif" font-size="10.00">LocationURI_set</text>
<polyline fill="none" stroke="black" points="740.5,-155.5 893.5,-155.5 "/>
<text text-anchor="start" x="748.5" y="-143.5" font-family="Helvetica,sans-Serif" font-size="10.00">+ expires</text>
<polyline fill="none" stroke="black" points="740.5,-136.5 893.5,-136.5 "/>
<text text-anchor="start" x="748.5" y="-124.5" font-family="Helvetica,sans-Serif" font-size="10.00">+ __init__()</text>
<text text-anchor="start" x="748.5" y="-113.5" font-family="Helvetica,sans-Serif" font-size="10.00">+ pickle_XML()</text>
</a>
</g>
</g>
<!-- Node8&#45;&gt;Node9 -->
<g id="edge8" class="edge"><title>Node8&#45;&gt;Node9</title>
<path fill="none" stroke="midnightblue" d="M709.961,-227.784C727.938,-214.217 748.058,-199.032 765.96,-185.521"/>
<polygon fill="none" stroke="midnightblue" points="707.742,-225.074 701.868,-233.892 711.959,-230.661 707.742,-225.074"/>
</g>
<!-- Node10 -->
<g id="node10" class="node"><title>Node10</title>
<g id="a_node10"><a xlink:href="class_net_1_1_protocols_1_1_h_e_l_d_1_1_errors_1_1_h_e_l_d___error___response.html" target="_top" xlink:title="{Net.Protocols.HELD.Errors.\lHELD_Error_Response\n||+ __init__()\l}">
<polygon fill="none" stroke="black" points="594,-112 594,-180 722,-180 722,-112 594,-112"/>
<text text-anchor="start" x="602" y="-168" font-family="Helvetica,sans-Serif" font-size="10.00">Net.Protocols.HELD.Errors.</text>
<text text-anchor="middle" x="658" y="-157" font-family="Helvetica,sans-Serif" font-size="10.00">HELD_Error_Response</text>
<polyline fill="none" stroke="black" points="594,-150 722,-150 "/>
<text text-anchor="middle" x="658" y="-138" font-family="Helvetica,sans-Serif" font-size="10.00"> </text>
<polyline fill="none" stroke="black" points="594,-131 722,-131 "/>
<text text-anchor="start" x="602" y="-119" font-family="Helvetica,sans-Serif" font-size="10.00">+ __init__()</text>
</a>
</g>
</g>
<!-- Node8&#45;&gt;Node10 -->
<g id="edge9" class="edge"><title>Node8&#45;&gt;Node10</title>
<path fill="none" stroke="midnightblue" d="M658,-223.702C658,-209.298 658,-193.497 658,-180"/>
<polygon fill="none" stroke="midnightblue" points="654.5,-223.892 658,-233.892 661.5,-223.892 654.5,-223.892"/>
</g>
<!-- Node11 -->
<g id="node11" class="node"><title>Node11</title>
<g id="a_node11"><a xlink:href="class_net_1_1_protocols_1_1_h_e_l_d_1_1_errors_1_1_cannot_provide_l_i_type.html" target="_top" xlink:title="Indicates that the LIS was unable to provide LI of the type or types requested.">
<polygon fill="none" stroke="black" points="594,-1 594,-69 722,-69 722,-1 594,-1"/>
<text text-anchor="start" x="602" y="-57" font-family="Helvetica,sans-Serif" font-size="10.00">Net.Protocols.HELD.Errors.</text>
<text text-anchor="middle" x="658" y="-46" font-family="Helvetica,sans-Serif" font-size="10.00">CannotProvideLIType</text>
<polyline fill="none" stroke="black" points="594,-39 722,-39 "/>
<text text-anchor="middle" x="658" y="-27" font-family="Helvetica,sans-Serif" font-size="10.00"> </text>
<polyline fill="none" stroke="black" points="594,-20 722,-20 "/>
<text text-anchor="start" x="602" y="-8" font-family="Helvetica,sans-Serif" font-size="10.00">+ __init__()</text>
</a>
</g>
</g>
<!-- Node10&#45;&gt;Node11 -->
<g id="edge10" class="edge"><title>Node10&#45;&gt;Node11</title>
<path fill="none" stroke="midnightblue" d="M658,-101.575C658,-90.7534 658,-79.3242 658,-69.092"/>
<polygon fill="none" stroke="midnightblue" points="654.5,-101.704 658,-111.704 661.5,-101.704 654.5,-101.704"/>
</g>
<!-- Node12 -->
<g id="node12" class="node"><title>Node12</title>
<g id="a_node12"><a xlink:href="class_net_1_1_protocols_1_1_h_e_l_d_1_1_errors_1_1_general_l_i_s_error.html" target="_top" xlink:title="Indicates that an unspecified error occurred at the LIS.">
<polygon fill="none" stroke="black" points="740,-1 740,-69 868,-69 868,-1 740,-1"/>
<text text-anchor="start" x="748" y="-57" font-family="Helvetica,sans-Serif" font-size="10.00">Net.Protocols.HELD.Errors.</text>
<text text-anchor="middle" x="804" y="-46" font-family="Helvetica,sans-Serif" font-size="10.00">GeneralLISError</text>
<polyline fill="none" stroke="black" points="740,-39 868,-39 "/>
<text text-anchor="middle" x="804" y="-27" font-family="Helvetica,sans-Serif" font-size="10.00"> </text>
<polyline fill="none" stroke="black" points="740,-20 868,-20 "/>
<text text-anchor="start" x="748" y="-8" font-family="Helvetica,sans-Serif" font-size="10.00">+ __init__()</text>
</a>
</g>
</g>
<!-- Node10&#45;&gt;Node12 -->
<g id="edge11" class="edge"><title>Node10&#45;&gt;Node12</title>
<path fill="none" stroke="midnightblue" d="M710.829,-105.559C726.848,-93.5996 744.274,-80.59 759.675,-69.092"/>
<polygon fill="none" stroke="midnightblue" points="708.517,-102.917 702.598,-111.704 712.705,-108.526 708.517,-102.917"/>
</g>
<!-- Node13 -->
<g id="node13" class="node"><title>Node13</title>
<g id="a_node13"><a xlink:href="class_net_1_1_protocols_1_1_h_e_l_d_1_1_errors_1_1_location_unknown.html" target="_top" xlink:title="Indicates that the LIS could not determine the location of the device.">
<polygon fill="none" stroke="black" points="886,-1 886,-69 1014,-69 1014,-1 886,-1"/>
<text text-anchor="start" x="894" y="-57" font-family="Helvetica,sans-Serif" font-size="10.00">Net.Protocols.HELD.Errors.</text>
<text text-anchor="middle" x="950" y="-46" font-family="Helvetica,sans-Serif" font-size="10.00">LocationUnknown</text>
<polyline fill="none" stroke="black" points="886,-39 1014,-39 "/>
<text text-anchor="middle" x="950" y="-27" font-family="Helvetica,sans-Serif" font-size="10.00"> </text>
<polyline fill="none" stroke="black" points="886,-20 1014,-20 "/>
<text text-anchor="start" x="894" y="-8" font-family="Helvetica,sans-Serif" font-size="10.00">+ __init__()</text>
</a>
</g>
</g>
<!-- Node10&#45;&gt;Node13 -->
<g id="edge12" class="edge"><title>Node10&#45;&gt;Node13</title>
<path fill="none" stroke="midnightblue" d="M727.218,-107.888C728.819,-107.235 730.414,-106.605 732,-106 794.046,-82.3482 814.392,-92.1198 877,-70 879.9,-68.9754 882.841,-67.8758 885.794,-66.7216"/>
<polygon fill="none" stroke="midnightblue" points="725.822,-104.679 718.022,-111.849 728.591,-111.108 725.822,-104.679"/>
</g>
<!-- Node14 -->
<g id="node14" class="node"><title>Node14</title>
<g id="a_node14"><a xlink:href="class_net_1_1_protocols_1_1_h_e_l_d_1_1_errors_1_1_not_locatable.html" target="_top" xlink:title="Indicates that the LIS is unable to locate the Device.">
<polygon fill="none" stroke="black" points="1032,-1 1032,-69 1160,-69 1160,-1 1032,-1"/>
<text text-anchor="start" x="1040" y="-57" font-family="Helvetica,sans-Serif" font-size="10.00">Net.Protocols.HELD.Errors.</text>
<text text-anchor="middle" x="1096" y="-46" font-family="Helvetica,sans-Serif" font-size="10.00">NotLocatable</text>
<polyline fill="none" stroke="black" points="1032,-39 1160,-39 "/>
<text text-anchor="middle" x="1096" y="-27" font-family="Helvetica,sans-Serif" font-size="10.00"> </text>
<polyline fill="none" stroke="black" points="1032,-20 1160,-20 "/>
<text text-anchor="start" x="1040" y="-8" font-family="Helvetica,sans-Serif" font-size="10.00">+ __init__()</text>
</a>
</g>
</g>
<!-- Node10&#45;&gt;Node14 -->
<g id="edge13" class="edge"><title>Node10&#45;&gt;Node14</title>
<path fill="none" stroke="midnightblue" d="M725.559,-108.186C727.711,-107.403 729.861,-106.671 732,-106 856.341,-66.9828 897.737,-105.95 1023,-70 1025.96,-69.1515 1028.94,-68.1978 1031.94,-67.1631"/>
<polygon fill="none" stroke="midnightblue" points="724.147,-104.981 716.138,-111.917 726.724,-111.489 724.147,-104.981"/>
</g>
<!-- Node15 -->
<g id="node15" class="node"><title>Node15</title>
<g id="a_node15"><a xlink:href="class_net_1_1_protocols_1_1_h_e_l_d_1_1_errors_1_1_timeout.html" target="_top" xlink:title="Indicates that the LIS could not satisfy the request within the time specified.">
<polygon fill="none" stroke="black" points="448,-1 448,-69 576,-69 576,-1 448,-1"/>
<text text-anchor="start" x="456" y="-57" font-family="Helvetica,sans-Serif" font-size="10.00">Net.Protocols.HELD.Errors.</text>
<text text-anchor="middle" x="512" y="-46" font-family="Helvetica,sans-Serif" font-size="10.00">Timeout</text>
<polyline fill="none" stroke="black" points="448,-39 576,-39 "/>
<text text-anchor="middle" x="512" y="-27" font-family="Helvetica,sans-Serif" font-size="10.00"> </text>
<polyline fill="none" stroke="black" points="448,-20 576,-20 "/>
<text text-anchor="start" x="456" y="-8" font-family="Helvetica,sans-Serif" font-size="10.00">+ __init__()</text>
</a>
</g>
</g>
<!-- Node10&#45;&gt;Node15 -->
<g id="edge14" class="edge"><title>Node10&#45;&gt;Node15</title>
<path fill="none" stroke="midnightblue" d="M605.171,-105.559C589.152,-93.5996 571.726,-80.59 556.325,-69.092"/>
<polygon fill="none" stroke="midnightblue" points="603.295,-108.526 613.402,-111.704 607.483,-102.917 603.295,-108.526"/>
</g>
<!-- Node16&#45;&gt;Node4 -->
<g id="edge16" class="edge"><title>Node16&#45;&gt;Node4</title>
<path fill="none" stroke="midnightblue" d="M302.592,-216.609C287.07,-204.274 270.848,-191.382 256.642,-180.093"/>
<polygon fill="none" stroke="midnightblue" points="300.624,-219.516 310.631,-222.998 304.979,-214.036 300.624,-219.516"/>
</g>
<!-- Node16&#45;&gt;Node10 -->
<g id="edge17" class="edge"><title>Node16&#45;&gt;Node10</title>
<path fill="none" stroke="midnightblue" d="M439.395,-236.838C486.926,-217.304 548.23,-192.111 593.817,-173.377"/>
<polygon fill="none" stroke="midnightblue" points="438,-233.627 430.081,-240.665 440.66,-240.102 438,-233.627"/>
</g>
<!-- Node16&#45;&gt;Node5 -->
<g id="edge18" class="edge"><title>Node16&#45;&gt;Node5</title>
<path fill="none" stroke="midnightblue" d="M345.791,-213.59C332.089,-180.909 312.108,-139.15 288,-106 278.499,-92.9353 266.399,-80.2203 254.795,-69.291"/>
<polygon fill="none" stroke="midnightblue" points="342.617,-215.074 349.663,-222.986 349.089,-212.406 342.617,-215.074"/>
</g>
<!-- Node16&#45;&gt;Node6 -->
<g id="edge19" class="edge"><title>Node16&#45;&gt;Node6</title>
<path fill="none" stroke="midnightblue" d="M366,-212.673C366,-168.209 366,-106.745 366,-69.2705"/>
<polygon fill="none" stroke="midnightblue" points="362.5,-212.734 366,-222.734 369.5,-212.734 362.5,-212.734"/>
</g>
<!-- Node16&#45;&gt;Node7 -->
<g id="edge20" class="edge"><title>Node16&#45;&gt;Node7</title>
<path fill="none" stroke="midnightblue" d="M292.3,-222.124C292.2,-222.082 292.1,-222.041 292,-222 228.613,-195.874 196.018,-228.22 142,-186 104.188,-156.447 82.8588,-103.458 72.3815,-69.0237"/>
<polygon fill="none" stroke="midnightblue" points="291.073,-225.409 301.631,-226.3 293.933,-219.02 291.073,-225.409"/>
</g>
</g>
</svg>
        <g id="navigator" transform="translate(0 0)" fill="#404254">
                <rect fill="#f2f5e9" fill-opacity="0.5" stroke="#606060" stroke-width=".5" x="0" y="0" width="60" height="60"/>
                <use id="zoomplus" xlink:href="#zoomPlus" x="17" y="9" onmousedown="handleZoom(evt,'in')"/>
                <use id="zoomminus" xlink:href="#zoomMin" x="42" y="9" onmousedown="handleZoom(evt,'out')"/>
                <use id="reset" xlink:href="#resetDef" x="30" y="36" onmousedown="handleReset()"/>
                <g id="arrowUp" xlink:href="#dirArrow" transform="translate(30 24)" onmousedown="handlePan(0,-1)">
                  <use xlink:href="#rim" fill="#404040">
                        <set attributeName="fill" to="#808080" begin="arrowUp.mouseover" end="arrowUp.mouseout"/>
                  </use>
                  <path fill="none" stroke="white" stroke-width="1.5" d="M0,-3.0v7 M-2.5,-0.5L0,-3.0L2.5,-0.5"/>
                </g>
                <g id="arrowRight" xlink:href="#dirArrow" transform="rotate(90) translate(36 -43)" onmousedown="handlePan(1,0)">
                  <use xlink:href="#rim" fill="#404040">
                        <set attributeName="fill" to="#808080" begin="arrowRight.mouseover" end="arrowRight.mouseout"/>
                  </use>
                  <path fill="none" stroke="white" stroke-width="1.5" d="M0,-3.0v7 M-2.5,-0.5L0,-3.0L2.5,-0.5"/>
                </g>
                <g id="arrowDown" xlink:href="#dirArrow" transform="rotate(180) translate(-30 -48)" onmousedown="handlePan(0,1)">
                  <use xlink:href="#rim" fill="#404040">
                        <set attributeName="fill" to="#808080" begin="arrowDown.mouseover" end="arrowDown.mouseout"/>
                  </use>
                  <path fill="none" stroke="white" stroke-width="1.5" d="M0,-3.0v7 M-2.5,-0.5L0,-3.0L2.5,-0.5"/>
                </g>
                <g id="arrowLeft" xlink:href="#dirArrow" transform="rotate(270) translate(-36 17)" onmousedown="handlePan(-1,0)">
                  <use xlink:href="#rim" fill="#404040">
                        <set attributeName="fill" to="#808080" begin="arrowLeft.mouseover" end="arrowLeft.mouseout"/>
                  </use>
                  <path fill="none" stroke="white" stroke-width="1.5" d="M0,-3.0v7 M-2.5,-0.5L0,-3.0L2.5,-0.5"/>
                </g>
        </g>
        <svg viewBox="0 0 15 15" width="100%" height="30px" preserveAspectRatio="xMaxYMin meet">
         <g id="arrow_out" transform="scale(0.3 0.3)">
          <a xlink:href="classbase_1_1_cucumber__inherit__graph_org.svg" target="_base">
           <rect id="button" ry="5" rx="5" y="6" x="6" height="38" width="38"
                fill="#f2f5e9" fill-opacity="0.5" stroke="#606060" stroke-width="1.0"/>
           <path id="arrow"
             d="M 11.500037,31.436501 C 11.940474,20.09759 22.043105,11.32322 32.158766,21.979434 L 37.068811,17.246167 C 37.068811,17.246167 37.088388,32 37.088388,32 L 22.160133,31.978069 C 22.160133,31.978069 26.997745,27.140456 26.997745,27.140456 C 18.528582,18.264221 13.291696,25.230495 11.500037,31.436501 z"
             style="fill:#404040;"/>
          </a>
         </g>
        </svg>
</svg>
