<?xml version="1.0" encoding="UTF-8" standalone="no"?>
<!DOCTYPE svg PUBLIC "-//W3C//DTD SVG 1.1//EN"
 "http://www.w3.org/Graphics/SVG/1.1/DTD/svg11.dtd">
<!-- Generated by graphviz version 2.30.1 (20130219.2202)
 -->
<!-- Title: Net.Protocols.HELD.HELD_ID.HELD_ID_Device Pages: 1 -->
<svg width="152pt" height="500pt"
 viewBox="0.00 0.00 152.00 500.00" xmlns="http://www.w3.org/2000/svg" xmlns:xlink="http://www.w3.org/1999/xlink">
<g id="graph0" class="graph" transform="scale(1 1) rotate(0) translate(4 496)">
<title>Net.Protocols.HELD.HELD_ID.HELD_ID_Device</title>
<!-- Node1 -->
<g id="node1" class="node"><title>Node1</title>
<polygon fill="#bfbfbf" stroke="black" points="8,-0.5 8,-79.5 136,-79.5 136,-0.5 8,-0.5"/>
<text text-anchor="start" x="16" y="-67.5" font-family="Helvetica,sans-Serif" font-size="10.00">Net.Protocols.HELD.HELD</text>
<text text-anchor="middle" x="72" y="-56.5" font-family="Helvetica,sans-Serif" font-size="10.00">_ID.HELD_ID_Device</text>
<polyline fill="none" stroke="black" points="8,-49.5 136,-49.5 "/>
<text text-anchor="start" x="16" y="-37.5" font-family="Helvetica,sans-Serif" font-size="10.00">+ type</text>
<text text-anchor="start" x="16" y="-26.5" font-family="Helvetica,sans-Serif" font-size="10.00">+ value</text>
<polyline fill="none" stroke="black" points="8,-19.5 136,-19.5 "/>
<text text-anchor="start" x="16" y="-7.5" font-family="Helvetica,sans-Serif" font-size="10.00">+ __init__()</text>
</g>
<!-- Node2 -->
<g id="node2" class="node"><title>Node2</title>
<g id="a_node2"><a xlink:href="class_net_1_1_protocols_1_1_h_e_l_d_1_1_h_e_l_d___i_d_1_1_h_e_l_d___i_d___request.html" target="_top" xlink:title="{Net.Protocols.HELD.HELD\l_ID.HELD_ID_Request\n||}">
<polygon fill="none" stroke="black" points="8,-117 8,-185 136,-185 136,-117 8,-117"/>
<text text-anchor="start" x="16" y="-173" font-family="Helvetica,sans-Serif" font-size="10.00">Net.Protocols.HELD.HELD</text>
<text text-anchor="middle" x="72" y="-162" font-family="Helvetica,sans-Serif" font-size="10.00">_ID.HELD_ID_Request</text>
<polyline fill="none" stroke="black" points="8,-155 136,-155 "/>
<text text-anchor="middle" x="72" y="-143" font-family="Helvetica,sans-Serif" font-size="10.00"> </text>
<polyline fill="none" stroke="black" points="8,-136 136,-136 "/>
<text text-anchor="middle" x="72" y="-124" font-family="Helvetica,sans-Serif" font-size="10.00"> </text>
</a>
</g>
</g>
<!-- Node2&#45;&gt;Node1 -->
<g id="edge1" class="edge"><title>Node2&#45;&gt;Node1</title>
<path fill="none" stroke="midnightblue" d="M72,-106.575C72,-97.7367 72,-88.4932 72,-79.8274"/>
<polygon fill="none" stroke="midnightblue" points="68.5001,-106.704 72,-116.704 75.5001,-106.704 68.5001,-106.704"/>
</g>
<!-- Node3 -->
<g id="node3" class="node"><title>Node3</title>
<g id="a_node3"><a xlink:href="class_net_1_1_protocols_1_1base_1_1_cucumber_1_1_request.html" target="_top" xlink:title="A cucumber (python object) created for processing a request, typically made by a client.">
<polygon fill="none" stroke="black" points="0,-223 0,-291 144,-291 144,-223 0,-223"/>
<text text-anchor="start" x="8" y="-279" font-family="Helvetica,sans-Serif" font-size="10.00">Net.Protocols.base.Cucumber.</text>
<text text-anchor="middle" x="72" y="-268" font-family="Helvetica,sans-Serif" font-size="10.00">Request</text>
<polyline fill="none" stroke="black" points="0,-261 144,-261 "/>
<text text-anchor="middle" x="72" y="-249" font-family="Helvetica,sans-Serif" font-size="10.00"> </text>
<polyline fill="none" stroke="black" points="0,-242 144,-242 "/>
<text text-anchor="middle" x="72" y="-230" font-family="Helvetica,sans-Serif" font-size="10.00"> </text>
</a>
</g>
</g>
<!-- Node3&#45;&gt;Node2 -->
<g id="edge2" class="edge"><title>Node3&#45;&gt;Node2</title>
<path fill="none" stroke="midnightblue" d="M72,-212.674C72,-203.502 72,-193.961 72,-185.234"/>
<polygon fill="none" stroke="midnightblue" points="68.5001,-212.808 72,-222.808 75.5001,-212.808 68.5001,-212.808"/>
</g>
<!-- Node4 -->
<g id="node4" class="node"><title>Node4</title>
<g id="a_node4"><a xlink:href="class_net_1_1_protocols_1_1base_1_1_cucumber_1_1_cucumber.html" target="_top" xlink:title="{Net.Protocols.base.Cucumber.\lCucumber\n||}">
<polygon fill="none" stroke="black" points="0,-329 0,-397 144,-397 144,-329 0,-329"/>
<text text-anchor="start" x="8" y="-385" font-family="Helvetica,sans-Serif" font-size="10.00">Net.Protocols.base.Cucumber.</text>
<text text-anchor="middle" x="72" y="-374" font-family="Helvetica,sans-Serif" font-size="10.00">Cucumber</text>
<polyline fill="none" stroke="black" points="0,-367 144,-367 "/>
<text text-anchor="middle" x="72" y="-355" font-family="Helvetica,sans-Serif" font-size="10.00"> </text>
<polyline fill="none" stroke="black" points="0,-348 144,-348 "/>
<text text-anchor="middle" x="72" y="-336" font-family="Helvetica,sans-Serif" font-size="10.00"> </text>
</a>
</g>
</g>
<!-- Node4&#45;&gt;Node3 -->
<g id="edge3" class="edge"><title>Node4&#45;&gt;Node3</title>
<path fill="none" stroke="midnightblue" d="M72,-318.674C72,-309.502 72,-299.961 72,-291.234"/>
<polygon fill="none" stroke="midnightblue" points="68.5001,-318.808 72,-328.808 75.5001,-318.808 68.5001,-318.808"/>
</g>
<!-- Node5 -->
<g id="node5" class="node"><title>Node5</title>
<g id="a_node5"><a xlink:href="classobject.html" target="_top" xlink:title="{object\n||}">
<polygon fill="none" stroke="black" points="51,-434.5 51,-491.5 93,-491.5 93,-434.5 51,-434.5"/>
<text text-anchor="middle" x="72" y="-479.5" font-family="Helvetica,sans-Serif" font-size="10.00">object</text>
<polyline fill="none" stroke="black" points="51,-472.5 93,-472.5 "/>
<text text-anchor="middle" x="72" y="-460.5" font-family="Helvetica,sans-Serif" font-size="10.00"> </text>
<polyline fill="none" stroke="black" points="51,-453.5 93,-453.5 "/>
<text text-anchor="middle" x="72" y="-441.5" font-family="Helvetica,sans-Serif" font-size="10.00"> </text>
</a>
</g>
</g>
<!-- Node5&#45;&gt;Node4 -->
<g id="edge4" class="edge"><title>Node5&#45;&gt;Node4</title>
<path fill="none" stroke="midnightblue" d="M72,-424.302C72,-415.395 72,-405.961 72,-397.266"/>
<polygon fill="none" stroke="midnightblue" points="68.5001,-424.441 72,-434.441 75.5001,-424.441 68.5001,-424.441"/>
</g>
</g>
</svg>
