<?xml version="1.0" encoding="UTF-8" standalone="no"?>
<!DOCTYPE svg PUBLIC "-//W3C//DTD SVG 1.1//EN"
 "http://www.w3.org/Graphics/SVG/1.1/DTD/svg11.dtd">
<!-- Generated by graphviz version 2.30.1 (20130219.2202)
 -->
<!-- Title: Descriptor_Server Pages: 1 -->
<svg width="150pt" height="194pt"
 viewBox="0.00 0.00 150.00 194.00" xmlns="http://www.w3.org/2000/svg" xmlns:xlink="http://www.w3.org/1999/xlink">
<g id="graph0" class="graph" transform="scale(1 1) rotate(0) translate(4 190)">
<title>Descriptor_Server</title>
<!-- Node1 -->
<g id="node1" class="node"><title>Node1</title>
<polygon fill="#bfbfbf" stroke="black" points="25.5,-128.5 25.5,-185.5 116.5,-185.5 116.5,-128.5 25.5,-128.5"/>
<text text-anchor="middle" x="71" y="-173.5" font-family="Helvetica,sans-Serif" font-size="10.00">Descriptor_Server</text>
<polyline fill="none" stroke="black" points="25.5,-166.5 116.5,-166.5 "/>
<text text-anchor="middle" x="71" y="-154.5" font-family="Helvetica,sans-Serif" font-size="10.00"> </text>
<polyline fill="none" stroke="black" points="25.5,-147.5 116.5,-147.5 "/>
<text text-anchor="middle" x="71" y="-135.5" font-family="Helvetica,sans-Serif" font-size="10.00"> </text>
</g>
<!-- Node2 -->
<g id="node2" class="node"><title>Node2</title>
<g id="a_node2"><a xlink:href="class_net_1_1_protocols_1_1_h_t_t_p_1_1_h_t_t_p___descriptor___response.html" target="_top" xlink:title="{Net.Protocols.HTTP.HTTP\l_Descriptor_Response\n||+ pickle_validateCucumbers()\l+ pickle()\l+ unpickle()\l}">
<polygon fill="none" stroke="black" points="0,-1 0,-91 142,-91 142,-1 0,-1"/>
<text text-anchor="start" x="8" y="-79" font-family="Helvetica,sans-Serif" font-size="10.00">Net.Protocols.HTTP.HTTP</text>
<text text-anchor="middle" x="71" y="-68" font-family="Helvetica,sans-Serif" font-size="10.00">_Descriptor_Response</text>
<polyline fill="none" stroke="black" points="0,-61 142,-61 "/>
<text text-anchor="middle" x="71" y="-49" font-family="Helvetica,sans-Serif" font-size="10.00"> </text>
<polyline fill="none" stroke="black" points="0,-42 142,-42 "/>
<text text-anchor="start" x="8" y="-30" font-family="Helvetica,sans-Serif" font-size="10.00">+ pickle_validateCucumbers()</text>
<text text-anchor="start" x="8" y="-19" font-family="Helvetica,sans-Serif" font-size="10.00">+ pickle()</text>
<text text-anchor="start" x="8" y="-8" font-family="Helvetica,sans-Serif" font-size="10.00">+ unpickle()</text>
</a>
</g>
</g>
<!-- Node1&#45;&gt;Node2 -->
<g id="edge1" class="edge"><title>Node1&#45;&gt;Node2</title>
<path fill="none" stroke="midnightblue" d="M71,-118.484C71,-109.643 71,-100.139 71,-91.0399"/>
<polygon fill="none" stroke="midnightblue" points="67.5001,-118.495 71,-128.495 74.5001,-118.495 67.5001,-118.495"/>
</g>
</g>
</svg>
