<?xml version="1.0" encoding="UTF-8" standalone="no"?>
<!DOCTYPE svg PUBLIC "-//W3C//DTD SVG 1.1//EN"
 "http://www.w3.org/Graphics/SVG/1.1/DTD/svg11.dtd">
<!-- Generated by graphviz version 2.30.1 (20130219.2202)
 -->
<!-- Title: Net.Protocols.HELD.HELD.HELD_Descriptor_Server.unpickle_XML Pages: 1 -->
<svg width="370pt" height="170pt"
 viewBox="0.00 0.00 370.00 170.00" xmlns="http://www.w3.org/2000/svg" xmlns:xlink="http://www.w3.org/1999/xlink">
<g id="graph0" class="graph" transform="scale(1 1) rotate(0) translate(4 166)">
<title>Net.Protocols.HELD.HELD.HELD_Descriptor_Server.unpickle_XML</title>
<!-- Node1 -->
<g id="node1" class="node"><title>Node1</title>
<polygon fill="#bfbfbf" stroke="black" points="0.5,-66 0.5,-96 183.5,-96 183.5,-66 0.5,-66"/>
<text text-anchor="start" x="8.5" y="-84" font-family="Helvetica,sans-Serif" font-size="10.00">Net.Protocols.HELD.HELD.</text>
<text text-anchor="middle" x="92" y="-73" font-family="Helvetica,sans-Serif" font-size="10.00">HELD_Descriptor_Server.unpickle_XML</text>
</g>
<!-- Node2 -->
<g id="node2" class="node"><title>Node2</title>
<g id="a_node2"><a xlink:href="class_net_1_1_protocols_1_1_h_e_l_d_1_1_h_e_l_d_1_1_h_e_l_d___descriptor___server.html#a1aa73eaa27be5bdf03f33a0c88b39d3b" target="_top" xlink:title="Net.Protocols.HELD.HELD.\lHELD_Descriptor_Server.\l_unpickle_locReqElem">
<polygon fill="none" stroke="black" points="225.5,-120.5 225.5,-161.5 356.5,-161.5 356.5,-120.5 225.5,-120.5"/>
<text text-anchor="start" x="233.5" y="-149.5" font-family="Helvetica,sans-Serif" font-size="10.00">Net.Protocols.HELD.HELD.</text>
<text text-anchor="start" x="233.5" y="-138.5" font-family="Helvetica,sans-Serif" font-size="10.00">HELD_Descriptor_Server.</text>
<text text-anchor="middle" x="291" y="-127.5" font-family="Helvetica,sans-Serif" font-size="10.00">_unpickle_locReqElem</text>
</a>
</g>
</g>
<!-- Node1&#45;&gt;Node2 -->
<g id="edge1" class="edge"><title>Node1&#45;&gt;Node2</title>
<path fill="none" stroke="midnightblue" d="M142.457,-96.0631C164.593,-102.805 191.166,-110.898 215.624,-118.347"/>
<polygon fill="midnightblue" stroke="midnightblue" points="214.651,-121.71 225.237,-121.275 216.691,-115.013 214.651,-121.71"/>
</g>
<!-- Node3 -->
<g id="node3" class="node"><title>Node3</title>
<g id="a_node3"><a xlink:href="class_net_1_1_protocols_1_1_h_e_l_d_1_1_h_e_l_d_1_1_h_e_l_d___descriptor___server.html#a45292704e0da22cb85a52185831988ec" target="_top" xlink:title="Parse locationType codes from a string.">
<polygon fill="none" stroke="black" points="225.5,-60.5 225.5,-101.5 356.5,-101.5 356.5,-60.5 225.5,-60.5"/>
<text text-anchor="start" x="233.5" y="-89.5" font-family="Helvetica,sans-Serif" font-size="10.00">Net.Protocols.HELD.HELD.</text>
<text text-anchor="start" x="233.5" y="-78.5" font-family="Helvetica,sans-Serif" font-size="10.00">HELD_Descriptor_Server.</text>
<text text-anchor="middle" x="291" y="-67.5" font-family="Helvetica,sans-Serif" font-size="10.00">_unpickle_locTypes_asList</text>
</a>
</g>
</g>
<!-- Node1&#45;&gt;Node3 -->
<g id="edge2" class="edge"><title>Node1&#45;&gt;Node3</title>
<path fill="none" stroke="midnightblue" d="M183.716,-81C194.243,-81 204.89,-81 215.171,-81"/>
<polygon fill="midnightblue" stroke="midnightblue" points="215.312,-84.5001 225.312,-81 215.312,-77.5001 215.312,-84.5001"/>
</g>
<!-- Node4 -->
<g id="node4" class="node"><title>Node4</title>
<g id="a_node4"><a xlink:href="class_net_1_1_protocols_1_1_h_e_l_d_1_1_h_e_l_d_1_1_h_e_l_d___descriptor___server.html#abbd6dcd38dfc8ca255a4f30bba97ebc4" target="_top" xlink:title="Returns a new XML document to pass on to HELD_ID.">
<polygon fill="none" stroke="black" points="220.5,-0.5 220.5,-41.5 361.5,-41.5 361.5,-0.5 220.5,-0.5"/>
<text text-anchor="start" x="228.5" y="-29.5" font-family="Helvetica,sans-Serif" font-size="10.00">Net.Protocols.HELD.HELD.</text>
<text text-anchor="start" x="228.5" y="-18.5" font-family="Helvetica,sans-Serif" font-size="10.00">HELD_Descriptor_Server.</text>
<text text-anchor="middle" x="291" y="-7.5" font-family="Helvetica,sans-Serif" font-size="10.00">_unpickle_innerLocReqNodes</text>
</a>
</g>
</g>
<!-- Node1&#45;&gt;Node4 -->
<g id="edge3" class="edge"><title>Node1&#45;&gt;Node4</title>
<path fill="none" stroke="midnightblue" d="M142.457,-65.9369C163.794,-59.4384 189.253,-51.6844 212.967,-44.4618"/>
<polygon fill="midnightblue" stroke="midnightblue" points="214.108,-47.7732 222.654,-41.5114 212.068,-41.0769 214.108,-47.7732"/>
</g>
</g>
</svg>
