<?xml version="1.0" encoding="UTF-8" standalone="no"?>
<!DOCTYPE svg PUBLIC "-//W3C//DTD SVG 1.1//EN"
 "http://www.w3.org/Graphics/SVG/1.1/DTD/svg11.dtd">
<!-- Generated by graphviz version 2.30.1 (20130219.2202)
 -->
<!-- Title: Net.Protocols.PIDF_LO.PIDF_LO Pages: 1 -->
<svg width="215pt" height="278pt"
 viewBox="0.00 0.00 215.00 278.00" xmlns="http://www.w3.org/2000/svg" xmlns:xlink="http://www.w3.org/1999/xlink">
<g id="graph0" class="graph" transform="scale(1 1) rotate(0) translate(4 274)">
<title>Net.Protocols.PIDF_LO.PIDF_LO</title>
<!-- Node1 -->
<g id="node1" class="node"><title>Node1</title>
<polygon fill="#bfbfbf" stroke="black" points="55.5,-107 55.5,-175 150.5,-175 150.5,-107 55.5,-107"/>
<text text-anchor="start" x="63.5" y="-163" font-family="Helvetica,sans-Serif" font-size="10.00">Net.Protocols.PIDF</text>
<text text-anchor="middle" x="103" y="-152" font-family="Helvetica,sans-Serif" font-size="10.00">_LO.PIDF_LO</text>
<polyline fill="none" stroke="black" points="55.5,-145 150.5,-145 "/>
<text text-anchor="middle" x="103" y="-133" font-family="Helvetica,sans-Serif" font-size="10.00"> </text>
<polyline fill="none" stroke="black" points="55.5,-126 150.5,-126 "/>
<text text-anchor="start" x="63.5" y="-114" font-family="Helvetica,sans-Serif" font-size="10.00">+ __init__()</text>
</g>
<!-- Node3 -->
<g id="node3" class="node"><title>Node3</title>
<g id="a_node3"><a xlink:href="class_net_1_1_protocols_1_1_p_i_d_f___l_o_1_1_civic.html" target="_top" xlink:title="{Net.Protocols.PIDF\l_LO.Civic\n||+ __init__()\l}">
<polygon fill="none" stroke="black" points="-0.5,-1 -0.5,-69 94.5,-69 94.5,-1 -0.5,-1"/>
<text text-anchor="start" x="7.5" y="-57" font-family="Helvetica,sans-Serif" font-size="10.00">Net.Protocols.PIDF</text>
<text text-anchor="middle" x="47" y="-46" font-family="Helvetica,sans-Serif" font-size="10.00">_LO.Civic</text>
<polyline fill="none" stroke="black" points="-0.5,-39 94.5,-39 "/>
<text text-anchor="middle" x="47" y="-27" font-family="Helvetica,sans-Serif" font-size="10.00"> </text>
<polyline fill="none" stroke="black" points="-0.5,-20 94.5,-20 "/>
<text text-anchor="start" x="7.5" y="-8" font-family="Helvetica,sans-Serif" font-size="10.00">+ __init__()</text>
</a>
</g>
</g>
<!-- Node1&#45;&gt;Node3 -->
<g id="edge2" class="edge"><title>Node1&#45;&gt;Node3</title>
<path fill="none" stroke="midnightblue" d="M80.3065,-97.855C75.1749,-88.3248 69.7964,-78.3361 64.895,-69.2336"/>
<polygon fill="none" stroke="midnightblue" points="77.3046,-99.6625 85.1273,-106.808 83.4679,-96.3437 77.3046,-99.6625"/>
</g>
<!-- Node4 -->
<g id="node4" class="node"><title>Node4</title>
<g id="a_node4"><a xlink:href="class_net_1_1_protocols_1_1_p_i_d_f___l_o_1_1_geodetic.html" target="_top" xlink:title="{Net.Protocols.PIDF\l_LO.Geodetic\n||+ __init__()\l}">
<polygon fill="none" stroke="black" points="112.5,-1 112.5,-69 207.5,-69 207.5,-1 112.5,-1"/>
<text text-anchor="start" x="120.5" y="-57" font-family="Helvetica,sans-Serif" font-size="10.00">Net.Protocols.PIDF</text>
<text text-anchor="middle" x="160" y="-46" font-family="Helvetica,sans-Serif" font-size="10.00">_LO.Geodetic</text>
<polyline fill="none" stroke="black" points="112.5,-39 207.5,-39 "/>
<text text-anchor="middle" x="160" y="-27" font-family="Helvetica,sans-Serif" font-size="10.00"> </text>
<polyline fill="none" stroke="black" points="112.5,-20 207.5,-20 "/>
<text text-anchor="start" x="120.5" y="-8" font-family="Helvetica,sans-Serif" font-size="10.00">+ __init__()</text>
</a>
</g>
</g>
<!-- Node1&#45;&gt;Node4 -->
<g id="edge3" class="edge"><title>Node1&#45;&gt;Node4</title>
<path fill="none" stroke="midnightblue" d="M126.099,-97.855C131.322,-88.3248 136.797,-78.3361 141.785,-69.2336"/>
<polygon fill="none" stroke="midnightblue" points="122.929,-96.3563 121.192,-106.808 129.067,-99.7207 122.929,-96.3563"/>
</g>
<!-- Node2 -->
<g id="node2" class="node"><title>Node2</title>
<polygon fill="none" stroke="#bfbfbf" points="73.5,-212.5 73.5,-269.5 132.5,-269.5 132.5,-212.5 73.5,-212.5"/>
<text text-anchor="middle" x="103" y="-257.5" font-family="Helvetica,sans-Serif" font-size="10.00">Descriptor</text>
<polyline fill="none" stroke="#bfbfbf" points="73.5,-250.5 132.5,-250.5 "/>
<text text-anchor="middle" x="103" y="-238.5" font-family="Helvetica,sans-Serif" font-size="10.00"> </text>
<polyline fill="none" stroke="#bfbfbf" points="73.5,-231.5 132.5,-231.5 "/>
<text text-anchor="middle" x="103" y="-219.5" font-family="Helvetica,sans-Serif" font-size="10.00"> </text>
</g>
<!-- Node2&#45;&gt;Node1 -->
<g id="edge1" class="edge"><title>Node2&#45;&gt;Node1</title>
<path fill="none" stroke="midnightblue" d="M103,-202.302C103,-193.395 103,-183.961 103,-175.266"/>
<polygon fill="none" stroke="midnightblue" points="99.5001,-202.441 103,-212.441 106.5,-202.441 99.5001,-202.441"/>
</g>
</g>
</svg>
