<?xml version="1.0" encoding="UTF-8" standalone="no"?>
<!DOCTYPE svg PUBLIC "-//W3C//DTD SVG 1.1//EN"
 "http://www.w3.org/Graphics/SVG/1.1/DTD/svg11.dtd">
<!-- Generated by graphviz version 2.30.1 (20130219.2202)
 -->
<!-- Title: Net.Protocols.HELD.HELD_ID.XML_MAC Pages: 1 -->
<svg width="152pt" height="490pt"
 viewBox="0.00 0.00 152.00 490.00" xmlns="http://www.w3.org/2000/svg" xmlns:xlink="http://www.w3.org/1999/xlink">
<g id="graph0" class="graph" transform="scale(1 1) rotate(0) translate(4 486)">
<title>Net.Protocols.HELD.HELD_ID.XML_MAC</title>
<!-- Node1 -->
<g id="node1" class="node"><title>Node1</title>
<polygon fill="#bfbfbf" stroke="black" points="8,-1 8,-69 136,-69 136,-1 8,-1"/>
<text text-anchor="start" x="16" y="-57" font-family="Helvetica,sans-Serif" font-size="10.00">Net.Protocols.HELD.HELD</text>
<text text-anchor="middle" x="72" y="-46" font-family="Helvetica,sans-Serif" font-size="10.00">_ID.XML_MAC</text>
<polyline fill="none" stroke="black" points="8,-39 136,-39 "/>
<text text-anchor="start" x="16" y="-27" font-family="Helvetica,sans-Serif" font-size="10.00">+ MAC</text>
<polyline fill="none" stroke="black" points="8,-20 136,-20 "/>
<text text-anchor="start" x="16" y="-8" font-family="Helvetica,sans-Serif" font-size="10.00">+ __init__()</text>
</g>
<!-- Node2 -->
<g id="node2" class="node"><title>Node2</title>
<g id="a_node2"><a xlink:href="class_net_1_1_protocols_1_1_h_e_l_d_1_1_h_e_l_d___i_d_1_1_h_e_l_d___i_d___request.html" target="_top" xlink:title="{Net.Protocols.HELD.HELD\l_ID.HELD_ID_Request\n||}">
<polygon fill="none" stroke="black" points="8,-107 8,-175 136,-175 136,-107 8,-107"/>
<text text-anchor="start" x="16" y="-163" font-family="Helvetica,sans-Serif" font-size="10.00">Net.Protocols.HELD.HELD</text>
<text text-anchor="middle" x="72" y="-152" font-family="Helvetica,sans-Serif" font-size="10.00">_ID.HELD_ID_Request</text>
<polyline fill="none" stroke="black" points="8,-145 136,-145 "/>
<text text-anchor="middle" x="72" y="-133" font-family="Helvetica,sans-Serif" font-size="10.00"> </text>
<polyline fill="none" stroke="black" points="8,-126 136,-126 "/>
<text text-anchor="middle" x="72" y="-114" font-family="Helvetica,sans-Serif" font-size="10.00"> </text>
</a>
</g>
</g>
<!-- Node2&#45;&gt;Node1 -->
<g id="edge1" class="edge"><title>Node2&#45;&gt;Node1</title>
<path fill="none" stroke="midnightblue" d="M72,-96.6737C72,-87.5025 72,-77.9608 72,-69.2336"/>
<polygon fill="none" stroke="midnightblue" points="68.5001,-96.8078 72,-106.808 75.5001,-96.8078 68.5001,-96.8078"/>
</g>
<!-- Node3 -->
<g id="node3" class="node"><title>Node3</title>
<g id="a_node3"><a xlink:href="class_net_1_1_protocols_1_1base_1_1_cucumber_1_1_request.html" target="_top" xlink:title="A cucumber (python object) created for processing a request, typically made by a client.">
<polygon fill="none" stroke="black" points="0,-213 0,-281 144,-281 144,-213 0,-213"/>
<text text-anchor="start" x="8" y="-269" font-family="Helvetica,sans-Serif" font-size="10.00">Net.Protocols.base.Cucumber.</text>
<text text-anchor="middle" x="72" y="-258" font-family="Helvetica,sans-Serif" font-size="10.00">Request</text>
<polyline fill="none" stroke="black" points="0,-251 144,-251 "/>
<text text-anchor="middle" x="72" y="-239" font-family="Helvetica,sans-Serif" font-size="10.00"> </text>
<polyline fill="none" stroke="black" points="0,-232 144,-232 "/>
<text text-anchor="middle" x="72" y="-220" font-family="Helvetica,sans-Serif" font-size="10.00"> </text>
</a>
</g>
</g>
<!-- Node3&#45;&gt;Node2 -->
<g id="edge2" class="edge"><title>Node3&#45;&gt;Node2</title>
<path fill="none" stroke="midnightblue" d="M72,-202.674C72,-193.502 72,-183.961 72,-175.234"/>
<polygon fill="none" stroke="midnightblue" points="68.5001,-202.808 72,-212.808 75.5001,-202.808 68.5001,-202.808"/>
</g>
<!-- Node4 -->
<g id="node4" class="node"><title>Node4</title>
<g id="a_node4"><a xlink:href="class_net_1_1_protocols_1_1base_1_1_cucumber_1_1_cucumber.html" target="_top" xlink:title="{Net.Protocols.base.Cucumber.\lCucumber\n||}">
<polygon fill="none" stroke="black" points="0,-319 0,-387 144,-387 144,-319 0,-319"/>
<text text-anchor="start" x="8" y="-375" font-family="Helvetica,sans-Serif" font-size="10.00">Net.Protocols.base.Cucumber.</text>
<text text-anchor="middle" x="72" y="-364" font-family="Helvetica,sans-Serif" font-size="10.00">Cucumber</text>
<polyline fill="none" stroke="black" points="0,-357 144,-357 "/>
<text text-anchor="middle" x="72" y="-345" font-family="Helvetica,sans-Serif" font-size="10.00"> </text>
<polyline fill="none" stroke="black" points="0,-338 144,-338 "/>
<text text-anchor="middle" x="72" y="-326" font-family="Helvetica,sans-Serif" font-size="10.00"> </text>
</a>
</g>
</g>
<!-- Node4&#45;&gt;Node3 -->
<g id="edge3" class="edge"><title>Node4&#45;&gt;Node3</title>
<path fill="none" stroke="midnightblue" d="M72,-308.674C72,-299.502 72,-289.961 72,-281.234"/>
<polygon fill="none" stroke="midnightblue" points="68.5001,-308.808 72,-318.808 75.5001,-308.808 68.5001,-308.808"/>
</g>
<!-- Node5 -->
<g id="node5" class="node"><title>Node5</title>
<g id="a_node5"><a xlink:href="classobject.html" target="_top" xlink:title="{object\n||}">
<polygon fill="none" stroke="black" points="51,-424.5 51,-481.5 93,-481.5 93,-424.5 51,-424.5"/>
<text text-anchor="middle" x="72" y="-469.5" font-family="Helvetica,sans-Serif" font-size="10.00">object</text>
<polyline fill="none" stroke="black" points="51,-462.5 93,-462.5 "/>
<text text-anchor="middle" x="72" y="-450.5" font-family="Helvetica,sans-Serif" font-size="10.00"> </text>
<polyline fill="none" stroke="black" points="51,-443.5 93,-443.5 "/>
<text text-anchor="middle" x="72" y="-431.5" font-family="Helvetica,sans-Serif" font-size="10.00"> </text>
</a>
</g>
</g>
<!-- Node5&#45;&gt;Node4 -->
<g id="edge4" class="edge"><title>Node5&#45;&gt;Node4</title>
<path fill="none" stroke="midnightblue" d="M72,-414.302C72,-405.395 72,-395.961 72,-387.266"/>
<polygon fill="none" stroke="midnightblue" points="68.5001,-414.441 72,-424.441 75.5001,-414.441 68.5001,-414.441"/>
</g>
</g>
</svg>
