<?xml version="1.0" encoding="UTF-8" standalone="no"?>
<!DOCTYPE svg PUBLIC "-//W3C//DTD SVG 1.1//EN"
 "http://www.w3.org/Graphics/SVG/1.1/DTD/svg11.dtd">
<!-- Generated by graphviz version 2.30.1 (20130219.2202)
 -->
<!-- Title: Net.Protocols.HELD.Cucumbers.Response Pages: 1 -->
<!--zoomable 606 -->
<svg id="main" version="1.1" xmlns="http://www.w3.org/2000/svg" xmlns:xlink="http://www.w3.org/1999/xlink" xml:space="preserve" onload="init(evt)">
        <defs>
                <circle id="rim" cx="0" cy="0" r="7"/>
                <circle id="rim2" cx="0" cy="0" r="3.5"/>
                <g id="zoomPlus">
                        <use xlink:href="#rim" fill="#404040">
                                <set attributeName="fill" to="#808080" begin="zoomplus.mouseover" end="zoomplus.mouseout"/>
                        </use>
                        <path d="M-4,0h8M0,-4v8" fill="none" stroke="white" stroke-width="1.5" pointer-events="none"/>
                </g>
                <g id="zoomMin">
                        <use xlink:href="#rim" fill="#404040">
                                <set attributeName="fill" to="#808080" begin="zoomminus.mouseover" end="zoomminus.mouseout"/>
                        </use>
                        <path d="M-4,0h8" fill="none" stroke="white" stroke-width="1.5" pointer-events="none"/>
                </g>
                <g id="dirArrow">
                        <path fill="none" stroke="white" stroke-width="1.5" d="M0,-3.0v7 M-2.5,-0.5L0,-3.0L2.5,-0.5"/>
                </g>
               <g id="resetDef">
                       <use xlink:href="#rim2" fill="#404040">
                               <set attributeName="fill" to="#808080" begin="reset.mouseover" end="reset.mouseout"/>
                       </use>
               </g>
        </defs>

<script type="text/javascript">
var viewWidth = 720;
var viewHeight = 606;
var sectionId = 'dynsection-0';
</script>
<script xlink:href="svgpan.js"/>
<svg id="graph" class="graph">
<g id="viewport">
<title>Net.Protocols.HELD.Cucumbers.Response</title>
<!-- Node1 -->
<g id="node1" class="node"><title>Node1</title>
<polygon fill="#bfbfbf" stroke="black" points="199.5,-223 199.5,-291 352.5,-291 352.5,-223 199.5,-223"/>
<text text-anchor="start" x="207.5" y="-279" font-family="Helvetica,sans-Serif" font-size="10.00">Net.Protocols.HELD.Cucumbers.</text>
<text text-anchor="middle" x="276" y="-268" font-family="Helvetica,sans-Serif" font-size="10.00">Response</text>
<polyline fill="none" stroke="black" points="199.5,-261 352.5,-261 "/>
<text text-anchor="middle" x="276" y="-249" font-family="Helvetica,sans-Serif" font-size="10.00"> </text>
<polyline fill="none" stroke="black" points="199.5,-242 352.5,-242 "/>
<text text-anchor="start" x="207.5" y="-230" font-family="Helvetica,sans-Serif" font-size="10.00">+ pickle_XML()</text>
</g>
<!-- Node7 -->
<g id="node7" class="node"><title>Node7</title>
<g id="a_node7"><a xlink:href="class_net_1_1_protocols_1_1_h_e_l_d_1_1_cucumbers_1_1_location_u_r_i__set.html" target="_top" xlink:title="{Net.Protocols.HELD.Cucumbers.\lLocationURI_set\n|+ expires\l|+ __init__()\l+ pickle_XML()\l}">
<polygon fill="none" stroke="black" points="120.5,-106.5 120.5,-185.5 273.5,-185.5 273.5,-106.5 120.5,-106.5"/>
<text text-anchor="start" x="128.5" y="-173.5" font-family="Helvetica,sans-Serif" font-size="10.00">Net.Protocols.HELD.Cucumbers.</text>
<text text-anchor="middle" x="197" y="-162.5" font-family="Helvetica,sans-Serif" font-size="10.00">LocationURI_set</text>
<polyline fill="none" stroke="black" points="120.5,-155.5 273.5,-155.5 "/>
<text text-anchor="start" x="128.5" y="-143.5" font-family="Helvetica,sans-Serif" font-size="10.00">+ expires</text>
<polyline fill="none" stroke="black" points="120.5,-136.5 273.5,-136.5 "/>
<text text-anchor="start" x="128.5" y="-124.5" font-family="Helvetica,sans-Serif" font-size="10.00">+ __init__()</text>
<text text-anchor="start" x="128.5" y="-113.5" font-family="Helvetica,sans-Serif" font-size="10.00">+ pickle_XML()</text>
</a>
</g>
</g>
<!-- Node1&#45;&gt;Node7 -->
<g id="edge6" class="edge"><title>Node1&#45;&gt;Node7</title>
<path fill="none" stroke="midnightblue" d="M245.983,-214.584C239.143,-205.147 231.9,-195.153 225.141,-185.827"/>
<polygon fill="none" stroke="midnightblue" points="243.166,-216.661 251.868,-222.704 248.834,-212.553 243.166,-216.661"/>
</g>
<!-- Node8 -->
<g id="node8" class="node"><title>Node8</title>
<g id="a_node8"><a xlink:href="class_net_1_1_protocols_1_1_h_e_l_d_1_1_errors_1_1_h_e_l_d___error___response.html" target="_top" xlink:title="{Net.Protocols.HELD.Errors.\lHELD_Error_Response\n||+ __init__()\l}">
<polygon fill="none" stroke="black" points="292,-112 292,-180 420,-180 420,-112 292,-112"/>
<text text-anchor="start" x="300" y="-168" font-family="Helvetica,sans-Serif" font-size="10.00">Net.Protocols.HELD.Errors.</text>
<text text-anchor="middle" x="356" y="-157" font-family="Helvetica,sans-Serif" font-size="10.00">HELD_Error_Response</text>
<polyline fill="none" stroke="black" points="292,-150 420,-150 "/>
<text text-anchor="middle" x="356" y="-138" font-family="Helvetica,sans-Serif" font-size="10.00"> </text>
<polyline fill="none" stroke="black" points="292,-131 420,-131 "/>
<text text-anchor="start" x="300" y="-119" font-family="Helvetica,sans-Serif" font-size="10.00">+ __init__()</text>
</a>
</g>
</g>
<!-- Node1&#45;&gt;Node8 -->
<g id="edge7" class="edge"><title>Node1&#45;&gt;Node8</title>
<path fill="none" stroke="midnightblue" d="M306.404,-214.575C314.773,-203.172 323.738,-190.957 331.712,-180.092"/>
<polygon fill="none" stroke="midnightblue" points="303.533,-212.572 300.437,-222.704 309.176,-216.713 303.533,-212.572"/>
</g>
<!-- Node2 -->
<g id="node2" class="node"><title>Node2</title>
<g id="a_node2"><a xlink:href="class_net_1_1_protocols_1_1_h_e_l_d_1_1_cucumbers_1_1_h_e_l_d___cucumber.html" target="_top" xlink:title="{Net.Protocols.HELD.Cucumbers.\lHELD_Cucumber\n||}">
<polygon fill="none" stroke="black" points="116.5,-329 116.5,-397 269.5,-397 269.5,-329 116.5,-329"/>
<text text-anchor="start" x="124.5" y="-385" font-family="Helvetica,sans-Serif" font-size="10.00">Net.Protocols.HELD.Cucumbers.</text>
<text text-anchor="middle" x="193" y="-374" font-family="Helvetica,sans-Serif" font-size="10.00">HELD_Cucumber</text>
<polyline fill="none" stroke="black" points="116.5,-367 269.5,-367 "/>
<text text-anchor="middle" x="193" y="-355" font-family="Helvetica,sans-Serif" font-size="10.00"> </text>
<polyline fill="none" stroke="black" points="116.5,-348 269.5,-348 "/>
<text text-anchor="middle" x="193" y="-336" font-family="Helvetica,sans-Serif" font-size="10.00"> </text>
</a>
</g>
</g>
<!-- Node2&#45;&gt;Node1 -->
<g id="edge1" class="edge"><title>Node2&#45;&gt;Node1</title>
<path fill="none" stroke="midnightblue" d="M225.93,-320.738C233.747,-310.943 241.988,-300.618 249.477,-291.234"/>
<polygon fill="none" stroke="midnightblue" points="222.992,-318.809 219.49,-328.808 228.463,-323.175 222.992,-318.809"/>
</g>
<!-- Node3 -->
<g id="node3" class="node"><title>Node3</title>
<g id="a_node3"><a xlink:href="classbase_1_1_cucumber.html" target="_top" xlink:title="{base::Cucumber\n||}">
<polygon fill="none" stroke="black" points="149.5,-440.5 149.5,-497.5 236.5,-497.5 236.5,-440.5 149.5,-440.5"/>
<text text-anchor="middle" x="193" y="-485.5" font-family="Helvetica,sans-Serif" font-size="10.00">base::Cucumber</text>
<polyline fill="none" stroke="black" points="149.5,-478.5 236.5,-478.5 "/>
<text text-anchor="middle" x="193" y="-466.5" font-family="Helvetica,sans-Serif" font-size="10.00"> </text>
<polyline fill="none" stroke="black" points="149.5,-459.5 236.5,-459.5 "/>
<text text-anchor="middle" x="193" y="-447.5" font-family="Helvetica,sans-Serif" font-size="10.00"> </text>
</a>
</g>
</g>
<!-- Node3&#45;&gt;Node2 -->
<g id="edge2" class="edge"><title>Node3&#45;&gt;Node2</title>
<path fill="none" stroke="midnightblue" d="M193,-430.372C193,-419.55 193,-407.828 193,-397.288"/>
<polygon fill="none" stroke="midnightblue" points="189.5,-430.403 193,-440.403 196.5,-430.403 189.5,-430.403"/>
</g>
<!-- Node4 -->
<g id="node4" class="node"><title>Node4</title>
<g id="a_node4"><a xlink:href="class_net_1_1_protocols_1_1base_1_1_cucumber_1_1_response.html" target="_top" xlink:title="A cucumber (python object) created for sending a response, typically made by the server.">
<polygon fill="none" stroke="black" points="288,-329 288,-397 432,-397 432,-329 288,-329"/>
<text text-anchor="start" x="296" y="-385" font-family="Helvetica,sans-Serif" font-size="10.00">Net.Protocols.base.Cucumber.</text>
<text text-anchor="middle" x="360" y="-374" font-family="Helvetica,sans-Serif" font-size="10.00">Response</text>
<polyline fill="none" stroke="black" points="288,-367 432,-367 "/>
<text text-anchor="middle" x="360" y="-355" font-family="Helvetica,sans-Serif" font-size="10.00"> </text>
<polyline fill="none" stroke="black" points="288,-348 432,-348 "/>
<text text-anchor="middle" x="360" y="-336" font-family="Helvetica,sans-Serif" font-size="10.00"> </text>
</a>
</g>
</g>
<!-- Node4&#45;&gt;Node1 -->
<g id="edge3" class="edge"><title>Node4&#45;&gt;Node1</title>
<path fill="none" stroke="midnightblue" d="M326.673,-320.738C318.762,-310.943 310.422,-300.618 302.842,-291.234"/>
<polygon fill="none" stroke="midnightblue" points="324.185,-323.228 333.191,-328.808 329.63,-318.829 324.185,-323.228"/>
</g>
<!-- Node5 -->
<g id="node5" class="node"><title>Node5</title>
<g id="a_node5"><a xlink:href="class_net_1_1_protocols_1_1base_1_1_cucumber_1_1_cucumber.html" target="_top" xlink:title="{Net.Protocols.base.Cucumber.\lCucumber\n||}">
<polygon fill="none" stroke="black" points="288,-435 288,-503 432,-503 432,-435 288,-435"/>
<text text-anchor="start" x="296" y="-491" font-family="Helvetica,sans-Serif" font-size="10.00">Net.Protocols.base.Cucumber.</text>
<text text-anchor="middle" x="360" y="-480" font-family="Helvetica,sans-Serif" font-size="10.00">Cucumber</text>
<polyline fill="none" stroke="black" points="288,-473 432,-473 "/>
<text text-anchor="middle" x="360" y="-461" font-family="Helvetica,sans-Serif" font-size="10.00"> </text>
<polyline fill="none" stroke="black" points="288,-454 432,-454 "/>
<text text-anchor="middle" x="360" y="-442" font-family="Helvetica,sans-Serif" font-size="10.00"> </text>
</a>
</g>
</g>
<!-- Node5&#45;&gt;Node4 -->
<g id="edge4" class="edge"><title>Node5&#45;&gt;Node4</title>
<path fill="none" stroke="midnightblue" d="M360,-424.674C360,-415.502 360,-405.961 360,-397.234"/>
<polygon fill="none" stroke="midnightblue" points="356.5,-424.808 360,-434.808 363.5,-424.808 356.5,-424.808"/>
</g>
<!-- Node6 -->
<g id="node6" class="node"><title>Node6</title>
<g id="a_node6"><a xlink:href="classobject.html" target="_top" xlink:title="{object\n||}">
<polygon fill="none" stroke="black" points="339,-540.5 339,-597.5 381,-597.5 381,-540.5 339,-540.5"/>
<text text-anchor="middle" x="360" y="-585.5" font-family="Helvetica,sans-Serif" font-size="10.00">object</text>
<polyline fill="none" stroke="black" points="339,-578.5 381,-578.5 "/>
<text text-anchor="middle" x="360" y="-566.5" font-family="Helvetica,sans-Serif" font-size="10.00"> </text>
<polyline fill="none" stroke="black" points="339,-559.5 381,-559.5 "/>
<text text-anchor="middle" x="360" y="-547.5" font-family="Helvetica,sans-Serif" font-size="10.00"> </text>
</a>
</g>
</g>
<!-- Node6&#45;&gt;Node5 -->
<g id="edge5" class="edge"><title>Node6&#45;&gt;Node5</title>
<path fill="none" stroke="midnightblue" d="M360,-530.302C360,-521.395 360,-511.961 360,-503.266"/>
<polygon fill="none" stroke="midnightblue" points="356.5,-530.441 360,-540.441 363.5,-530.441 356.5,-530.441"/>
</g>
<!-- Node9 -->
<g id="node9" class="node"><title>Node9</title>
<g id="a_node9"><a xlink:href="class_net_1_1_protocols_1_1_h_e_l_d_1_1_errors_1_1_cannot_provide_l_i_type.html" target="_top" xlink:title="Indicates that the LIS was unable to provide LI of the type or types requested.">
<polygon fill="none" stroke="black" points="0,-1 0,-69 128,-69 128,-1 0,-1"/>
<text text-anchor="start" x="8" y="-57" font-family="Helvetica,sans-Serif" font-size="10.00">Net.Protocols.HELD.Errors.</text>
<text text-anchor="middle" x="64" y="-46" font-family="Helvetica,sans-Serif" font-size="10.00">CannotProvideLIType</text>
<polyline fill="none" stroke="black" points="0,-39 128,-39 "/>
<text text-anchor="middle" x="64" y="-27" font-family="Helvetica,sans-Serif" font-size="10.00"> </text>
<polyline fill="none" stroke="black" points="0,-20 128,-20 "/>
<text text-anchor="start" x="8" y="-8" font-family="Helvetica,sans-Serif" font-size="10.00">+ __init__()</text>
</a>
</g>
</g>
<!-- Node8&#45;&gt;Node9 -->
<g id="edge8" class="edge"><title>Node8&#45;&gt;Node9</title>
<path fill="none" stroke="midnightblue" d="M286.782,-107.888C285.181,-107.235 283.586,-106.605 282,-106 219.954,-82.3482 199.608,-92.1198 137,-70 134.1,-68.9754 131.159,-67.8758 128.206,-66.7216"/>
<polygon fill="none" stroke="midnightblue" points="285.409,-111.108 295.978,-111.849 288.178,-104.679 285.409,-111.108"/>
</g>
<!-- Node10 -->
<g id="node10" class="node"><title>Node10</title>
<g id="a_node10"><a xlink:href="class_net_1_1_protocols_1_1_h_e_l_d_1_1_errors_1_1_general_l_i_s_error.html" target="_top" xlink:title="Indicates that an unspecified error occurred at the LIS.">
<polygon fill="none" stroke="black" points="146,-1 146,-69 274,-69 274,-1 146,-1"/>
<text text-anchor="start" x="154" y="-57" font-family="Helvetica,sans-Serif" font-size="10.00">Net.Protocols.HELD.Errors.</text>
<text text-anchor="middle" x="210" y="-46" font-family="Helvetica,sans-Serif" font-size="10.00">GeneralLISError</text>
<polyline fill="none" stroke="black" points="146,-39 274,-39 "/>
<text text-anchor="middle" x="210" y="-27" font-family="Helvetica,sans-Serif" font-size="10.00"> </text>
<polyline fill="none" stroke="black" points="146,-20 274,-20 "/>
<text text-anchor="start" x="154" y="-8" font-family="Helvetica,sans-Serif" font-size="10.00">+ __init__()</text>
</a>
</g>
</g>
<!-- Node8&#45;&gt;Node10 -->
<g id="edge9" class="edge"><title>Node8&#45;&gt;Node10</title>
<path fill="none" stroke="midnightblue" d="M303.171,-105.559C287.152,-93.5996 269.726,-80.59 254.325,-69.092"/>
<polygon fill="none" stroke="midnightblue" points="301.295,-108.526 311.402,-111.704 305.483,-102.917 301.295,-108.526"/>
</g>
<!-- Node11 -->
<g id="node11" class="node"><title>Node11</title>
<g id="a_node11"><a xlink:href="class_net_1_1_protocols_1_1_h_e_l_d_1_1_errors_1_1_location_unknown.html" target="_top" xlink:title="Indicates that the LIS could not determine the location of the device.">
<polygon fill="none" stroke="black" points="292,-1 292,-69 420,-69 420,-1 292,-1"/>
<text text-anchor="start" x="300" y="-57" font-family="Helvetica,sans-Serif" font-size="10.00">Net.Protocols.HELD.Errors.</text>
<text text-anchor="middle" x="356" y="-46" font-family="Helvetica,sans-Serif" font-size="10.00">LocationUnknown</text>
<polyline fill="none" stroke="black" points="292,-39 420,-39 "/>
<text text-anchor="middle" x="356" y="-27" font-family="Helvetica,sans-Serif" font-size="10.00"> </text>
<polyline fill="none" stroke="black" points="292,-20 420,-20 "/>
<text text-anchor="start" x="300" y="-8" font-family="Helvetica,sans-Serif" font-size="10.00">+ __init__()</text>
</a>
</g>
</g>
<!-- Node8&#45;&gt;Node11 -->
<g id="edge10" class="edge"><title>Node8&#45;&gt;Node11</title>
<path fill="none" stroke="midnightblue" d="M356,-101.575C356,-90.7534 356,-79.3242 356,-69.092"/>
<polygon fill="none" stroke="midnightblue" points="352.5,-101.704 356,-111.704 359.5,-101.704 352.5,-101.704"/>
</g>
<!-- Node12 -->
<g id="node12" class="node"><title>Node12</title>
<g id="a_node12"><a xlink:href="class_net_1_1_protocols_1_1_h_e_l_d_1_1_errors_1_1_not_locatable.html" target="_top" xlink:title="Indicates that the LIS is unable to locate the Device.">
<polygon fill="none" stroke="black" points="438,-1 438,-69 566,-69 566,-1 438,-1"/>
<text text-anchor="start" x="446" y="-57" font-family="Helvetica,sans-Serif" font-size="10.00">Net.Protocols.HELD.Errors.</text>
<text text-anchor="middle" x="502" y="-46" font-family="Helvetica,sans-Serif" font-size="10.00">NotLocatable</text>
<polyline fill="none" stroke="black" points="438,-39 566,-39 "/>
<text text-anchor="middle" x="502" y="-27" font-family="Helvetica,sans-Serif" font-size="10.00"> </text>
<polyline fill="none" stroke="black" points="438,-20 566,-20 "/>
<text text-anchor="start" x="446" y="-8" font-family="Helvetica,sans-Serif" font-size="10.00">+ __init__()</text>
</a>
</g>
</g>
<!-- Node8&#45;&gt;Node12 -->
<g id="edge11" class="edge"><title>Node8&#45;&gt;Node12</title>
<path fill="none" stroke="midnightblue" d="M408.829,-105.559C424.848,-93.5996 442.274,-80.59 457.675,-69.092"/>
<polygon fill="none" stroke="midnightblue" points="406.517,-102.917 400.598,-111.704 410.705,-108.526 406.517,-102.917"/>
</g>
<!-- Node13 -->
<g id="node13" class="node"><title>Node13</title>
<g id="a_node13"><a xlink:href="class_net_1_1_protocols_1_1_h_e_l_d_1_1_errors_1_1_timeout.html" target="_top" xlink:title="Indicates that the LIS could not satisfy the request within the time specified.">
<polygon fill="none" stroke="black" points="584,-1 584,-69 712,-69 712,-1 584,-1"/>
<text text-anchor="start" x="592" y="-57" font-family="Helvetica,sans-Serif" font-size="10.00">Net.Protocols.HELD.Errors.</text>
<text text-anchor="middle" x="648" y="-46" font-family="Helvetica,sans-Serif" font-size="10.00">Timeout</text>
<polyline fill="none" stroke="black" points="584,-39 712,-39 "/>
<text text-anchor="middle" x="648" y="-27" font-family="Helvetica,sans-Serif" font-size="10.00"> </text>
<polyline fill="none" stroke="black" points="584,-20 712,-20 "/>
<text text-anchor="start" x="592" y="-8" font-family="Helvetica,sans-Serif" font-size="10.00">+ __init__()</text>
</a>
</g>
</g>
<!-- Node8&#45;&gt;Node13 -->
<g id="edge12" class="edge"><title>Node8&#45;&gt;Node13</title>
<path fill="none" stroke="midnightblue" d="M430.151,-121.772C472.907,-107.842 527.447,-89.1542 575,-70 577.853,-68.8508 580.755,-67.6481 583.676,-66.4094"/>
<polygon fill="none" stroke="midnightblue" points="428.817,-118.525 420.383,-124.939 430.975,-125.184 428.817,-118.525"/>
</g>
</g>
</svg>
        <g id="navigator" transform="translate(0 0)" fill="#404254">
                <rect fill="#f2f5e9" fill-opacity="0.5" stroke="#606060" stroke-width=".5" x="0" y="0" width="60" height="60"/>
                <use id="zoomplus" xlink:href="#zoomPlus" x="17" y="9" onmousedown="handleZoom(evt,'in')"/>
                <use id="zoomminus" xlink:href="#zoomMin" x="42" y="9" onmousedown="handleZoom(evt,'out')"/>
                <use id="reset" xlink:href="#resetDef" x="30" y="36" onmousedown="handleReset()"/>
                <g id="arrowUp" xlink:href="#dirArrow" transform="translate(30 24)" onmousedown="handlePan(0,-1)">
                  <use xlink:href="#rim" fill="#404040">
                        <set attributeName="fill" to="#808080" begin="arrowUp.mouseover" end="arrowUp.mouseout"/>
                  </use>
                  <path fill="none" stroke="white" stroke-width="1.5" d="M0,-3.0v7 M-2.5,-0.5L0,-3.0L2.5,-0.5"/>
                </g>
                <g id="arrowRight" xlink:href="#dirArrow" transform="rotate(90) translate(36 -43)" onmousedown="handlePan(1,0)">
                  <use xlink:href="#rim" fill="#404040">
                        <set attributeName="fill" to="#808080" begin="arrowRight.mouseover" end="arrowRight.mouseout"/>
                  </use>
                  <path fill="none" stroke="white" stroke-width="1.5" d="M0,-3.0v7 M-2.5,-0.5L0,-3.0L2.5,-0.5"/>
                </g>
                <g id="arrowDown" xlink:href="#dirArrow" transform="rotate(180) translate(-30 -48)" onmousedown="handlePan(0,1)">
                  <use xlink:href="#rim" fill="#404040">
                        <set attributeName="fill" to="#808080" begin="arrowDown.mouseover" end="arrowDown.mouseout"/>
                  </use>
                  <path fill="none" stroke="white" stroke-width="1.5" d="M0,-3.0v7 M-2.5,-0.5L0,-3.0L2.5,-0.5"/>
                </g>
                <g id="arrowLeft" xlink:href="#dirArrow" transform="rotate(270) translate(-36 17)" onmousedown="handlePan(-1,0)">
                  <use xlink:href="#rim" fill="#404040">
                        <set attributeName="fill" to="#808080" begin="arrowLeft.mouseover" end="arrowLeft.mouseout"/>
                  </use>
                  <path fill="none" stroke="white" stroke-width="1.5" d="M0,-3.0v7 M-2.5,-0.5L0,-3.0L2.5,-0.5"/>
                </g>
        </g>
        <svg viewBox="0 0 15 15" width="100%" height="30px" preserveAspectRatio="xMaxYMin meet">
         <g id="arrow_out" transform="scale(0.3 0.3)">
          <a xlink:href="class_net_1_1_protocols_1_1_h_e_l_d_1_1_cucumbers_1_1_response__inherit__graph_org.svg" target="_base">
           <rect id="button" ry="5" rx="5" y="6" x="6" height="38" width="38"
                fill="#f2f5e9" fill-opacity="0.5" stroke="#606060" stroke-width="1.0"/>
           <path id="arrow"
             d="M 11.500037,31.436501 C 11.940474,20.09759 22.043105,11.32322 32.158766,21.979434 L 37.068811,17.246167 C 37.068811,17.246167 37.088388,32 37.088388,32 L 22.160133,31.978069 C 22.160133,31.978069 26.997745,27.140456 26.997745,27.140456 C 18.528582,18.264221 13.291696,25.230495 11.500037,31.436501 z"
             style="fill:#404040;"/>
          </a>
         </g>
        </svg>
</svg>
