<?xml version="1.0" encoding="UTF-8" standalone="no"?>
<!DOCTYPE svg PUBLIC "-//W3C//DTD SVG 1.1//EN"
 "http://www.w3.org/Graphics/SVG/1.1/DTD/svg11.dtd">
<!-- Generated by graphviz version 2.30.1 (20130219.2202)
 -->
<!-- Title: Graphical Class Hierarchy Pages: 1 -->
<svg width="560pt" height="252pt"
 viewBox="0.00 0.00 560.00 252.00" xmlns="http://www.w3.org/2000/svg" xmlns:xlink="http://www.w3.org/1999/xlink">
<g id="graph0" class="graph" transform="scale(1 1) rotate(0) translate(4 248)">
<title>Graphical Class Hierarchy</title>
<!-- Node1 -->
<g id="node1" class="node"><title>Node1</title>
<polygon fill="none" stroke="#bfbfbf" points="119,-219.5 119,-238.5 197,-238.5 197,-219.5 119,-219.5"/>
<text text-anchor="middle" x="158" y="-226.5" font-family="Helvetica,sans-Serif" font-size="10.00">DescriptorXML</text>
</g>
<!-- Node2 -->
<g id="node2" class="node"><title>Node2</title>
<g id="a_node2"><a xlink:href="class_net_1_1_protocols_1_1_h_e_l_d_1_1_h_e_l_d___i_d_1_1_h_e_l_d___i_d.html" target="_top" xlink:title="Implementation of the HELD ID protocol in python.">
<polygon fill="none" stroke="black" points="256,-214 256,-244 384,-244 384,-214 256,-214"/>
<text text-anchor="start" x="264" y="-232" font-family="Helvetica,sans-Serif" font-size="10.00">Net.Protocols.HELD.HELD</text>
<text text-anchor="middle" x="320" y="-221" font-family="Helvetica,sans-Serif" font-size="10.00">_ID.HELD_ID</text>
</a>
</g>
</g>
<!-- Node1&#45;&gt;Node2 -->
<g id="edge1" class="edge"><title>Node1&#45;&gt;Node2</title>
<path fill="none" stroke="midnightblue" d="M207.563,-229C222.82,-229 239.891,-229 255.999,-229"/>
<polygon fill="midnightblue" stroke="midnightblue" points="207.324,-225.5 197.324,-229 207.324,-232.5 207.324,-225.5"/>
</g>
<!-- Node3 -->
<g id="node3" class="node"><title>Node3</title>
<g id="a_node3"><a xlink:href="class_net_1_1_protocols_1_1_h_e_l_d_1_1_h_e_l_d___i_d_1_1_h_e_l_d___i_d___descriptor___server.html" target="_top" xlink:title="responseTime attribute described in the RFC is ignored.">
<polygon fill="none" stroke="black" points="422,-201.5 422,-242.5 550,-242.5 550,-201.5 422,-201.5"/>
<text text-anchor="start" x="430" y="-230.5" font-family="Helvetica,sans-Serif" font-size="10.00">Net.Protocols.HELD.HELD</text>
<text text-anchor="start" x="430" y="-219.5" font-family="Helvetica,sans-Serif" font-size="10.00">_ID.HELD_ID_Descriptor</text>
<text text-anchor="middle" x="486" y="-208.5" font-family="Helvetica,sans-Serif" font-size="10.00">_Server</text>
</a>
</g>
</g>
<!-- Node2&#45;&gt;Node3 -->
<g id="edge2" class="edge"><title>Node2&#45;&gt;Node3</title>
<path fill="none" stroke="midnightblue" d="M394.57,-225.86C403.645,-225.472 412.859,-225.079 421.762,-224.699"/>
<polygon fill="midnightblue" stroke="midnightblue" points="394.248,-222.37 384.407,-226.294 394.547,-229.364 394.248,-222.37"/>
</g>
<!-- Node4 -->
<g id="node4" class="node"><title>Node4</title>
<g id="a_node4"><a xlink:href="classprotocol_1_1_cucumber___interface___server.html" target="_top" xlink:title="Cucumber_Interface\l_Server">
<polygon fill="none" stroke="black" points="107.5,-126 107.5,-156 208.5,-156 208.5,-126 107.5,-126"/>
<text text-anchor="start" x="115.5" y="-144" font-family="Helvetica,sans-Serif" font-size="10.00">Cucumber_Interface</text>
<text text-anchor="middle" x="158" y="-133" font-family="Helvetica,sans-Serif" font-size="10.00">_Server</text>
</a>
</g>
</g>
<!-- Node5 -->
<g id="node5" class="node"><title>Node5</title>
<g id="a_node5"><a xlink:href="class_net_1_1_protocols_1_1_h_t_t_p_1_1_h_t_t_p___interface___server.html" target="_top" xlink:title="Net.Protocols.HTTP.HTTP\l_Interface_Server">
<polygon fill="none" stroke="black" points="258,-126 258,-156 382,-156 382,-126 258,-126"/>
<text text-anchor="start" x="266" y="-144" font-family="Helvetica,sans-Serif" font-size="10.00">Net.Protocols.HTTP.HTTP</text>
<text text-anchor="middle" x="320" y="-133" font-family="Helvetica,sans-Serif" font-size="10.00">_Interface_Server</text>
</a>
</g>
</g>
<!-- Node4&#45;&gt;Node5 -->
<g id="edge3" class="edge"><title>Node4&#45;&gt;Node5</title>
<path fill="none" stroke="midnightblue" d="M218.769,-141C231.493,-141 244.948,-141 257.728,-141"/>
<polygon fill="midnightblue" stroke="midnightblue" points="218.748,-137.5 208.748,-141 218.748,-144.5 218.748,-137.5"/>
</g>
<!-- Node6 -->
<g id="node6" class="node"><title>Node6</title>
<g id="a_node6"><a xlink:href="class_net_1_1_protocols_1_1_h_e_l_d_1_1_h_e_l_d_1_1_h_e_l_d___descriptor___server.html" target="_top" xlink:title="Implementation of the HELD protocol in python.">
<polygon fill="none" stroke="black" points="420.5,-145 420.5,-175 551.5,-175 551.5,-145 420.5,-145"/>
<text text-anchor="start" x="428.5" y="-163" font-family="Helvetica,sans-Serif" font-size="10.00">Net.Protocols.HELD.HELD.</text>
<text text-anchor="middle" x="486" y="-152" font-family="Helvetica,sans-Serif" font-size="10.00">HELD_Descriptor_Server</text>
</a>
</g>
</g>
<!-- Node5&#45;&gt;Node6 -->
<g id="edge4" class="edge"><title>Node5&#45;&gt;Node6</title>
<path fill="none" stroke="midnightblue" d="M392.133,-149.241C401.5,-150.326 411.06,-151.434 420.312,-152.506"/>
<polygon fill="midnightblue" stroke="midnightblue" points="392.404,-145.749 382.068,-148.075 391.598,-152.703 392.404,-145.749"/>
</g>
<!-- Node7 -->
<g id="node7" class="node"><title>Node7</title>
<g id="a_node7"><a xlink:href="class_net_1_1_protocols_1_1_h_t_t_p_1_1_h_t_t_p___error.html" target="_top" xlink:title="Net.Protocols.HTTP.HTTP\l_Error">
<polygon fill="none" stroke="black" points="424,-82 424,-112 548,-112 548,-82 424,-82"/>
<text text-anchor="start" x="432" y="-100" font-family="Helvetica,sans-Serif" font-size="10.00">Net.Protocols.HTTP.HTTP</text>
<text text-anchor="middle" x="486" y="-89" font-family="Helvetica,sans-Serif" font-size="10.00">_Error</text>
</a>
</g>
</g>
<!-- Node5&#45;&gt;Node7 -->
<g id="edge5" class="edge"><title>Node5&#45;&gt;Node7</title>
<path fill="none" stroke="midnightblue" d="M386.984,-123.297C400.91,-119.561 415.477,-115.653 428.993,-112.026"/>
<polygon fill="midnightblue" stroke="midnightblue" points="385.732,-120.009 376.981,-125.981 387.546,-126.77 385.732,-120.009"/>
</g>
<!-- Node8 -->
<g id="node8" class="node"><title>Node8</title>
<g id="a_node8"><a xlink:href="classprotocol_1_1_cucumber___response.html" target="_top" xlink:title="Cucumber_Response">
<polygon fill="none" stroke="black" points="265,-87.5 265,-106.5 375,-106.5 375,-87.5 265,-87.5"/>
<text text-anchor="middle" x="320" y="-94.5" font-family="Helvetica,sans-Serif" font-size="10.00">Cucumber_Response</text>
</a>
</g>
</g>
<!-- Node8&#45;&gt;Node7 -->
<g id="edge6" class="edge"><title>Node8&#45;&gt;Node7</title>
<path fill="none" stroke="midnightblue" d="M385.192,-97C397.901,-97 411.208,-97 423.813,-97"/>
<polygon fill="midnightblue" stroke="midnightblue" points="385.154,-93.5001 375.154,-97 385.154,-100.5 385.154,-93.5001"/>
</g>
<!-- Node9 -->
<g id="node9" class="node"><title>Node9</title>
<g id="a_node9"><a xlink:href="classprotocol_1_1_descriptor.html" target="_top" xlink:title="Descriptor">
<polygon fill="none" stroke="black" points="0.5,-65.5 0.5,-84.5 59.5,-84.5 59.5,-65.5 0.5,-65.5"/>
<text text-anchor="middle" x="30" y="-72.5" font-family="Helvetica,sans-Serif" font-size="10.00">Descriptor</text>
</a>
</g>
</g>
<!-- Node10 -->
<g id="node10" class="node"><title>Node10</title>
<g id="a_node10"><a xlink:href="class_net_1_1_protocols_1_1_h_t_t_p_1_1_h_t_t_p.html" target="_top" xlink:title="Follows HTTP 1.1 specification (RFC 2616).">
<polygon fill="none" stroke="black" points="96,-65.5 96,-84.5 220,-84.5 220,-65.5 96,-65.5"/>
<text text-anchor="middle" x="158" y="-72.5" font-family="Helvetica,sans-Serif" font-size="10.00">Net.Protocols.HTTP.HTTP</text>
</a>
</g>
</g>
<!-- Node9&#45;&gt;Node10 -->
<g id="edge7" class="edge"><title>Node9&#45;&gt;Node10</title>
<path fill="none" stroke="midnightblue" d="M69.6893,-75C77.9841,-75 86.9431,-75 95.8527,-75"/>
<polygon fill="midnightblue" stroke="midnightblue" points="69.5914,-71.5001 59.5914,-75 69.5913,-78.5001 69.5914,-71.5001"/>
</g>
<!-- Node11 -->
<g id="node11" class="node"><title>Node11</title>
<g id="a_node11"><a xlink:href="class_net_1_1_protocols_1_1_h_t_t_p_1_1_h_t_t_p___descriptor___response.html" target="_top" xlink:title="Net.Protocols.HTTP.HTTP\l_Descriptor_Response">
<polygon fill="none" stroke="black" points="258,-0 258,-30 382,-30 382,-0 258,-0"/>
<text text-anchor="start" x="266" y="-18" font-family="Helvetica,sans-Serif" font-size="10.00">Net.Protocols.HTTP.HTTP</text>
<text text-anchor="middle" x="320" y="-7" font-family="Helvetica,sans-Serif" font-size="10.00">_Descriptor_Response</text>
</a>
</g>
</g>
<!-- Node10&#45;&gt;Node11 -->
<g id="edge8" class="edge"><title>Node10&#45;&gt;Node11</title>
<path fill="none" stroke="midnightblue" d="M193.815,-61.9444C218.837,-52.561 252.635,-39.8868 278.806,-30.0728"/>
<polygon fill="midnightblue" stroke="midnightblue" points="192.487,-58.7044 184.352,-65.4928 194.945,-65.2587 192.487,-58.7044"/>
</g>
<!-- Node10&#45;&gt;Node5 -->
<g id="edge9" class="edge"><title>Node10&#45;&gt;Node5</title>
<path fill="none" stroke="midnightblue" d="M190.626,-88.5763C209.55,-96.6476 234.102,-107.028 256,-116 263.949,-119.257 272.487,-122.689 280.632,-125.932"/>
<polygon fill="midnightblue" stroke="midnightblue" points="191.858,-85.2966 181.287,-84.5857 189.107,-91.7335 191.858,-85.2966"/>
</g>
<!-- Node12 -->
<g id="node12" class="node"><title>Node12</title>
<g id="a_node12"><a xlink:href="classprotocol_1_1_descriptor___server.html" target="_top" xlink:title="Descriptor_Server">
<polygon fill="none" stroke="black" points="112.5,-5.5 112.5,-24.5 203.5,-24.5 203.5,-5.5 112.5,-5.5"/>
<text text-anchor="middle" x="158" y="-12.5" font-family="Helvetica,sans-Serif" font-size="10.00">Descriptor_Server</text>
</a>
</g>
</g>
<!-- Node12&#45;&gt;Node11 -->
<g id="edge10" class="edge"><title>Node12&#45;&gt;Node11</title>
<path fill="none" stroke="midnightblue" d="M213.7,-15C227.943,-15 243.38,-15 257.93,-15"/>
<polygon fill="midnightblue" stroke="midnightblue" points="213.569,-11.5001 203.569,-15 213.569,-18.5001 213.569,-11.5001"/>
</g>
<!-- Node13 -->
<g id="node13" class="node"><title>Node13</title>
<g id="a_node13"><a xlink:href="classbase_1_1_descriptor___server.html" target="_top" xlink:title="Descriptor_Server">
<polygon fill="none" stroke="black" points="274.5,-175.5 274.5,-194.5 365.5,-194.5 365.5,-175.5 274.5,-175.5"/>
<text text-anchor="middle" x="320" y="-182.5" font-family="Helvetica,sans-Serif" font-size="10.00">Descriptor_Server</text>
</a>
</g>
</g>
<!-- Node13&#45;&gt;Node6 -->
<g id="edge11" class="edge"><title>Node13&#45;&gt;Node6</title>
<path fill="none" stroke="midnightblue" d="M375.923,-176.628C390.142,-174.46 405.585,-172.106 420.256,-169.869"/>
<polygon fill="midnightblue" stroke="midnightblue" points="375.172,-173.202 365.814,-178.169 376.227,-180.122 375.172,-173.202"/>
</g>
<!-- Node13&#45;&gt;Node3 -->
<g id="edge12" class="edge"><title>Node13&#45;&gt;Node3</title>
<path fill="none" stroke="midnightblue" d="M373.145,-196.764C388.63,-200.258 405.761,-204.123 421.865,-207.756"/>
<polygon fill="midnightblue" stroke="midnightblue" points="373.759,-193.315 363.234,-194.528 372.219,-200.143 373.759,-193.315"/>
</g>
<!-- Node14 -->
<g id="node14" class="node"><title>Node14</title>
<g id="a_node14"><a xlink:href="classurllib2_1_1_h_t_t_p_error.html" target="_top" xlink:title="HTTPError">
<polygon fill="none" stroke="black" points="290.5,-49.5 290.5,-68.5 349.5,-68.5 349.5,-49.5 290.5,-49.5"/>
<text text-anchor="middle" x="320" y="-56.5" font-family="Helvetica,sans-Serif" font-size="10.00">HTTPError</text>
</a>
</g>
</g>
<!-- Node14&#45;&gt;Node7 -->
<g id="edge13" class="edge"><title>Node14&#45;&gt;Node7</title>
<path fill="none" stroke="midnightblue" d="M359.429,-67.9044C378.597,-72.3456 402.241,-77.824 423.823,-82.8249"/>
<polygon fill="midnightblue" stroke="midnightblue" points="360.099,-64.4668 349.567,-65.6191 358.518,-71.2861 360.099,-64.4668"/>
</g>
</g>
</svg>
