<?xml version="1.0" encoding="UTF-8" standalone="no"?>
<!DOCTYPE svg PUBLIC "-//W3C//DTD SVG 1.1//EN"
 "http://www.w3.org/Graphics/SVG/1.1/DTD/svg11.dtd">
<!-- Generated by graphviz version 2.30.1 (20130219.2202)
 -->
<!-- Title: Graphical Class Hierarchy Pages: 1 -->
<svg width="972pt" height="616pt"
 viewBox="0.00 0.00 972.00 616.00" xmlns="http://www.w3.org/2000/svg" xmlns:xlink="http://www.w3.org/1999/xlink">
<g id="graph0" class="graph" transform="scale(1 1) rotate(0) translate(4 612)">
<title>Graphical Class Hierarchy</title>
<!-- Node1 -->
<g id="node1" class="node"><title>Node1</title>
<polygon fill="none" stroke="#bfbfbf" points="500.5,-474.5 500.5,-493.5 565.5,-493.5 565.5,-474.5 500.5,-474.5"/>
<text text-anchor="middle" x="533" y="-481.5" font-family="Helvetica,sans-Serif" font-size="10.00">OrderedSet</text>
</g>
<!-- Node2 -->
<g id="node2" class="node"><title>Node2</title>
<g id="a_node2"><a xlink:href="class_net_1_1_protocols_1_1_h_e_l_d_1_1_cucumbers_1_1_location_u_r_i__set.html" target="_top" xlink:title="Net.Protocols.HELD.Cucumbers.\lLocationURI_set">
<polygon fill="none" stroke="black" points="646.5,-469 646.5,-499 799.5,-499 799.5,-469 646.5,-469"/>
<text text-anchor="start" x="654.5" y="-487" font-family="Helvetica,sans-Serif" font-size="10.00">Net.Protocols.HELD.Cucumbers.</text>
<text text-anchor="middle" x="723" y="-476" font-family="Helvetica,sans-Serif" font-size="10.00">LocationURI_set</text>
</a>
</g>
</g>
<!-- Node1&#45;&gt;Node2 -->
<g id="edge1" class="edge"><title>Node1&#45;&gt;Node2</title>
<path fill="none" stroke="midnightblue" d="M575.964,-484C596.735,-484 622.456,-484 646.496,-484"/>
<polygon fill="midnightblue" stroke="midnightblue" points="575.892,-480.5 565.892,-484 575.892,-487.5 575.892,-480.5"/>
</g>
<!-- Node3 -->
<g id="node3" class="node"><title>Node3</title>
<g id="a_node3"><a xlink:href="classbase_1_1_cucumber.html" target="_top" xlink:title="Cucumber">
<polygon fill="none" stroke="black" points="124,-433.5 124,-452.5 184,-452.5 184,-433.5 124,-433.5"/>
<text text-anchor="middle" x="154" y="-440.5" font-family="Helvetica,sans-Serif" font-size="10.00">Cucumber</text>
</a>
</g>
</g>
<!-- Node4 -->
<g id="node4" class="node"><title>Node4</title>
<g id="a_node4"><a xlink:href="class_net_1_1_protocols_1_1_h_e_l_d_1_1_cucumbers_1_1_h_e_l_d___cucumber.html" target="_top" xlink:title="Net.Protocols.HELD.Cucumbers.\lHELD_Cucumber">
<polygon fill="none" stroke="black" points="266.5,-358 266.5,-388 419.5,-388 419.5,-358 266.5,-358"/>
<text text-anchor="start" x="274.5" y="-376" font-family="Helvetica,sans-Serif" font-size="10.00">Net.Protocols.HELD.Cucumbers.</text>
<text text-anchor="middle" x="343" y="-365" font-family="Helvetica,sans-Serif" font-size="10.00">HELD_Cucumber</text>
</a>
</g>
</g>
<!-- Node3&#45;&gt;Node4 -->
<g id="edge2" class="edge"><title>Node3&#45;&gt;Node4</title>
<path fill="none" stroke="midnightblue" d="M194.096,-433.833C205.765,-430.761 218.504,-427.07 230,-423 258.303,-412.98 289.405,-398.83 311.637,-388.139"/>
<polygon fill="midnightblue" stroke="midnightblue" points="192.999,-430.501 184.177,-436.368 194.732,-437.283 192.999,-430.501"/>
</g>
<!-- Node5 -->
<g id="node5" class="node"><title>Node5</title>
<g id="a_node5"><a xlink:href="class_net_1_1_protocols_1_1_h_e_l_d_1_1_cucumbers_1_1_request.html" target="_top" xlink:title="Net.Protocols.HELD.Cucumbers.\lRequest">
<polygon fill="none" stroke="black" points="456.5,-281 456.5,-311 609.5,-311 609.5,-281 456.5,-281"/>
<text text-anchor="start" x="464.5" y="-299" font-family="Helvetica,sans-Serif" font-size="10.00">Net.Protocols.HELD.Cucumbers.</text>
<text text-anchor="middle" x="533" y="-288" font-family="Helvetica,sans-Serif" font-size="10.00">Request</text>
</a>
</g>
</g>
<!-- Node4&#45;&gt;Node5 -->
<g id="edge3" class="edge"><title>Node4&#45;&gt;Node5</title>
<path fill="none" stroke="midnightblue" d="M382.08,-353.396C403.488,-342.779 430.881,-329.857 456,-320 463.986,-316.866 472.561,-313.843 480.973,-311.06"/>
<polygon fill="midnightblue" stroke="midnightblue" points="380.374,-350.336 372.996,-357.94 383.506,-356.596 380.374,-350.336"/>
</g>
<!-- Node10 -->
<g id="node10" class="node"><title>Node10</title>
<g id="a_node10"><a xlink:href="class_net_1_1_protocols_1_1_h_e_l_d_1_1_cucumbers_1_1_response.html" target="_top" xlink:title="Net.Protocols.HELD.Cucumbers.\lResponse">
<polygon fill="none" stroke="black" points="456.5,-404 456.5,-434 609.5,-434 609.5,-404 456.5,-404"/>
<text text-anchor="start" x="464.5" y="-422" font-family="Helvetica,sans-Serif" font-size="10.00">Net.Protocols.HELD.Cucumbers.</text>
<text text-anchor="middle" x="533" y="-411" font-family="Helvetica,sans-Serif" font-size="10.00">Response</text>
</a>
</g>
</g>
<!-- Node4&#45;&gt;Node10 -->
<g id="edge8" class="edge"><title>Node4&#45;&gt;Node10</title>
<path fill="none" stroke="midnightblue" d="M415.506,-390.496C433.667,-394.94 453.018,-399.675 470.625,-403.983"/>
<polygon fill="midnightblue" stroke="midnightblue" points="416.104,-387.039 405.558,-388.062 414.44,-393.839 416.104,-387.039"/>
</g>
<!-- Node17 -->
<g id="node17" class="node"><title>Node17</title>
<g id="a_node17"><a xlink:href="class_net_1_1_protocols_1_1_h_e_l_d_1_1_errors_1_1_h_e_l_d___error.html" target="_top" xlink:title="Corresponds to an RFC 5985 general error when the location request cannot be fulfilled.">
<polygon fill="none" stroke="black" points="469,-330 469,-360 597,-360 597,-330 469,-330"/>
<text text-anchor="start" x="477" y="-348" font-family="Helvetica,sans-Serif" font-size="10.00">Net.Protocols.HELD.Errors.</text>
<text text-anchor="middle" x="533" y="-337" font-family="Helvetica,sans-Serif" font-size="10.00">HELD_Error</text>
</a>
</g>
</g>
<!-- Node4&#45;&gt;Node17 -->
<g id="edge16" class="edge"><title>Node4&#45;&gt;Node17</title>
<path fill="none" stroke="midnightblue" d="M429.68,-360.239C442.869,-358.275 456.279,-356.278 468.859,-354.404"/>
<polygon fill="midnightblue" stroke="midnightblue" points="429.029,-356.797 419.654,-361.732 430.061,-363.721 429.029,-356.797"/>
</g>
<!-- Node6 -->
<g id="node6" class="node"><title>Node6</title>
<g id="a_node6"><a xlink:href="class_net_1_1_protocols_1_1_h_e_l_d_1_1_errors_1_1_h_e_l_d___error___request.html" target="_top" xlink:title="Net.Protocols.HELD.Errors.\lHELD_Error_Request">
<polygon fill="none" stroke="black" points="659,-284 659,-314 787,-314 787,-284 659,-284"/>
<text text-anchor="start" x="667" y="-302" font-family="Helvetica,sans-Serif" font-size="10.00">Net.Protocols.HELD.Errors.</text>
<text text-anchor="middle" x="723" y="-291" font-family="Helvetica,sans-Serif" font-size="10.00">HELD_Error_Request</text>
</a>
</g>
</g>
<!-- Node5&#45;&gt;Node6 -->
<g id="edge4" class="edge"><title>Node5&#45;&gt;Node6</title>
<path fill="none" stroke="midnightblue" d="M619.68,-297.367C632.869,-297.578 646.279,-297.792 658.859,-297.992"/>
<polygon fill="midnightblue" stroke="midnightblue" points="619.709,-293.867 609.654,-297.207 619.597,-300.866 619.709,-293.867"/>
</g>
<!-- Node7 -->
<g id="node7" class="node"><title>Node7</title>
<g id="a_node7"><a xlink:href="class_net_1_1_protocols_1_1_h_e_l_d_1_1_errors_1_1_request_error.html" target="_top" xlink:title="Indicates that the request was badly formed in some fashion (other than the XML content).">
<polygon fill="none" stroke="black" points="836,-235 836,-265 964,-265 964,-235 836,-235"/>
<text text-anchor="start" x="844" y="-253" font-family="Helvetica,sans-Serif" font-size="10.00">Net.Protocols.HELD.Errors.</text>
<text text-anchor="middle" x="900" y="-242" font-family="Helvetica,sans-Serif" font-size="10.00">RequestError</text>
</a>
</g>
</g>
<!-- Node6&#45;&gt;Node7 -->
<g id="edge5" class="edge"><title>Node6&#45;&gt;Node7</title>
<path fill="none" stroke="midnightblue" d="M787.647,-281.179C806.542,-275.888 827.043,-270.148 845.244,-265.052"/>
<polygon fill="midnightblue" stroke="midnightblue" points="786.62,-277.832 777.934,-283.899 788.507,-284.573 786.62,-277.832"/>
</g>
<!-- Node8 -->
<g id="node8" class="node"><title>Node8</title>
<g id="a_node8"><a xlink:href="class_net_1_1_protocols_1_1_h_e_l_d_1_1_errors_1_1_unsupported_message.html" target="_top" xlink:title="Indicates that an element in the XML document for the request was not supported or understood...">
<polygon fill="none" stroke="black" points="836,-284 836,-314 964,-314 964,-284 836,-284"/>
<text text-anchor="start" x="844" y="-302" font-family="Helvetica,sans-Serif" font-size="10.00">Net.Protocols.HELD.Errors.</text>
<text text-anchor="middle" x="900" y="-291" font-family="Helvetica,sans-Serif" font-size="10.00">UnsupportedMessage</text>
</a>
</g>
</g>
<!-- Node6&#45;&gt;Node8 -->
<g id="edge6" class="edge"><title>Node6&#45;&gt;Node8</title>
<path fill="none" stroke="midnightblue" d="M797.348,-299C810.167,-299 823.402,-299 835.914,-299"/>
<polygon fill="midnightblue" stroke="midnightblue" points="797.179,-295.5 787.179,-299 797.179,-302.5 797.179,-295.5"/>
</g>
<!-- Node9 -->
<g id="node9" class="node"><title>Node9</title>
<g id="a_node9"><a xlink:href="class_net_1_1_protocols_1_1_h_e_l_d_1_1_errors_1_1_x_m_l___error.html" target="_top" xlink:title="Indicates that the XML content of the request was either badly formed or invalid.">
<polygon fill="none" stroke="black" points="836,-333 836,-363 964,-363 964,-333 836,-333"/>
<text text-anchor="start" x="844" y="-351" font-family="Helvetica,sans-Serif" font-size="10.00">Net.Protocols.HELD.Errors.</text>
<text text-anchor="middle" x="900" y="-340" font-family="Helvetica,sans-Serif" font-size="10.00">XML_Error</text>
</a>
</g>
</g>
<!-- Node6&#45;&gt;Node9 -->
<g id="edge7" class="edge"><title>Node6&#45;&gt;Node9</title>
<path fill="none" stroke="midnightblue" d="M787.647,-316.821C806.542,-322.112 827.043,-327.852 845.244,-332.948"/>
<polygon fill="midnightblue" stroke="midnightblue" points="788.507,-313.427 777.934,-314.101 786.62,-320.168 788.507,-313.427"/>
</g>
<!-- Node10&#45;&gt;Node2 -->
<g id="edge9" class="edge"><title>Node10&#45;&gt;Node2</title>
<path fill="none" stroke="midnightblue" d="M584.833,-437.46C603.971,-444.33 625.951,-452.123 646,-459 655.591,-462.29 665.892,-465.736 675.719,-468.982"/>
<polygon fill="midnightblue" stroke="midnightblue" points="585.994,-434.158 575.4,-434.067 583.625,-440.745 585.994,-434.158"/>
</g>
<!-- Node11 -->
<g id="node11" class="node"><title>Node11</title>
<g id="a_node11"><a xlink:href="class_net_1_1_protocols_1_1_h_e_l_d_1_1_errors_1_1_h_e_l_d___error___response.html" target="_top" xlink:title="Net.Protocols.HELD.Errors.\lHELD_Error_Response">
<polygon fill="none" stroke="black" points="659,-420 659,-450 787,-450 787,-420 659,-420"/>
<text text-anchor="start" x="667" y="-438" font-family="Helvetica,sans-Serif" font-size="10.00">Net.Protocols.HELD.Errors.</text>
<text text-anchor="middle" x="723" y="-427" font-family="Helvetica,sans-Serif" font-size="10.00">HELD_Error_Response</text>
</a>
</g>
</g>
<!-- Node10&#45;&gt;Node11 -->
<g id="edge10" class="edge"><title>Node10&#45;&gt;Node11</title>
<path fill="none" stroke="midnightblue" d="M619.68,-426.292C632.869,-427.414 646.279,-428.556 658.859,-429.626"/>
<polygon fill="midnightblue" stroke="midnightblue" points="619.915,-422.799 609.654,-425.439 619.321,-429.774 619.915,-422.799"/>
</g>
<!-- Node12 -->
<g id="node12" class="node"><title>Node12</title>
<g id="a_node12"><a xlink:href="class_net_1_1_protocols_1_1_h_e_l_d_1_1_errors_1_1_cannot_provide_l_i_type.html" target="_top" xlink:title="Indicates that the LIS was unable to provide LI of the type or types requested.">
<polygon fill="none" stroke="black" points="836,-431 836,-461 964,-461 964,-431 836,-431"/>
<text text-anchor="start" x="844" y="-449" font-family="Helvetica,sans-Serif" font-size="10.00">Net.Protocols.HELD.Errors.</text>
<text text-anchor="middle" x="900" y="-438" font-family="Helvetica,sans-Serif" font-size="10.00">CannotProvideLIType</text>
</a>
</g>
</g>
<!-- Node11&#45;&gt;Node12 -->
<g id="edge11" class="edge"><title>Node11&#45;&gt;Node12</title>
<path fill="none" stroke="midnightblue" d="M797.348,-439.61C810.167,-440.416 823.402,-441.248 835.914,-442.035"/>
<polygon fill="midnightblue" stroke="midnightblue" points="797.379,-436.106 787.179,-438.971 796.94,-443.092 797.379,-436.106"/>
</g>
<!-- Node13 -->
<g id="node13" class="node"><title>Node13</title>
<g id="a_node13"><a xlink:href="class_net_1_1_protocols_1_1_h_e_l_d_1_1_errors_1_1_general_l_i_s_error.html" target="_top" xlink:title="Indicates that an unspecified error occurred at the LIS.">
<polygon fill="none" stroke="black" points="836,-382 836,-412 964,-412 964,-382 836,-382"/>
<text text-anchor="start" x="844" y="-400" font-family="Helvetica,sans-Serif" font-size="10.00">Net.Protocols.HELD.Errors.</text>
<text text-anchor="middle" x="900" y="-389" font-family="Helvetica,sans-Serif" font-size="10.00">GeneralLISError</text>
</a>
</g>
</g>
<!-- Node11&#45;&gt;Node13 -->
<g id="edge12" class="edge"><title>Node11&#45;&gt;Node13</title>
<path fill="none" stroke="midnightblue" d="M796.968,-419.156C809.905,-416.346 823.279,-413.442 835.914,-410.699"/>
<polygon fill="midnightblue" stroke="midnightblue" points="796.209,-415.739 787.179,-421.281 797.694,-422.579 796.209,-415.739"/>
</g>
<!-- Node14 -->
<g id="node14" class="node"><title>Node14</title>
<g id="a_node14"><a xlink:href="class_net_1_1_protocols_1_1_h_e_l_d_1_1_errors_1_1_location_unknown.html" target="_top" xlink:title="Indicates that the LIS could not determine the location of the device.">
<polygon fill="none" stroke="black" points="836,-578 836,-608 964,-608 964,-578 836,-578"/>
<text text-anchor="start" x="844" y="-596" font-family="Helvetica,sans-Serif" font-size="10.00">Net.Protocols.HELD.Errors.</text>
<text text-anchor="middle" x="900" y="-585" font-family="Helvetica,sans-Serif" font-size="10.00">LocationUnknown</text>
</a>
</g>
</g>
<!-- Node11&#45;&gt;Node14 -->
<g id="edge13" class="edge"><title>Node11&#45;&gt;Node14</title>
<path fill="none" stroke="midnightblue" d="M795.951,-455.389C797.361,-456.528 798.714,-457.73 800,-459 836.311,-494.838 801,-530.88 836,-568 839.633,-571.853 843.935,-575.123 848.559,-577.898"/>
<polygon fill="midnightblue" stroke="midnightblue" points="797.571,-452.258 787.332,-449.536 793.639,-458.049 797.571,-452.258"/>
</g>
<!-- Node15 -->
<g id="node15" class="node"><title>Node15</title>
<g id="a_node15"><a xlink:href="class_net_1_1_protocols_1_1_h_e_l_d_1_1_errors_1_1_not_locatable.html" target="_top" xlink:title="Indicates that the LIS is unable to locate the Device.">
<polygon fill="none" stroke="black" points="836,-529 836,-559 964,-559 964,-529 836,-529"/>
<text text-anchor="start" x="844" y="-547" font-family="Helvetica,sans-Serif" font-size="10.00">Net.Protocols.HELD.Errors.</text>
<text text-anchor="middle" x="900" y="-536" font-family="Helvetica,sans-Serif" font-size="10.00">NotLocatable</text>
</a>
</g>
</g>
<!-- Node11&#45;&gt;Node15 -->
<g id="edge14" class="edge"><title>Node11&#45;&gt;Node15</title>
<path fill="none" stroke="midnightblue" d="M794.476,-455.057C796.388,-456.294 798.235,-457.607 800,-459 824.412,-478.266 812.296,-498.869 836,-519 840.485,-522.809 845.621,-526.083 850.983,-528.887"/>
<polygon fill="midnightblue" stroke="midnightblue" points="796.16,-451.988 785.734,-450.102 792.708,-458.078 796.16,-451.988"/>
</g>
<!-- Node16 -->
<g id="node16" class="node"><title>Node16</title>
<g id="a_node16"><a xlink:href="class_net_1_1_protocols_1_1_h_e_l_d_1_1_errors_1_1_timeout.html" target="_top" xlink:title="Indicates that the LIS could not satisfy the request within the time specified.">
<polygon fill="none" stroke="black" points="836,-480 836,-510 964,-510 964,-480 836,-480"/>
<text text-anchor="start" x="844" y="-498" font-family="Helvetica,sans-Serif" font-size="10.00">Net.Protocols.HELD.Errors.</text>
<text text-anchor="middle" x="900" y="-487" font-family="Helvetica,sans-Serif" font-size="10.00">Timeout</text>
</a>
</g>
</g>
<!-- Node11&#45;&gt;Node16 -->
<g id="edge15" class="edge"><title>Node11&#45;&gt;Node16</title>
<path fill="none" stroke="midnightblue" d="M782.619,-453.234C788.502,-455.147 794.376,-457.091 800,-459 819.396,-465.586 840.769,-473.299 858.678,-479.894"/>
<polygon fill="midnightblue" stroke="midnightblue" points="783.345,-449.79 772.753,-450.055 781.198,-456.453 783.345,-449.79"/>
</g>
<!-- Node17&#45;&gt;Node6 -->
<g id="edge17" class="edge"><title>Node17&#45;&gt;Node6</title>
<path fill="none" stroke="midnightblue" d="M605.506,-327.504C623.667,-323.06 643.018,-318.325 660.625,-314.017"/>
<polygon fill="midnightblue" stroke="midnightblue" points="604.44,-324.161 595.558,-329.938 606.104,-330.961 604.44,-324.161"/>
</g>
<!-- Node17&#45;&gt;Node11 -->
<g id="edge18" class="edge"><title>Node17&#45;&gt;Node11</title>
<path fill="none" stroke="midnightblue" d="M574.849,-364.555C609.559,-381.172 658.672,-404.683 690.43,-419.887"/>
<polygon fill="midnightblue" stroke="midnightblue" points="575.998,-361.225 565.467,-360.064 572.975,-367.539 575.998,-361.225"/>
</g>
<!-- Node17&#45;&gt;Node7 -->
<g id="edge19" class="edge"><title>Node17&#45;&gt;Node7</title>
<path fill="none" stroke="midnightblue" d="M601.4,-325.339C604.387,-323.692 607.272,-321.916 610,-320 631.245,-305.079 623.225,-286.462 646,-274 704.542,-241.968 782.223,-239.408 835.992,-242.677"/>
<polygon fill="midnightblue" stroke="midnightblue" points="599.594,-322.327 592.181,-329.896 602.696,-328.602 599.594,-322.327"/>
</g>
<!-- Node17&#45;&gt;Node8 -->
<g id="edge20" class="edge"><title>Node17&#45;&gt;Node8</title>
<path fill="none" stroke="midnightblue" d="M607.318,-342.003C660.949,-339.067 735.322,-333.449 800,-323 814.229,-320.701 829.432,-317.434 843.547,-314.047"/>
<polygon fill="midnightblue" stroke="midnightblue" points="607.016,-338.514 597.215,-342.538 607.387,-345.504 607.016,-338.514"/>
</g>
<!-- Node17&#45;&gt;Node9 -->
<g id="edge21" class="edge"><title>Node17&#45;&gt;Node9</title>
<path fill="none" stroke="midnightblue" d="M607.462,-354.003C620.289,-355.251 633.519,-356.333 646,-357 714.347,-360.651 731.626,-360.102 800,-357 811.637,-356.472 824.021,-355.597 835.947,-354.594"/>
<polygon fill="midnightblue" stroke="midnightblue" points="607.585,-350.498 597.283,-352.972 606.879,-357.462 607.585,-350.498"/>
</g>
<!-- Node18 -->
<g id="node18" class="node"><title>Node18</title>
<g id="a_node18"><a xlink:href="class_exception.html" target="_top" xlink:title="Exception">
<polygon fill="none" stroke="black" points="313.5,-220.5 313.5,-239.5 372.5,-239.5 372.5,-220.5 313.5,-220.5"/>
<text text-anchor="middle" x="343" y="-227.5" font-family="Helvetica,sans-Serif" font-size="10.00">Exception</text>
</a>
</g>
</g>
<!-- Node18&#45;&gt;Node17 -->
<g id="edge22" class="edge"><title>Node18&#45;&gt;Node17</title>
<path fill="none" stroke="midnightblue" d="M382.651,-233.166C395.605,-235.82 409.429,-240.569 420,-249 447.66,-271.061 429.161,-296.947 456,-320 460.531,-323.892 465.684,-327.181 471.122,-329.961"/>
<polygon fill="midnightblue" stroke="midnightblue" points="382.969,-229.671 372.526,-231.456 381.804,-236.573 382.969,-229.671"/>
</g>
<!-- Node19 -->
<g id="node19" class="node"><title>Node19</title>
<g id="a_node19"><a xlink:href="class_net_1_1_protocols_1_1_h_e_l_d_1_1_h_e_l_d___i_d_1_1_h_e_l_d___i_d___error.html" target="_top" xlink:title="Corresponds to RFC 5985 error response when the location request cannot be fulfilled.">
<polygon fill="none" stroke="black" points="469,-215 469,-245 597,-245 597,-215 469,-215"/>
<text text-anchor="start" x="477" y="-233" font-family="Helvetica,sans-Serif" font-size="10.00">Net.Protocols.HELD.HELD</text>
<text text-anchor="middle" x="533" y="-222" font-family="Helvetica,sans-Serif" font-size="10.00">_ID.HELD_ID_Error</text>
</a>
</g>
</g>
<!-- Node18&#45;&gt;Node19 -->
<g id="edge23" class="edge"><title>Node18&#45;&gt;Node19</title>
<path fill="none" stroke="midnightblue" d="M382.667,-230C407.492,-230 440.311,-230 468.859,-230"/>
<polygon fill="midnightblue" stroke="midnightblue" points="382.553,-226.5 372.553,-230 382.553,-233.5 382.553,-226.5"/>
</g>
<!-- Node20 -->
<g id="node20" class="node"><title>Node20</title>
<g id="a_node20"><a xlink:href="class_net_1_1_protocols_1_1_h_e_l_d_1_1_h_e_l_d___i_d_1_1_bad_identifier.html" target="_top" xlink:title="Indicates that a Device identifier used in the HELD request is not supported, badly formatted...">
<polygon fill="none" stroke="black" points="659,-196 659,-226 787,-226 787,-196 659,-196"/>
<text text-anchor="start" x="667" y="-214" font-family="Helvetica,sans-Serif" font-size="10.00">Net.Protocols.HELD.HELD</text>
<text text-anchor="middle" x="723" y="-203" font-family="Helvetica,sans-Serif" font-size="10.00">_ID.BadIdentifier</text>
</a>
</g>
</g>
<!-- Node19&#45;&gt;Node20 -->
<g id="edge24" class="edge"><title>Node19&#45;&gt;Node20</title>
<path fill="none" stroke="midnightblue" d="M607.517,-222.57C624.435,-220.86 642.283,-219.057 658.722,-217.395"/>
<polygon fill="midnightblue" stroke="midnightblue" points="606.722,-219.133 597.124,-223.62 607.426,-226.097 606.722,-219.133"/>
</g>
<!-- Node21 -->
<g id="node21" class="node"><title>Node21</title>
<g id="a_node21"><a xlink:href="classobject.html" target="_top" xlink:title="object">
<polygon fill="none" stroke="black" points="0,-242.5 0,-261.5 42,-261.5 42,-242.5 0,-242.5"/>
<text text-anchor="middle" x="21" y="-249.5" font-family="Helvetica,sans-Serif" font-size="10.00">object</text>
</a>
</g>
</g>
<!-- Node22 -->
<g id="node22" class="node"><title>Node22</title>
<g id="a_node22"><a xlink:href="class_net_1_1_protocols_1_1base_1_1___descriptor_1_1___descriptor.html" target="_top" xlink:title="Net.Protocols.base.\l_Descriptor._Descriptor">
<polygon fill="none" stroke="black" points="97.5,-87 97.5,-117 210.5,-117 210.5,-87 97.5,-87"/>
<text text-anchor="start" x="105.5" y="-105" font-family="Helvetica,sans-Serif" font-size="10.00">Net.Protocols.base.</text>
<text text-anchor="middle" x="154" y="-94" font-family="Helvetica,sans-Serif" font-size="10.00">_Descriptor._Descriptor</text>
</a>
</g>
</g>
<!-- Node21&#45;&gt;Node22 -->
<g id="edge25" class="edge"><title>Node21&#45;&gt;Node22</title>
<path fill="none" stroke="midnightblue" d="M25.9239,-232.375C32.2886,-205.461 47.3664,-157.228 78,-129 83.5973,-123.842 90.2514,-119.654 97.2498,-116.258"/>
<polygon fill="midnightblue" stroke="midnightblue" points="22.4977,-231.66 23.7714,-242.177 29.3348,-233.161 22.4977,-231.66"/>
</g>
<!-- Node25 -->
<g id="node25" class="node"><title>Node25</title>
<g id="a_node25"><a xlink:href="class_net_1_1_protocols_1_1base_1_1___location_u_r_i_1_1_location_u_r_i.html" target="_top" xlink:title="Stores a location URI.">
<polygon fill="none" stroke="black" points="90,-384 90,-414 218,-414 218,-384 90,-384"/>
<text text-anchor="start" x="98" y="-402" font-family="Helvetica,sans-Serif" font-size="10.00">Net.Protocols.base.</text>
<text text-anchor="middle" x="154" y="-391" font-family="Helvetica,sans-Serif" font-size="10.00">_LocationURI.LocationURI</text>
</a>
</g>
</g>
<!-- Node21&#45;&gt;Node25 -->
<g id="edge28" class="edge"><title>Node21&#45;&gt;Node25</title>
<path fill="none" stroke="midnightblue" d="M25.8765,-271.57C32.1856,-298.389 47.1983,-346.373 78,-374 82.2913,-377.849 87.1933,-381.108 92.3901,-383.867"/>
<polygon fill="midnightblue" stroke="midnightblue" points="29.2961,-270.824 23.7459,-261.799 22.4568,-272.315 29.2961,-270.824"/>
</g>
<!-- Node26 -->
<g id="node26" class="node"><title>Node26</title>
<g id="a_node26"><a xlink:href="class_net_1_1_protocols_1_1base_1_1___meta_descriptor_1_1_meta_descriptor.html" target="_top" xlink:title="Net.Protocols.base.\l_MetaDescriptor.MetaDescriptor">
<polygon fill="none" stroke="black" points="78,-335 78,-365 230,-365 230,-335 78,-335"/>
<text text-anchor="start" x="86" y="-353" font-family="Helvetica,sans-Serif" font-size="10.00">Net.Protocols.base.</text>
<text text-anchor="middle" x="154" y="-342" font-family="Helvetica,sans-Serif" font-size="10.00">_MetaDescriptor.MetaDescriptor</text>
</a>
</g>
</g>
<!-- Node21&#45;&gt;Node26 -->
<g id="edge29" class="edge"><title>Node21&#45;&gt;Node26</title>
<path fill="none" stroke="midnightblue" d="M31.7656,-270.259C41.4589,-286.754 57.7735,-310.588 78,-325 83.3654,-328.823 89.3555,-332.091 95.5474,-334.878"/>
<polygon fill="midnightblue" stroke="midnightblue" points="34.8015,-268.517 26.844,-261.522 28.7026,-271.953 34.8015,-268.517"/>
</g>
<!-- Node27 -->
<g id="node27" class="node"><title>Node27</title>
<g id="a_node27"><a xlink:href="class_net_1_1_protocols_1_1base_1_1_client_server_info_1_1_client_info.html" target="_top" xlink:title="Net.Protocols.base.Client\lServerInfo.ClientInfo">
<polygon fill="none" stroke="black" points="93,-286 93,-316 215,-316 215,-286 93,-286"/>
<text text-anchor="start" x="101" y="-304" font-family="Helvetica,sans-Serif" font-size="10.00">Net.Protocols.base.Client</text>
<text text-anchor="middle" x="154" y="-293" font-family="Helvetica,sans-Serif" font-size="10.00">ServerInfo.ClientInfo</text>
</a>
</g>
</g>
<!-- Node21&#45;&gt;Node27 -->
<g id="edge30" class="edge"><title>Node21&#45;&gt;Node27</title>
<path fill="none" stroke="midnightblue" d="M51.2711,-265.088C59.8274,-268.766 69.2361,-272.668 78,-276 86.9804,-279.414 96.6573,-282.831 105.978,-285.993"/>
<polygon fill="midnightblue" stroke="midnightblue" points="52.6185,-261.858 42.0527,-261.074 49.8235,-268.275 52.6185,-261.858"/>
</g>
<!-- Node28 -->
<g id="node28" class="node"><title>Node28</title>
<g id="a_node28"><a xlink:href="class_net_1_1_protocols_1_1base_1_1_cucumber_1_1_cucumber.html" target="_top" xlink:title="Net.Protocols.base.Cucumber.\lCucumber">
<polygon fill="none" stroke="black" points="82,-139 82,-169 226,-169 226,-139 82,-139"/>
<text text-anchor="start" x="90" y="-157" font-family="Helvetica,sans-Serif" font-size="10.00">Net.Protocols.base.Cucumber.</text>
<text text-anchor="middle" x="154" y="-146" font-family="Helvetica,sans-Serif" font-size="10.00">Cucumber</text>
</a>
</g>
</g>
<!-- Node21&#45;&gt;Node28 -->
<g id="edge31" class="edge"><title>Node21&#45;&gt;Node28</title>
<path fill="none" stroke="midnightblue" d="M31.6663,-233.431C41.2903,-216.669 57.5589,-192.481 78,-178 82.797,-174.602 88.0984,-171.668 93.5996,-169.139"/>
<polygon fill="midnightblue" stroke="midnightblue" points="28.5344,-231.863 26.7864,-242.313 34.6693,-235.234 28.5344,-231.863"/>
</g>
<!-- Node36 -->
<g id="node36" class="node"><title>Node36</title>
<g id="a_node36"><a xlink:href="class_net_1_1_protocols_1_1base_1_1_cucumber_1_1_interface___client.html" target="_top" xlink:title="Net.Protocols.base.Cucumber.\lInterface_Client">
<polygon fill="none" stroke="black" points="82,-237 82,-267 226,-267 226,-237 82,-237"/>
<text text-anchor="start" x="90" y="-255" font-family="Helvetica,sans-Serif" font-size="10.00">Net.Protocols.base.Cucumber.</text>
<text text-anchor="middle" x="154" y="-244" font-family="Helvetica,sans-Serif" font-size="10.00">Interface_Client</text>
</a>
</g>
</g>
<!-- Node21&#45;&gt;Node36 -->
<g id="edge42" class="edge"><title>Node21&#45;&gt;Node36</title>
<path fill="none" stroke="midnightblue" d="M52.3961,-252C61.3308,-252 71.5023,-252 81.8633,-252"/>
<polygon fill="midnightblue" stroke="midnightblue" points="52.1817,-248.5 42.1817,-252 52.1816,-255.5 52.1817,-248.5"/>
</g>
<!-- Node37 -->
<g id="node37" class="node"><title>Node37</title>
<g id="a_node37"><a xlink:href="class_net_1_1_protocols_1_1base_1_1_cucumber_1_1_interface___server.html" target="_top" xlink:title="Net.Protocols.base.Cucumber.\lInterface_Server">
<polygon fill="none" stroke="black" points="82,-188 82,-218 226,-218 226,-188 82,-188"/>
<text text-anchor="start" x="90" y="-206" font-family="Helvetica,sans-Serif" font-size="10.00">Net.Protocols.base.Cucumber.</text>
<text text-anchor="middle" x="154" y="-195" font-family="Helvetica,sans-Serif" font-size="10.00">Interface_Server</text>
</a>
</g>
</g>
<!-- Node21&#45;&gt;Node37 -->
<g id="edge43" class="edge"><title>Node21&#45;&gt;Node37</title>
<path fill="none" stroke="midnightblue" d="M51.2035,-238.233C59.7585,-234.399 69.1834,-230.367 78,-227 86.0461,-223.927 94.6742,-220.913 103.111,-218.116"/>
<polygon fill="midnightblue" stroke="midnightblue" points="49.6411,-235.099 41.9931,-242.431 52.5441,-241.468 49.6411,-235.099"/>
</g>
<!-- Node23 -->
<g id="node23" class="node"><title>Node23</title>
<g id="a_node23"><a xlink:href="class_net_1_1_protocols_1_1base_1_1___descriptor_1_1_descriptor___client.html" target="_top" xlink:title="Net.Protocols.base.\l_Descriptor.Descriptor\l_Client">
<polygon fill="none" stroke="black" points="289,-81.5 289,-122.5 397,-122.5 397,-81.5 289,-81.5"/>
<text text-anchor="start" x="297" y="-110.5" font-family="Helvetica,sans-Serif" font-size="10.00">Net.Protocols.base.</text>
<text text-anchor="start" x="297" y="-99.5" font-family="Helvetica,sans-Serif" font-size="10.00">_Descriptor.Descriptor</text>
<text text-anchor="middle" x="343" y="-88.5" font-family="Helvetica,sans-Serif" font-size="10.00">_Client</text>
</a>
</g>
</g>
<!-- Node22&#45;&gt;Node23 -->
<g id="edge26" class="edge"><title>Node22&#45;&gt;Node23</title>
<path fill="none" stroke="midnightblue" d="M220.671,-102C242.993,-102 267.643,-102 288.861,-102"/>
<polygon fill="midnightblue" stroke="midnightblue" points="220.6,-98.5001 210.6,-102 220.6,-105.5 220.6,-98.5001"/>
</g>
<!-- Node24 -->
<g id="node24" class="node"><title>Node24</title>
<g id="a_node24"><a xlink:href="class_net_1_1_protocols_1_1base_1_1___descriptor_1_1_descriptor___server.html" target="_top" xlink:title="Net.Protocols.base.\l_Descriptor.Descriptor\l_Server">
<polygon fill="none" stroke="black" points="289,-21.5 289,-62.5 397,-62.5 397,-21.5 289,-21.5"/>
<text text-anchor="start" x="297" y="-50.5" font-family="Helvetica,sans-Serif" font-size="10.00">Net.Protocols.base.</text>
<text text-anchor="start" x="297" y="-39.5" font-family="Helvetica,sans-Serif" font-size="10.00">_Descriptor.Descriptor</text>
<text text-anchor="middle" x="343" y="-28.5" font-family="Helvetica,sans-Serif" font-size="10.00">_Server</text>
</a>
</g>
</g>
<!-- Node22&#45;&gt;Node24 -->
<g id="edge27" class="edge"><title>Node22&#45;&gt;Node24</title>
<path fill="none" stroke="midnightblue" d="M211.721,-83.8007C236.242,-75.933 264.778,-66.777 288.882,-59.0431"/>
<polygon fill="midnightblue" stroke="midnightblue" points="210.641,-80.4716 202.188,-86.8595 212.779,-87.1369 210.641,-80.4716"/>
</g>
<!-- Node29 -->
<g id="node29" class="node"><title>Node29</title>
<g id="a_node29"><a xlink:href="class_net_1_1_protocols_1_1base_1_1_cucumber_1_1_request.html" target="_top" xlink:title="A cucumber (python object) created for processing a request, typically made by a client.">
<polygon fill="none" stroke="black" points="271,-142 271,-172 415,-172 415,-142 271,-142"/>
<text text-anchor="start" x="279" y="-160" font-family="Helvetica,sans-Serif" font-size="10.00">Net.Protocols.base.Cucumber.</text>
<text text-anchor="middle" x="343" y="-149" font-family="Helvetica,sans-Serif" font-size="10.00">Request</text>
</a>
</g>
</g>
<!-- Node28&#45;&gt;Node29 -->
<g id="edge32" class="edge"><title>Node28&#45;&gt;Node29</title>
<path fill="none" stroke="midnightblue" d="M236.293,-155.304C247.839,-155.489 259.637,-155.679 270.968,-155.86"/>
<polygon fill="midnightblue" stroke="midnightblue" points="236.285,-151.804 226.23,-155.143 236.173,-158.803 236.285,-151.804"/>
</g>
<!-- Node35 -->
<g id="node35" class="node"><title>Node35</title>
<g id="a_node35"><a xlink:href="class_net_1_1_protocols_1_1base_1_1_cucumber_1_1_response.html" target="_top" xlink:title="A cucumber (python object) created for sending a response, typically made by the server.">
<polygon fill="none" stroke="black" points="271,-259 271,-289 415,-289 415,-259 271,-259"/>
<text text-anchor="start" x="279" y="-277" font-family="Helvetica,sans-Serif" font-size="10.00">Net.Protocols.base.Cucumber.</text>
<text text-anchor="middle" x="343" y="-266" font-family="Helvetica,sans-Serif" font-size="10.00">Response</text>
</a>
</g>
</g>
<!-- Node28&#45;&gt;Node35 -->
<g id="edge39" class="edge"><title>Node28&#45;&gt;Node35</title>
<path fill="none" stroke="midnightblue" d="M225.234,-174.316C226.885,-175.477 228.478,-176.703 230,-178 256.932,-200.944 239.161,-225.947 266,-249 270.531,-252.892 275.684,-256.181 281.122,-258.961"/>
<polygon fill="midnightblue" stroke="midnightblue" points="226.923,-171.247 216.56,-169.045 223.289,-177.229 226.923,-171.247"/>
</g>
<!-- Node29&#45;&gt;Node5 -->
<g id="edge33" class="edge"><title>Node29&#45;&gt;Node5</title>
<path fill="none" stroke="midnightblue" d="M376.836,-177.622C390.77,-187.045 406.806,-198.813 420,-211 438.309,-227.912 436.766,-238.148 456,-254 468.797,-264.547 484.628,-273.784 498.524,-280.891"/>
<polygon fill="midnightblue" stroke="midnightblue" points="378.743,-174.687 368.475,-172.076 374.873,-180.521 378.743,-174.687"/>
</g>
<!-- Node30 -->
<g id="node30" class="node"><title>Node30</title>
<g id="a_node30"><a xlink:href="class_net_1_1_protocols_1_1_h_e_l_d_1_1_h_e_l_d___i_d_1_1_h_e_l_d___i_d___request.html" target="_top" xlink:title="Net.Protocols.HELD.HELD\l_ID.HELD_ID_Request">
<polygon fill="none" stroke="black" points="469,-98 469,-128 597,-128 597,-98 469,-98"/>
<text text-anchor="start" x="477" y="-116" font-family="Helvetica,sans-Serif" font-size="10.00">Net.Protocols.HELD.HELD</text>
<text text-anchor="middle" x="533" y="-105" font-family="Helvetica,sans-Serif" font-size="10.00">_ID.HELD_ID_Request</text>
</a>
</g>
</g>
<!-- Node29&#45;&gt;Node30 -->
<g id="edge34" class="edge"><title>Node29&#45;&gt;Node30</title>
<path fill="none" stroke="midnightblue" d="M417.945,-139.694C434.746,-135.762 452.443,-131.62 468.753,-127.802"/>
<polygon fill="midnightblue" stroke="midnightblue" points="417.112,-136.294 408.173,-141.981 418.708,-143.11 417.112,-136.294"/>
</g>
<!-- Node31 -->
<g id="node31" class="node"><title>Node31</title>
<g id="a_node31"><a xlink:href="class_net_1_1_protocols_1_1_h_e_l_d_1_1_h_e_l_d___i_d_1_1_h_e_l_d___i_d___device.html" target="_top" xlink:title="Net.Protocols.HELD.HELD\l_ID.HELD_ID_Device">
<polygon fill="none" stroke="black" points="659,-147 659,-177 787,-177 787,-147 659,-147"/>
<text text-anchor="start" x="667" y="-165" font-family="Helvetica,sans-Serif" font-size="10.00">Net.Protocols.HELD.HELD</text>
<text text-anchor="middle" x="723" y="-154" font-family="Helvetica,sans-Serif" font-size="10.00">_ID.HELD_ID_Device</text>
</a>
</g>
</g>
<!-- Node30&#45;&gt;Node31 -->
<g id="edge35" class="edge"><title>Node30&#45;&gt;Node31</title>
<path fill="none" stroke="midnightblue" d="M601.614,-130.623C622.182,-135.984 644.584,-141.823 664.425,-146.994"/>
<polygon fill="midnightblue" stroke="midnightblue" points="602.243,-127.17 591.684,-128.035 600.478,-133.944 602.243,-127.17"/>
</g>
<!-- Node32 -->
<g id="node32" class="node"><title>Node32</title>
<g id="a_node32"><a xlink:href="class_net_1_1_protocols_1_1_h_e_l_d_1_1_h_e_l_d___i_d_1_1_x_m_l___i_p.html" target="_top" xlink:title="Net.Protocols.HELD.HELD\l_ID.XML_IP">
<polygon fill="none" stroke="black" points="659,-98 659,-128 787,-128 787,-98 659,-98"/>
<text text-anchor="start" x="667" y="-116" font-family="Helvetica,sans-Serif" font-size="10.00">Net.Protocols.HELD.HELD</text>
<text text-anchor="middle" x="723" y="-105" font-family="Helvetica,sans-Serif" font-size="10.00">_ID.XML_IP</text>
</a>
</g>
</g>
<!-- Node30&#45;&gt;Node32 -->
<g id="edge36" class="edge"><title>Node30&#45;&gt;Node32</title>
<path fill="none" stroke="midnightblue" d="M607.517,-113C624.435,-113 642.283,-113 658.722,-113"/>
<polygon fill="midnightblue" stroke="midnightblue" points="607.124,-109.5 597.124,-113 607.124,-116.5 607.124,-109.5"/>
</g>
<!-- Node33 -->
<g id="node33" class="node"><title>Node33</title>
<g id="a_node33"><a xlink:href="class_net_1_1_protocols_1_1_h_e_l_d_1_1_h_e_l_d___i_d_1_1_x_m_l___i_p___port.html" target="_top" xlink:title="Net.Protocols.HELD.HELD\l_ID.XML_IP_Port">
<polygon fill="none" stroke="black" points="659,-49 659,-79 787,-79 787,-49 659,-49"/>
<text text-anchor="start" x="667" y="-67" font-family="Helvetica,sans-Serif" font-size="10.00">Net.Protocols.HELD.HELD</text>
<text text-anchor="middle" x="723" y="-56" font-family="Helvetica,sans-Serif" font-size="10.00">_ID.XML_IP_Port</text>
</a>
</g>
</g>
<!-- Node30&#45;&gt;Node33 -->
<g id="edge37" class="edge"><title>Node30&#45;&gt;Node33</title>
<path fill="none" stroke="midnightblue" d="M601.614,-95.3771C622.182,-90.0163 644.584,-84.1775 664.425,-79.0062"/>
<polygon fill="midnightblue" stroke="midnightblue" points="600.478,-92.0563 591.684,-97.9654 602.243,-98.83 600.478,-92.0563"/>
</g>
<!-- Node34 -->
<g id="node34" class="node"><title>Node34</title>
<g id="a_node34"><a xlink:href="class_net_1_1_protocols_1_1_h_e_l_d_1_1_h_e_l_d___i_d_1_1_x_m_l___m_a_c.html" target="_top" xlink:title="Net.Protocols.HELD.HELD\l_ID.XML_MAC">
<polygon fill="none" stroke="black" points="659,-0 659,-30 787,-30 787,-0 659,-0"/>
<text text-anchor="start" x="667" y="-18" font-family="Helvetica,sans-Serif" font-size="10.00">Net.Protocols.HELD.HELD</text>
<text text-anchor="middle" x="723" y="-7" font-family="Helvetica,sans-Serif" font-size="10.00">_ID.XML_MAC</text>
</a>
</g>
</g>
<!-- Node30&#45;&gt;Node34 -->
<g id="edge38" class="edge"><title>Node30&#45;&gt;Node34</title>
<path fill="none" stroke="midnightblue" d="M561.405,-91.7518C583.324,-75.5514 615.357,-53.6091 646,-39 652.869,-35.725 660.295,-32.7494 667.721,-30.0958"/>
<polygon fill="midnightblue" stroke="midnightblue" points="559.143,-89.073 553.237,-97.8692 563.339,-94.6757 559.143,-89.073"/>
</g>
<!-- Node35&#45;&gt;Node10 -->
<g id="edge40" class="edge"><title>Node35&#45;&gt;Node10</title>
<path fill="none" stroke="midnightblue" d="M368.169,-295.988C390.388,-315.838 424.552,-345.454 456,-369 472.689,-381.495 492.373,-394.398 507.527,-403.966"/>
<polygon fill="midnightblue" stroke="midnightblue" points="370.329,-293.224 360.55,-289.146 365.652,-298.432 370.329,-293.224"/>
</g>
<!-- Node35&#45;&gt;Node19 -->
<g id="edge41" class="edge"><title>Node35&#45;&gt;Node19</title>
<path fill="none" stroke="midnightblue" d="M417.945,-256.694C434.746,-252.762 452.443,-248.62 468.753,-244.802"/>
<polygon fill="midnightblue" stroke="midnightblue" points="417.112,-253.294 408.173,-258.981 418.708,-260.11 417.112,-253.294"/>
</g>
</g>
</svg>
