<?xml version="1.0" encoding="UTF-8" standalone="no"?>
<!DOCTYPE svg PUBLIC "-//W3C//DTD SVG 1.1//EN"
 "http://www.w3.org/Graphics/SVG/1.1/DTD/svg11.dtd">
<!-- Generated by graphviz version 2.30.1 (20130219.2202)
 -->
<!-- Title: Graphical Class Hierarchy Pages: 1 -->
<svg width="332pt" height="87pt"
 viewBox="0.00 0.00 332.00 87.00" xmlns="http://www.w3.org/2000/svg" xmlns:xlink="http://www.w3.org/1999/xlink">
<g id="graph0" class="graph" transform="scale(1 1) rotate(0) translate(4 83)">
<title>Graphical Class Hierarchy</title>
<!-- Node1 -->
<g id="node1" class="node"><title>Node1</title>
<polygon fill="none" stroke="#bfbfbf" points="0.5,-29.5 0.5,-48.5 59.5,-48.5 59.5,-29.5 0.5,-29.5"/>
<text text-anchor="middle" x="30" y="-36.5" font-family="Helvetica,sans-Serif" font-size="10.00">Descriptor</text>
</g>
<!-- Node2 -->
<g id="node2" class="node"><title>Node2</title>
<g id="a_node2"><a xlink:href="class_net_1_1_protocols_1_1_p_i_d_f___l_o_1_1_p_i_d_f___l_o.html" target="_top" xlink:title="Net.Protocols.PIDF\l_LO.PIDF_LO">
<polygon fill="none" stroke="black" points="96.5,-24 96.5,-54 191.5,-54 191.5,-24 96.5,-24"/>
<text text-anchor="start" x="104.5" y="-42" font-family="Helvetica,sans-Serif" font-size="10.00">Net.Protocols.PIDF</text>
<text text-anchor="middle" x="144" y="-31" font-family="Helvetica,sans-Serif" font-size="10.00">_LO.PIDF_LO</text>
</a>
</g>
</g>
<!-- Node1&#45;&gt;Node2 -->
<g id="edge1" class="edge"><title>Node1&#45;&gt;Node2</title>
<path fill="none" stroke="midnightblue" d="M69.6405,-39C78.2063,-39 87.3734,-39 96.2243,-39"/>
<polygon fill="midnightblue" stroke="midnightblue" points="69.5522,-35.5001 59.5521,-39 69.5521,-42.5001 69.5522,-35.5001"/>
</g>
<!-- Node3 -->
<g id="node3" class="node"><title>Node3</title>
<g id="a_node3"><a xlink:href="class_net_1_1_protocols_1_1_p_i_d_f___l_o_1_1_civic.html" target="_top" xlink:title="Net.Protocols.PIDF\l_LO.Civic">
<polygon fill="none" stroke="black" points="228.5,-49 228.5,-79 323.5,-79 323.5,-49 228.5,-49"/>
<text text-anchor="start" x="236.5" y="-67" font-family="Helvetica,sans-Serif" font-size="10.00">Net.Protocols.PIDF</text>
<text text-anchor="middle" x="276" y="-56" font-family="Helvetica,sans-Serif" font-size="10.00">_LO.Civic</text>
</a>
</g>
</g>
<!-- Node2&#45;&gt;Node3 -->
<g id="edge2" class="edge"><title>Node2&#45;&gt;Node3</title>
<path fill="none" stroke="midnightblue" d="M201.533,-49.8718C210.477,-51.5916 219.637,-53.3533 228.322,-55.0235"/>
<polygon fill="midnightblue" stroke="midnightblue" points="202.047,-46.4065 191.566,-47.955 200.725,-53.2805 202.047,-46.4065"/>
</g>
<!-- Node4 -->
<g id="node4" class="node"><title>Node4</title>
<g id="a_node4"><a xlink:href="class_net_1_1_protocols_1_1_p_i_d_f___l_o_1_1_geodetic.html" target="_top" xlink:title="Net.Protocols.PIDF\l_LO.Geodetic">
<polygon fill="none" stroke="black" points="228.5,-0 228.5,-30 323.5,-30 323.5,-0 228.5,-0"/>
<text text-anchor="start" x="236.5" y="-18" font-family="Helvetica,sans-Serif" font-size="10.00">Net.Protocols.PIDF</text>
<text text-anchor="middle" x="276" y="-7" font-family="Helvetica,sans-Serif" font-size="10.00">_LO.Geodetic</text>
</a>
</g>
</g>
<!-- Node2&#45;&gt;Node4 -->
<g id="edge3" class="edge"><title>Node2&#45;&gt;Node4</title>
<path fill="none" stroke="midnightblue" d="M201.533,-28.5631C210.477,-26.912 219.637,-25.2208 228.322,-23.6174"/>
<polygon fill="midnightblue" stroke="midnightblue" points="200.764,-25.1458 191.566,-30.4032 202.035,-32.0295 200.764,-25.1458"/>
</g>
</g>
</svg>
